M48
; DRILL file {KiCad 7.0.10} date Fri Feb 21 18:16:46 2025
; FORMAT={-:-/ absolute / metric / decimal}
; #@! TF.CreationDate,2025-02-21T18:16:46-05:00
; #@! TF.GenerationSoftware,Kicad,Pcbnew,7.0.10
; #@! TF.FileFunction,Plated,1,2,PTH
FMAT,2
METRIC
; #@! TA.AperFunction,Plated,PTH,ViaDrill
T1C0.400
; #@! TA.AperFunction,Plated,PTH,ComponentDrill
T2C0.920
; #@! TA.AperFunction,Plated,PTH,ComponentDrill
T3C0.991
; #@! TA.AperFunction,Plated,PTH,ComponentDrill
T4C1.000
; #@! TA.AperFunction,Plated,PTH,ComponentDrill
T5C1.020
%
G90
G05
T1
X116.5Y-103.5
X119.0Y-80.5
X119.0Y-83.0
X131.5Y-80.5
X133.5Y-83.0
X133.5Y-84.5
X133.5Y-86.0
X135.75Y-79.0
X139.5Y-86.5
X139.5Y-88.0
X140.5Y-82.0
X140.5Y-83.5
X140.5Y-85.0
X142.5Y-93.5
X150.75Y-96.0
X153.0Y-83.5
X153.0Y-85.0
X153.0Y-89.5
T2
X117.23Y-97.5
X119.77Y-97.5
X126.46Y-97.5
X129.0Y-97.5
T3
X136.0Y-96.0
X136.0Y-100.5
X142.5Y-96.0
X142.5Y-100.5
X148.604Y-95.98
X148.604Y-100.48
X155.104Y-95.98
X155.104Y-100.48
T4
X131.725Y-107.0
X134.265Y-107.0
T5
X162.75Y-90.75
X162.75Y-93.29
X162.75Y-95.83
X162.75Y-98.37
X163.25Y-79.25
X163.25Y-81.79
X163.25Y-84.33
X163.25Y-86.87
M30
