%TF.GenerationSoftware,KiCad,Pcbnew,7.0.10*%
%TF.CreationDate,2025-02-21T18:16:47-05:00*%
%TF.ProjectId,pcb_v2,7063625f-7632-42e6-9b69-6361645f7063,rev?*%
%TF.SameCoordinates,Original*%
%TF.FileFunction,Drillmap*%
%TF.FilePolarity,Positive*%
%FSLAX45Y45*%
G04 Gerber Fmt 4.5, Leading zero omitted, Abs format (unit mm)*
G04 Created by KiCad (PCBNEW 7.0.10) date 2025-02-21 18:16:47*
%MOMM*%
%LPD*%
G01*
G04 APERTURE LIST*
%ADD10C,0.100000*%
%ADD11C,0.200000*%
%ADD12C,0.102000*%
G04 APERTURE END LIST*
D10*
X11355000Y-7679000D02*
X16755000Y-7679000D01*
X16755000Y-11104000D01*
X11355000Y-11104000D01*
X11355000Y-7679000D01*
D11*
D10*
X11630000Y-10330000D02*
X11670000Y-10370000D01*
X11670000Y-10330000D02*
X11630000Y-10370000D01*
X11880000Y-8030000D02*
X11920000Y-8070000D01*
X11920000Y-8030000D02*
X11880000Y-8070000D01*
X11880000Y-8280000D02*
X11920000Y-8320000D01*
X11920000Y-8280000D02*
X11880000Y-8320000D01*
X13130000Y-8030000D02*
X13170000Y-8070000D01*
X13170000Y-8030000D02*
X13130000Y-8070000D01*
X13330000Y-8280000D02*
X13370000Y-8320000D01*
X13370000Y-8280000D02*
X13330000Y-8320000D01*
X13330000Y-8430000D02*
X13370000Y-8470000D01*
X13370000Y-8430000D02*
X13330000Y-8470000D01*
X13330000Y-8580000D02*
X13370000Y-8620000D01*
X13370000Y-8580000D02*
X13330000Y-8620000D01*
X13555000Y-7880000D02*
X13595000Y-7920000D01*
X13595000Y-7880000D02*
X13555000Y-7920000D01*
X13930000Y-8630000D02*
X13970000Y-8670000D01*
X13970000Y-8630000D02*
X13930000Y-8670000D01*
X13930000Y-8780000D02*
X13970000Y-8820000D01*
X13970000Y-8780000D02*
X13930000Y-8820000D01*
X14030000Y-8180000D02*
X14070000Y-8220000D01*
X14070000Y-8180000D02*
X14030000Y-8220000D01*
X14030000Y-8330000D02*
X14070000Y-8370000D01*
X14070000Y-8330000D02*
X14030000Y-8370000D01*
X14030000Y-8480000D02*
X14070000Y-8520000D01*
X14070000Y-8480000D02*
X14030000Y-8520000D01*
X14230000Y-9330000D02*
X14270000Y-9370000D01*
X14270000Y-9330000D02*
X14230000Y-9370000D01*
X15055000Y-9580000D02*
X15095000Y-9620000D01*
X15095000Y-9580000D02*
X15055000Y-9620000D01*
X15280000Y-8330000D02*
X15320000Y-8370000D01*
X15320000Y-8330000D02*
X15280000Y-8370000D01*
X15280000Y-8480000D02*
X15320000Y-8520000D01*
X15320000Y-8480000D02*
X15280000Y-8520000D01*
X15280000Y-8930000D02*
X15320000Y-8970000D01*
X15320000Y-8930000D02*
X15280000Y-8970000D01*
X11769000Y-9750000D02*
G75*
G03*
X11677000Y-9750000I-46000J0D01*
G01*
X11677000Y-9750000D02*
G75*
G03*
X11769000Y-9750000I46000J0D01*
G01*
X12023000Y-9750000D02*
G75*
G03*
X11931000Y-9750000I-46000J0D01*
G01*
X11931000Y-9750000D02*
G75*
G03*
X12023000Y-9750000I46000J0D01*
G01*
X12692000Y-9750000D02*
G75*
G03*
X12600000Y-9750000I-46000J0D01*
G01*
X12600000Y-9750000D02*
G75*
G03*
X12692000Y-9750000I46000J0D01*
G01*
X12946000Y-9750000D02*
G75*
G03*
X12854000Y-9750000I-46000J0D01*
G01*
X12854000Y-9750000D02*
G75*
G03*
X12946000Y-9750000I46000J0D01*
G01*
X13600000Y-9550470D02*
X13600000Y-9649530D01*
X13550470Y-9600000D02*
X13649530Y-9600000D01*
X13600000Y-10000470D02*
X13600000Y-10099530D01*
X13550470Y-10050000D02*
X13649530Y-10050000D01*
X14250000Y-9550470D02*
X14250000Y-9649530D01*
X14200470Y-9600000D02*
X14299530Y-9600000D01*
X14250000Y-10000470D02*
X14250000Y-10099530D01*
X14200470Y-10050000D02*
X14299530Y-10050000D01*
X14860385Y-9548495D02*
X14860385Y-9647555D01*
X14810855Y-9598025D02*
X14909915Y-9598025D01*
X14860385Y-9998495D02*
X14860385Y-10097555D01*
X14810855Y-10048025D02*
X14909915Y-10048025D01*
X15510385Y-9548495D02*
X15510385Y-9647555D01*
X15460855Y-9598025D02*
X15559915Y-9598025D01*
X15510385Y-9998495D02*
X15510385Y-10097555D01*
X15460855Y-10048025D02*
X15559915Y-10048025D01*
X13207856Y-10735356D02*
X13207856Y-10664644D01*
X13137144Y-10664644D01*
X13137144Y-10735356D01*
X13207856Y-10735356D01*
X13461856Y-10735356D02*
X13461856Y-10664644D01*
X13391144Y-10664644D01*
X13391144Y-10735356D01*
X13461856Y-10735356D01*
D12*
X16275000Y-9126000D02*
X16326000Y-9075000D01*
X16275000Y-9024000D01*
X16224000Y-9075000D01*
X16275000Y-9126000D01*
X16275000Y-9380000D02*
X16326000Y-9329000D01*
X16275000Y-9278000D01*
X16224000Y-9329000D01*
X16275000Y-9380000D01*
X16275000Y-9634000D02*
X16326000Y-9583000D01*
X16275000Y-9532000D01*
X16224000Y-9583000D01*
X16275000Y-9634000D01*
X16275000Y-9888000D02*
X16326000Y-9837000D01*
X16275000Y-9786000D01*
X16224000Y-9837000D01*
X16275000Y-9888000D01*
X16325000Y-7976000D02*
X16376000Y-7925000D01*
X16325000Y-7874000D01*
X16274000Y-7925000D01*
X16325000Y-7976000D01*
X16325000Y-8230000D02*
X16376000Y-8179000D01*
X16325000Y-8128000D01*
X16274000Y-8179000D01*
X16325000Y-8230000D01*
X16325000Y-8484000D02*
X16376000Y-8433000D01*
X16325000Y-8382000D01*
X16274000Y-8433000D01*
X16325000Y-8484000D01*
X16325000Y-8738000D02*
X16376000Y-8687000D01*
X16325000Y-8636000D01*
X16274000Y-8687000D01*
X16325000Y-8738000D01*
D11*
X11610777Y-11420484D02*
X11610777Y-11220484D01*
X11610777Y-11220484D02*
X11658396Y-11220484D01*
X11658396Y-11220484D02*
X11686967Y-11230008D01*
X11686967Y-11230008D02*
X11706015Y-11249055D01*
X11706015Y-11249055D02*
X11715539Y-11268103D01*
X11715539Y-11268103D02*
X11725062Y-11306198D01*
X11725062Y-11306198D02*
X11725062Y-11334769D01*
X11725062Y-11334769D02*
X11715539Y-11372865D01*
X11715539Y-11372865D02*
X11706015Y-11391912D01*
X11706015Y-11391912D02*
X11686967Y-11410960D01*
X11686967Y-11410960D02*
X11658396Y-11420484D01*
X11658396Y-11420484D02*
X11610777Y-11420484D01*
X11810777Y-11420484D02*
X11810777Y-11287150D01*
X11810777Y-11325246D02*
X11820301Y-11306198D01*
X11820301Y-11306198D02*
X11829824Y-11296674D01*
X11829824Y-11296674D02*
X11848872Y-11287150D01*
X11848872Y-11287150D02*
X11867920Y-11287150D01*
X11934586Y-11420484D02*
X11934586Y-11287150D01*
X11934586Y-11220484D02*
X11925062Y-11230008D01*
X11925062Y-11230008D02*
X11934586Y-11239531D01*
X11934586Y-11239531D02*
X11944110Y-11230008D01*
X11944110Y-11230008D02*
X11934586Y-11220484D01*
X11934586Y-11220484D02*
X11934586Y-11239531D01*
X12058396Y-11420484D02*
X12039348Y-11410960D01*
X12039348Y-11410960D02*
X12029824Y-11391912D01*
X12029824Y-11391912D02*
X12029824Y-11220484D01*
X12163158Y-11420484D02*
X12144110Y-11410960D01*
X12144110Y-11410960D02*
X12134586Y-11391912D01*
X12134586Y-11391912D02*
X12134586Y-11220484D01*
X12391729Y-11420484D02*
X12391729Y-11220484D01*
X12391729Y-11220484D02*
X12458396Y-11363341D01*
X12458396Y-11363341D02*
X12525062Y-11220484D01*
X12525062Y-11220484D02*
X12525062Y-11420484D01*
X12706015Y-11420484D02*
X12706015Y-11315722D01*
X12706015Y-11315722D02*
X12696491Y-11296674D01*
X12696491Y-11296674D02*
X12677443Y-11287150D01*
X12677443Y-11287150D02*
X12639348Y-11287150D01*
X12639348Y-11287150D02*
X12620301Y-11296674D01*
X12706015Y-11410960D02*
X12686967Y-11420484D01*
X12686967Y-11420484D02*
X12639348Y-11420484D01*
X12639348Y-11420484D02*
X12620301Y-11410960D01*
X12620301Y-11410960D02*
X12610777Y-11391912D01*
X12610777Y-11391912D02*
X12610777Y-11372865D01*
X12610777Y-11372865D02*
X12620301Y-11353817D01*
X12620301Y-11353817D02*
X12639348Y-11344293D01*
X12639348Y-11344293D02*
X12686967Y-11344293D01*
X12686967Y-11344293D02*
X12706015Y-11334769D01*
X12801253Y-11287150D02*
X12801253Y-11487150D01*
X12801253Y-11296674D02*
X12820301Y-11287150D01*
X12820301Y-11287150D02*
X12858396Y-11287150D01*
X12858396Y-11287150D02*
X12877443Y-11296674D01*
X12877443Y-11296674D02*
X12886967Y-11306198D01*
X12886967Y-11306198D02*
X12896491Y-11325246D01*
X12896491Y-11325246D02*
X12896491Y-11382388D01*
X12896491Y-11382388D02*
X12886967Y-11401436D01*
X12886967Y-11401436D02*
X12877443Y-11410960D01*
X12877443Y-11410960D02*
X12858396Y-11420484D01*
X12858396Y-11420484D02*
X12820301Y-11420484D01*
X12820301Y-11420484D02*
X12801253Y-11410960D01*
X12982205Y-11401436D02*
X12991729Y-11410960D01*
X12991729Y-11410960D02*
X12982205Y-11420484D01*
X12982205Y-11420484D02*
X12972682Y-11410960D01*
X12972682Y-11410960D02*
X12982205Y-11401436D01*
X12982205Y-11401436D02*
X12982205Y-11420484D01*
X12982205Y-11296674D02*
X12991729Y-11306198D01*
X12991729Y-11306198D02*
X12982205Y-11315722D01*
X12982205Y-11315722D02*
X12972682Y-11306198D01*
X12972682Y-11306198D02*
X12982205Y-11296674D01*
X12982205Y-11296674D02*
X12982205Y-11315722D01*
D10*
X11310000Y-11729000D02*
X11350000Y-11769000D01*
X11350000Y-11729000D02*
X11310000Y-11769000D01*
D11*
X11648872Y-11640484D02*
X11667920Y-11640484D01*
X11667920Y-11640484D02*
X11686967Y-11650008D01*
X11686967Y-11650008D02*
X11696491Y-11659531D01*
X11696491Y-11659531D02*
X11706015Y-11678579D01*
X11706015Y-11678579D02*
X11715539Y-11716674D01*
X11715539Y-11716674D02*
X11715539Y-11764293D01*
X11715539Y-11764293D02*
X11706015Y-11802388D01*
X11706015Y-11802388D02*
X11696491Y-11821436D01*
X11696491Y-11821436D02*
X11686967Y-11830960D01*
X11686967Y-11830960D02*
X11667920Y-11840484D01*
X11667920Y-11840484D02*
X11648872Y-11840484D01*
X11648872Y-11840484D02*
X11629824Y-11830960D01*
X11629824Y-11830960D02*
X11620301Y-11821436D01*
X11620301Y-11821436D02*
X11610777Y-11802388D01*
X11610777Y-11802388D02*
X11601253Y-11764293D01*
X11601253Y-11764293D02*
X11601253Y-11716674D01*
X11601253Y-11716674D02*
X11610777Y-11678579D01*
X11610777Y-11678579D02*
X11620301Y-11659531D01*
X11620301Y-11659531D02*
X11629824Y-11650008D01*
X11629824Y-11650008D02*
X11648872Y-11640484D01*
X11801253Y-11821436D02*
X11810777Y-11830960D01*
X11810777Y-11830960D02*
X11801253Y-11840484D01*
X11801253Y-11840484D02*
X11791729Y-11830960D01*
X11791729Y-11830960D02*
X11801253Y-11821436D01*
X11801253Y-11821436D02*
X11801253Y-11840484D01*
X11982205Y-11707150D02*
X11982205Y-11840484D01*
X11934586Y-11630960D02*
X11886967Y-11773817D01*
X11886967Y-11773817D02*
X12010777Y-11773817D01*
X12125062Y-11640484D02*
X12144110Y-11640484D01*
X12144110Y-11640484D02*
X12163158Y-11650008D01*
X12163158Y-11650008D02*
X12172682Y-11659531D01*
X12172682Y-11659531D02*
X12182205Y-11678579D01*
X12182205Y-11678579D02*
X12191729Y-11716674D01*
X12191729Y-11716674D02*
X12191729Y-11764293D01*
X12191729Y-11764293D02*
X12182205Y-11802388D01*
X12182205Y-11802388D02*
X12172682Y-11821436D01*
X12172682Y-11821436D02*
X12163158Y-11830960D01*
X12163158Y-11830960D02*
X12144110Y-11840484D01*
X12144110Y-11840484D02*
X12125062Y-11840484D01*
X12125062Y-11840484D02*
X12106015Y-11830960D01*
X12106015Y-11830960D02*
X12096491Y-11821436D01*
X12096491Y-11821436D02*
X12086967Y-11802388D01*
X12086967Y-11802388D02*
X12077443Y-11764293D01*
X12077443Y-11764293D02*
X12077443Y-11716674D01*
X12077443Y-11716674D02*
X12086967Y-11678579D01*
X12086967Y-11678579D02*
X12096491Y-11659531D01*
X12096491Y-11659531D02*
X12106015Y-11650008D01*
X12106015Y-11650008D02*
X12125062Y-11640484D01*
X12315539Y-11640484D02*
X12334586Y-11640484D01*
X12334586Y-11640484D02*
X12353634Y-11650008D01*
X12353634Y-11650008D02*
X12363158Y-11659531D01*
X12363158Y-11659531D02*
X12372682Y-11678579D01*
X12372682Y-11678579D02*
X12382205Y-11716674D01*
X12382205Y-11716674D02*
X12382205Y-11764293D01*
X12382205Y-11764293D02*
X12372682Y-11802388D01*
X12372682Y-11802388D02*
X12363158Y-11821436D01*
X12363158Y-11821436D02*
X12353634Y-11830960D01*
X12353634Y-11830960D02*
X12334586Y-11840484D01*
X12334586Y-11840484D02*
X12315539Y-11840484D01*
X12315539Y-11840484D02*
X12296491Y-11830960D01*
X12296491Y-11830960D02*
X12286967Y-11821436D01*
X12286967Y-11821436D02*
X12277443Y-11802388D01*
X12277443Y-11802388D02*
X12267920Y-11764293D01*
X12267920Y-11764293D02*
X12267920Y-11716674D01*
X12267920Y-11716674D02*
X12277443Y-11678579D01*
X12277443Y-11678579D02*
X12286967Y-11659531D01*
X12286967Y-11659531D02*
X12296491Y-11650008D01*
X12296491Y-11650008D02*
X12315539Y-11640484D01*
X12467920Y-11840484D02*
X12467920Y-11707150D01*
X12467920Y-11726198D02*
X12477443Y-11716674D01*
X12477443Y-11716674D02*
X12496491Y-11707150D01*
X12496491Y-11707150D02*
X12525063Y-11707150D01*
X12525063Y-11707150D02*
X12544110Y-11716674D01*
X12544110Y-11716674D02*
X12553634Y-11735722D01*
X12553634Y-11735722D02*
X12553634Y-11840484D01*
X12553634Y-11735722D02*
X12563158Y-11716674D01*
X12563158Y-11716674D02*
X12582205Y-11707150D01*
X12582205Y-11707150D02*
X12610777Y-11707150D01*
X12610777Y-11707150D02*
X12629824Y-11716674D01*
X12629824Y-11716674D02*
X12639348Y-11735722D01*
X12639348Y-11735722D02*
X12639348Y-11840484D01*
X12734586Y-11840484D02*
X12734586Y-11707150D01*
X12734586Y-11726198D02*
X12744110Y-11716674D01*
X12744110Y-11716674D02*
X12763158Y-11707150D01*
X12763158Y-11707150D02*
X12791729Y-11707150D01*
X12791729Y-11707150D02*
X12810777Y-11716674D01*
X12810777Y-11716674D02*
X12820301Y-11735722D01*
X12820301Y-11735722D02*
X12820301Y-11840484D01*
X12820301Y-11735722D02*
X12829824Y-11716674D01*
X12829824Y-11716674D02*
X12848872Y-11707150D01*
X12848872Y-11707150D02*
X12877443Y-11707150D01*
X12877443Y-11707150D02*
X12896491Y-11716674D01*
X12896491Y-11716674D02*
X12906015Y-11735722D01*
X12906015Y-11735722D02*
X12906015Y-11840484D01*
X13296491Y-11630960D02*
X13125063Y-11888103D01*
X13553634Y-11640484D02*
X13572682Y-11640484D01*
X13572682Y-11640484D02*
X13591729Y-11650008D01*
X13591729Y-11650008D02*
X13601253Y-11659531D01*
X13601253Y-11659531D02*
X13610777Y-11678579D01*
X13610777Y-11678579D02*
X13620301Y-11716674D01*
X13620301Y-11716674D02*
X13620301Y-11764293D01*
X13620301Y-11764293D02*
X13610777Y-11802388D01*
X13610777Y-11802388D02*
X13601253Y-11821436D01*
X13601253Y-11821436D02*
X13591729Y-11830960D01*
X13591729Y-11830960D02*
X13572682Y-11840484D01*
X13572682Y-11840484D02*
X13553634Y-11840484D01*
X13553634Y-11840484D02*
X13534586Y-11830960D01*
X13534586Y-11830960D02*
X13525063Y-11821436D01*
X13525063Y-11821436D02*
X13515539Y-11802388D01*
X13515539Y-11802388D02*
X13506015Y-11764293D01*
X13506015Y-11764293D02*
X13506015Y-11716674D01*
X13506015Y-11716674D02*
X13515539Y-11678579D01*
X13515539Y-11678579D02*
X13525063Y-11659531D01*
X13525063Y-11659531D02*
X13534586Y-11650008D01*
X13534586Y-11650008D02*
X13553634Y-11640484D01*
X13706015Y-11821436D02*
X13715539Y-11830960D01*
X13715539Y-11830960D02*
X13706015Y-11840484D01*
X13706015Y-11840484D02*
X13696491Y-11830960D01*
X13696491Y-11830960D02*
X13706015Y-11821436D01*
X13706015Y-11821436D02*
X13706015Y-11840484D01*
X13839348Y-11640484D02*
X13858396Y-11640484D01*
X13858396Y-11640484D02*
X13877444Y-11650008D01*
X13877444Y-11650008D02*
X13886967Y-11659531D01*
X13886967Y-11659531D02*
X13896491Y-11678579D01*
X13896491Y-11678579D02*
X13906015Y-11716674D01*
X13906015Y-11716674D02*
X13906015Y-11764293D01*
X13906015Y-11764293D02*
X13896491Y-11802388D01*
X13896491Y-11802388D02*
X13886967Y-11821436D01*
X13886967Y-11821436D02*
X13877444Y-11830960D01*
X13877444Y-11830960D02*
X13858396Y-11840484D01*
X13858396Y-11840484D02*
X13839348Y-11840484D01*
X13839348Y-11840484D02*
X13820301Y-11830960D01*
X13820301Y-11830960D02*
X13810777Y-11821436D01*
X13810777Y-11821436D02*
X13801253Y-11802388D01*
X13801253Y-11802388D02*
X13791729Y-11764293D01*
X13791729Y-11764293D02*
X13791729Y-11716674D01*
X13791729Y-11716674D02*
X13801253Y-11678579D01*
X13801253Y-11678579D02*
X13810777Y-11659531D01*
X13810777Y-11659531D02*
X13820301Y-11650008D01*
X13820301Y-11650008D02*
X13839348Y-11640484D01*
X14096491Y-11840484D02*
X13982206Y-11840484D01*
X14039348Y-11840484D02*
X14039348Y-11640484D01*
X14039348Y-11640484D02*
X14020301Y-11669055D01*
X14020301Y-11669055D02*
X14001253Y-11688103D01*
X14001253Y-11688103D02*
X13982206Y-11697627D01*
X14277444Y-11640484D02*
X14182206Y-11640484D01*
X14182206Y-11640484D02*
X14172682Y-11735722D01*
X14172682Y-11735722D02*
X14182206Y-11726198D01*
X14182206Y-11726198D02*
X14201253Y-11716674D01*
X14201253Y-11716674D02*
X14248872Y-11716674D01*
X14248872Y-11716674D02*
X14267920Y-11726198D01*
X14267920Y-11726198D02*
X14277444Y-11735722D01*
X14277444Y-11735722D02*
X14286967Y-11754769D01*
X14286967Y-11754769D02*
X14286967Y-11802388D01*
X14286967Y-11802388D02*
X14277444Y-11821436D01*
X14277444Y-11821436D02*
X14267920Y-11830960D01*
X14267920Y-11830960D02*
X14248872Y-11840484D01*
X14248872Y-11840484D02*
X14201253Y-11840484D01*
X14201253Y-11840484D02*
X14182206Y-11830960D01*
X14182206Y-11830960D02*
X14172682Y-11821436D01*
X14353634Y-11640484D02*
X14486967Y-11640484D01*
X14486967Y-11640484D02*
X14401253Y-11840484D01*
X14553634Y-11640484D02*
X14553634Y-11678579D01*
X14629825Y-11640484D02*
X14629825Y-11678579D01*
X14925063Y-11916674D02*
X14915539Y-11907150D01*
X14915539Y-11907150D02*
X14896491Y-11878579D01*
X14896491Y-11878579D02*
X14886968Y-11859531D01*
X14886968Y-11859531D02*
X14877444Y-11830960D01*
X14877444Y-11830960D02*
X14867920Y-11783341D01*
X14867920Y-11783341D02*
X14867920Y-11745246D01*
X14867920Y-11745246D02*
X14877444Y-11697627D01*
X14877444Y-11697627D02*
X14886968Y-11669055D01*
X14886968Y-11669055D02*
X14896491Y-11650008D01*
X14896491Y-11650008D02*
X14915539Y-11621436D01*
X14915539Y-11621436D02*
X14925063Y-11611912D01*
X15106015Y-11840484D02*
X14991729Y-11840484D01*
X15048872Y-11840484D02*
X15048872Y-11640484D01*
X15048872Y-11640484D02*
X15029825Y-11669055D01*
X15029825Y-11669055D02*
X15010777Y-11688103D01*
X15010777Y-11688103D02*
X14991729Y-11697627D01*
X15220301Y-11726198D02*
X15201253Y-11716674D01*
X15201253Y-11716674D02*
X15191729Y-11707150D01*
X15191729Y-11707150D02*
X15182206Y-11688103D01*
X15182206Y-11688103D02*
X15182206Y-11678579D01*
X15182206Y-11678579D02*
X15191729Y-11659531D01*
X15191729Y-11659531D02*
X15201253Y-11650008D01*
X15201253Y-11650008D02*
X15220301Y-11640484D01*
X15220301Y-11640484D02*
X15258396Y-11640484D01*
X15258396Y-11640484D02*
X15277444Y-11650008D01*
X15277444Y-11650008D02*
X15286968Y-11659531D01*
X15286968Y-11659531D02*
X15296491Y-11678579D01*
X15296491Y-11678579D02*
X15296491Y-11688103D01*
X15296491Y-11688103D02*
X15286968Y-11707150D01*
X15286968Y-11707150D02*
X15277444Y-11716674D01*
X15277444Y-11716674D02*
X15258396Y-11726198D01*
X15258396Y-11726198D02*
X15220301Y-11726198D01*
X15220301Y-11726198D02*
X15201253Y-11735722D01*
X15201253Y-11735722D02*
X15191729Y-11745246D01*
X15191729Y-11745246D02*
X15182206Y-11764293D01*
X15182206Y-11764293D02*
X15182206Y-11802388D01*
X15182206Y-11802388D02*
X15191729Y-11821436D01*
X15191729Y-11821436D02*
X15201253Y-11830960D01*
X15201253Y-11830960D02*
X15220301Y-11840484D01*
X15220301Y-11840484D02*
X15258396Y-11840484D01*
X15258396Y-11840484D02*
X15277444Y-11830960D01*
X15277444Y-11830960D02*
X15286968Y-11821436D01*
X15286968Y-11821436D02*
X15296491Y-11802388D01*
X15296491Y-11802388D02*
X15296491Y-11764293D01*
X15296491Y-11764293D02*
X15286968Y-11745246D01*
X15286968Y-11745246D02*
X15277444Y-11735722D01*
X15277444Y-11735722D02*
X15258396Y-11726198D01*
X15534587Y-11840484D02*
X15534587Y-11640484D01*
X15620301Y-11840484D02*
X15620301Y-11735722D01*
X15620301Y-11735722D02*
X15610777Y-11716674D01*
X15610777Y-11716674D02*
X15591730Y-11707150D01*
X15591730Y-11707150D02*
X15563158Y-11707150D01*
X15563158Y-11707150D02*
X15544110Y-11716674D01*
X15544110Y-11716674D02*
X15534587Y-11726198D01*
X15744110Y-11840484D02*
X15725063Y-11830960D01*
X15725063Y-11830960D02*
X15715539Y-11821436D01*
X15715539Y-11821436D02*
X15706015Y-11802388D01*
X15706015Y-11802388D02*
X15706015Y-11745246D01*
X15706015Y-11745246D02*
X15715539Y-11726198D01*
X15715539Y-11726198D02*
X15725063Y-11716674D01*
X15725063Y-11716674D02*
X15744110Y-11707150D01*
X15744110Y-11707150D02*
X15772682Y-11707150D01*
X15772682Y-11707150D02*
X15791730Y-11716674D01*
X15791730Y-11716674D02*
X15801253Y-11726198D01*
X15801253Y-11726198D02*
X15810777Y-11745246D01*
X15810777Y-11745246D02*
X15810777Y-11802388D01*
X15810777Y-11802388D02*
X15801253Y-11821436D01*
X15801253Y-11821436D02*
X15791730Y-11830960D01*
X15791730Y-11830960D02*
X15772682Y-11840484D01*
X15772682Y-11840484D02*
X15744110Y-11840484D01*
X15925063Y-11840484D02*
X15906015Y-11830960D01*
X15906015Y-11830960D02*
X15896491Y-11811912D01*
X15896491Y-11811912D02*
X15896491Y-11640484D01*
X16077444Y-11830960D02*
X16058396Y-11840484D01*
X16058396Y-11840484D02*
X16020301Y-11840484D01*
X16020301Y-11840484D02*
X16001253Y-11830960D01*
X16001253Y-11830960D02*
X15991730Y-11811912D01*
X15991730Y-11811912D02*
X15991730Y-11735722D01*
X15991730Y-11735722D02*
X16001253Y-11716674D01*
X16001253Y-11716674D02*
X16020301Y-11707150D01*
X16020301Y-11707150D02*
X16058396Y-11707150D01*
X16058396Y-11707150D02*
X16077444Y-11716674D01*
X16077444Y-11716674D02*
X16086968Y-11735722D01*
X16086968Y-11735722D02*
X16086968Y-11754769D01*
X16086968Y-11754769D02*
X15991730Y-11773817D01*
X16163158Y-11830960D02*
X16182206Y-11840484D01*
X16182206Y-11840484D02*
X16220301Y-11840484D01*
X16220301Y-11840484D02*
X16239349Y-11830960D01*
X16239349Y-11830960D02*
X16248872Y-11811912D01*
X16248872Y-11811912D02*
X16248872Y-11802388D01*
X16248872Y-11802388D02*
X16239349Y-11783341D01*
X16239349Y-11783341D02*
X16220301Y-11773817D01*
X16220301Y-11773817D02*
X16191730Y-11773817D01*
X16191730Y-11773817D02*
X16172682Y-11764293D01*
X16172682Y-11764293D02*
X16163158Y-11745246D01*
X16163158Y-11745246D02*
X16163158Y-11735722D01*
X16163158Y-11735722D02*
X16172682Y-11716674D01*
X16172682Y-11716674D02*
X16191730Y-11707150D01*
X16191730Y-11707150D02*
X16220301Y-11707150D01*
X16220301Y-11707150D02*
X16239349Y-11716674D01*
X16315539Y-11916674D02*
X16325063Y-11907150D01*
X16325063Y-11907150D02*
X16344111Y-11878579D01*
X16344111Y-11878579D02*
X16353634Y-11859531D01*
X16353634Y-11859531D02*
X16363158Y-11830960D01*
X16363158Y-11830960D02*
X16372682Y-11783341D01*
X16372682Y-11783341D02*
X16372682Y-11745246D01*
X16372682Y-11745246D02*
X16363158Y-11697627D01*
X16363158Y-11697627D02*
X16353634Y-11669055D01*
X16353634Y-11669055D02*
X16344111Y-11650008D01*
X16344111Y-11650008D02*
X16325063Y-11621436D01*
X16325063Y-11621436D02*
X16315539Y-11611912D01*
D10*
X11350000Y-12013000D02*
G75*
G03*
X11258000Y-12013000I-46000J0D01*
G01*
X11258000Y-12013000D02*
G75*
G03*
X11350000Y-12013000I46000J0D01*
G01*
D11*
X11648872Y-11904484D02*
X11667920Y-11904484D01*
X11667920Y-11904484D02*
X11686967Y-11914008D01*
X11686967Y-11914008D02*
X11696491Y-11923531D01*
X11696491Y-11923531D02*
X11706015Y-11942579D01*
X11706015Y-11942579D02*
X11715539Y-11980674D01*
X11715539Y-11980674D02*
X11715539Y-12028293D01*
X11715539Y-12028293D02*
X11706015Y-12066388D01*
X11706015Y-12066388D02*
X11696491Y-12085436D01*
X11696491Y-12085436D02*
X11686967Y-12094960D01*
X11686967Y-12094960D02*
X11667920Y-12104484D01*
X11667920Y-12104484D02*
X11648872Y-12104484D01*
X11648872Y-12104484D02*
X11629824Y-12094960D01*
X11629824Y-12094960D02*
X11620301Y-12085436D01*
X11620301Y-12085436D02*
X11610777Y-12066388D01*
X11610777Y-12066388D02*
X11601253Y-12028293D01*
X11601253Y-12028293D02*
X11601253Y-11980674D01*
X11601253Y-11980674D02*
X11610777Y-11942579D01*
X11610777Y-11942579D02*
X11620301Y-11923531D01*
X11620301Y-11923531D02*
X11629824Y-11914008D01*
X11629824Y-11914008D02*
X11648872Y-11904484D01*
X11801253Y-12085436D02*
X11810777Y-12094960D01*
X11810777Y-12094960D02*
X11801253Y-12104484D01*
X11801253Y-12104484D02*
X11791729Y-12094960D01*
X11791729Y-12094960D02*
X11801253Y-12085436D01*
X11801253Y-12085436D02*
X11801253Y-12104484D01*
X11906015Y-12104484D02*
X11944110Y-12104484D01*
X11944110Y-12104484D02*
X11963158Y-12094960D01*
X11963158Y-12094960D02*
X11972682Y-12085436D01*
X11972682Y-12085436D02*
X11991729Y-12056865D01*
X11991729Y-12056865D02*
X12001253Y-12018769D01*
X12001253Y-12018769D02*
X12001253Y-11942579D01*
X12001253Y-11942579D02*
X11991729Y-11923531D01*
X11991729Y-11923531D02*
X11982205Y-11914008D01*
X11982205Y-11914008D02*
X11963158Y-11904484D01*
X11963158Y-11904484D02*
X11925062Y-11904484D01*
X11925062Y-11904484D02*
X11906015Y-11914008D01*
X11906015Y-11914008D02*
X11896491Y-11923531D01*
X11896491Y-11923531D02*
X11886967Y-11942579D01*
X11886967Y-11942579D02*
X11886967Y-11990198D01*
X11886967Y-11990198D02*
X11896491Y-12009246D01*
X11896491Y-12009246D02*
X11906015Y-12018769D01*
X11906015Y-12018769D02*
X11925062Y-12028293D01*
X11925062Y-12028293D02*
X11963158Y-12028293D01*
X11963158Y-12028293D02*
X11982205Y-12018769D01*
X11982205Y-12018769D02*
X11991729Y-12009246D01*
X11991729Y-12009246D02*
X12001253Y-11990198D01*
X12077443Y-11923531D02*
X12086967Y-11914008D01*
X12086967Y-11914008D02*
X12106015Y-11904484D01*
X12106015Y-11904484D02*
X12153634Y-11904484D01*
X12153634Y-11904484D02*
X12172682Y-11914008D01*
X12172682Y-11914008D02*
X12182205Y-11923531D01*
X12182205Y-11923531D02*
X12191729Y-11942579D01*
X12191729Y-11942579D02*
X12191729Y-11961627D01*
X12191729Y-11961627D02*
X12182205Y-11990198D01*
X12182205Y-11990198D02*
X12067920Y-12104484D01*
X12067920Y-12104484D02*
X12191729Y-12104484D01*
X12315539Y-11904484D02*
X12334586Y-11904484D01*
X12334586Y-11904484D02*
X12353634Y-11914008D01*
X12353634Y-11914008D02*
X12363158Y-11923531D01*
X12363158Y-11923531D02*
X12372682Y-11942579D01*
X12372682Y-11942579D02*
X12382205Y-11980674D01*
X12382205Y-11980674D02*
X12382205Y-12028293D01*
X12382205Y-12028293D02*
X12372682Y-12066388D01*
X12372682Y-12066388D02*
X12363158Y-12085436D01*
X12363158Y-12085436D02*
X12353634Y-12094960D01*
X12353634Y-12094960D02*
X12334586Y-12104484D01*
X12334586Y-12104484D02*
X12315539Y-12104484D01*
X12315539Y-12104484D02*
X12296491Y-12094960D01*
X12296491Y-12094960D02*
X12286967Y-12085436D01*
X12286967Y-12085436D02*
X12277443Y-12066388D01*
X12277443Y-12066388D02*
X12267920Y-12028293D01*
X12267920Y-12028293D02*
X12267920Y-11980674D01*
X12267920Y-11980674D02*
X12277443Y-11942579D01*
X12277443Y-11942579D02*
X12286967Y-11923531D01*
X12286967Y-11923531D02*
X12296491Y-11914008D01*
X12296491Y-11914008D02*
X12315539Y-11904484D01*
X12467920Y-12104484D02*
X12467920Y-11971150D01*
X12467920Y-11990198D02*
X12477443Y-11980674D01*
X12477443Y-11980674D02*
X12496491Y-11971150D01*
X12496491Y-11971150D02*
X12525063Y-11971150D01*
X12525063Y-11971150D02*
X12544110Y-11980674D01*
X12544110Y-11980674D02*
X12553634Y-11999722D01*
X12553634Y-11999722D02*
X12553634Y-12104484D01*
X12553634Y-11999722D02*
X12563158Y-11980674D01*
X12563158Y-11980674D02*
X12582205Y-11971150D01*
X12582205Y-11971150D02*
X12610777Y-11971150D01*
X12610777Y-11971150D02*
X12629824Y-11980674D01*
X12629824Y-11980674D02*
X12639348Y-11999722D01*
X12639348Y-11999722D02*
X12639348Y-12104484D01*
X12734586Y-12104484D02*
X12734586Y-11971150D01*
X12734586Y-11990198D02*
X12744110Y-11980674D01*
X12744110Y-11980674D02*
X12763158Y-11971150D01*
X12763158Y-11971150D02*
X12791729Y-11971150D01*
X12791729Y-11971150D02*
X12810777Y-11980674D01*
X12810777Y-11980674D02*
X12820301Y-11999722D01*
X12820301Y-11999722D02*
X12820301Y-12104484D01*
X12820301Y-11999722D02*
X12829824Y-11980674D01*
X12829824Y-11980674D02*
X12848872Y-11971150D01*
X12848872Y-11971150D02*
X12877443Y-11971150D01*
X12877443Y-11971150D02*
X12896491Y-11980674D01*
X12896491Y-11980674D02*
X12906015Y-11999722D01*
X12906015Y-11999722D02*
X12906015Y-12104484D01*
X13296491Y-11894960D02*
X13125063Y-12152103D01*
X13553634Y-11904484D02*
X13572682Y-11904484D01*
X13572682Y-11904484D02*
X13591729Y-11914008D01*
X13591729Y-11914008D02*
X13601253Y-11923531D01*
X13601253Y-11923531D02*
X13610777Y-11942579D01*
X13610777Y-11942579D02*
X13620301Y-11980674D01*
X13620301Y-11980674D02*
X13620301Y-12028293D01*
X13620301Y-12028293D02*
X13610777Y-12066388D01*
X13610777Y-12066388D02*
X13601253Y-12085436D01*
X13601253Y-12085436D02*
X13591729Y-12094960D01*
X13591729Y-12094960D02*
X13572682Y-12104484D01*
X13572682Y-12104484D02*
X13553634Y-12104484D01*
X13553634Y-12104484D02*
X13534586Y-12094960D01*
X13534586Y-12094960D02*
X13525063Y-12085436D01*
X13525063Y-12085436D02*
X13515539Y-12066388D01*
X13515539Y-12066388D02*
X13506015Y-12028293D01*
X13506015Y-12028293D02*
X13506015Y-11980674D01*
X13506015Y-11980674D02*
X13515539Y-11942579D01*
X13515539Y-11942579D02*
X13525063Y-11923531D01*
X13525063Y-11923531D02*
X13534586Y-11914008D01*
X13534586Y-11914008D02*
X13553634Y-11904484D01*
X13706015Y-12085436D02*
X13715539Y-12094960D01*
X13715539Y-12094960D02*
X13706015Y-12104484D01*
X13706015Y-12104484D02*
X13696491Y-12094960D01*
X13696491Y-12094960D02*
X13706015Y-12085436D01*
X13706015Y-12085436D02*
X13706015Y-12104484D01*
X13839348Y-11904484D02*
X13858396Y-11904484D01*
X13858396Y-11904484D02*
X13877444Y-11914008D01*
X13877444Y-11914008D02*
X13886967Y-11923531D01*
X13886967Y-11923531D02*
X13896491Y-11942579D01*
X13896491Y-11942579D02*
X13906015Y-11980674D01*
X13906015Y-11980674D02*
X13906015Y-12028293D01*
X13906015Y-12028293D02*
X13896491Y-12066388D01*
X13896491Y-12066388D02*
X13886967Y-12085436D01*
X13886967Y-12085436D02*
X13877444Y-12094960D01*
X13877444Y-12094960D02*
X13858396Y-12104484D01*
X13858396Y-12104484D02*
X13839348Y-12104484D01*
X13839348Y-12104484D02*
X13820301Y-12094960D01*
X13820301Y-12094960D02*
X13810777Y-12085436D01*
X13810777Y-12085436D02*
X13801253Y-12066388D01*
X13801253Y-12066388D02*
X13791729Y-12028293D01*
X13791729Y-12028293D02*
X13791729Y-11980674D01*
X13791729Y-11980674D02*
X13801253Y-11942579D01*
X13801253Y-11942579D02*
X13810777Y-11923531D01*
X13810777Y-11923531D02*
X13820301Y-11914008D01*
X13820301Y-11914008D02*
X13839348Y-11904484D01*
X13972682Y-11904484D02*
X14096491Y-11904484D01*
X14096491Y-11904484D02*
X14029825Y-11980674D01*
X14029825Y-11980674D02*
X14058396Y-11980674D01*
X14058396Y-11980674D02*
X14077444Y-11990198D01*
X14077444Y-11990198D02*
X14086967Y-11999722D01*
X14086967Y-11999722D02*
X14096491Y-12018769D01*
X14096491Y-12018769D02*
X14096491Y-12066388D01*
X14096491Y-12066388D02*
X14086967Y-12085436D01*
X14086967Y-12085436D02*
X14077444Y-12094960D01*
X14077444Y-12094960D02*
X14058396Y-12104484D01*
X14058396Y-12104484D02*
X14001253Y-12104484D01*
X14001253Y-12104484D02*
X13982206Y-12094960D01*
X13982206Y-12094960D02*
X13972682Y-12085436D01*
X14267920Y-11904484D02*
X14229825Y-11904484D01*
X14229825Y-11904484D02*
X14210777Y-11914008D01*
X14210777Y-11914008D02*
X14201253Y-11923531D01*
X14201253Y-11923531D02*
X14182206Y-11952103D01*
X14182206Y-11952103D02*
X14172682Y-11990198D01*
X14172682Y-11990198D02*
X14172682Y-12066388D01*
X14172682Y-12066388D02*
X14182206Y-12085436D01*
X14182206Y-12085436D02*
X14191729Y-12094960D01*
X14191729Y-12094960D02*
X14210777Y-12104484D01*
X14210777Y-12104484D02*
X14248872Y-12104484D01*
X14248872Y-12104484D02*
X14267920Y-12094960D01*
X14267920Y-12094960D02*
X14277444Y-12085436D01*
X14277444Y-12085436D02*
X14286967Y-12066388D01*
X14286967Y-12066388D02*
X14286967Y-12018769D01*
X14286967Y-12018769D02*
X14277444Y-11999722D01*
X14277444Y-11999722D02*
X14267920Y-11990198D01*
X14267920Y-11990198D02*
X14248872Y-11980674D01*
X14248872Y-11980674D02*
X14210777Y-11980674D01*
X14210777Y-11980674D02*
X14191729Y-11990198D01*
X14191729Y-11990198D02*
X14182206Y-11999722D01*
X14182206Y-11999722D02*
X14172682Y-12018769D01*
X14363158Y-11923531D02*
X14372682Y-11914008D01*
X14372682Y-11914008D02*
X14391729Y-11904484D01*
X14391729Y-11904484D02*
X14439348Y-11904484D01*
X14439348Y-11904484D02*
X14458396Y-11914008D01*
X14458396Y-11914008D02*
X14467920Y-11923531D01*
X14467920Y-11923531D02*
X14477444Y-11942579D01*
X14477444Y-11942579D02*
X14477444Y-11961627D01*
X14477444Y-11961627D02*
X14467920Y-11990198D01*
X14467920Y-11990198D02*
X14353634Y-12104484D01*
X14353634Y-12104484D02*
X14477444Y-12104484D01*
X14553634Y-11904484D02*
X14553634Y-11942579D01*
X14629825Y-11904484D02*
X14629825Y-11942579D01*
X14925063Y-12180674D02*
X14915539Y-12171150D01*
X14915539Y-12171150D02*
X14896491Y-12142579D01*
X14896491Y-12142579D02*
X14886968Y-12123531D01*
X14886968Y-12123531D02*
X14877444Y-12094960D01*
X14877444Y-12094960D02*
X14867920Y-12047341D01*
X14867920Y-12047341D02*
X14867920Y-12009246D01*
X14867920Y-12009246D02*
X14877444Y-11961627D01*
X14877444Y-11961627D02*
X14886968Y-11933055D01*
X14886968Y-11933055D02*
X14896491Y-11914008D01*
X14896491Y-11914008D02*
X14915539Y-11885436D01*
X14915539Y-11885436D02*
X14925063Y-11875912D01*
X15086968Y-11971150D02*
X15086968Y-12104484D01*
X15039348Y-11894960D02*
X14991729Y-12037817D01*
X14991729Y-12037817D02*
X15115539Y-12037817D01*
X15344110Y-12104484D02*
X15344110Y-11904484D01*
X15429825Y-12104484D02*
X15429825Y-11999722D01*
X15429825Y-11999722D02*
X15420301Y-11980674D01*
X15420301Y-11980674D02*
X15401253Y-11971150D01*
X15401253Y-11971150D02*
X15372682Y-11971150D01*
X15372682Y-11971150D02*
X15353634Y-11980674D01*
X15353634Y-11980674D02*
X15344110Y-11990198D01*
X15553634Y-12104484D02*
X15534587Y-12094960D01*
X15534587Y-12094960D02*
X15525063Y-12085436D01*
X15525063Y-12085436D02*
X15515539Y-12066388D01*
X15515539Y-12066388D02*
X15515539Y-12009246D01*
X15515539Y-12009246D02*
X15525063Y-11990198D01*
X15525063Y-11990198D02*
X15534587Y-11980674D01*
X15534587Y-11980674D02*
X15553634Y-11971150D01*
X15553634Y-11971150D02*
X15582206Y-11971150D01*
X15582206Y-11971150D02*
X15601253Y-11980674D01*
X15601253Y-11980674D02*
X15610777Y-11990198D01*
X15610777Y-11990198D02*
X15620301Y-12009246D01*
X15620301Y-12009246D02*
X15620301Y-12066388D01*
X15620301Y-12066388D02*
X15610777Y-12085436D01*
X15610777Y-12085436D02*
X15601253Y-12094960D01*
X15601253Y-12094960D02*
X15582206Y-12104484D01*
X15582206Y-12104484D02*
X15553634Y-12104484D01*
X15734587Y-12104484D02*
X15715539Y-12094960D01*
X15715539Y-12094960D02*
X15706015Y-12075912D01*
X15706015Y-12075912D02*
X15706015Y-11904484D01*
X15886968Y-12094960D02*
X15867920Y-12104484D01*
X15867920Y-12104484D02*
X15829825Y-12104484D01*
X15829825Y-12104484D02*
X15810777Y-12094960D01*
X15810777Y-12094960D02*
X15801253Y-12075912D01*
X15801253Y-12075912D02*
X15801253Y-11999722D01*
X15801253Y-11999722D02*
X15810777Y-11980674D01*
X15810777Y-11980674D02*
X15829825Y-11971150D01*
X15829825Y-11971150D02*
X15867920Y-11971150D01*
X15867920Y-11971150D02*
X15886968Y-11980674D01*
X15886968Y-11980674D02*
X15896491Y-11999722D01*
X15896491Y-11999722D02*
X15896491Y-12018769D01*
X15896491Y-12018769D02*
X15801253Y-12037817D01*
X15972682Y-12094960D02*
X15991730Y-12104484D01*
X15991730Y-12104484D02*
X16029825Y-12104484D01*
X16029825Y-12104484D02*
X16048872Y-12094960D01*
X16048872Y-12094960D02*
X16058396Y-12075912D01*
X16058396Y-12075912D02*
X16058396Y-12066388D01*
X16058396Y-12066388D02*
X16048872Y-12047341D01*
X16048872Y-12047341D02*
X16029825Y-12037817D01*
X16029825Y-12037817D02*
X16001253Y-12037817D01*
X16001253Y-12037817D02*
X15982206Y-12028293D01*
X15982206Y-12028293D02*
X15972682Y-12009246D01*
X15972682Y-12009246D02*
X15972682Y-11999722D01*
X15972682Y-11999722D02*
X15982206Y-11980674D01*
X15982206Y-11980674D02*
X16001253Y-11971150D01*
X16001253Y-11971150D02*
X16029825Y-11971150D01*
X16029825Y-11971150D02*
X16048872Y-11980674D01*
X16125063Y-12180674D02*
X16134587Y-12171150D01*
X16134587Y-12171150D02*
X16153634Y-12142579D01*
X16153634Y-12142579D02*
X16163158Y-12123531D01*
X16163158Y-12123531D02*
X16172682Y-12094960D01*
X16172682Y-12094960D02*
X16182206Y-12047341D01*
X16182206Y-12047341D02*
X16182206Y-12009246D01*
X16182206Y-12009246D02*
X16172682Y-11961627D01*
X16172682Y-11961627D02*
X16163158Y-11933055D01*
X16163158Y-11933055D02*
X16153634Y-11914008D01*
X16153634Y-11914008D02*
X16134587Y-11885436D01*
X16134587Y-11885436D02*
X16125063Y-11875912D01*
D10*
X11300470Y-12227470D02*
X11300470Y-12326530D01*
X11250940Y-12277000D02*
X11350000Y-12277000D01*
D11*
X11648872Y-12168484D02*
X11667920Y-12168484D01*
X11667920Y-12168484D02*
X11686967Y-12178008D01*
X11686967Y-12178008D02*
X11696491Y-12187531D01*
X11696491Y-12187531D02*
X11706015Y-12206579D01*
X11706015Y-12206579D02*
X11715539Y-12244674D01*
X11715539Y-12244674D02*
X11715539Y-12292293D01*
X11715539Y-12292293D02*
X11706015Y-12330388D01*
X11706015Y-12330388D02*
X11696491Y-12349436D01*
X11696491Y-12349436D02*
X11686967Y-12358960D01*
X11686967Y-12358960D02*
X11667920Y-12368484D01*
X11667920Y-12368484D02*
X11648872Y-12368484D01*
X11648872Y-12368484D02*
X11629824Y-12358960D01*
X11629824Y-12358960D02*
X11620301Y-12349436D01*
X11620301Y-12349436D02*
X11610777Y-12330388D01*
X11610777Y-12330388D02*
X11601253Y-12292293D01*
X11601253Y-12292293D02*
X11601253Y-12244674D01*
X11601253Y-12244674D02*
X11610777Y-12206579D01*
X11610777Y-12206579D02*
X11620301Y-12187531D01*
X11620301Y-12187531D02*
X11629824Y-12178008D01*
X11629824Y-12178008D02*
X11648872Y-12168484D01*
X11801253Y-12349436D02*
X11810777Y-12358960D01*
X11810777Y-12358960D02*
X11801253Y-12368484D01*
X11801253Y-12368484D02*
X11791729Y-12358960D01*
X11791729Y-12358960D02*
X11801253Y-12349436D01*
X11801253Y-12349436D02*
X11801253Y-12368484D01*
X11906015Y-12368484D02*
X11944110Y-12368484D01*
X11944110Y-12368484D02*
X11963158Y-12358960D01*
X11963158Y-12358960D02*
X11972682Y-12349436D01*
X11972682Y-12349436D02*
X11991729Y-12320865D01*
X11991729Y-12320865D02*
X12001253Y-12282769D01*
X12001253Y-12282769D02*
X12001253Y-12206579D01*
X12001253Y-12206579D02*
X11991729Y-12187531D01*
X11991729Y-12187531D02*
X11982205Y-12178008D01*
X11982205Y-12178008D02*
X11963158Y-12168484D01*
X11963158Y-12168484D02*
X11925062Y-12168484D01*
X11925062Y-12168484D02*
X11906015Y-12178008D01*
X11906015Y-12178008D02*
X11896491Y-12187531D01*
X11896491Y-12187531D02*
X11886967Y-12206579D01*
X11886967Y-12206579D02*
X11886967Y-12254198D01*
X11886967Y-12254198D02*
X11896491Y-12273246D01*
X11896491Y-12273246D02*
X11906015Y-12282769D01*
X11906015Y-12282769D02*
X11925062Y-12292293D01*
X11925062Y-12292293D02*
X11963158Y-12292293D01*
X11963158Y-12292293D02*
X11982205Y-12282769D01*
X11982205Y-12282769D02*
X11991729Y-12273246D01*
X11991729Y-12273246D02*
X12001253Y-12254198D01*
X12096491Y-12368484D02*
X12134586Y-12368484D01*
X12134586Y-12368484D02*
X12153634Y-12358960D01*
X12153634Y-12358960D02*
X12163158Y-12349436D01*
X12163158Y-12349436D02*
X12182205Y-12320865D01*
X12182205Y-12320865D02*
X12191729Y-12282769D01*
X12191729Y-12282769D02*
X12191729Y-12206579D01*
X12191729Y-12206579D02*
X12182205Y-12187531D01*
X12182205Y-12187531D02*
X12172682Y-12178008D01*
X12172682Y-12178008D02*
X12153634Y-12168484D01*
X12153634Y-12168484D02*
X12115539Y-12168484D01*
X12115539Y-12168484D02*
X12096491Y-12178008D01*
X12096491Y-12178008D02*
X12086967Y-12187531D01*
X12086967Y-12187531D02*
X12077443Y-12206579D01*
X12077443Y-12206579D02*
X12077443Y-12254198D01*
X12077443Y-12254198D02*
X12086967Y-12273246D01*
X12086967Y-12273246D02*
X12096491Y-12282769D01*
X12096491Y-12282769D02*
X12115539Y-12292293D01*
X12115539Y-12292293D02*
X12153634Y-12292293D01*
X12153634Y-12292293D02*
X12172682Y-12282769D01*
X12172682Y-12282769D02*
X12182205Y-12273246D01*
X12182205Y-12273246D02*
X12191729Y-12254198D01*
X12382205Y-12368484D02*
X12267920Y-12368484D01*
X12325062Y-12368484D02*
X12325062Y-12168484D01*
X12325062Y-12168484D02*
X12306015Y-12197055D01*
X12306015Y-12197055D02*
X12286967Y-12216103D01*
X12286967Y-12216103D02*
X12267920Y-12225627D01*
X12467920Y-12368484D02*
X12467920Y-12235150D01*
X12467920Y-12254198D02*
X12477443Y-12244674D01*
X12477443Y-12244674D02*
X12496491Y-12235150D01*
X12496491Y-12235150D02*
X12525063Y-12235150D01*
X12525063Y-12235150D02*
X12544110Y-12244674D01*
X12544110Y-12244674D02*
X12553634Y-12263722D01*
X12553634Y-12263722D02*
X12553634Y-12368484D01*
X12553634Y-12263722D02*
X12563158Y-12244674D01*
X12563158Y-12244674D02*
X12582205Y-12235150D01*
X12582205Y-12235150D02*
X12610777Y-12235150D01*
X12610777Y-12235150D02*
X12629824Y-12244674D01*
X12629824Y-12244674D02*
X12639348Y-12263722D01*
X12639348Y-12263722D02*
X12639348Y-12368484D01*
X12734586Y-12368484D02*
X12734586Y-12235150D01*
X12734586Y-12254198D02*
X12744110Y-12244674D01*
X12744110Y-12244674D02*
X12763158Y-12235150D01*
X12763158Y-12235150D02*
X12791729Y-12235150D01*
X12791729Y-12235150D02*
X12810777Y-12244674D01*
X12810777Y-12244674D02*
X12820301Y-12263722D01*
X12820301Y-12263722D02*
X12820301Y-12368484D01*
X12820301Y-12263722D02*
X12829824Y-12244674D01*
X12829824Y-12244674D02*
X12848872Y-12235150D01*
X12848872Y-12235150D02*
X12877443Y-12235150D01*
X12877443Y-12235150D02*
X12896491Y-12244674D01*
X12896491Y-12244674D02*
X12906015Y-12263722D01*
X12906015Y-12263722D02*
X12906015Y-12368484D01*
X13296491Y-12158960D02*
X13125063Y-12416103D01*
X13553634Y-12168484D02*
X13572682Y-12168484D01*
X13572682Y-12168484D02*
X13591729Y-12178008D01*
X13591729Y-12178008D02*
X13601253Y-12187531D01*
X13601253Y-12187531D02*
X13610777Y-12206579D01*
X13610777Y-12206579D02*
X13620301Y-12244674D01*
X13620301Y-12244674D02*
X13620301Y-12292293D01*
X13620301Y-12292293D02*
X13610777Y-12330388D01*
X13610777Y-12330388D02*
X13601253Y-12349436D01*
X13601253Y-12349436D02*
X13591729Y-12358960D01*
X13591729Y-12358960D02*
X13572682Y-12368484D01*
X13572682Y-12368484D02*
X13553634Y-12368484D01*
X13553634Y-12368484D02*
X13534586Y-12358960D01*
X13534586Y-12358960D02*
X13525063Y-12349436D01*
X13525063Y-12349436D02*
X13515539Y-12330388D01*
X13515539Y-12330388D02*
X13506015Y-12292293D01*
X13506015Y-12292293D02*
X13506015Y-12244674D01*
X13506015Y-12244674D02*
X13515539Y-12206579D01*
X13515539Y-12206579D02*
X13525063Y-12187531D01*
X13525063Y-12187531D02*
X13534586Y-12178008D01*
X13534586Y-12178008D02*
X13553634Y-12168484D01*
X13706015Y-12349436D02*
X13715539Y-12358960D01*
X13715539Y-12358960D02*
X13706015Y-12368484D01*
X13706015Y-12368484D02*
X13696491Y-12358960D01*
X13696491Y-12358960D02*
X13706015Y-12349436D01*
X13706015Y-12349436D02*
X13706015Y-12368484D01*
X13839348Y-12168484D02*
X13858396Y-12168484D01*
X13858396Y-12168484D02*
X13877444Y-12178008D01*
X13877444Y-12178008D02*
X13886967Y-12187531D01*
X13886967Y-12187531D02*
X13896491Y-12206579D01*
X13896491Y-12206579D02*
X13906015Y-12244674D01*
X13906015Y-12244674D02*
X13906015Y-12292293D01*
X13906015Y-12292293D02*
X13896491Y-12330388D01*
X13896491Y-12330388D02*
X13886967Y-12349436D01*
X13886967Y-12349436D02*
X13877444Y-12358960D01*
X13877444Y-12358960D02*
X13858396Y-12368484D01*
X13858396Y-12368484D02*
X13839348Y-12368484D01*
X13839348Y-12368484D02*
X13820301Y-12358960D01*
X13820301Y-12358960D02*
X13810777Y-12349436D01*
X13810777Y-12349436D02*
X13801253Y-12330388D01*
X13801253Y-12330388D02*
X13791729Y-12292293D01*
X13791729Y-12292293D02*
X13791729Y-12244674D01*
X13791729Y-12244674D02*
X13801253Y-12206579D01*
X13801253Y-12206579D02*
X13810777Y-12187531D01*
X13810777Y-12187531D02*
X13820301Y-12178008D01*
X13820301Y-12178008D02*
X13839348Y-12168484D01*
X13972682Y-12168484D02*
X14096491Y-12168484D01*
X14096491Y-12168484D02*
X14029825Y-12244674D01*
X14029825Y-12244674D02*
X14058396Y-12244674D01*
X14058396Y-12244674D02*
X14077444Y-12254198D01*
X14077444Y-12254198D02*
X14086967Y-12263722D01*
X14086967Y-12263722D02*
X14096491Y-12282769D01*
X14096491Y-12282769D02*
X14096491Y-12330388D01*
X14096491Y-12330388D02*
X14086967Y-12349436D01*
X14086967Y-12349436D02*
X14077444Y-12358960D01*
X14077444Y-12358960D02*
X14058396Y-12368484D01*
X14058396Y-12368484D02*
X14001253Y-12368484D01*
X14001253Y-12368484D02*
X13982206Y-12358960D01*
X13982206Y-12358960D02*
X13972682Y-12349436D01*
X14191729Y-12368484D02*
X14229825Y-12368484D01*
X14229825Y-12368484D02*
X14248872Y-12358960D01*
X14248872Y-12358960D02*
X14258396Y-12349436D01*
X14258396Y-12349436D02*
X14277444Y-12320865D01*
X14277444Y-12320865D02*
X14286967Y-12282769D01*
X14286967Y-12282769D02*
X14286967Y-12206579D01*
X14286967Y-12206579D02*
X14277444Y-12187531D01*
X14277444Y-12187531D02*
X14267920Y-12178008D01*
X14267920Y-12178008D02*
X14248872Y-12168484D01*
X14248872Y-12168484D02*
X14210777Y-12168484D01*
X14210777Y-12168484D02*
X14191729Y-12178008D01*
X14191729Y-12178008D02*
X14182206Y-12187531D01*
X14182206Y-12187531D02*
X14172682Y-12206579D01*
X14172682Y-12206579D02*
X14172682Y-12254198D01*
X14172682Y-12254198D02*
X14182206Y-12273246D01*
X14182206Y-12273246D02*
X14191729Y-12282769D01*
X14191729Y-12282769D02*
X14210777Y-12292293D01*
X14210777Y-12292293D02*
X14248872Y-12292293D01*
X14248872Y-12292293D02*
X14267920Y-12282769D01*
X14267920Y-12282769D02*
X14277444Y-12273246D01*
X14277444Y-12273246D02*
X14286967Y-12254198D01*
X14410777Y-12168484D02*
X14429825Y-12168484D01*
X14429825Y-12168484D02*
X14448872Y-12178008D01*
X14448872Y-12178008D02*
X14458396Y-12187531D01*
X14458396Y-12187531D02*
X14467920Y-12206579D01*
X14467920Y-12206579D02*
X14477444Y-12244674D01*
X14477444Y-12244674D02*
X14477444Y-12292293D01*
X14477444Y-12292293D02*
X14467920Y-12330388D01*
X14467920Y-12330388D02*
X14458396Y-12349436D01*
X14458396Y-12349436D02*
X14448872Y-12358960D01*
X14448872Y-12358960D02*
X14429825Y-12368484D01*
X14429825Y-12368484D02*
X14410777Y-12368484D01*
X14410777Y-12368484D02*
X14391729Y-12358960D01*
X14391729Y-12358960D02*
X14382206Y-12349436D01*
X14382206Y-12349436D02*
X14372682Y-12330388D01*
X14372682Y-12330388D02*
X14363158Y-12292293D01*
X14363158Y-12292293D02*
X14363158Y-12244674D01*
X14363158Y-12244674D02*
X14372682Y-12206579D01*
X14372682Y-12206579D02*
X14382206Y-12187531D01*
X14382206Y-12187531D02*
X14391729Y-12178008D01*
X14391729Y-12178008D02*
X14410777Y-12168484D01*
X14553634Y-12168484D02*
X14553634Y-12206579D01*
X14629825Y-12168484D02*
X14629825Y-12206579D01*
X14925063Y-12444674D02*
X14915539Y-12435150D01*
X14915539Y-12435150D02*
X14896491Y-12406579D01*
X14896491Y-12406579D02*
X14886968Y-12387531D01*
X14886968Y-12387531D02*
X14877444Y-12358960D01*
X14877444Y-12358960D02*
X14867920Y-12311341D01*
X14867920Y-12311341D02*
X14867920Y-12273246D01*
X14867920Y-12273246D02*
X14877444Y-12225627D01*
X14877444Y-12225627D02*
X14886968Y-12197055D01*
X14886968Y-12197055D02*
X14896491Y-12178008D01*
X14896491Y-12178008D02*
X14915539Y-12149436D01*
X14915539Y-12149436D02*
X14925063Y-12139912D01*
X15029825Y-12254198D02*
X15010777Y-12244674D01*
X15010777Y-12244674D02*
X15001253Y-12235150D01*
X15001253Y-12235150D02*
X14991729Y-12216103D01*
X14991729Y-12216103D02*
X14991729Y-12206579D01*
X14991729Y-12206579D02*
X15001253Y-12187531D01*
X15001253Y-12187531D02*
X15010777Y-12178008D01*
X15010777Y-12178008D02*
X15029825Y-12168484D01*
X15029825Y-12168484D02*
X15067920Y-12168484D01*
X15067920Y-12168484D02*
X15086968Y-12178008D01*
X15086968Y-12178008D02*
X15096491Y-12187531D01*
X15096491Y-12187531D02*
X15106015Y-12206579D01*
X15106015Y-12206579D02*
X15106015Y-12216103D01*
X15106015Y-12216103D02*
X15096491Y-12235150D01*
X15096491Y-12235150D02*
X15086968Y-12244674D01*
X15086968Y-12244674D02*
X15067920Y-12254198D01*
X15067920Y-12254198D02*
X15029825Y-12254198D01*
X15029825Y-12254198D02*
X15010777Y-12263722D01*
X15010777Y-12263722D02*
X15001253Y-12273246D01*
X15001253Y-12273246D02*
X14991729Y-12292293D01*
X14991729Y-12292293D02*
X14991729Y-12330388D01*
X14991729Y-12330388D02*
X15001253Y-12349436D01*
X15001253Y-12349436D02*
X15010777Y-12358960D01*
X15010777Y-12358960D02*
X15029825Y-12368484D01*
X15029825Y-12368484D02*
X15067920Y-12368484D01*
X15067920Y-12368484D02*
X15086968Y-12358960D01*
X15086968Y-12358960D02*
X15096491Y-12349436D01*
X15096491Y-12349436D02*
X15106015Y-12330388D01*
X15106015Y-12330388D02*
X15106015Y-12292293D01*
X15106015Y-12292293D02*
X15096491Y-12273246D01*
X15096491Y-12273246D02*
X15086968Y-12263722D01*
X15086968Y-12263722D02*
X15067920Y-12254198D01*
X15344110Y-12368484D02*
X15344110Y-12168484D01*
X15429825Y-12368484D02*
X15429825Y-12263722D01*
X15429825Y-12263722D02*
X15420301Y-12244674D01*
X15420301Y-12244674D02*
X15401253Y-12235150D01*
X15401253Y-12235150D02*
X15372682Y-12235150D01*
X15372682Y-12235150D02*
X15353634Y-12244674D01*
X15353634Y-12244674D02*
X15344110Y-12254198D01*
X15553634Y-12368484D02*
X15534587Y-12358960D01*
X15534587Y-12358960D02*
X15525063Y-12349436D01*
X15525063Y-12349436D02*
X15515539Y-12330388D01*
X15515539Y-12330388D02*
X15515539Y-12273246D01*
X15515539Y-12273246D02*
X15525063Y-12254198D01*
X15525063Y-12254198D02*
X15534587Y-12244674D01*
X15534587Y-12244674D02*
X15553634Y-12235150D01*
X15553634Y-12235150D02*
X15582206Y-12235150D01*
X15582206Y-12235150D02*
X15601253Y-12244674D01*
X15601253Y-12244674D02*
X15610777Y-12254198D01*
X15610777Y-12254198D02*
X15620301Y-12273246D01*
X15620301Y-12273246D02*
X15620301Y-12330388D01*
X15620301Y-12330388D02*
X15610777Y-12349436D01*
X15610777Y-12349436D02*
X15601253Y-12358960D01*
X15601253Y-12358960D02*
X15582206Y-12368484D01*
X15582206Y-12368484D02*
X15553634Y-12368484D01*
X15734587Y-12368484D02*
X15715539Y-12358960D01*
X15715539Y-12358960D02*
X15706015Y-12339912D01*
X15706015Y-12339912D02*
X15706015Y-12168484D01*
X15886968Y-12358960D02*
X15867920Y-12368484D01*
X15867920Y-12368484D02*
X15829825Y-12368484D01*
X15829825Y-12368484D02*
X15810777Y-12358960D01*
X15810777Y-12358960D02*
X15801253Y-12339912D01*
X15801253Y-12339912D02*
X15801253Y-12263722D01*
X15801253Y-12263722D02*
X15810777Y-12244674D01*
X15810777Y-12244674D02*
X15829825Y-12235150D01*
X15829825Y-12235150D02*
X15867920Y-12235150D01*
X15867920Y-12235150D02*
X15886968Y-12244674D01*
X15886968Y-12244674D02*
X15896491Y-12263722D01*
X15896491Y-12263722D02*
X15896491Y-12282769D01*
X15896491Y-12282769D02*
X15801253Y-12301817D01*
X15972682Y-12358960D02*
X15991730Y-12368484D01*
X15991730Y-12368484D02*
X16029825Y-12368484D01*
X16029825Y-12368484D02*
X16048872Y-12358960D01*
X16048872Y-12358960D02*
X16058396Y-12339912D01*
X16058396Y-12339912D02*
X16058396Y-12330388D01*
X16058396Y-12330388D02*
X16048872Y-12311341D01*
X16048872Y-12311341D02*
X16029825Y-12301817D01*
X16029825Y-12301817D02*
X16001253Y-12301817D01*
X16001253Y-12301817D02*
X15982206Y-12292293D01*
X15982206Y-12292293D02*
X15972682Y-12273246D01*
X15972682Y-12273246D02*
X15972682Y-12263722D01*
X15972682Y-12263722D02*
X15982206Y-12244674D01*
X15982206Y-12244674D02*
X16001253Y-12235150D01*
X16001253Y-12235150D02*
X16029825Y-12235150D01*
X16029825Y-12235150D02*
X16048872Y-12244674D01*
X16125063Y-12444674D02*
X16134587Y-12435150D01*
X16134587Y-12435150D02*
X16153634Y-12406579D01*
X16153634Y-12406579D02*
X16163158Y-12387531D01*
X16163158Y-12387531D02*
X16172682Y-12358960D01*
X16172682Y-12358960D02*
X16182206Y-12311341D01*
X16182206Y-12311341D02*
X16182206Y-12273246D01*
X16182206Y-12273246D02*
X16172682Y-12225627D01*
X16172682Y-12225627D02*
X16163158Y-12197055D01*
X16163158Y-12197055D02*
X16153634Y-12178008D01*
X16153634Y-12178008D02*
X16134587Y-12149436D01*
X16134587Y-12149436D02*
X16125063Y-12139912D01*
D10*
X11335356Y-12576356D02*
X11335356Y-12505644D01*
X11264644Y-12505644D01*
X11264644Y-12576356D01*
X11335356Y-12576356D01*
D11*
X11715539Y-12632484D02*
X11601253Y-12632484D01*
X11658396Y-12632484D02*
X11658396Y-12432484D01*
X11658396Y-12432484D02*
X11639348Y-12461055D01*
X11639348Y-12461055D02*
X11620301Y-12480103D01*
X11620301Y-12480103D02*
X11601253Y-12489627D01*
X11801253Y-12613436D02*
X11810777Y-12622960D01*
X11810777Y-12622960D02*
X11801253Y-12632484D01*
X11801253Y-12632484D02*
X11791729Y-12622960D01*
X11791729Y-12622960D02*
X11801253Y-12613436D01*
X11801253Y-12613436D02*
X11801253Y-12632484D01*
X11934586Y-12432484D02*
X11953634Y-12432484D01*
X11953634Y-12432484D02*
X11972682Y-12442008D01*
X11972682Y-12442008D02*
X11982205Y-12451531D01*
X11982205Y-12451531D02*
X11991729Y-12470579D01*
X11991729Y-12470579D02*
X12001253Y-12508674D01*
X12001253Y-12508674D02*
X12001253Y-12556293D01*
X12001253Y-12556293D02*
X11991729Y-12594388D01*
X11991729Y-12594388D02*
X11982205Y-12613436D01*
X11982205Y-12613436D02*
X11972682Y-12622960D01*
X11972682Y-12622960D02*
X11953634Y-12632484D01*
X11953634Y-12632484D02*
X11934586Y-12632484D01*
X11934586Y-12632484D02*
X11915539Y-12622960D01*
X11915539Y-12622960D02*
X11906015Y-12613436D01*
X11906015Y-12613436D02*
X11896491Y-12594388D01*
X11896491Y-12594388D02*
X11886967Y-12556293D01*
X11886967Y-12556293D02*
X11886967Y-12508674D01*
X11886967Y-12508674D02*
X11896491Y-12470579D01*
X11896491Y-12470579D02*
X11906015Y-12451531D01*
X11906015Y-12451531D02*
X11915539Y-12442008D01*
X11915539Y-12442008D02*
X11934586Y-12432484D01*
X12125062Y-12432484D02*
X12144110Y-12432484D01*
X12144110Y-12432484D02*
X12163158Y-12442008D01*
X12163158Y-12442008D02*
X12172682Y-12451531D01*
X12172682Y-12451531D02*
X12182205Y-12470579D01*
X12182205Y-12470579D02*
X12191729Y-12508674D01*
X12191729Y-12508674D02*
X12191729Y-12556293D01*
X12191729Y-12556293D02*
X12182205Y-12594388D01*
X12182205Y-12594388D02*
X12172682Y-12613436D01*
X12172682Y-12613436D02*
X12163158Y-12622960D01*
X12163158Y-12622960D02*
X12144110Y-12632484D01*
X12144110Y-12632484D02*
X12125062Y-12632484D01*
X12125062Y-12632484D02*
X12106015Y-12622960D01*
X12106015Y-12622960D02*
X12096491Y-12613436D01*
X12096491Y-12613436D02*
X12086967Y-12594388D01*
X12086967Y-12594388D02*
X12077443Y-12556293D01*
X12077443Y-12556293D02*
X12077443Y-12508674D01*
X12077443Y-12508674D02*
X12086967Y-12470579D01*
X12086967Y-12470579D02*
X12096491Y-12451531D01*
X12096491Y-12451531D02*
X12106015Y-12442008D01*
X12106015Y-12442008D02*
X12125062Y-12432484D01*
X12315539Y-12432484D02*
X12334586Y-12432484D01*
X12334586Y-12432484D02*
X12353634Y-12442008D01*
X12353634Y-12442008D02*
X12363158Y-12451531D01*
X12363158Y-12451531D02*
X12372682Y-12470579D01*
X12372682Y-12470579D02*
X12382205Y-12508674D01*
X12382205Y-12508674D02*
X12382205Y-12556293D01*
X12382205Y-12556293D02*
X12372682Y-12594388D01*
X12372682Y-12594388D02*
X12363158Y-12613436D01*
X12363158Y-12613436D02*
X12353634Y-12622960D01*
X12353634Y-12622960D02*
X12334586Y-12632484D01*
X12334586Y-12632484D02*
X12315539Y-12632484D01*
X12315539Y-12632484D02*
X12296491Y-12622960D01*
X12296491Y-12622960D02*
X12286967Y-12613436D01*
X12286967Y-12613436D02*
X12277443Y-12594388D01*
X12277443Y-12594388D02*
X12267920Y-12556293D01*
X12267920Y-12556293D02*
X12267920Y-12508674D01*
X12267920Y-12508674D02*
X12277443Y-12470579D01*
X12277443Y-12470579D02*
X12286967Y-12451531D01*
X12286967Y-12451531D02*
X12296491Y-12442008D01*
X12296491Y-12442008D02*
X12315539Y-12432484D01*
X12467920Y-12632484D02*
X12467920Y-12499150D01*
X12467920Y-12518198D02*
X12477443Y-12508674D01*
X12477443Y-12508674D02*
X12496491Y-12499150D01*
X12496491Y-12499150D02*
X12525063Y-12499150D01*
X12525063Y-12499150D02*
X12544110Y-12508674D01*
X12544110Y-12508674D02*
X12553634Y-12527722D01*
X12553634Y-12527722D02*
X12553634Y-12632484D01*
X12553634Y-12527722D02*
X12563158Y-12508674D01*
X12563158Y-12508674D02*
X12582205Y-12499150D01*
X12582205Y-12499150D02*
X12610777Y-12499150D01*
X12610777Y-12499150D02*
X12629824Y-12508674D01*
X12629824Y-12508674D02*
X12639348Y-12527722D01*
X12639348Y-12527722D02*
X12639348Y-12632484D01*
X12734586Y-12632484D02*
X12734586Y-12499150D01*
X12734586Y-12518198D02*
X12744110Y-12508674D01*
X12744110Y-12508674D02*
X12763158Y-12499150D01*
X12763158Y-12499150D02*
X12791729Y-12499150D01*
X12791729Y-12499150D02*
X12810777Y-12508674D01*
X12810777Y-12508674D02*
X12820301Y-12527722D01*
X12820301Y-12527722D02*
X12820301Y-12632484D01*
X12820301Y-12527722D02*
X12829824Y-12508674D01*
X12829824Y-12508674D02*
X12848872Y-12499150D01*
X12848872Y-12499150D02*
X12877443Y-12499150D01*
X12877443Y-12499150D02*
X12896491Y-12508674D01*
X12896491Y-12508674D02*
X12906015Y-12527722D01*
X12906015Y-12527722D02*
X12906015Y-12632484D01*
X13296491Y-12422960D02*
X13125063Y-12680103D01*
X13553634Y-12432484D02*
X13572682Y-12432484D01*
X13572682Y-12432484D02*
X13591729Y-12442008D01*
X13591729Y-12442008D02*
X13601253Y-12451531D01*
X13601253Y-12451531D02*
X13610777Y-12470579D01*
X13610777Y-12470579D02*
X13620301Y-12508674D01*
X13620301Y-12508674D02*
X13620301Y-12556293D01*
X13620301Y-12556293D02*
X13610777Y-12594388D01*
X13610777Y-12594388D02*
X13601253Y-12613436D01*
X13601253Y-12613436D02*
X13591729Y-12622960D01*
X13591729Y-12622960D02*
X13572682Y-12632484D01*
X13572682Y-12632484D02*
X13553634Y-12632484D01*
X13553634Y-12632484D02*
X13534586Y-12622960D01*
X13534586Y-12622960D02*
X13525063Y-12613436D01*
X13525063Y-12613436D02*
X13515539Y-12594388D01*
X13515539Y-12594388D02*
X13506015Y-12556293D01*
X13506015Y-12556293D02*
X13506015Y-12508674D01*
X13506015Y-12508674D02*
X13515539Y-12470579D01*
X13515539Y-12470579D02*
X13525063Y-12451531D01*
X13525063Y-12451531D02*
X13534586Y-12442008D01*
X13534586Y-12442008D02*
X13553634Y-12432484D01*
X13706015Y-12613436D02*
X13715539Y-12622960D01*
X13715539Y-12622960D02*
X13706015Y-12632484D01*
X13706015Y-12632484D02*
X13696491Y-12622960D01*
X13696491Y-12622960D02*
X13706015Y-12613436D01*
X13706015Y-12613436D02*
X13706015Y-12632484D01*
X13839348Y-12432484D02*
X13858396Y-12432484D01*
X13858396Y-12432484D02*
X13877444Y-12442008D01*
X13877444Y-12442008D02*
X13886967Y-12451531D01*
X13886967Y-12451531D02*
X13896491Y-12470579D01*
X13896491Y-12470579D02*
X13906015Y-12508674D01*
X13906015Y-12508674D02*
X13906015Y-12556293D01*
X13906015Y-12556293D02*
X13896491Y-12594388D01*
X13896491Y-12594388D02*
X13886967Y-12613436D01*
X13886967Y-12613436D02*
X13877444Y-12622960D01*
X13877444Y-12622960D02*
X13858396Y-12632484D01*
X13858396Y-12632484D02*
X13839348Y-12632484D01*
X13839348Y-12632484D02*
X13820301Y-12622960D01*
X13820301Y-12622960D02*
X13810777Y-12613436D01*
X13810777Y-12613436D02*
X13801253Y-12594388D01*
X13801253Y-12594388D02*
X13791729Y-12556293D01*
X13791729Y-12556293D02*
X13791729Y-12508674D01*
X13791729Y-12508674D02*
X13801253Y-12470579D01*
X13801253Y-12470579D02*
X13810777Y-12451531D01*
X13810777Y-12451531D02*
X13820301Y-12442008D01*
X13820301Y-12442008D02*
X13839348Y-12432484D01*
X13972682Y-12432484D02*
X14096491Y-12432484D01*
X14096491Y-12432484D02*
X14029825Y-12508674D01*
X14029825Y-12508674D02*
X14058396Y-12508674D01*
X14058396Y-12508674D02*
X14077444Y-12518198D01*
X14077444Y-12518198D02*
X14086967Y-12527722D01*
X14086967Y-12527722D02*
X14096491Y-12546769D01*
X14096491Y-12546769D02*
X14096491Y-12594388D01*
X14096491Y-12594388D02*
X14086967Y-12613436D01*
X14086967Y-12613436D02*
X14077444Y-12622960D01*
X14077444Y-12622960D02*
X14058396Y-12632484D01*
X14058396Y-12632484D02*
X14001253Y-12632484D01*
X14001253Y-12632484D02*
X13982206Y-12622960D01*
X13982206Y-12622960D02*
X13972682Y-12613436D01*
X14191729Y-12632484D02*
X14229825Y-12632484D01*
X14229825Y-12632484D02*
X14248872Y-12622960D01*
X14248872Y-12622960D02*
X14258396Y-12613436D01*
X14258396Y-12613436D02*
X14277444Y-12584865D01*
X14277444Y-12584865D02*
X14286967Y-12546769D01*
X14286967Y-12546769D02*
X14286967Y-12470579D01*
X14286967Y-12470579D02*
X14277444Y-12451531D01*
X14277444Y-12451531D02*
X14267920Y-12442008D01*
X14267920Y-12442008D02*
X14248872Y-12432484D01*
X14248872Y-12432484D02*
X14210777Y-12432484D01*
X14210777Y-12432484D02*
X14191729Y-12442008D01*
X14191729Y-12442008D02*
X14182206Y-12451531D01*
X14182206Y-12451531D02*
X14172682Y-12470579D01*
X14172682Y-12470579D02*
X14172682Y-12518198D01*
X14172682Y-12518198D02*
X14182206Y-12537246D01*
X14182206Y-12537246D02*
X14191729Y-12546769D01*
X14191729Y-12546769D02*
X14210777Y-12556293D01*
X14210777Y-12556293D02*
X14248872Y-12556293D01*
X14248872Y-12556293D02*
X14267920Y-12546769D01*
X14267920Y-12546769D02*
X14277444Y-12537246D01*
X14277444Y-12537246D02*
X14286967Y-12518198D01*
X14458396Y-12499150D02*
X14458396Y-12632484D01*
X14410777Y-12422960D02*
X14363158Y-12565817D01*
X14363158Y-12565817D02*
X14486967Y-12565817D01*
X14553634Y-12432484D02*
X14553634Y-12470579D01*
X14629825Y-12432484D02*
X14629825Y-12470579D01*
X14925063Y-12708674D02*
X14915539Y-12699150D01*
X14915539Y-12699150D02*
X14896491Y-12670579D01*
X14896491Y-12670579D02*
X14886968Y-12651531D01*
X14886968Y-12651531D02*
X14877444Y-12622960D01*
X14877444Y-12622960D02*
X14867920Y-12575341D01*
X14867920Y-12575341D02*
X14867920Y-12537246D01*
X14867920Y-12537246D02*
X14877444Y-12489627D01*
X14877444Y-12489627D02*
X14886968Y-12461055D01*
X14886968Y-12461055D02*
X14896491Y-12442008D01*
X14896491Y-12442008D02*
X14915539Y-12413436D01*
X14915539Y-12413436D02*
X14925063Y-12403912D01*
X14991729Y-12451531D02*
X15001253Y-12442008D01*
X15001253Y-12442008D02*
X15020301Y-12432484D01*
X15020301Y-12432484D02*
X15067920Y-12432484D01*
X15067920Y-12432484D02*
X15086968Y-12442008D01*
X15086968Y-12442008D02*
X15096491Y-12451531D01*
X15096491Y-12451531D02*
X15106015Y-12470579D01*
X15106015Y-12470579D02*
X15106015Y-12489627D01*
X15106015Y-12489627D02*
X15096491Y-12518198D01*
X15096491Y-12518198D02*
X14982206Y-12632484D01*
X14982206Y-12632484D02*
X15106015Y-12632484D01*
X15344110Y-12632484D02*
X15344110Y-12432484D01*
X15429825Y-12632484D02*
X15429825Y-12527722D01*
X15429825Y-12527722D02*
X15420301Y-12508674D01*
X15420301Y-12508674D02*
X15401253Y-12499150D01*
X15401253Y-12499150D02*
X15372682Y-12499150D01*
X15372682Y-12499150D02*
X15353634Y-12508674D01*
X15353634Y-12508674D02*
X15344110Y-12518198D01*
X15553634Y-12632484D02*
X15534587Y-12622960D01*
X15534587Y-12622960D02*
X15525063Y-12613436D01*
X15525063Y-12613436D02*
X15515539Y-12594388D01*
X15515539Y-12594388D02*
X15515539Y-12537246D01*
X15515539Y-12537246D02*
X15525063Y-12518198D01*
X15525063Y-12518198D02*
X15534587Y-12508674D01*
X15534587Y-12508674D02*
X15553634Y-12499150D01*
X15553634Y-12499150D02*
X15582206Y-12499150D01*
X15582206Y-12499150D02*
X15601253Y-12508674D01*
X15601253Y-12508674D02*
X15610777Y-12518198D01*
X15610777Y-12518198D02*
X15620301Y-12537246D01*
X15620301Y-12537246D02*
X15620301Y-12594388D01*
X15620301Y-12594388D02*
X15610777Y-12613436D01*
X15610777Y-12613436D02*
X15601253Y-12622960D01*
X15601253Y-12622960D02*
X15582206Y-12632484D01*
X15582206Y-12632484D02*
X15553634Y-12632484D01*
X15734587Y-12632484D02*
X15715539Y-12622960D01*
X15715539Y-12622960D02*
X15706015Y-12603912D01*
X15706015Y-12603912D02*
X15706015Y-12432484D01*
X15886968Y-12622960D02*
X15867920Y-12632484D01*
X15867920Y-12632484D02*
X15829825Y-12632484D01*
X15829825Y-12632484D02*
X15810777Y-12622960D01*
X15810777Y-12622960D02*
X15801253Y-12603912D01*
X15801253Y-12603912D02*
X15801253Y-12527722D01*
X15801253Y-12527722D02*
X15810777Y-12508674D01*
X15810777Y-12508674D02*
X15829825Y-12499150D01*
X15829825Y-12499150D02*
X15867920Y-12499150D01*
X15867920Y-12499150D02*
X15886968Y-12508674D01*
X15886968Y-12508674D02*
X15896491Y-12527722D01*
X15896491Y-12527722D02*
X15896491Y-12546769D01*
X15896491Y-12546769D02*
X15801253Y-12565817D01*
X15972682Y-12622960D02*
X15991730Y-12632484D01*
X15991730Y-12632484D02*
X16029825Y-12632484D01*
X16029825Y-12632484D02*
X16048872Y-12622960D01*
X16048872Y-12622960D02*
X16058396Y-12603912D01*
X16058396Y-12603912D02*
X16058396Y-12594388D01*
X16058396Y-12594388D02*
X16048872Y-12575341D01*
X16048872Y-12575341D02*
X16029825Y-12565817D01*
X16029825Y-12565817D02*
X16001253Y-12565817D01*
X16001253Y-12565817D02*
X15982206Y-12556293D01*
X15982206Y-12556293D02*
X15972682Y-12537246D01*
X15972682Y-12537246D02*
X15972682Y-12527722D01*
X15972682Y-12527722D02*
X15982206Y-12508674D01*
X15982206Y-12508674D02*
X16001253Y-12499150D01*
X16001253Y-12499150D02*
X16029825Y-12499150D01*
X16029825Y-12499150D02*
X16048872Y-12508674D01*
X16125063Y-12708674D02*
X16134587Y-12699150D01*
X16134587Y-12699150D02*
X16153634Y-12670579D01*
X16153634Y-12670579D02*
X16163158Y-12651531D01*
X16163158Y-12651531D02*
X16172682Y-12622960D01*
X16172682Y-12622960D02*
X16182206Y-12575341D01*
X16182206Y-12575341D02*
X16182206Y-12537246D01*
X16182206Y-12537246D02*
X16172682Y-12489627D01*
X16172682Y-12489627D02*
X16163158Y-12461055D01*
X16163158Y-12461055D02*
X16153634Y-12442008D01*
X16153634Y-12442008D02*
X16134587Y-12413436D01*
X16134587Y-12413436D02*
X16125063Y-12403912D01*
D12*
X11299000Y-12856000D02*
X11350000Y-12805000D01*
X11299000Y-12754000D01*
X11248000Y-12805000D01*
X11299000Y-12856000D01*
D11*
X11715539Y-12896484D02*
X11601253Y-12896484D01*
X11658396Y-12896484D02*
X11658396Y-12696484D01*
X11658396Y-12696484D02*
X11639348Y-12725055D01*
X11639348Y-12725055D02*
X11620301Y-12744103D01*
X11620301Y-12744103D02*
X11601253Y-12753627D01*
X11801253Y-12877436D02*
X11810777Y-12886960D01*
X11810777Y-12886960D02*
X11801253Y-12896484D01*
X11801253Y-12896484D02*
X11791729Y-12886960D01*
X11791729Y-12886960D02*
X11801253Y-12877436D01*
X11801253Y-12877436D02*
X11801253Y-12896484D01*
X11934586Y-12696484D02*
X11953634Y-12696484D01*
X11953634Y-12696484D02*
X11972682Y-12706008D01*
X11972682Y-12706008D02*
X11982205Y-12715531D01*
X11982205Y-12715531D02*
X11991729Y-12734579D01*
X11991729Y-12734579D02*
X12001253Y-12772674D01*
X12001253Y-12772674D02*
X12001253Y-12820293D01*
X12001253Y-12820293D02*
X11991729Y-12858388D01*
X11991729Y-12858388D02*
X11982205Y-12877436D01*
X11982205Y-12877436D02*
X11972682Y-12886960D01*
X11972682Y-12886960D02*
X11953634Y-12896484D01*
X11953634Y-12896484D02*
X11934586Y-12896484D01*
X11934586Y-12896484D02*
X11915539Y-12886960D01*
X11915539Y-12886960D02*
X11906015Y-12877436D01*
X11906015Y-12877436D02*
X11896491Y-12858388D01*
X11896491Y-12858388D02*
X11886967Y-12820293D01*
X11886967Y-12820293D02*
X11886967Y-12772674D01*
X11886967Y-12772674D02*
X11896491Y-12734579D01*
X11896491Y-12734579D02*
X11906015Y-12715531D01*
X11906015Y-12715531D02*
X11915539Y-12706008D01*
X11915539Y-12706008D02*
X11934586Y-12696484D01*
X12077443Y-12715531D02*
X12086967Y-12706008D01*
X12086967Y-12706008D02*
X12106015Y-12696484D01*
X12106015Y-12696484D02*
X12153634Y-12696484D01*
X12153634Y-12696484D02*
X12172682Y-12706008D01*
X12172682Y-12706008D02*
X12182205Y-12715531D01*
X12182205Y-12715531D02*
X12191729Y-12734579D01*
X12191729Y-12734579D02*
X12191729Y-12753627D01*
X12191729Y-12753627D02*
X12182205Y-12782198D01*
X12182205Y-12782198D02*
X12067920Y-12896484D01*
X12067920Y-12896484D02*
X12191729Y-12896484D01*
X12315539Y-12696484D02*
X12334586Y-12696484D01*
X12334586Y-12696484D02*
X12353634Y-12706008D01*
X12353634Y-12706008D02*
X12363158Y-12715531D01*
X12363158Y-12715531D02*
X12372682Y-12734579D01*
X12372682Y-12734579D02*
X12382205Y-12772674D01*
X12382205Y-12772674D02*
X12382205Y-12820293D01*
X12382205Y-12820293D02*
X12372682Y-12858388D01*
X12372682Y-12858388D02*
X12363158Y-12877436D01*
X12363158Y-12877436D02*
X12353634Y-12886960D01*
X12353634Y-12886960D02*
X12334586Y-12896484D01*
X12334586Y-12896484D02*
X12315539Y-12896484D01*
X12315539Y-12896484D02*
X12296491Y-12886960D01*
X12296491Y-12886960D02*
X12286967Y-12877436D01*
X12286967Y-12877436D02*
X12277443Y-12858388D01*
X12277443Y-12858388D02*
X12267920Y-12820293D01*
X12267920Y-12820293D02*
X12267920Y-12772674D01*
X12267920Y-12772674D02*
X12277443Y-12734579D01*
X12277443Y-12734579D02*
X12286967Y-12715531D01*
X12286967Y-12715531D02*
X12296491Y-12706008D01*
X12296491Y-12706008D02*
X12315539Y-12696484D01*
X12467920Y-12896484D02*
X12467920Y-12763150D01*
X12467920Y-12782198D02*
X12477443Y-12772674D01*
X12477443Y-12772674D02*
X12496491Y-12763150D01*
X12496491Y-12763150D02*
X12525063Y-12763150D01*
X12525063Y-12763150D02*
X12544110Y-12772674D01*
X12544110Y-12772674D02*
X12553634Y-12791722D01*
X12553634Y-12791722D02*
X12553634Y-12896484D01*
X12553634Y-12791722D02*
X12563158Y-12772674D01*
X12563158Y-12772674D02*
X12582205Y-12763150D01*
X12582205Y-12763150D02*
X12610777Y-12763150D01*
X12610777Y-12763150D02*
X12629824Y-12772674D01*
X12629824Y-12772674D02*
X12639348Y-12791722D01*
X12639348Y-12791722D02*
X12639348Y-12896484D01*
X12734586Y-12896484D02*
X12734586Y-12763150D01*
X12734586Y-12782198D02*
X12744110Y-12772674D01*
X12744110Y-12772674D02*
X12763158Y-12763150D01*
X12763158Y-12763150D02*
X12791729Y-12763150D01*
X12791729Y-12763150D02*
X12810777Y-12772674D01*
X12810777Y-12772674D02*
X12820301Y-12791722D01*
X12820301Y-12791722D02*
X12820301Y-12896484D01*
X12820301Y-12791722D02*
X12829824Y-12772674D01*
X12829824Y-12772674D02*
X12848872Y-12763150D01*
X12848872Y-12763150D02*
X12877443Y-12763150D01*
X12877443Y-12763150D02*
X12896491Y-12772674D01*
X12896491Y-12772674D02*
X12906015Y-12791722D01*
X12906015Y-12791722D02*
X12906015Y-12896484D01*
X13296491Y-12686960D02*
X13125063Y-12944103D01*
X13553634Y-12696484D02*
X13572682Y-12696484D01*
X13572682Y-12696484D02*
X13591729Y-12706008D01*
X13591729Y-12706008D02*
X13601253Y-12715531D01*
X13601253Y-12715531D02*
X13610777Y-12734579D01*
X13610777Y-12734579D02*
X13620301Y-12772674D01*
X13620301Y-12772674D02*
X13620301Y-12820293D01*
X13620301Y-12820293D02*
X13610777Y-12858388D01*
X13610777Y-12858388D02*
X13601253Y-12877436D01*
X13601253Y-12877436D02*
X13591729Y-12886960D01*
X13591729Y-12886960D02*
X13572682Y-12896484D01*
X13572682Y-12896484D02*
X13553634Y-12896484D01*
X13553634Y-12896484D02*
X13534586Y-12886960D01*
X13534586Y-12886960D02*
X13525063Y-12877436D01*
X13525063Y-12877436D02*
X13515539Y-12858388D01*
X13515539Y-12858388D02*
X13506015Y-12820293D01*
X13506015Y-12820293D02*
X13506015Y-12772674D01*
X13506015Y-12772674D02*
X13515539Y-12734579D01*
X13515539Y-12734579D02*
X13525063Y-12715531D01*
X13525063Y-12715531D02*
X13534586Y-12706008D01*
X13534586Y-12706008D02*
X13553634Y-12696484D01*
X13706015Y-12877436D02*
X13715539Y-12886960D01*
X13715539Y-12886960D02*
X13706015Y-12896484D01*
X13706015Y-12896484D02*
X13696491Y-12886960D01*
X13696491Y-12886960D02*
X13706015Y-12877436D01*
X13706015Y-12877436D02*
X13706015Y-12896484D01*
X13839348Y-12696484D02*
X13858396Y-12696484D01*
X13858396Y-12696484D02*
X13877444Y-12706008D01*
X13877444Y-12706008D02*
X13886967Y-12715531D01*
X13886967Y-12715531D02*
X13896491Y-12734579D01*
X13896491Y-12734579D02*
X13906015Y-12772674D01*
X13906015Y-12772674D02*
X13906015Y-12820293D01*
X13906015Y-12820293D02*
X13896491Y-12858388D01*
X13896491Y-12858388D02*
X13886967Y-12877436D01*
X13886967Y-12877436D02*
X13877444Y-12886960D01*
X13877444Y-12886960D02*
X13858396Y-12896484D01*
X13858396Y-12896484D02*
X13839348Y-12896484D01*
X13839348Y-12896484D02*
X13820301Y-12886960D01*
X13820301Y-12886960D02*
X13810777Y-12877436D01*
X13810777Y-12877436D02*
X13801253Y-12858388D01*
X13801253Y-12858388D02*
X13791729Y-12820293D01*
X13791729Y-12820293D02*
X13791729Y-12772674D01*
X13791729Y-12772674D02*
X13801253Y-12734579D01*
X13801253Y-12734579D02*
X13810777Y-12715531D01*
X13810777Y-12715531D02*
X13820301Y-12706008D01*
X13820301Y-12706008D02*
X13839348Y-12696484D01*
X14077444Y-12763150D02*
X14077444Y-12896484D01*
X14029825Y-12686960D02*
X13982206Y-12829817D01*
X13982206Y-12829817D02*
X14106015Y-12829817D01*
X14220301Y-12696484D02*
X14239348Y-12696484D01*
X14239348Y-12696484D02*
X14258396Y-12706008D01*
X14258396Y-12706008D02*
X14267920Y-12715531D01*
X14267920Y-12715531D02*
X14277444Y-12734579D01*
X14277444Y-12734579D02*
X14286967Y-12772674D01*
X14286967Y-12772674D02*
X14286967Y-12820293D01*
X14286967Y-12820293D02*
X14277444Y-12858388D01*
X14277444Y-12858388D02*
X14267920Y-12877436D01*
X14267920Y-12877436D02*
X14258396Y-12886960D01*
X14258396Y-12886960D02*
X14239348Y-12896484D01*
X14239348Y-12896484D02*
X14220301Y-12896484D01*
X14220301Y-12896484D02*
X14201253Y-12886960D01*
X14201253Y-12886960D02*
X14191729Y-12877436D01*
X14191729Y-12877436D02*
X14182206Y-12858388D01*
X14182206Y-12858388D02*
X14172682Y-12820293D01*
X14172682Y-12820293D02*
X14172682Y-12772674D01*
X14172682Y-12772674D02*
X14182206Y-12734579D01*
X14182206Y-12734579D02*
X14191729Y-12715531D01*
X14191729Y-12715531D02*
X14201253Y-12706008D01*
X14201253Y-12706008D02*
X14220301Y-12696484D01*
X14363158Y-12715531D02*
X14372682Y-12706008D01*
X14372682Y-12706008D02*
X14391729Y-12696484D01*
X14391729Y-12696484D02*
X14439348Y-12696484D01*
X14439348Y-12696484D02*
X14458396Y-12706008D01*
X14458396Y-12706008D02*
X14467920Y-12715531D01*
X14467920Y-12715531D02*
X14477444Y-12734579D01*
X14477444Y-12734579D02*
X14477444Y-12753627D01*
X14477444Y-12753627D02*
X14467920Y-12782198D01*
X14467920Y-12782198D02*
X14353634Y-12896484D01*
X14353634Y-12896484D02*
X14477444Y-12896484D01*
X14553634Y-12696484D02*
X14553634Y-12734579D01*
X14629825Y-12696484D02*
X14629825Y-12734579D01*
X14925063Y-12972674D02*
X14915539Y-12963150D01*
X14915539Y-12963150D02*
X14896491Y-12934579D01*
X14896491Y-12934579D02*
X14886968Y-12915531D01*
X14886968Y-12915531D02*
X14877444Y-12886960D01*
X14877444Y-12886960D02*
X14867920Y-12839341D01*
X14867920Y-12839341D02*
X14867920Y-12801246D01*
X14867920Y-12801246D02*
X14877444Y-12753627D01*
X14877444Y-12753627D02*
X14886968Y-12725055D01*
X14886968Y-12725055D02*
X14896491Y-12706008D01*
X14896491Y-12706008D02*
X14915539Y-12677436D01*
X14915539Y-12677436D02*
X14925063Y-12667912D01*
X15029825Y-12782198D02*
X15010777Y-12772674D01*
X15010777Y-12772674D02*
X15001253Y-12763150D01*
X15001253Y-12763150D02*
X14991729Y-12744103D01*
X14991729Y-12744103D02*
X14991729Y-12734579D01*
X14991729Y-12734579D02*
X15001253Y-12715531D01*
X15001253Y-12715531D02*
X15010777Y-12706008D01*
X15010777Y-12706008D02*
X15029825Y-12696484D01*
X15029825Y-12696484D02*
X15067920Y-12696484D01*
X15067920Y-12696484D02*
X15086968Y-12706008D01*
X15086968Y-12706008D02*
X15096491Y-12715531D01*
X15096491Y-12715531D02*
X15106015Y-12734579D01*
X15106015Y-12734579D02*
X15106015Y-12744103D01*
X15106015Y-12744103D02*
X15096491Y-12763150D01*
X15096491Y-12763150D02*
X15086968Y-12772674D01*
X15086968Y-12772674D02*
X15067920Y-12782198D01*
X15067920Y-12782198D02*
X15029825Y-12782198D01*
X15029825Y-12782198D02*
X15010777Y-12791722D01*
X15010777Y-12791722D02*
X15001253Y-12801246D01*
X15001253Y-12801246D02*
X14991729Y-12820293D01*
X14991729Y-12820293D02*
X14991729Y-12858388D01*
X14991729Y-12858388D02*
X15001253Y-12877436D01*
X15001253Y-12877436D02*
X15010777Y-12886960D01*
X15010777Y-12886960D02*
X15029825Y-12896484D01*
X15029825Y-12896484D02*
X15067920Y-12896484D01*
X15067920Y-12896484D02*
X15086968Y-12886960D01*
X15086968Y-12886960D02*
X15096491Y-12877436D01*
X15096491Y-12877436D02*
X15106015Y-12858388D01*
X15106015Y-12858388D02*
X15106015Y-12820293D01*
X15106015Y-12820293D02*
X15096491Y-12801246D01*
X15096491Y-12801246D02*
X15086968Y-12791722D01*
X15086968Y-12791722D02*
X15067920Y-12782198D01*
X15344110Y-12896484D02*
X15344110Y-12696484D01*
X15429825Y-12896484D02*
X15429825Y-12791722D01*
X15429825Y-12791722D02*
X15420301Y-12772674D01*
X15420301Y-12772674D02*
X15401253Y-12763150D01*
X15401253Y-12763150D02*
X15372682Y-12763150D01*
X15372682Y-12763150D02*
X15353634Y-12772674D01*
X15353634Y-12772674D02*
X15344110Y-12782198D01*
X15553634Y-12896484D02*
X15534587Y-12886960D01*
X15534587Y-12886960D02*
X15525063Y-12877436D01*
X15525063Y-12877436D02*
X15515539Y-12858388D01*
X15515539Y-12858388D02*
X15515539Y-12801246D01*
X15515539Y-12801246D02*
X15525063Y-12782198D01*
X15525063Y-12782198D02*
X15534587Y-12772674D01*
X15534587Y-12772674D02*
X15553634Y-12763150D01*
X15553634Y-12763150D02*
X15582206Y-12763150D01*
X15582206Y-12763150D02*
X15601253Y-12772674D01*
X15601253Y-12772674D02*
X15610777Y-12782198D01*
X15610777Y-12782198D02*
X15620301Y-12801246D01*
X15620301Y-12801246D02*
X15620301Y-12858388D01*
X15620301Y-12858388D02*
X15610777Y-12877436D01*
X15610777Y-12877436D02*
X15601253Y-12886960D01*
X15601253Y-12886960D02*
X15582206Y-12896484D01*
X15582206Y-12896484D02*
X15553634Y-12896484D01*
X15734587Y-12896484D02*
X15715539Y-12886960D01*
X15715539Y-12886960D02*
X15706015Y-12867912D01*
X15706015Y-12867912D02*
X15706015Y-12696484D01*
X15886968Y-12886960D02*
X15867920Y-12896484D01*
X15867920Y-12896484D02*
X15829825Y-12896484D01*
X15829825Y-12896484D02*
X15810777Y-12886960D01*
X15810777Y-12886960D02*
X15801253Y-12867912D01*
X15801253Y-12867912D02*
X15801253Y-12791722D01*
X15801253Y-12791722D02*
X15810777Y-12772674D01*
X15810777Y-12772674D02*
X15829825Y-12763150D01*
X15829825Y-12763150D02*
X15867920Y-12763150D01*
X15867920Y-12763150D02*
X15886968Y-12772674D01*
X15886968Y-12772674D02*
X15896491Y-12791722D01*
X15896491Y-12791722D02*
X15896491Y-12810769D01*
X15896491Y-12810769D02*
X15801253Y-12829817D01*
X15972682Y-12886960D02*
X15991730Y-12896484D01*
X15991730Y-12896484D02*
X16029825Y-12896484D01*
X16029825Y-12896484D02*
X16048872Y-12886960D01*
X16048872Y-12886960D02*
X16058396Y-12867912D01*
X16058396Y-12867912D02*
X16058396Y-12858388D01*
X16058396Y-12858388D02*
X16048872Y-12839341D01*
X16048872Y-12839341D02*
X16029825Y-12829817D01*
X16029825Y-12829817D02*
X16001253Y-12829817D01*
X16001253Y-12829817D02*
X15982206Y-12820293D01*
X15982206Y-12820293D02*
X15972682Y-12801246D01*
X15972682Y-12801246D02*
X15972682Y-12791722D01*
X15972682Y-12791722D02*
X15982206Y-12772674D01*
X15982206Y-12772674D02*
X16001253Y-12763150D01*
X16001253Y-12763150D02*
X16029825Y-12763150D01*
X16029825Y-12763150D02*
X16048872Y-12772674D01*
X16125063Y-12972674D02*
X16134587Y-12963150D01*
X16134587Y-12963150D02*
X16153634Y-12934579D01*
X16153634Y-12934579D02*
X16163158Y-12915531D01*
X16163158Y-12915531D02*
X16172682Y-12886960D01*
X16172682Y-12886960D02*
X16182206Y-12839341D01*
X16182206Y-12839341D02*
X16182206Y-12801246D01*
X16182206Y-12801246D02*
X16172682Y-12753627D01*
X16172682Y-12753627D02*
X16163158Y-12725055D01*
X16163158Y-12725055D02*
X16153634Y-12706008D01*
X16153634Y-12706008D02*
X16134587Y-12677436D01*
X16134587Y-12677436D02*
X16125063Y-12667912D01*
M02*
