G04 #@! TF.GenerationSoftware,KiCad,Pcbnew,7.0.10*
G04 #@! TF.CreationDate,2025-02-21T18:16:38-05:00*
G04 #@! TF.ProjectId,pcb_v2,7063625f-7632-42e6-9b69-6361645f7063,rev?*
G04 #@! TF.SameCoordinates,Original*
G04 #@! TF.FileFunction,Soldermask,Top*
G04 #@! TF.FilePolarity,Negative*
%FSLAX46Y46*%
G04 Gerber Fmt 4.6, Leading zero omitted, Abs format (unit mm)*
G04 Created by KiCad (PCBNEW 7.0.10) date 2025-02-21 18:16:38*
%MOMM*%
%LPD*%
G01*
G04 APERTURE LIST*
G04 Aperture macros list*
%AMRoundRect*
0 Rectangle with rounded corners*
0 $1 Rounding radius*
0 $2 $3 $4 $5 $6 $7 $8 $9 X,Y pos of 4 corners*
0 Add a 4 corners polygon primitive as box body*
4,1,4,$2,$3,$4,$5,$6,$7,$8,$9,$2,$3,0*
0 Add four circle primitives for the rounded corners*
1,1,$1+$1,$2,$3*
1,1,$1+$1,$4,$5*
1,1,$1+$1,$6,$7*
1,1,$1+$1,$8,$9*
0 Add four rect primitives between the rounded corners*
20,1,$1+$1,$2,$3,$4,$5,0*
20,1,$1+$1,$4,$5,$6,$7,0*
20,1,$1+$1,$6,$7,$8,$9,0*
20,1,$1+$1,$8,$9,$2,$3,0*%
G04 Aperture macros list end*
%ADD10C,1.100000*%
%ADD11R,2.030000X1.730000*%
%ADD12O,2.030000X1.730000*%
%ADD13C,1.498600*%
%ADD14R,3.500000X1.000000*%
%ADD15R,3.400000X1.500000*%
%ADD16R,1.800000X1.150000*%
%ADD17R,1.150000X0.450000*%
%ADD18C,1.431000*%
%ADD19R,1.470000X1.020000*%
%ADD20R,1.700000X1.700000*%
%ADD21O,1.700000X1.700000*%
%ADD22R,1.500000X0.900000*%
%ADD23R,0.700000X0.700000*%
%ADD24RoundRect,0.102000X-1.225000X-0.500000X1.225000X-0.500000X1.225000X0.500000X-1.225000X0.500000X0*%
%ADD25RoundRect,0.102000X-0.500000X-1.225000X0.500000X-1.225000X0.500000X1.225000X-0.500000X1.225000X0*%
%ADD26R,1.430000X0.940000*%
G04 APERTURE END LIST*
D10*
X160590000Y-93290000D03*
D11*
X162750000Y-98370000D03*
D12*
X162750000Y-95830000D03*
X162750000Y-93290000D03*
X162750000Y-90750000D03*
D13*
X135999998Y-96000000D03*
X142500000Y-96000000D03*
X135999998Y-100500001D03*
X142500000Y-100500001D03*
D14*
X159450000Y-106850000D03*
X159450000Y-104850000D03*
D15*
X165000000Y-109200000D03*
X165000000Y-102500000D03*
D16*
X116500000Y-108200000D03*
X116500000Y-105300000D03*
D17*
X149500000Y-107650000D03*
X149500000Y-107000000D03*
X149500000Y-106350000D03*
X147500000Y-106350000D03*
X147500000Y-107650000D03*
D18*
X117230000Y-97500000D03*
X119770000Y-97500000D03*
D19*
X152750000Y-107810000D03*
X152750000Y-106190000D03*
X143000000Y-107810000D03*
X143000000Y-106190000D03*
D18*
X129000000Y-97500000D03*
X126460000Y-97500000D03*
D20*
X131725000Y-107000000D03*
D21*
X134265000Y-107000000D03*
D13*
X148603850Y-95980250D03*
X155103852Y-95980250D03*
X148603850Y-100480251D03*
X155103852Y-100480251D03*
D10*
X165410000Y-84330000D03*
D11*
X163250000Y-79250000D03*
D12*
X163250000Y-81790000D03*
X163250000Y-84330000D03*
X163250000Y-86870000D03*
D22*
X137540000Y-77550000D03*
X137540000Y-79050000D03*
X137540000Y-80550000D03*
X137540000Y-82050000D03*
X137540000Y-83550000D03*
X137540000Y-85050000D03*
X137540000Y-86550000D03*
X137540000Y-88050000D03*
X137540000Y-89550000D03*
X155040000Y-89550000D03*
X155040000Y-88050000D03*
X155040000Y-86550000D03*
X155040000Y-85050000D03*
X155040000Y-83550000D03*
X155040000Y-82050000D03*
X155040000Y-80550000D03*
X155040000Y-79050000D03*
X155040000Y-77550000D03*
D23*
X147250000Y-83750000D03*
X148350000Y-83750000D03*
X148350000Y-82650000D03*
X147250000Y-82650000D03*
X146150000Y-82650000D03*
X146150000Y-83750000D03*
X146150000Y-84850000D03*
X147250000Y-84850000D03*
X148350000Y-84850000D03*
D24*
X116455000Y-77550000D03*
X116455000Y-78950000D03*
X116455000Y-80350000D03*
X116455000Y-81750000D03*
X116455000Y-83150000D03*
X116455000Y-84550000D03*
X116455000Y-85950000D03*
X116455000Y-87350000D03*
D25*
X117850000Y-89645000D03*
X119250000Y-89645000D03*
X120650000Y-89645000D03*
X122050000Y-89645000D03*
X123450000Y-89645000D03*
X124850000Y-89645000D03*
X126250000Y-89645000D03*
X127650000Y-89645000D03*
D24*
X129045000Y-87350000D03*
X129045000Y-85950000D03*
X129045000Y-84550000D03*
X129045000Y-83150000D03*
X129045000Y-81750000D03*
X129045000Y-80350000D03*
X129045000Y-78950000D03*
X129045000Y-77550000D03*
D26*
X139500000Y-107820000D03*
X139500000Y-106180000D03*
M02*
