G04 #@! TF.GenerationSoftware,KiCad,Pcbnew,7.0.10*
G04 #@! TF.CreationDate,2025-02-21T18:16:38-05:00*
G04 #@! TF.ProjectId,pcb_v2,7063625f-7632-42e6-9b69-6361645f7063,rev?*
G04 #@! TF.SameCoordinates,Original*
G04 #@! TF.FileFunction,Copper,L1,Top*
G04 #@! TF.FilePolarity,Positive*
%FSLAX46Y46*%
G04 Gerber Fmt 4.6, Leading zero omitted, Abs format (unit mm)*
G04 Created by KiCad (PCBNEW 7.0.10) date 2025-02-21 18:16:38*
%MOMM*%
%LPD*%
G01*
G04 APERTURE LIST*
G04 #@! TA.AperFunction,ComponentPad*
%ADD10R,2.030000X1.730000*%
G04 #@! TD*
G04 #@! TA.AperFunction,ComponentPad*
%ADD11O,2.030000X1.730000*%
G04 #@! TD*
G04 #@! TA.AperFunction,ComponentPad*
%ADD12C,1.498600*%
G04 #@! TD*
G04 #@! TA.AperFunction,SMDPad,CuDef*
%ADD13R,3.500000X1.000000*%
G04 #@! TD*
G04 #@! TA.AperFunction,SMDPad,CuDef*
%ADD14R,3.400000X1.500000*%
G04 #@! TD*
G04 #@! TA.AperFunction,SMDPad,CuDef*
%ADD15R,1.800000X1.150000*%
G04 #@! TD*
G04 #@! TA.AperFunction,SMDPad,CuDef*
%ADD16R,1.150000X0.450000*%
G04 #@! TD*
G04 #@! TA.AperFunction,ComponentPad*
%ADD17C,1.431000*%
G04 #@! TD*
G04 #@! TA.AperFunction,SMDPad,CuDef*
%ADD18R,1.470000X1.020000*%
G04 #@! TD*
G04 #@! TA.AperFunction,ComponentPad*
%ADD19R,1.700000X1.700000*%
G04 #@! TD*
G04 #@! TA.AperFunction,ComponentPad*
%ADD20O,1.700000X1.700000*%
G04 #@! TD*
G04 #@! TA.AperFunction,SMDPad,CuDef*
%ADD21R,1.500000X0.900000*%
G04 #@! TD*
G04 #@! TA.AperFunction,SMDPad,CuDef*
%ADD22R,0.700000X0.700000*%
G04 #@! TD*
G04 #@! TA.AperFunction,SMDPad,CuDef*
%ADD23R,2.450000X1.000000*%
G04 #@! TD*
G04 #@! TA.AperFunction,SMDPad,CuDef*
%ADD24R,1.000000X2.450000*%
G04 #@! TD*
G04 #@! TA.AperFunction,SMDPad,CuDef*
%ADD25R,1.430000X0.940000*%
G04 #@! TD*
G04 #@! TA.AperFunction,ViaPad*
%ADD26C,0.800000*%
G04 #@! TD*
G04 #@! TA.AperFunction,Conductor*
%ADD27C,0.250000*%
G04 #@! TD*
G04 APERTURE END LIST*
D10*
X162750000Y-98370000D03*
D11*
X162750000Y-95830000D03*
X162750000Y-93290000D03*
X162750000Y-90750000D03*
D12*
X135999998Y-96000000D03*
X142500000Y-96000000D03*
X135999998Y-100500001D03*
X142500000Y-100500001D03*
D13*
X159450000Y-106850000D03*
X159450000Y-104850000D03*
D14*
X165000000Y-109200000D03*
X165000000Y-102500000D03*
D15*
X116500000Y-108200000D03*
X116500000Y-105300000D03*
D16*
X149500000Y-107650000D03*
X149500000Y-107000000D03*
X149500000Y-106350000D03*
X147500000Y-106350000D03*
X147500000Y-107650000D03*
D17*
X117230000Y-97500000D03*
X119770000Y-97500000D03*
D18*
X152750000Y-107810000D03*
X152750000Y-106190000D03*
X143000000Y-107810000D03*
X143000000Y-106190000D03*
D17*
X129000000Y-97500000D03*
X126460000Y-97500000D03*
D19*
X131725000Y-107000000D03*
D20*
X134265000Y-107000000D03*
D12*
X148603850Y-95980250D03*
X155103852Y-95980250D03*
X148603850Y-100480251D03*
X155103852Y-100480251D03*
D10*
X163250000Y-79250000D03*
D11*
X163250000Y-81790000D03*
X163250000Y-84330000D03*
X163250000Y-86870000D03*
D21*
X137540000Y-77550000D03*
X137540000Y-79050000D03*
X137540000Y-80550000D03*
X137540000Y-82050000D03*
X137540000Y-83550000D03*
X137540000Y-85050000D03*
X137540000Y-86550000D03*
X137540000Y-88050000D03*
X137540000Y-89550000D03*
X155040000Y-89550000D03*
X155040000Y-88050000D03*
X155040000Y-86550000D03*
X155040000Y-85050000D03*
X155040000Y-83550000D03*
X155040000Y-82050000D03*
X155040000Y-80550000D03*
X155040000Y-79050000D03*
X155040000Y-77550000D03*
D22*
X147250000Y-83750000D03*
X148350000Y-83750000D03*
X148350000Y-82650000D03*
X147250000Y-82650000D03*
X146150000Y-82650000D03*
X146150000Y-83750000D03*
X146150000Y-84850000D03*
X147250000Y-84850000D03*
X148350000Y-84850000D03*
D23*
X116455000Y-77550000D03*
X116455000Y-78950000D03*
X116455000Y-80350000D03*
X116455000Y-81750000D03*
X116455000Y-83150000D03*
X116455000Y-84550000D03*
X116455000Y-85950000D03*
X116455000Y-87350000D03*
D24*
X117850000Y-89645000D03*
X119250000Y-89645000D03*
X120650000Y-89645000D03*
X122050000Y-89645000D03*
X123450000Y-89645000D03*
X124850000Y-89645000D03*
X126250000Y-89645000D03*
X127650000Y-89645000D03*
D23*
X129045000Y-87350000D03*
X129045000Y-85950000D03*
X129045000Y-84550000D03*
X129045000Y-83150000D03*
X129045000Y-81750000D03*
X129045000Y-80350000D03*
X129045000Y-78950000D03*
X129045000Y-77550000D03*
D25*
X139500000Y-107820000D03*
X139500000Y-106180000D03*
D26*
X119000000Y-83000000D03*
X135750000Y-79000000D03*
X133500000Y-86000000D03*
X140500000Y-82000000D03*
X140500000Y-83500000D03*
X133500000Y-84500000D03*
X133500000Y-83000000D03*
X140500000Y-85000000D03*
X139500000Y-86500000D03*
X142500000Y-93500000D03*
X139500000Y-88000000D03*
X153000000Y-89500000D03*
X153000000Y-85000000D03*
X131500000Y-80500000D03*
X153000000Y-83500000D03*
X119000000Y-80500000D03*
X116500000Y-103500000D03*
X150750000Y-96000000D03*
D27*
X164250000Y-99636396D02*
X164250000Y-92250000D01*
X147500000Y-107650000D02*
X149500000Y-107650000D01*
X149500000Y-107650000D02*
X152590000Y-107650000D01*
X158490000Y-107810000D02*
X159450000Y-106850000D01*
X152590000Y-107650000D02*
X152750000Y-107810000D01*
X152750000Y-107810000D02*
X158490000Y-107810000D01*
X159450000Y-106850000D02*
X160700000Y-106850000D01*
X162975000Y-100911396D02*
X164250000Y-99636396D01*
X164250000Y-92250000D02*
X162750000Y-90750000D01*
X162975000Y-104575000D02*
X162975000Y-100911396D01*
X160700000Y-106850000D02*
X162975000Y-104575000D01*
X136950000Y-89550000D02*
X129000000Y-97500000D01*
X137540000Y-89550000D02*
X136950000Y-89550000D01*
X147250000Y-84850000D02*
X148350000Y-84850000D01*
X127650000Y-89645000D02*
X127650000Y-88170000D01*
X143250000Y-100480251D02*
X142519750Y-100480251D01*
X139510000Y-106190000D02*
X139500000Y-106180000D01*
X143250000Y-100480251D02*
X143230250Y-100500001D01*
X127570000Y-81750000D02*
X127495000Y-81675000D01*
X149660000Y-106190000D02*
X149500000Y-106350000D01*
X129045000Y-81750000D02*
X127570000Y-81750000D01*
X146150000Y-83750000D02*
X146150000Y-84850000D01*
X159500000Y-100480251D02*
X155103852Y-100480251D01*
X129045000Y-78950000D02*
X129045000Y-77550000D01*
X129000000Y-90995000D02*
X127650000Y-89645000D01*
X129000000Y-97500000D02*
X129000000Y-90995000D01*
X159450000Y-104850000D02*
X159450000Y-100530251D01*
X127495000Y-81675000D02*
X126750000Y-82420000D01*
X147250000Y-83750000D02*
X146150000Y-83750000D01*
X142519750Y-100480251D02*
X142500000Y-100500001D01*
X135999998Y-100500001D02*
X132000001Y-100500001D01*
X162730251Y-100480251D02*
X159500000Y-100480251D01*
X127650000Y-88170000D02*
X126830000Y-87350000D01*
X149500000Y-106350000D02*
X149500000Y-101376401D01*
X141450000Y-89550000D02*
X146150000Y-84850000D01*
X148350000Y-83750000D02*
X147250000Y-83750000D01*
X126830000Y-87350000D02*
X126750000Y-87350000D01*
X162750000Y-98370000D02*
X162750000Y-100500000D01*
X137540000Y-89550000D02*
X141450000Y-89550000D01*
X129000000Y-97500000D02*
X127959500Y-98540500D01*
X127959500Y-98540500D02*
X118270500Y-98540500D01*
X148350000Y-82650000D02*
X148350000Y-83750000D01*
X146150000Y-82650000D02*
X147250000Y-82650000D01*
X148603850Y-100480251D02*
X143250000Y-100480251D01*
X146150000Y-84850000D02*
X147250000Y-84850000D01*
X139500000Y-104000003D02*
X135999998Y-100500001D01*
X143000000Y-106190000D02*
X139510000Y-106190000D01*
X118270500Y-98540500D02*
X117230000Y-97500000D01*
X159450000Y-100530251D02*
X159500000Y-100480251D01*
X152750000Y-106190000D02*
X149660000Y-106190000D01*
X147250000Y-82650000D02*
X148350000Y-82650000D01*
X149500000Y-101376401D02*
X148603850Y-100480251D01*
X127495000Y-81675000D02*
X127495000Y-79025000D01*
X127495000Y-79025000D02*
X127570000Y-78950000D01*
X127570000Y-78950000D02*
X129045000Y-78950000D01*
X155103852Y-100480251D02*
X148603850Y-100480251D01*
X126750000Y-82420000D02*
X126750000Y-87350000D01*
X126750000Y-87350000D02*
X116455000Y-87350000D01*
X132000001Y-100500001D02*
X129000000Y-97500000D01*
X139500000Y-106180000D02*
X139500000Y-104000003D01*
X143230250Y-100500001D02*
X135999998Y-100500001D01*
X162750000Y-100500000D02*
X162730251Y-100480251D01*
X114905000Y-84700000D02*
X114905000Y-106605000D01*
X137320000Y-110000000D02*
X139500000Y-107820000D01*
X116500000Y-108200000D02*
X116500000Y-110000000D01*
X142990000Y-107820000D02*
X143000000Y-107810000D01*
X116455000Y-83150000D02*
X114905000Y-84700000D01*
X116455000Y-84550000D02*
X116455000Y-85950000D01*
X139500000Y-107820000D02*
X142990000Y-107820000D01*
X146040000Y-107810000D02*
X147500000Y-106350000D01*
X143000000Y-107810000D02*
X146040000Y-107810000D01*
X135750000Y-79000000D02*
X137200000Y-77550000D01*
X116455000Y-83150000D02*
X116455000Y-84550000D01*
X137200000Y-77550000D02*
X137540000Y-77550000D01*
X116455000Y-83150000D02*
X118850000Y-83150000D01*
X118850000Y-83150000D02*
X119000000Y-83000000D01*
X114905000Y-106605000D02*
X116500000Y-108200000D01*
X116500000Y-110000000D02*
X137320000Y-110000000D01*
X119770000Y-97500000D02*
X122050000Y-95220000D01*
X122050000Y-95220000D02*
X122050000Y-89645000D01*
X126460000Y-97500000D02*
X123450000Y-94490000D01*
X123450000Y-94490000D02*
X123450000Y-89645000D01*
X146100000Y-79050000D02*
X137540000Y-79050000D01*
X149025000Y-81975000D02*
X146100000Y-79050000D01*
X149025000Y-89901398D02*
X149025000Y-81975000D01*
X155103852Y-95980250D02*
X149025000Y-89901398D01*
X135750000Y-81990000D02*
X137190000Y-80550000D01*
X129045000Y-87350000D02*
X133175305Y-87350000D01*
X133175305Y-87350000D02*
X135750000Y-84775305D01*
X135750000Y-84775305D02*
X135750000Y-81990000D01*
X137190000Y-80550000D02*
X137540000Y-80550000D01*
X129045000Y-85950000D02*
X133450000Y-85950000D01*
X140450000Y-82050000D02*
X137540000Y-82050000D01*
X140500000Y-82000000D02*
X140450000Y-82050000D01*
X133450000Y-85950000D02*
X133500000Y-86000000D01*
X140450000Y-83550000D02*
X140500000Y-83500000D01*
X133450000Y-84550000D02*
X133500000Y-84500000D01*
X129045000Y-84550000D02*
X133450000Y-84550000D01*
X137540000Y-83550000D02*
X140450000Y-83550000D01*
X129045000Y-83150000D02*
X133350000Y-83150000D01*
X133350000Y-83150000D02*
X133500000Y-83000000D01*
X140500000Y-85000000D02*
X140450000Y-85050000D01*
X140450000Y-85050000D02*
X137540000Y-85050000D01*
X139450000Y-86550000D02*
X139500000Y-86500000D01*
X137540000Y-86550000D02*
X139450000Y-86550000D01*
X139500000Y-88000000D02*
X137590000Y-88000000D01*
X142500000Y-96000000D02*
X142500000Y-93500000D01*
X137590000Y-88000000D02*
X137540000Y-88050000D01*
X153050000Y-89550000D02*
X153000000Y-89500000D01*
X155040000Y-89550000D02*
X153050000Y-89550000D01*
X157510000Y-88050000D02*
X162750000Y-93290000D01*
X155040000Y-88050000D02*
X157510000Y-88050000D01*
X155040000Y-86550000D02*
X154690000Y-86550000D01*
X152275000Y-88965000D02*
X152275000Y-89800305D01*
X152275000Y-89800305D02*
X158304695Y-95830000D01*
X158304695Y-95830000D02*
X162750000Y-95830000D01*
X154690000Y-86550000D02*
X152275000Y-88965000D01*
X154990000Y-85000000D02*
X155040000Y-85050000D01*
X131350000Y-80350000D02*
X131500000Y-80500000D01*
X153000000Y-85000000D02*
X154990000Y-85000000D01*
X129045000Y-80350000D02*
X131350000Y-80350000D01*
X154990000Y-83500000D02*
X155040000Y-83550000D01*
X118850000Y-80350000D02*
X119000000Y-80500000D01*
X153000000Y-83500000D02*
X154990000Y-83500000D01*
X116455000Y-80350000D02*
X118850000Y-80350000D01*
X155040000Y-82050000D02*
X158430000Y-82050000D01*
X158430000Y-82050000D02*
X163250000Y-86870000D01*
X155040000Y-80550000D02*
X159470000Y-80550000D01*
X159470000Y-80550000D02*
X163250000Y-84330000D01*
X160510000Y-79050000D02*
X163250000Y-81790000D01*
X155040000Y-79050000D02*
X160510000Y-79050000D01*
X161550000Y-77550000D02*
X163250000Y-79250000D01*
X155040000Y-77550000D02*
X161550000Y-77550000D01*
X150730250Y-95980250D02*
X150750000Y-96000000D01*
X148603850Y-95980250D02*
X150730250Y-95980250D01*
X116500000Y-105300000D02*
X116500000Y-103500000D01*
M02*
