G04 #@! TF.GenerationSoftware,KiCad,Pcbnew,7.0.10*
G04 #@! TF.CreationDate,2025-02-21T18:16:38-05:00*
G04 #@! TF.ProjectId,pcb_v2,7063625f-7632-42e6-9b69-6361645f7063,rev?*
G04 #@! TF.SameCoordinates,Original*
G04 #@! TF.FileFunction,Legend,Top*
G04 #@! TF.FilePolarity,Positive*
%FSLAX46Y46*%
G04 Gerber Fmt 4.6, Leading zero omitted, Abs format (unit mm)*
G04 Created by KiCad (PCBNEW 7.0.10) date 2025-02-21 18:16:38*
%MOMM*%
%LPD*%
G01*
G04 APERTURE LIST*
G04 Aperture macros list*
%AMRoundRect*
0 Rectangle with rounded corners*
0 $1 Rounding radius*
0 $2 $3 $4 $5 $6 $7 $8 $9 X,Y pos of 4 corners*
0 Add a 4 corners polygon primitive as box body*
4,1,4,$2,$3,$4,$5,$6,$7,$8,$9,$2,$3,0*
0 Add four circle primitives for the rounded corners*
1,1,$1+$1,$2,$3*
1,1,$1+$1,$4,$5*
1,1,$1+$1,$6,$7*
1,1,$1+$1,$8,$9*
0 Add four rect primitives between the rounded corners*
20,1,$1+$1,$2,$3,$4,$5,0*
20,1,$1+$1,$4,$5,$6,$7,0*
20,1,$1+$1,$6,$7,$8,$9,0*
20,1,$1+$1,$8,$9,$2,$3,0*%
G04 Aperture macros list end*
%ADD10C,0.150000*%
%ADD11C,0.254000*%
%ADD12C,0.120000*%
%ADD13C,0.152400*%
%ADD14C,0.508000*%
%ADD15C,0.200000*%
%ADD16C,0.127000*%
%ADD17C,1.100000*%
%ADD18R,2.030000X1.730000*%
%ADD19O,2.030000X1.730000*%
%ADD20C,1.498600*%
%ADD21R,3.500000X1.000000*%
%ADD22R,3.400000X1.500000*%
%ADD23R,1.800000X1.150000*%
%ADD24R,1.150000X0.450000*%
%ADD25C,1.431000*%
%ADD26R,1.470000X1.020000*%
%ADD27R,1.700000X1.700000*%
%ADD28O,1.700000X1.700000*%
%ADD29R,1.500000X0.900000*%
%ADD30R,0.700000X0.700000*%
%ADD31RoundRect,0.102000X-1.225000X-0.500000X1.225000X-0.500000X1.225000X0.500000X-1.225000X0.500000X0*%
%ADD32RoundRect,0.102000X-0.500000X-1.225000X0.500000X-1.225000X0.500000X1.225000X-0.500000X1.225000X0*%
%ADD33R,1.430000X0.940000*%
G04 APERTURE END LIST*
D10*
X158388207Y-93709819D02*
X158054874Y-93233628D01*
X157816779Y-93709819D02*
X157816779Y-92709819D01*
X157816779Y-92709819D02*
X158197731Y-92709819D01*
X158197731Y-92709819D02*
X158292969Y-92757438D01*
X158292969Y-92757438D02*
X158340588Y-92805057D01*
X158340588Y-92805057D02*
X158388207Y-92900295D01*
X158388207Y-92900295D02*
X158388207Y-93043152D01*
X158388207Y-93043152D02*
X158340588Y-93138390D01*
X158340588Y-93138390D02*
X158292969Y-93186009D01*
X158292969Y-93186009D02*
X158197731Y-93233628D01*
X158197731Y-93233628D02*
X157816779Y-93233628D01*
X158721541Y-92709819D02*
X159388207Y-93709819D01*
X159388207Y-92709819D02*
X158721541Y-93709819D01*
X157496779Y-108308866D02*
X158258684Y-108308866D01*
X157877731Y-108689819D02*
X157877731Y-107927914D01*
X157576779Y-103648866D02*
X158338684Y-103648866D01*
X158596779Y-89758866D02*
X159358684Y-89758866D01*
X158977731Y-90139819D02*
X158977731Y-89377914D01*
X157833922Y-95459819D02*
X158405350Y-95459819D01*
X158119636Y-96459819D02*
X158119636Y-95459819D01*
X158643446Y-95459819D02*
X159310112Y-96459819D01*
X159310112Y-95459819D02*
X158643446Y-96459819D01*
X158366779Y-99588866D02*
X159128684Y-99588866D01*
X164756666Y-90634819D02*
X164756666Y-91349104D01*
X164756666Y-91349104D02*
X164709047Y-91491961D01*
X164709047Y-91491961D02*
X164613809Y-91587200D01*
X164613809Y-91587200D02*
X164470952Y-91634819D01*
X164470952Y-91634819D02*
X164375714Y-91634819D01*
X165756666Y-91634819D02*
X165185238Y-91634819D01*
X165470952Y-91634819D02*
X165470952Y-90634819D01*
X165470952Y-90634819D02*
X165375714Y-90777676D01*
X165375714Y-90777676D02*
X165280476Y-90872914D01*
X165280476Y-90872914D02*
X165185238Y-90920533D01*
X137916666Y-98657201D02*
X138059523Y-98704820D01*
X138059523Y-98704820D02*
X138297618Y-98704820D01*
X138297618Y-98704820D02*
X138392856Y-98657201D01*
X138392856Y-98657201D02*
X138440475Y-98609581D01*
X138440475Y-98609581D02*
X138488094Y-98514343D01*
X138488094Y-98514343D02*
X138488094Y-98419105D01*
X138488094Y-98419105D02*
X138440475Y-98323867D01*
X138440475Y-98323867D02*
X138392856Y-98276248D01*
X138392856Y-98276248D02*
X138297618Y-98228629D01*
X138297618Y-98228629D02*
X138107142Y-98181010D01*
X138107142Y-98181010D02*
X138011904Y-98133391D01*
X138011904Y-98133391D02*
X137964285Y-98085772D01*
X137964285Y-98085772D02*
X137916666Y-97990534D01*
X137916666Y-97990534D02*
X137916666Y-97895296D01*
X137916666Y-97895296D02*
X137964285Y-97800058D01*
X137964285Y-97800058D02*
X138011904Y-97752439D01*
X138011904Y-97752439D02*
X138107142Y-97704820D01*
X138107142Y-97704820D02*
X138345237Y-97704820D01*
X138345237Y-97704820D02*
X138488094Y-97752439D01*
X138821428Y-97704820D02*
X139059523Y-98704820D01*
X139059523Y-98704820D02*
X139249999Y-97990534D01*
X139249999Y-97990534D02*
X139440475Y-98704820D01*
X139440475Y-98704820D02*
X139678571Y-97704820D01*
X140583332Y-98704820D02*
X140011904Y-98704820D01*
X140297618Y-98704820D02*
X140297618Y-97704820D01*
X140297618Y-97704820D02*
X140202380Y-97847677D01*
X140202380Y-97847677D02*
X140107142Y-97942915D01*
X140107142Y-97942915D02*
X140011904Y-97990534D01*
D11*
X155986667Y-108974318D02*
X155986667Y-109881461D01*
X155986667Y-109881461D02*
X155926190Y-110062889D01*
X155926190Y-110062889D02*
X155805238Y-110183842D01*
X155805238Y-110183842D02*
X155623809Y-110244318D01*
X155623809Y-110244318D02*
X155502857Y-110244318D01*
X156530952Y-109095270D02*
X156591428Y-109034794D01*
X156591428Y-109034794D02*
X156712381Y-108974318D01*
X156712381Y-108974318D02*
X157014762Y-108974318D01*
X157014762Y-108974318D02*
X157135714Y-109034794D01*
X157135714Y-109034794D02*
X157196190Y-109095270D01*
X157196190Y-109095270D02*
X157256667Y-109216222D01*
X157256667Y-109216222D02*
X157256667Y-109337175D01*
X157256667Y-109337175D02*
X157196190Y-109518603D01*
X157196190Y-109518603D02*
X156470476Y-110244318D01*
X156470476Y-110244318D02*
X157256667Y-110244318D01*
X118788333Y-107324318D02*
X118364999Y-106719556D01*
X118062618Y-107324318D02*
X118062618Y-106054318D01*
X118062618Y-106054318D02*
X118546428Y-106054318D01*
X118546428Y-106054318D02*
X118667380Y-106114794D01*
X118667380Y-106114794D02*
X118727857Y-106175270D01*
X118727857Y-106175270D02*
X118788333Y-106296222D01*
X118788333Y-106296222D02*
X118788333Y-106477651D01*
X118788333Y-106477651D02*
X118727857Y-106598603D01*
X118727857Y-106598603D02*
X118667380Y-106659080D01*
X118667380Y-106659080D02*
X118546428Y-106719556D01*
X118546428Y-106719556D02*
X118062618Y-106719556D01*
X119997857Y-107324318D02*
X119272142Y-107324318D01*
X119634999Y-107324318D02*
X119634999Y-106054318D01*
X119634999Y-106054318D02*
X119514047Y-106235746D01*
X119514047Y-106235746D02*
X119393095Y-106356699D01*
X119393095Y-106356699D02*
X119272142Y-106417175D01*
X147260237Y-105074318D02*
X147260237Y-103804318D01*
X148590714Y-104953365D02*
X148530238Y-105013842D01*
X148530238Y-105013842D02*
X148348809Y-105074318D01*
X148348809Y-105074318D02*
X148227857Y-105074318D01*
X148227857Y-105074318D02*
X148046428Y-105013842D01*
X148046428Y-105013842D02*
X147925476Y-104892889D01*
X147925476Y-104892889D02*
X147864999Y-104771937D01*
X147864999Y-104771937D02*
X147804523Y-104530032D01*
X147804523Y-104530032D02*
X147804523Y-104348603D01*
X147804523Y-104348603D02*
X147864999Y-104106699D01*
X147864999Y-104106699D02*
X147925476Y-103985746D01*
X147925476Y-103985746D02*
X148046428Y-103864794D01*
X148046428Y-103864794D02*
X148227857Y-103804318D01*
X148227857Y-103804318D02*
X148348809Y-103804318D01*
X148348809Y-103804318D02*
X148530238Y-103864794D01*
X148530238Y-103864794D02*
X148590714Y-103925270D01*
X149014047Y-103804318D02*
X149800238Y-103804318D01*
X149800238Y-103804318D02*
X149376904Y-104288127D01*
X149376904Y-104288127D02*
X149558333Y-104288127D01*
X149558333Y-104288127D02*
X149679285Y-104348603D01*
X149679285Y-104348603D02*
X149739761Y-104409080D01*
X149739761Y-104409080D02*
X149800238Y-104530032D01*
X149800238Y-104530032D02*
X149800238Y-104832413D01*
X149800238Y-104832413D02*
X149739761Y-104953365D01*
X149739761Y-104953365D02*
X149679285Y-105013842D01*
X149679285Y-105013842D02*
X149558333Y-105074318D01*
X149558333Y-105074318D02*
X149195476Y-105074318D01*
X149195476Y-105074318D02*
X149074523Y-105013842D01*
X149074523Y-105013842D02*
X149014047Y-104953365D01*
X117832618Y-103074318D02*
X117832618Y-101804318D01*
X117832618Y-101804318D02*
X118134999Y-101804318D01*
X118134999Y-101804318D02*
X118316428Y-101864794D01*
X118316428Y-101864794D02*
X118437380Y-101985746D01*
X118437380Y-101985746D02*
X118497857Y-102106699D01*
X118497857Y-102106699D02*
X118558333Y-102348603D01*
X118558333Y-102348603D02*
X118558333Y-102530032D01*
X118558333Y-102530032D02*
X118497857Y-102771937D01*
X118497857Y-102771937D02*
X118437380Y-102892889D01*
X118437380Y-102892889D02*
X118316428Y-103013842D01*
X118316428Y-103013842D02*
X118134999Y-103074318D01*
X118134999Y-103074318D02*
X117832618Y-103074318D01*
X119767857Y-103074318D02*
X119042142Y-103074318D01*
X119404999Y-103074318D02*
X119404999Y-101804318D01*
X119404999Y-101804318D02*
X119284047Y-101985746D01*
X119284047Y-101985746D02*
X119163095Y-102106699D01*
X119163095Y-102106699D02*
X119042142Y-102167175D01*
X152538333Y-104703365D02*
X152477857Y-104763842D01*
X152477857Y-104763842D02*
X152296428Y-104824318D01*
X152296428Y-104824318D02*
X152175476Y-104824318D01*
X152175476Y-104824318D02*
X151994047Y-104763842D01*
X151994047Y-104763842D02*
X151873095Y-104642889D01*
X151873095Y-104642889D02*
X151812618Y-104521937D01*
X151812618Y-104521937D02*
X151752142Y-104280032D01*
X151752142Y-104280032D02*
X151752142Y-104098603D01*
X151752142Y-104098603D02*
X151812618Y-103856699D01*
X151812618Y-103856699D02*
X151873095Y-103735746D01*
X151873095Y-103735746D02*
X151994047Y-103614794D01*
X151994047Y-103614794D02*
X152175476Y-103554318D01*
X152175476Y-103554318D02*
X152296428Y-103554318D01*
X152296428Y-103554318D02*
X152477857Y-103614794D01*
X152477857Y-103614794D02*
X152538333Y-103675270D01*
X153747857Y-104824318D02*
X153022142Y-104824318D01*
X153384999Y-104824318D02*
X153384999Y-103554318D01*
X153384999Y-103554318D02*
X153264047Y-103735746D01*
X153264047Y-103735746D02*
X153143095Y-103856699D01*
X153143095Y-103856699D02*
X153022142Y-103917175D01*
X142788333Y-104953365D02*
X142727857Y-105013842D01*
X142727857Y-105013842D02*
X142546428Y-105074318D01*
X142546428Y-105074318D02*
X142425476Y-105074318D01*
X142425476Y-105074318D02*
X142244047Y-105013842D01*
X142244047Y-105013842D02*
X142123095Y-104892889D01*
X142123095Y-104892889D02*
X142062618Y-104771937D01*
X142062618Y-104771937D02*
X142002142Y-104530032D01*
X142002142Y-104530032D02*
X142002142Y-104348603D01*
X142002142Y-104348603D02*
X142062618Y-104106699D01*
X142062618Y-104106699D02*
X142123095Y-103985746D01*
X142123095Y-103985746D02*
X142244047Y-103864794D01*
X142244047Y-103864794D02*
X142425476Y-103804318D01*
X142425476Y-103804318D02*
X142546428Y-103804318D01*
X142546428Y-103804318D02*
X142727857Y-103864794D01*
X142727857Y-103864794D02*
X142788333Y-103925270D01*
X143211666Y-103804318D02*
X143997857Y-103804318D01*
X143997857Y-103804318D02*
X143574523Y-104288127D01*
X143574523Y-104288127D02*
X143755952Y-104288127D01*
X143755952Y-104288127D02*
X143876904Y-104348603D01*
X143876904Y-104348603D02*
X143937380Y-104409080D01*
X143937380Y-104409080D02*
X143997857Y-104530032D01*
X143997857Y-104530032D02*
X143997857Y-104832413D01*
X143997857Y-104832413D02*
X143937380Y-104953365D01*
X143937380Y-104953365D02*
X143876904Y-105013842D01*
X143876904Y-105013842D02*
X143755952Y-105074318D01*
X143755952Y-105074318D02*
X143393095Y-105074318D01*
X143393095Y-105074318D02*
X143272142Y-105013842D01*
X143272142Y-105013842D02*
X143211666Y-104953365D01*
X126812618Y-103074318D02*
X126812618Y-101804318D01*
X126812618Y-101804318D02*
X127114999Y-101804318D01*
X127114999Y-101804318D02*
X127296428Y-101864794D01*
X127296428Y-101864794D02*
X127417380Y-101985746D01*
X127417380Y-101985746D02*
X127477857Y-102106699D01*
X127477857Y-102106699D02*
X127538333Y-102348603D01*
X127538333Y-102348603D02*
X127538333Y-102530032D01*
X127538333Y-102530032D02*
X127477857Y-102771937D01*
X127477857Y-102771937D02*
X127417380Y-102892889D01*
X127417380Y-102892889D02*
X127296428Y-103013842D01*
X127296428Y-103013842D02*
X127114999Y-103074318D01*
X127114999Y-103074318D02*
X126812618Y-103074318D01*
X128022142Y-101925270D02*
X128082618Y-101864794D01*
X128082618Y-101864794D02*
X128203571Y-101804318D01*
X128203571Y-101804318D02*
X128505952Y-101804318D01*
X128505952Y-101804318D02*
X128626904Y-101864794D01*
X128626904Y-101864794D02*
X128687380Y-101925270D01*
X128687380Y-101925270D02*
X128747857Y-102046222D01*
X128747857Y-102046222D02*
X128747857Y-102167175D01*
X128747857Y-102167175D02*
X128687380Y-102348603D01*
X128687380Y-102348603D02*
X127961666Y-103074318D01*
X127961666Y-103074318D02*
X128747857Y-103074318D01*
D10*
X128849819Y-107333333D02*
X129564104Y-107333333D01*
X129564104Y-107333333D02*
X129706961Y-107380952D01*
X129706961Y-107380952D02*
X129802200Y-107476190D01*
X129802200Y-107476190D02*
X129849819Y-107619047D01*
X129849819Y-107619047D02*
X129849819Y-107714285D01*
X129183152Y-106428571D02*
X129849819Y-106428571D01*
X128802200Y-106666666D02*
X129516485Y-106904761D01*
X129516485Y-106904761D02*
X129516485Y-106285714D01*
X150520518Y-98637451D02*
X150663375Y-98685070D01*
X150663375Y-98685070D02*
X150901470Y-98685070D01*
X150901470Y-98685070D02*
X150996708Y-98637451D01*
X150996708Y-98637451D02*
X151044327Y-98589831D01*
X151044327Y-98589831D02*
X151091946Y-98494593D01*
X151091946Y-98494593D02*
X151091946Y-98399355D01*
X151091946Y-98399355D02*
X151044327Y-98304117D01*
X151044327Y-98304117D02*
X150996708Y-98256498D01*
X150996708Y-98256498D02*
X150901470Y-98208879D01*
X150901470Y-98208879D02*
X150710994Y-98161260D01*
X150710994Y-98161260D02*
X150615756Y-98113641D01*
X150615756Y-98113641D02*
X150568137Y-98066022D01*
X150568137Y-98066022D02*
X150520518Y-97970784D01*
X150520518Y-97970784D02*
X150520518Y-97875546D01*
X150520518Y-97875546D02*
X150568137Y-97780308D01*
X150568137Y-97780308D02*
X150615756Y-97732689D01*
X150615756Y-97732689D02*
X150710994Y-97685070D01*
X150710994Y-97685070D02*
X150949089Y-97685070D01*
X150949089Y-97685070D02*
X151091946Y-97732689D01*
X151425280Y-97685070D02*
X151663375Y-98685070D01*
X151663375Y-98685070D02*
X151853851Y-97970784D01*
X151853851Y-97970784D02*
X152044327Y-98685070D01*
X152044327Y-98685070D02*
X152282423Y-97685070D01*
X152615756Y-97780308D02*
X152663375Y-97732689D01*
X152663375Y-97732689D02*
X152758613Y-97685070D01*
X152758613Y-97685070D02*
X152996708Y-97685070D01*
X152996708Y-97685070D02*
X153091946Y-97732689D01*
X153091946Y-97732689D02*
X153139565Y-97780308D01*
X153139565Y-97780308D02*
X153187184Y-97875546D01*
X153187184Y-97875546D02*
X153187184Y-97970784D01*
X153187184Y-97970784D02*
X153139565Y-98113641D01*
X153139565Y-98113641D02*
X152568137Y-98685070D01*
X152568137Y-98685070D02*
X153187184Y-98685070D01*
X157916666Y-83204819D02*
X157916666Y-83919104D01*
X157916666Y-83919104D02*
X157869047Y-84061961D01*
X157869047Y-84061961D02*
X157773809Y-84157200D01*
X157773809Y-84157200D02*
X157630952Y-84204819D01*
X157630952Y-84204819D02*
X157535714Y-84204819D01*
X158297619Y-83204819D02*
X158916666Y-83204819D01*
X158916666Y-83204819D02*
X158583333Y-83585771D01*
X158583333Y-83585771D02*
X158726190Y-83585771D01*
X158726190Y-83585771D02*
X158821428Y-83633390D01*
X158821428Y-83633390D02*
X158869047Y-83681009D01*
X158869047Y-83681009D02*
X158916666Y-83776247D01*
X158916666Y-83776247D02*
X158916666Y-84014342D01*
X158916666Y-84014342D02*
X158869047Y-84109580D01*
X158869047Y-84109580D02*
X158821428Y-84157200D01*
X158821428Y-84157200D02*
X158726190Y-84204819D01*
X158726190Y-84204819D02*
X158440476Y-84204819D01*
X158440476Y-84204819D02*
X158345238Y-84157200D01*
X158345238Y-84157200D02*
X158297619Y-84109580D01*
D11*
X144700237Y-81024318D02*
X144700237Y-79754318D01*
X146030714Y-80903365D02*
X145970238Y-80963842D01*
X145970238Y-80963842D02*
X145788809Y-81024318D01*
X145788809Y-81024318D02*
X145667857Y-81024318D01*
X145667857Y-81024318D02*
X145486428Y-80963842D01*
X145486428Y-80963842D02*
X145365476Y-80842889D01*
X145365476Y-80842889D02*
X145304999Y-80721937D01*
X145304999Y-80721937D02*
X145244523Y-80480032D01*
X145244523Y-80480032D02*
X145244523Y-80298603D01*
X145244523Y-80298603D02*
X145304999Y-80056699D01*
X145304999Y-80056699D02*
X145365476Y-79935746D01*
X145365476Y-79935746D02*
X145486428Y-79814794D01*
X145486428Y-79814794D02*
X145667857Y-79754318D01*
X145667857Y-79754318D02*
X145788809Y-79754318D01*
X145788809Y-79754318D02*
X145970238Y-79814794D01*
X145970238Y-79814794D02*
X146030714Y-79875270D01*
X147240238Y-81024318D02*
X146514523Y-81024318D01*
X146877380Y-81024318D02*
X146877380Y-79754318D01*
X146877380Y-79754318D02*
X146756428Y-79935746D01*
X146756428Y-79935746D02*
X146635476Y-80056699D01*
X146635476Y-80056699D02*
X146514523Y-80117175D01*
D10*
X122023810Y-92704819D02*
X122023810Y-91704819D01*
X123071428Y-92609580D02*
X123023809Y-92657200D01*
X123023809Y-92657200D02*
X122880952Y-92704819D01*
X122880952Y-92704819D02*
X122785714Y-92704819D01*
X122785714Y-92704819D02*
X122642857Y-92657200D01*
X122642857Y-92657200D02*
X122547619Y-92561961D01*
X122547619Y-92561961D02*
X122500000Y-92466723D01*
X122500000Y-92466723D02*
X122452381Y-92276247D01*
X122452381Y-92276247D02*
X122452381Y-92133390D01*
X122452381Y-92133390D02*
X122500000Y-91942914D01*
X122500000Y-91942914D02*
X122547619Y-91847676D01*
X122547619Y-91847676D02*
X122642857Y-91752438D01*
X122642857Y-91752438D02*
X122785714Y-91704819D01*
X122785714Y-91704819D02*
X122880952Y-91704819D01*
X122880952Y-91704819D02*
X123023809Y-91752438D01*
X123023809Y-91752438D02*
X123071428Y-91800057D01*
X123452381Y-91800057D02*
X123500000Y-91752438D01*
X123500000Y-91752438D02*
X123595238Y-91704819D01*
X123595238Y-91704819D02*
X123833333Y-91704819D01*
X123833333Y-91704819D02*
X123928571Y-91752438D01*
X123928571Y-91752438D02*
X123976190Y-91800057D01*
X123976190Y-91800057D02*
X124023809Y-91895295D01*
X124023809Y-91895295D02*
X124023809Y-91990533D01*
X124023809Y-91990533D02*
X123976190Y-92133390D01*
X123976190Y-92133390D02*
X123404762Y-92704819D01*
X123404762Y-92704819D02*
X124023809Y-92704819D01*
D11*
X139038333Y-104953365D02*
X138977857Y-105013842D01*
X138977857Y-105013842D02*
X138796428Y-105074318D01*
X138796428Y-105074318D02*
X138675476Y-105074318D01*
X138675476Y-105074318D02*
X138494047Y-105013842D01*
X138494047Y-105013842D02*
X138373095Y-104892889D01*
X138373095Y-104892889D02*
X138312618Y-104771937D01*
X138312618Y-104771937D02*
X138252142Y-104530032D01*
X138252142Y-104530032D02*
X138252142Y-104348603D01*
X138252142Y-104348603D02*
X138312618Y-104106699D01*
X138312618Y-104106699D02*
X138373095Y-103985746D01*
X138373095Y-103985746D02*
X138494047Y-103864794D01*
X138494047Y-103864794D02*
X138675476Y-103804318D01*
X138675476Y-103804318D02*
X138796428Y-103804318D01*
X138796428Y-103804318D02*
X138977857Y-103864794D01*
X138977857Y-103864794D02*
X139038333Y-103925270D01*
X139522142Y-103925270D02*
X139582618Y-103864794D01*
X139582618Y-103864794D02*
X139703571Y-103804318D01*
X139703571Y-103804318D02*
X140005952Y-103804318D01*
X140005952Y-103804318D02*
X140126904Y-103864794D01*
X140126904Y-103864794D02*
X140187380Y-103925270D01*
X140187380Y-103925270D02*
X140247857Y-104046222D01*
X140247857Y-104046222D02*
X140247857Y-104167175D01*
X140247857Y-104167175D02*
X140187380Y-104348603D01*
X140187380Y-104348603D02*
X139461666Y-105074318D01*
X139461666Y-105074318D02*
X140247857Y-105074318D01*
D12*
X160150000Y-99720000D02*
X160150000Y-93970000D01*
X166150000Y-99720000D02*
X160150000Y-99720000D01*
X165040000Y-98370000D02*
X165040000Y-93290000D01*
X166050000Y-98370000D02*
X165040000Y-98370000D01*
X165040000Y-93290000D02*
X166050000Y-93290000D01*
X160200000Y-92620000D02*
X160200000Y-89420000D01*
X160200000Y-89420000D02*
X166150000Y-89420000D01*
X166150000Y-89420000D02*
X166150000Y-99720000D01*
D13*
X136125799Y-97074702D02*
X136125799Y-99425299D01*
X136637639Y-101374201D02*
X141862359Y-101374201D01*
X141862359Y-95125801D02*
X136637639Y-95125801D01*
X142374199Y-99425299D02*
X142374199Y-97074702D01*
D14*
X134728799Y-96000000D02*
G75*
G03*
X133966799Y-96000000I-381000J0D01*
G01*
X133966799Y-96000000D02*
G75*
G03*
X134728799Y-96000000I381000J0D01*
G01*
D15*
X159450000Y-109800000D02*
X162875000Y-109800000D01*
X159450000Y-109800000D02*
X159450000Y-107750000D01*
X166299000Y-108046000D02*
X166299000Y-103654000D01*
X159450000Y-101900000D02*
X159450000Y-103950000D01*
X159450000Y-101900000D02*
X162875000Y-101900000D01*
X156920000Y-106919000D02*
G75*
G03*
X156816000Y-106919000I-52000J0D01*
G01*
X156816000Y-106919000D02*
G75*
G03*
X156920000Y-106919000I52000J0D01*
G01*
X115800000Y-106750000D02*
X117200000Y-106750000D01*
X150075000Y-108125000D02*
X148925000Y-108125000D01*
X148575000Y-108012000D02*
X148425000Y-108012000D01*
X148575000Y-105988000D02*
X148575000Y-108012000D01*
X148425000Y-108012000D02*
X148425000Y-105988000D01*
X148425000Y-105988000D02*
X148575000Y-105988000D01*
X118500000Y-100388000D02*
X118500000Y-100388000D01*
X118500000Y-94612000D02*
X118500000Y-94612000D01*
X115230000Y-97500000D02*
X115230000Y-97500000D01*
X115130000Y-97500000D02*
X115130000Y-97500000D01*
X118500000Y-94612000D02*
G75*
G03*
X118500000Y-100388000I0J-2888000D01*
G01*
X118500000Y-100388000D02*
G75*
G03*
X118500000Y-94612000I0J2888000D01*
G01*
X115130000Y-97500000D02*
G75*
G03*
X115230000Y-97500000I50000J0D01*
G01*
X115230000Y-97500000D02*
G75*
G03*
X115130000Y-97500000I-50000J0D01*
G01*
X127730000Y-94612000D02*
X127730000Y-94612000D01*
X127730000Y-100388000D02*
X127730000Y-100388000D01*
X131000000Y-97500000D02*
X131000000Y-97500000D01*
X131100000Y-97500000D02*
X131100000Y-97500000D01*
X127730000Y-100388000D02*
G75*
G03*
X127730000Y-94612000I0J2888000D01*
G01*
X127730000Y-94612000D02*
G75*
G03*
X127730000Y-100388000I0J-2888000D01*
G01*
X131100000Y-97500000D02*
G75*
G03*
X131000000Y-97500000I-50000J0D01*
G01*
X131000000Y-97500000D02*
G75*
G03*
X131100000Y-97500000I50000J0D01*
G01*
D12*
X130395000Y-108330000D02*
X130395000Y-107000000D01*
X131725000Y-108330000D02*
X130395000Y-108330000D01*
X132995000Y-108330000D02*
X135595000Y-108330000D01*
X132995000Y-108330000D02*
X132995000Y-105670000D01*
X135595000Y-108330000D02*
X135595000Y-105670000D01*
X132995000Y-105670000D02*
X135595000Y-105670000D01*
D13*
X148729651Y-97054952D02*
X148729651Y-99405549D01*
X149241491Y-101354451D02*
X154466211Y-101354451D01*
X154466211Y-95106051D02*
X149241491Y-95106051D01*
X154978051Y-99405549D02*
X154978051Y-97054952D01*
D14*
X147332651Y-95980250D02*
G75*
G03*
X146570651Y-95980250I-381000J0D01*
G01*
X146570651Y-95980250D02*
G75*
G03*
X147332651Y-95980250I381000J0D01*
G01*
D12*
X165850000Y-77900000D02*
X165850000Y-83650000D01*
X159850000Y-77900000D02*
X165850000Y-77900000D01*
X160960000Y-79250000D02*
X160960000Y-84330000D01*
X159950000Y-79250000D02*
X160960000Y-79250000D01*
X160960000Y-84330000D02*
X159950000Y-84330000D01*
X165800000Y-85000000D02*
X165800000Y-88200000D01*
X165800000Y-88200000D02*
X159850000Y-88200000D01*
X159850000Y-88200000D02*
X159850000Y-77900000D01*
D15*
X136090000Y-77550000D02*
X136090000Y-77550000D01*
X136090000Y-77550000D02*
X136090000Y-77550000D01*
X136290000Y-77550000D02*
X136290000Y-77550000D01*
X137290000Y-70450000D02*
X137290000Y-70450000D01*
X137290000Y-70450000D02*
X137290000Y-70450000D01*
X137290000Y-70450000D02*
X137290000Y-76450000D01*
X137290000Y-70450000D02*
X155290000Y-70450000D01*
X137290000Y-76450000D02*
X137290000Y-70450000D01*
X137290000Y-76450000D02*
X137290000Y-76450000D01*
X139040000Y-90450000D02*
X139040000Y-90450000D01*
X139040000Y-90450000D02*
X153540000Y-90450000D01*
X153540000Y-90450000D02*
X139040000Y-90450000D01*
X153540000Y-90450000D02*
X153540000Y-90450000D01*
X155290000Y-70450000D02*
X137290000Y-70450000D01*
X155290000Y-70450000D02*
X155290000Y-70450000D01*
X155290000Y-70450000D02*
X155290000Y-70450000D01*
X155290000Y-70450000D02*
X155290000Y-76450000D01*
X155290000Y-76450000D02*
X155290000Y-70450000D01*
X155290000Y-76450000D02*
X155290000Y-76450000D01*
X136290000Y-77550000D02*
G75*
G03*
X136090000Y-77550000I-100000J0D01*
G01*
X136090000Y-77550000D02*
G75*
G03*
X136290000Y-77550000I100000J0D01*
G01*
X136090000Y-77550000D02*
G75*
G03*
X136290000Y-77550000I100000J0D01*
G01*
D16*
X116250000Y-67150000D02*
X129250000Y-67150000D01*
X116250000Y-76700000D02*
X116250000Y-67150000D01*
X116250000Y-89850000D02*
X116250000Y-88180000D01*
X117030000Y-89850000D02*
X116250000Y-89850000D01*
X129250000Y-67150000D02*
X129250000Y-76700000D01*
X129250000Y-88180000D02*
X129250000Y-89850000D01*
X129250000Y-89850000D02*
X128470000Y-89850000D01*
D15*
X114450000Y-77000000D02*
G75*
G03*
X114250000Y-77000000I-100000J0D01*
G01*
X114250000Y-77000000D02*
G75*
G03*
X114450000Y-77000000I100000J0D01*
G01*
X138975000Y-107000000D02*
X140025000Y-107000000D01*
%LPC*%
D17*
X160590000Y-93290000D03*
D18*
X162750000Y-98370000D03*
D19*
X162750000Y-95830000D03*
X162750000Y-93290000D03*
X162750000Y-90750000D03*
D20*
X135999998Y-96000000D03*
X142500000Y-96000000D03*
X135999998Y-100500001D03*
X142500000Y-100500001D03*
D21*
X159450000Y-106850000D03*
X159450000Y-104850000D03*
D22*
X165000000Y-109200000D03*
X165000000Y-102500000D03*
D23*
X116500000Y-108200000D03*
X116500000Y-105300000D03*
D24*
X149500000Y-107650000D03*
X149500000Y-107000000D03*
X149500000Y-106350000D03*
X147500000Y-106350000D03*
X147500000Y-107650000D03*
D25*
X117230000Y-97500000D03*
X119770000Y-97500000D03*
D26*
X152750000Y-107810000D03*
X152750000Y-106190000D03*
X143000000Y-107810000D03*
X143000000Y-106190000D03*
D25*
X129000000Y-97500000D03*
X126460000Y-97500000D03*
D27*
X131725000Y-107000000D03*
D28*
X134265000Y-107000000D03*
D20*
X148603850Y-95980250D03*
X155103852Y-95980250D03*
X148603850Y-100480251D03*
X155103852Y-100480251D03*
D17*
X165410000Y-84330000D03*
D18*
X163250000Y-79250000D03*
D19*
X163250000Y-81790000D03*
X163250000Y-84330000D03*
X163250000Y-86870000D03*
D29*
X137540000Y-77550000D03*
X137540000Y-79050000D03*
X137540000Y-80550000D03*
X137540000Y-82050000D03*
X137540000Y-83550000D03*
X137540000Y-85050000D03*
X137540000Y-86550000D03*
X137540000Y-88050000D03*
X137540000Y-89550000D03*
X155040000Y-89550000D03*
X155040000Y-88050000D03*
X155040000Y-86550000D03*
X155040000Y-85050000D03*
X155040000Y-83550000D03*
X155040000Y-82050000D03*
X155040000Y-80550000D03*
X155040000Y-79050000D03*
X155040000Y-77550000D03*
D30*
X147250000Y-83750000D03*
X148350000Y-83750000D03*
X148350000Y-82650000D03*
X147250000Y-82650000D03*
X146150000Y-82650000D03*
X146150000Y-83750000D03*
X146150000Y-84850000D03*
X147250000Y-84850000D03*
X148350000Y-84850000D03*
D31*
X116455000Y-77550000D03*
X116455000Y-78950000D03*
X116455000Y-80350000D03*
X116455000Y-81750000D03*
X116455000Y-83150000D03*
X116455000Y-84550000D03*
X116455000Y-85950000D03*
X116455000Y-87350000D03*
D32*
X117850000Y-89645000D03*
X119250000Y-89645000D03*
X120650000Y-89645000D03*
X122050000Y-89645000D03*
X123450000Y-89645000D03*
X124850000Y-89645000D03*
X126250000Y-89645000D03*
X127650000Y-89645000D03*
D31*
X129045000Y-87350000D03*
X129045000Y-85950000D03*
X129045000Y-84550000D03*
X129045000Y-83150000D03*
X129045000Y-81750000D03*
X129045000Y-80350000D03*
X129045000Y-78950000D03*
X129045000Y-77550000D03*
D33*
X139500000Y-107820000D03*
X139500000Y-106180000D03*
%LPD*%
M02*
