G04 #@! TF.GenerationSoftware,KiCad,Pcbnew,7.0.10*
G04 #@! TF.CreationDate,2025-02-21T18:16:38-05:00*
G04 #@! TF.ProjectId,pcb_v2,7063625f-7632-42e6-9b69-6361645f7063,rev?*
G04 #@! TF.SameCoordinates,Original*
G04 #@! TF.FileFunction,Legend,Bot*
G04 #@! TF.FilePolarity,Positive*
%FSLAX46Y46*%
G04 Gerber Fmt 4.6, Leading zero omitted, Abs format (unit mm)*
G04 Created by KiCad (PCBNEW 7.0.10) date 2025-02-21 18:16:38*
%MOMM*%
%LPD*%
G01*
G04 APERTURE LIST*
%ADD10C,0.150000*%
%ADD11C,0.508000*%
%ADD12C,1.100000*%
%ADD13R,2.030000X1.730000*%
%ADD14O,2.030000X1.730000*%
%ADD15C,1.498600*%
%ADD16C,1.431000*%
%ADD17R,1.700000X1.700000*%
%ADD18O,1.700000X1.700000*%
G04 APERTURE END LIST*
D10*
X146060839Y-93362200D02*
X145917982Y-93409819D01*
X145917982Y-93409819D02*
X145679887Y-93409819D01*
X145679887Y-93409819D02*
X145584649Y-93362200D01*
X145584649Y-93362200D02*
X145537030Y-93314580D01*
X145537030Y-93314580D02*
X145489411Y-93219342D01*
X145489411Y-93219342D02*
X145489411Y-93124104D01*
X145489411Y-93124104D02*
X145537030Y-93028866D01*
X145537030Y-93028866D02*
X145584649Y-92981247D01*
X145584649Y-92981247D02*
X145679887Y-92933628D01*
X145679887Y-92933628D02*
X145870363Y-92886009D01*
X145870363Y-92886009D02*
X145965601Y-92838390D01*
X145965601Y-92838390D02*
X146013220Y-92790771D01*
X146013220Y-92790771D02*
X146060839Y-92695533D01*
X146060839Y-92695533D02*
X146060839Y-92600295D01*
X146060839Y-92600295D02*
X146013220Y-92505057D01*
X146013220Y-92505057D02*
X145965601Y-92457438D01*
X145965601Y-92457438D02*
X145870363Y-92409819D01*
X145870363Y-92409819D02*
X145632268Y-92409819D01*
X145632268Y-92409819D02*
X145489411Y-92457438D01*
X145060839Y-93409819D02*
X145060839Y-92409819D01*
X145060839Y-92409819D02*
X144822744Y-92409819D01*
X144822744Y-92409819D02*
X144679887Y-92457438D01*
X144679887Y-92457438D02*
X144584649Y-92552676D01*
X144584649Y-92552676D02*
X144537030Y-92647914D01*
X144537030Y-92647914D02*
X144489411Y-92838390D01*
X144489411Y-92838390D02*
X144489411Y-92981247D01*
X144489411Y-92981247D02*
X144537030Y-93171723D01*
X144537030Y-93171723D02*
X144584649Y-93266961D01*
X144584649Y-93266961D02*
X144679887Y-93362200D01*
X144679887Y-93362200D02*
X144822744Y-93409819D01*
X144822744Y-93409819D02*
X145060839Y-93409819D01*
X144060839Y-93409819D02*
X144060839Y-92409819D01*
X144060839Y-92409819D02*
X143679887Y-92409819D01*
X143679887Y-92409819D02*
X143584649Y-92457438D01*
X143584649Y-92457438D02*
X143537030Y-92505057D01*
X143537030Y-92505057D02*
X143489411Y-92600295D01*
X143489411Y-92600295D02*
X143489411Y-92743152D01*
X143489411Y-92743152D02*
X143537030Y-92838390D01*
X143537030Y-92838390D02*
X143584649Y-92886009D01*
X143584649Y-92886009D02*
X143679887Y-92933628D01*
X143679887Y-92933628D02*
X144060839Y-92933628D01*
X142441791Y-92409819D02*
X141870363Y-92409819D01*
X142156077Y-93409819D02*
X142156077Y-92409819D01*
X141156077Y-93362200D02*
X141251315Y-93409819D01*
X141251315Y-93409819D02*
X141441791Y-93409819D01*
X141441791Y-93409819D02*
X141537029Y-93362200D01*
X141537029Y-93362200D02*
X141584648Y-93266961D01*
X141584648Y-93266961D02*
X141584648Y-92886009D01*
X141584648Y-92886009D02*
X141537029Y-92790771D01*
X141537029Y-92790771D02*
X141441791Y-92743152D01*
X141441791Y-92743152D02*
X141251315Y-92743152D01*
X141251315Y-92743152D02*
X141156077Y-92790771D01*
X141156077Y-92790771D02*
X141108458Y-92886009D01*
X141108458Y-92886009D02*
X141108458Y-92981247D01*
X141108458Y-92981247D02*
X141584648Y-93076485D01*
X140251315Y-93409819D02*
X140251315Y-92886009D01*
X140251315Y-92886009D02*
X140298934Y-92790771D01*
X140298934Y-92790771D02*
X140394172Y-92743152D01*
X140394172Y-92743152D02*
X140584648Y-92743152D01*
X140584648Y-92743152D02*
X140679886Y-92790771D01*
X140251315Y-93362200D02*
X140346553Y-93409819D01*
X140346553Y-93409819D02*
X140584648Y-93409819D01*
X140584648Y-93409819D02*
X140679886Y-93362200D01*
X140679886Y-93362200D02*
X140727505Y-93266961D01*
X140727505Y-93266961D02*
X140727505Y-93171723D01*
X140727505Y-93171723D02*
X140679886Y-93076485D01*
X140679886Y-93076485D02*
X140584648Y-93028866D01*
X140584648Y-93028866D02*
X140346553Y-93028866D01*
X140346553Y-93028866D02*
X140251315Y-92981247D01*
X139775124Y-93409819D02*
X139775124Y-92743152D01*
X139775124Y-92838390D02*
X139727505Y-92790771D01*
X139727505Y-92790771D02*
X139632267Y-92743152D01*
X139632267Y-92743152D02*
X139489410Y-92743152D01*
X139489410Y-92743152D02*
X139394172Y-92790771D01*
X139394172Y-92790771D02*
X139346553Y-92886009D01*
X139346553Y-92886009D02*
X139346553Y-93409819D01*
X139346553Y-92886009D02*
X139298934Y-92790771D01*
X139298934Y-92790771D02*
X139203696Y-92743152D01*
X139203696Y-92743152D02*
X139060839Y-92743152D01*
X139060839Y-92743152D02*
X138965600Y-92790771D01*
X138965600Y-92790771D02*
X138917981Y-92886009D01*
X138917981Y-92886009D02*
X138917981Y-93409819D01*
X137537029Y-92838390D02*
X137632267Y-92790771D01*
X137632267Y-92790771D02*
X137679886Y-92743152D01*
X137679886Y-92743152D02*
X137727505Y-92647914D01*
X137727505Y-92647914D02*
X137727505Y-92600295D01*
X137727505Y-92600295D02*
X137679886Y-92505057D01*
X137679886Y-92505057D02*
X137632267Y-92457438D01*
X137632267Y-92457438D02*
X137537029Y-92409819D01*
X137537029Y-92409819D02*
X137346553Y-92409819D01*
X137346553Y-92409819D02*
X137251315Y-92457438D01*
X137251315Y-92457438D02*
X137203696Y-92505057D01*
X137203696Y-92505057D02*
X137156077Y-92600295D01*
X137156077Y-92600295D02*
X137156077Y-92647914D01*
X137156077Y-92647914D02*
X137203696Y-92743152D01*
X137203696Y-92743152D02*
X137251315Y-92790771D01*
X137251315Y-92790771D02*
X137346553Y-92838390D01*
X137346553Y-92838390D02*
X137537029Y-92838390D01*
X137537029Y-92838390D02*
X137632267Y-92886009D01*
X137632267Y-92886009D02*
X137679886Y-92933628D01*
X137679886Y-92933628D02*
X137727505Y-93028866D01*
X137727505Y-93028866D02*
X137727505Y-93219342D01*
X137727505Y-93219342D02*
X137679886Y-93314580D01*
X137679886Y-93314580D02*
X137632267Y-93362200D01*
X137632267Y-93362200D02*
X137537029Y-93409819D01*
X137537029Y-93409819D02*
X137346553Y-93409819D01*
X137346553Y-93409819D02*
X137251315Y-93362200D01*
X137251315Y-93362200D02*
X137203696Y-93314580D01*
X137203696Y-93314580D02*
X137156077Y-93219342D01*
X137156077Y-93219342D02*
X137156077Y-93028866D01*
X137156077Y-93028866D02*
X137203696Y-92933628D01*
X137203696Y-92933628D02*
X137251315Y-92886009D01*
X137251315Y-92886009D02*
X137346553Y-92838390D01*
X135965600Y-93409819D02*
X135965600Y-92409819D01*
X135965600Y-92409819D02*
X135584648Y-92409819D01*
X135584648Y-92409819D02*
X135489410Y-92457438D01*
X135489410Y-92457438D02*
X135441791Y-92505057D01*
X135441791Y-92505057D02*
X135394172Y-92600295D01*
X135394172Y-92600295D02*
X135394172Y-92743152D01*
X135394172Y-92743152D02*
X135441791Y-92838390D01*
X135441791Y-92838390D02*
X135489410Y-92886009D01*
X135489410Y-92886009D02*
X135584648Y-92933628D01*
X135584648Y-92933628D02*
X135965600Y-92933628D01*
X134394172Y-93314580D02*
X134441791Y-93362200D01*
X134441791Y-93362200D02*
X134584648Y-93409819D01*
X134584648Y-93409819D02*
X134679886Y-93409819D01*
X134679886Y-93409819D02*
X134822743Y-93362200D01*
X134822743Y-93362200D02*
X134917981Y-93266961D01*
X134917981Y-93266961D02*
X134965600Y-93171723D01*
X134965600Y-93171723D02*
X135013219Y-92981247D01*
X135013219Y-92981247D02*
X135013219Y-92838390D01*
X135013219Y-92838390D02*
X134965600Y-92647914D01*
X134965600Y-92647914D02*
X134917981Y-92552676D01*
X134917981Y-92552676D02*
X134822743Y-92457438D01*
X134822743Y-92457438D02*
X134679886Y-92409819D01*
X134679886Y-92409819D02*
X134584648Y-92409819D01*
X134584648Y-92409819D02*
X134441791Y-92457438D01*
X134441791Y-92457438D02*
X134394172Y-92505057D01*
X133632267Y-92886009D02*
X133489410Y-92933628D01*
X133489410Y-92933628D02*
X133441791Y-92981247D01*
X133441791Y-92981247D02*
X133394172Y-93076485D01*
X133394172Y-93076485D02*
X133394172Y-93219342D01*
X133394172Y-93219342D02*
X133441791Y-93314580D01*
X133441791Y-93314580D02*
X133489410Y-93362200D01*
X133489410Y-93362200D02*
X133584648Y-93409819D01*
X133584648Y-93409819D02*
X133965600Y-93409819D01*
X133965600Y-93409819D02*
X133965600Y-92409819D01*
X133965600Y-92409819D02*
X133632267Y-92409819D01*
X133632267Y-92409819D02*
X133537029Y-92457438D01*
X133537029Y-92457438D02*
X133489410Y-92505057D01*
X133489410Y-92505057D02*
X133441791Y-92600295D01*
X133441791Y-92600295D02*
X133441791Y-92695533D01*
X133441791Y-92695533D02*
X133489410Y-92790771D01*
X133489410Y-92790771D02*
X133537029Y-92838390D01*
X133537029Y-92838390D02*
X133632267Y-92886009D01*
X133632267Y-92886009D02*
X133965600Y-92886009D01*
X132298933Y-92743152D02*
X132060838Y-93409819D01*
X132060838Y-93409819D02*
X131822743Y-92743152D01*
X131489409Y-92505057D02*
X131441790Y-92457438D01*
X131441790Y-92457438D02*
X131346552Y-92409819D01*
X131346552Y-92409819D02*
X131108457Y-92409819D01*
X131108457Y-92409819D02*
X131013219Y-92457438D01*
X131013219Y-92457438D02*
X130965600Y-92505057D01*
X130965600Y-92505057D02*
X130917981Y-92600295D01*
X130917981Y-92600295D02*
X130917981Y-92695533D01*
X130917981Y-92695533D02*
X130965600Y-92838390D01*
X130965600Y-92838390D02*
X131537028Y-93409819D01*
X131537028Y-93409819D02*
X130917981Y-93409819D01*
D11*
X134728799Y-96000000D02*
G75*
G03*
X133966799Y-96000000I-381000J0D01*
G01*
X133966799Y-96000000D02*
G75*
G03*
X134728799Y-96000000I381000J0D01*
G01*
X147332651Y-95980250D02*
G75*
G03*
X146570651Y-95980250I-381000J0D01*
G01*
X146570651Y-95980250D02*
G75*
G03*
X147332651Y-95980250I381000J0D01*
G01*
%LPC*%
D12*
X160590000Y-93290000D03*
D13*
X162750000Y-98370000D03*
D14*
X162750000Y-95830000D03*
X162750000Y-93290000D03*
X162750000Y-90750000D03*
D15*
X135999998Y-96000000D03*
X142500000Y-96000000D03*
X135999998Y-100500001D03*
X142500000Y-100500001D03*
D16*
X117230000Y-97500000D03*
X119770000Y-97500000D03*
X129000000Y-97500000D03*
X126460000Y-97500000D03*
D17*
X131725000Y-107000000D03*
D18*
X134265000Y-107000000D03*
D15*
X148603850Y-95980250D03*
X155103852Y-95980250D03*
X148603850Y-100480251D03*
X155103852Y-100480251D03*
D12*
X165410000Y-84330000D03*
D13*
X163250000Y-79250000D03*
D14*
X163250000Y-81790000D03*
X163250000Y-84330000D03*
X163250000Y-86870000D03*
%LPD*%
M02*
