G04 #@! TF.GenerationSoftware,KiCad,Pcbnew,7.0.10*
G04 #@! TF.CreationDate,2025-02-21T18:16:38-05:00*
G04 #@! TF.ProjectId,pcb_v2,7063625f-7632-42e6-9b69-6361645f7063,rev?*
G04 #@! TF.SameCoordinates,Original*
G04 #@! TF.FileFunction,Copper,L2,Bot*
G04 #@! TF.FilePolarity,Positive*
%FSLAX46Y46*%
G04 Gerber Fmt 4.6, Leading zero omitted, Abs format (unit mm)*
G04 Created by KiCad (PCBNEW 7.0.10) date 2025-02-21 18:16:38*
%MOMM*%
%LPD*%
G01*
G04 APERTURE LIST*
G04 #@! TA.AperFunction,ComponentPad*
%ADD10R,2.030000X1.730000*%
G04 #@! TD*
G04 #@! TA.AperFunction,ComponentPad*
%ADD11O,2.030000X1.730000*%
G04 #@! TD*
G04 #@! TA.AperFunction,ComponentPad*
%ADD12C,1.498600*%
G04 #@! TD*
G04 #@! TA.AperFunction,ComponentPad*
%ADD13C,1.431000*%
G04 #@! TD*
G04 #@! TA.AperFunction,ComponentPad*
%ADD14R,1.700000X1.700000*%
G04 #@! TD*
G04 #@! TA.AperFunction,ComponentPad*
%ADD15O,1.700000X1.700000*%
G04 #@! TD*
G04 #@! TA.AperFunction,ViaPad*
%ADD16C,0.800000*%
G04 #@! TD*
G04 #@! TA.AperFunction,Conductor*
%ADD17C,0.250000*%
G04 #@! TD*
G04 APERTURE END LIST*
D10*
X162750000Y-98370000D03*
D11*
X162750000Y-95830000D03*
X162750000Y-93290000D03*
X162750000Y-90750000D03*
D12*
X135999998Y-96000000D03*
X142500000Y-96000000D03*
X135999998Y-100500001D03*
X142500000Y-100500001D03*
D13*
X117230000Y-97500000D03*
X119770000Y-97500000D03*
X129000000Y-97500000D03*
X126460000Y-97500000D03*
D14*
X131725000Y-107000000D03*
D15*
X134265000Y-107000000D03*
D12*
X148603850Y-95980250D03*
X155103852Y-95980250D03*
X148603850Y-100480251D03*
X155103852Y-100480251D03*
D10*
X163250000Y-79250000D03*
D11*
X163250000Y-81790000D03*
X163250000Y-84330000D03*
X163250000Y-86870000D03*
D16*
X119000000Y-83000000D03*
X135750000Y-79000000D03*
X133500000Y-86000000D03*
X140500000Y-82000000D03*
X140500000Y-83500000D03*
X133500000Y-84500000D03*
X133500000Y-83000000D03*
X140500000Y-85000000D03*
X139500000Y-86500000D03*
X142500000Y-93500000D03*
X139500000Y-88000000D03*
X153000000Y-89500000D03*
X153000000Y-85000000D03*
X131500000Y-80500000D03*
X153000000Y-83500000D03*
X119000000Y-80500000D03*
X116500000Y-103500000D03*
X150750000Y-96000000D03*
D17*
X119000000Y-83000000D02*
X131750000Y-83000000D01*
X131750000Y-83000000D02*
X135750000Y-79000000D01*
X141225000Y-82725000D02*
X140500000Y-82000000D01*
X133500000Y-86000000D02*
X133775000Y-85725000D01*
X133775000Y-85725000D02*
X140800305Y-85725000D01*
X140800305Y-85725000D02*
X141225000Y-85300305D01*
X141225000Y-85300305D02*
X141225000Y-82725000D01*
X133199695Y-82275000D02*
X139275000Y-82275000D01*
X132775000Y-83775000D02*
X132775000Y-82699695D01*
X133500000Y-84500000D02*
X132775000Y-83775000D01*
X139275000Y-82275000D02*
X140500000Y-83500000D01*
X132775000Y-82699695D02*
X133199695Y-82275000D01*
X133500000Y-83000000D02*
X138500000Y-83000000D01*
X138500000Y-83000000D02*
X140500000Y-85000000D01*
X131725000Y-94275000D02*
X131725000Y-107000000D01*
X139500000Y-86500000D02*
X131725000Y-94275000D01*
X139500000Y-90500000D02*
X139500000Y-88000000D01*
X142500000Y-93500000D02*
X139500000Y-90500000D01*
X153000000Y-89500000D02*
X151765000Y-89500000D01*
X151765000Y-89500000D02*
X134265000Y-107000000D01*
X146275000Y-78275000D02*
X153000000Y-85000000D01*
X133725000Y-78275000D02*
X146275000Y-78275000D01*
X131500000Y-80500000D02*
X133725000Y-78275000D01*
X153000000Y-78500000D02*
X152250000Y-77750000D01*
X120000000Y-77750000D02*
X120000000Y-79500000D01*
X152250000Y-77750000D02*
X120000000Y-77750000D01*
X153000000Y-83500000D02*
X153000000Y-78500000D01*
X120000000Y-79500000D02*
X119000000Y-80500000D01*
X122500000Y-109500000D02*
X151000000Y-109500000D01*
X151250000Y-96500000D02*
X150750000Y-96000000D01*
X116500000Y-103500000D02*
X122500000Y-109500000D01*
X151000000Y-109500000D02*
X151250000Y-109250000D01*
X151250000Y-109250000D02*
X151250000Y-96500000D01*
M02*
