%TF.GenerationSoftware,KiCad,Pcbnew,7.0.10*%
%TF.CreationDate,2024-10-31T16:29:59-04:00*%
%TF.ProjectId,pcb_v1,7063625f-7631-42e6-9b69-6361645f7063,rev?*%
%TF.SameCoordinates,Original*%
%TF.FileFunction,Drillmap*%
%TF.FilePolarity,Positive*%
%FSLAX45Y45*%
G04 Gerber Fmt 4.5, Leading zero omitted, Abs format (unit mm)*
G04 Created by KiCad (PCBNEW 7.0.10) date 2024-10-31 16:29:59*
%MOMM*%
%LPD*%
G01*
G04 APERTURE LIST*
%ADD10C,0.100000*%
%ADD11C,0.200000*%
G04 APERTURE END LIST*
D10*
X10675000Y-8700000D02*
X16100000Y-8700000D01*
X16100000Y-12400000D01*
X10675000Y-12400000D01*
X10675000Y-8700000D01*
D11*
D10*
X12105000Y-11405000D02*
X12145000Y-11445000D01*
X12145000Y-11405000D02*
X12105000Y-11445000D01*
X13155000Y-11905000D02*
X13195000Y-11945000D01*
X13195000Y-11905000D02*
X13155000Y-11945000D01*
X13905000Y-11105000D02*
X13945000Y-11145000D01*
X13945000Y-11105000D02*
X13905000Y-11145000D01*
X15718500Y-10593500D02*
X15758500Y-10633500D01*
X15758500Y-10593500D02*
X15718500Y-10633500D01*
D11*
X10930777Y-12716484D02*
X10930777Y-12516484D01*
X10930777Y-12516484D02*
X10978396Y-12516484D01*
X10978396Y-12516484D02*
X11006967Y-12526008D01*
X11006967Y-12526008D02*
X11026015Y-12545055D01*
X11026015Y-12545055D02*
X11035539Y-12564103D01*
X11035539Y-12564103D02*
X11045063Y-12602198D01*
X11045063Y-12602198D02*
X11045063Y-12630769D01*
X11045063Y-12630769D02*
X11035539Y-12668865D01*
X11035539Y-12668865D02*
X11026015Y-12687912D01*
X11026015Y-12687912D02*
X11006967Y-12706960D01*
X11006967Y-12706960D02*
X10978396Y-12716484D01*
X10978396Y-12716484D02*
X10930777Y-12716484D01*
X11130777Y-12716484D02*
X11130777Y-12583150D01*
X11130777Y-12621246D02*
X11140301Y-12602198D01*
X11140301Y-12602198D02*
X11149824Y-12592674D01*
X11149824Y-12592674D02*
X11168872Y-12583150D01*
X11168872Y-12583150D02*
X11187920Y-12583150D01*
X11254586Y-12716484D02*
X11254586Y-12583150D01*
X11254586Y-12516484D02*
X11245062Y-12526008D01*
X11245062Y-12526008D02*
X11254586Y-12535531D01*
X11254586Y-12535531D02*
X11264110Y-12526008D01*
X11264110Y-12526008D02*
X11254586Y-12516484D01*
X11254586Y-12516484D02*
X11254586Y-12535531D01*
X11378396Y-12716484D02*
X11359348Y-12706960D01*
X11359348Y-12706960D02*
X11349824Y-12687912D01*
X11349824Y-12687912D02*
X11349824Y-12516484D01*
X11483158Y-12716484D02*
X11464110Y-12706960D01*
X11464110Y-12706960D02*
X11454586Y-12687912D01*
X11454586Y-12687912D02*
X11454586Y-12516484D01*
X11711729Y-12716484D02*
X11711729Y-12516484D01*
X11711729Y-12516484D02*
X11778396Y-12659341D01*
X11778396Y-12659341D02*
X11845062Y-12516484D01*
X11845062Y-12516484D02*
X11845062Y-12716484D01*
X12026015Y-12716484D02*
X12026015Y-12611722D01*
X12026015Y-12611722D02*
X12016491Y-12592674D01*
X12016491Y-12592674D02*
X11997443Y-12583150D01*
X11997443Y-12583150D02*
X11959348Y-12583150D01*
X11959348Y-12583150D02*
X11940301Y-12592674D01*
X12026015Y-12706960D02*
X12006967Y-12716484D01*
X12006967Y-12716484D02*
X11959348Y-12716484D01*
X11959348Y-12716484D02*
X11940301Y-12706960D01*
X11940301Y-12706960D02*
X11930777Y-12687912D01*
X11930777Y-12687912D02*
X11930777Y-12668865D01*
X11930777Y-12668865D02*
X11940301Y-12649817D01*
X11940301Y-12649817D02*
X11959348Y-12640293D01*
X11959348Y-12640293D02*
X12006967Y-12640293D01*
X12006967Y-12640293D02*
X12026015Y-12630769D01*
X12121253Y-12583150D02*
X12121253Y-12783150D01*
X12121253Y-12592674D02*
X12140301Y-12583150D01*
X12140301Y-12583150D02*
X12178396Y-12583150D01*
X12178396Y-12583150D02*
X12197443Y-12592674D01*
X12197443Y-12592674D02*
X12206967Y-12602198D01*
X12206967Y-12602198D02*
X12216491Y-12621246D01*
X12216491Y-12621246D02*
X12216491Y-12678388D01*
X12216491Y-12678388D02*
X12206967Y-12697436D01*
X12206967Y-12697436D02*
X12197443Y-12706960D01*
X12197443Y-12706960D02*
X12178396Y-12716484D01*
X12178396Y-12716484D02*
X12140301Y-12716484D01*
X12140301Y-12716484D02*
X12121253Y-12706960D01*
X12302205Y-12697436D02*
X12311729Y-12706960D01*
X12311729Y-12706960D02*
X12302205Y-12716484D01*
X12302205Y-12716484D02*
X12292682Y-12706960D01*
X12292682Y-12706960D02*
X12302205Y-12697436D01*
X12302205Y-12697436D02*
X12302205Y-12716484D01*
X12302205Y-12592674D02*
X12311729Y-12602198D01*
X12311729Y-12602198D02*
X12302205Y-12611722D01*
X12302205Y-12611722D02*
X12292682Y-12602198D01*
X12292682Y-12602198D02*
X12302205Y-12592674D01*
X12302205Y-12592674D02*
X12302205Y-12611722D01*
D10*
X10630000Y-13025000D02*
X10670000Y-13065000D01*
X10670000Y-13025000D02*
X10630000Y-13065000D01*
D11*
X10968872Y-12936484D02*
X10987920Y-12936484D01*
X10987920Y-12936484D02*
X11006967Y-12946008D01*
X11006967Y-12946008D02*
X11016491Y-12955531D01*
X11016491Y-12955531D02*
X11026015Y-12974579D01*
X11026015Y-12974579D02*
X11035539Y-13012674D01*
X11035539Y-13012674D02*
X11035539Y-13060293D01*
X11035539Y-13060293D02*
X11026015Y-13098388D01*
X11026015Y-13098388D02*
X11016491Y-13117436D01*
X11016491Y-13117436D02*
X11006967Y-13126960D01*
X11006967Y-13126960D02*
X10987920Y-13136484D01*
X10987920Y-13136484D02*
X10968872Y-13136484D01*
X10968872Y-13136484D02*
X10949824Y-13126960D01*
X10949824Y-13126960D02*
X10940301Y-13117436D01*
X10940301Y-13117436D02*
X10930777Y-13098388D01*
X10930777Y-13098388D02*
X10921253Y-13060293D01*
X10921253Y-13060293D02*
X10921253Y-13012674D01*
X10921253Y-13012674D02*
X10930777Y-12974579D01*
X10930777Y-12974579D02*
X10940301Y-12955531D01*
X10940301Y-12955531D02*
X10949824Y-12946008D01*
X10949824Y-12946008D02*
X10968872Y-12936484D01*
X11121253Y-13117436D02*
X11130777Y-13126960D01*
X11130777Y-13126960D02*
X11121253Y-13136484D01*
X11121253Y-13136484D02*
X11111729Y-13126960D01*
X11111729Y-13126960D02*
X11121253Y-13117436D01*
X11121253Y-13117436D02*
X11121253Y-13136484D01*
X11302205Y-13003150D02*
X11302205Y-13136484D01*
X11254586Y-12926960D02*
X11206967Y-13069817D01*
X11206967Y-13069817D02*
X11330777Y-13069817D01*
X11445062Y-12936484D02*
X11464110Y-12936484D01*
X11464110Y-12936484D02*
X11483158Y-12946008D01*
X11483158Y-12946008D02*
X11492682Y-12955531D01*
X11492682Y-12955531D02*
X11502205Y-12974579D01*
X11502205Y-12974579D02*
X11511729Y-13012674D01*
X11511729Y-13012674D02*
X11511729Y-13060293D01*
X11511729Y-13060293D02*
X11502205Y-13098388D01*
X11502205Y-13098388D02*
X11492682Y-13117436D01*
X11492682Y-13117436D02*
X11483158Y-13126960D01*
X11483158Y-13126960D02*
X11464110Y-13136484D01*
X11464110Y-13136484D02*
X11445062Y-13136484D01*
X11445062Y-13136484D02*
X11426015Y-13126960D01*
X11426015Y-13126960D02*
X11416491Y-13117436D01*
X11416491Y-13117436D02*
X11406967Y-13098388D01*
X11406967Y-13098388D02*
X11397443Y-13060293D01*
X11397443Y-13060293D02*
X11397443Y-13012674D01*
X11397443Y-13012674D02*
X11406967Y-12974579D01*
X11406967Y-12974579D02*
X11416491Y-12955531D01*
X11416491Y-12955531D02*
X11426015Y-12946008D01*
X11426015Y-12946008D02*
X11445062Y-12936484D01*
X11635539Y-12936484D02*
X11654586Y-12936484D01*
X11654586Y-12936484D02*
X11673634Y-12946008D01*
X11673634Y-12946008D02*
X11683158Y-12955531D01*
X11683158Y-12955531D02*
X11692682Y-12974579D01*
X11692682Y-12974579D02*
X11702205Y-13012674D01*
X11702205Y-13012674D02*
X11702205Y-13060293D01*
X11702205Y-13060293D02*
X11692682Y-13098388D01*
X11692682Y-13098388D02*
X11683158Y-13117436D01*
X11683158Y-13117436D02*
X11673634Y-13126960D01*
X11673634Y-13126960D02*
X11654586Y-13136484D01*
X11654586Y-13136484D02*
X11635539Y-13136484D01*
X11635539Y-13136484D02*
X11616491Y-13126960D01*
X11616491Y-13126960D02*
X11606967Y-13117436D01*
X11606967Y-13117436D02*
X11597443Y-13098388D01*
X11597443Y-13098388D02*
X11587920Y-13060293D01*
X11587920Y-13060293D02*
X11587920Y-13012674D01*
X11587920Y-13012674D02*
X11597443Y-12974579D01*
X11597443Y-12974579D02*
X11606967Y-12955531D01*
X11606967Y-12955531D02*
X11616491Y-12946008D01*
X11616491Y-12946008D02*
X11635539Y-12936484D01*
X11787920Y-13136484D02*
X11787920Y-13003150D01*
X11787920Y-13022198D02*
X11797443Y-13012674D01*
X11797443Y-13012674D02*
X11816491Y-13003150D01*
X11816491Y-13003150D02*
X11845063Y-13003150D01*
X11845063Y-13003150D02*
X11864110Y-13012674D01*
X11864110Y-13012674D02*
X11873634Y-13031722D01*
X11873634Y-13031722D02*
X11873634Y-13136484D01*
X11873634Y-13031722D02*
X11883158Y-13012674D01*
X11883158Y-13012674D02*
X11902205Y-13003150D01*
X11902205Y-13003150D02*
X11930777Y-13003150D01*
X11930777Y-13003150D02*
X11949824Y-13012674D01*
X11949824Y-13012674D02*
X11959348Y-13031722D01*
X11959348Y-13031722D02*
X11959348Y-13136484D01*
X12054586Y-13136484D02*
X12054586Y-13003150D01*
X12054586Y-13022198D02*
X12064110Y-13012674D01*
X12064110Y-13012674D02*
X12083158Y-13003150D01*
X12083158Y-13003150D02*
X12111729Y-13003150D01*
X12111729Y-13003150D02*
X12130777Y-13012674D01*
X12130777Y-13012674D02*
X12140301Y-13031722D01*
X12140301Y-13031722D02*
X12140301Y-13136484D01*
X12140301Y-13031722D02*
X12149824Y-13012674D01*
X12149824Y-13012674D02*
X12168872Y-13003150D01*
X12168872Y-13003150D02*
X12197443Y-13003150D01*
X12197443Y-13003150D02*
X12216491Y-13012674D01*
X12216491Y-13012674D02*
X12226015Y-13031722D01*
X12226015Y-13031722D02*
X12226015Y-13136484D01*
X12616491Y-12926960D02*
X12445063Y-13184103D01*
X12873634Y-12936484D02*
X12892682Y-12936484D01*
X12892682Y-12936484D02*
X12911729Y-12946008D01*
X12911729Y-12946008D02*
X12921253Y-12955531D01*
X12921253Y-12955531D02*
X12930777Y-12974579D01*
X12930777Y-12974579D02*
X12940301Y-13012674D01*
X12940301Y-13012674D02*
X12940301Y-13060293D01*
X12940301Y-13060293D02*
X12930777Y-13098388D01*
X12930777Y-13098388D02*
X12921253Y-13117436D01*
X12921253Y-13117436D02*
X12911729Y-13126960D01*
X12911729Y-13126960D02*
X12892682Y-13136484D01*
X12892682Y-13136484D02*
X12873634Y-13136484D01*
X12873634Y-13136484D02*
X12854586Y-13126960D01*
X12854586Y-13126960D02*
X12845063Y-13117436D01*
X12845063Y-13117436D02*
X12835539Y-13098388D01*
X12835539Y-13098388D02*
X12826015Y-13060293D01*
X12826015Y-13060293D02*
X12826015Y-13012674D01*
X12826015Y-13012674D02*
X12835539Y-12974579D01*
X12835539Y-12974579D02*
X12845063Y-12955531D01*
X12845063Y-12955531D02*
X12854586Y-12946008D01*
X12854586Y-12946008D02*
X12873634Y-12936484D01*
X13026015Y-13117436D02*
X13035539Y-13126960D01*
X13035539Y-13126960D02*
X13026015Y-13136484D01*
X13026015Y-13136484D02*
X13016491Y-13126960D01*
X13016491Y-13126960D02*
X13026015Y-13117436D01*
X13026015Y-13117436D02*
X13026015Y-13136484D01*
X13159348Y-12936484D02*
X13178396Y-12936484D01*
X13178396Y-12936484D02*
X13197444Y-12946008D01*
X13197444Y-12946008D02*
X13206967Y-12955531D01*
X13206967Y-12955531D02*
X13216491Y-12974579D01*
X13216491Y-12974579D02*
X13226015Y-13012674D01*
X13226015Y-13012674D02*
X13226015Y-13060293D01*
X13226015Y-13060293D02*
X13216491Y-13098388D01*
X13216491Y-13098388D02*
X13206967Y-13117436D01*
X13206967Y-13117436D02*
X13197444Y-13126960D01*
X13197444Y-13126960D02*
X13178396Y-13136484D01*
X13178396Y-13136484D02*
X13159348Y-13136484D01*
X13159348Y-13136484D02*
X13140301Y-13126960D01*
X13140301Y-13126960D02*
X13130777Y-13117436D01*
X13130777Y-13117436D02*
X13121253Y-13098388D01*
X13121253Y-13098388D02*
X13111729Y-13060293D01*
X13111729Y-13060293D02*
X13111729Y-13012674D01*
X13111729Y-13012674D02*
X13121253Y-12974579D01*
X13121253Y-12974579D02*
X13130777Y-12955531D01*
X13130777Y-12955531D02*
X13140301Y-12946008D01*
X13140301Y-12946008D02*
X13159348Y-12936484D01*
X13416491Y-13136484D02*
X13302206Y-13136484D01*
X13359348Y-13136484D02*
X13359348Y-12936484D01*
X13359348Y-12936484D02*
X13340301Y-12965055D01*
X13340301Y-12965055D02*
X13321253Y-12984103D01*
X13321253Y-12984103D02*
X13302206Y-12993627D01*
X13597444Y-12936484D02*
X13502206Y-12936484D01*
X13502206Y-12936484D02*
X13492682Y-13031722D01*
X13492682Y-13031722D02*
X13502206Y-13022198D01*
X13502206Y-13022198D02*
X13521253Y-13012674D01*
X13521253Y-13012674D02*
X13568872Y-13012674D01*
X13568872Y-13012674D02*
X13587920Y-13022198D01*
X13587920Y-13022198D02*
X13597444Y-13031722D01*
X13597444Y-13031722D02*
X13606967Y-13050769D01*
X13606967Y-13050769D02*
X13606967Y-13098388D01*
X13606967Y-13098388D02*
X13597444Y-13117436D01*
X13597444Y-13117436D02*
X13587920Y-13126960D01*
X13587920Y-13126960D02*
X13568872Y-13136484D01*
X13568872Y-13136484D02*
X13521253Y-13136484D01*
X13521253Y-13136484D02*
X13502206Y-13126960D01*
X13502206Y-13126960D02*
X13492682Y-13117436D01*
X13673634Y-12936484D02*
X13806967Y-12936484D01*
X13806967Y-12936484D02*
X13721253Y-13136484D01*
X13873634Y-12936484D02*
X13873634Y-12974579D01*
X13949825Y-12936484D02*
X13949825Y-12974579D01*
X14245063Y-13212674D02*
X14235539Y-13203150D01*
X14235539Y-13203150D02*
X14216491Y-13174579D01*
X14216491Y-13174579D02*
X14206968Y-13155531D01*
X14206968Y-13155531D02*
X14197444Y-13126960D01*
X14197444Y-13126960D02*
X14187920Y-13079341D01*
X14187920Y-13079341D02*
X14187920Y-13041246D01*
X14187920Y-13041246D02*
X14197444Y-12993627D01*
X14197444Y-12993627D02*
X14206968Y-12965055D01*
X14206968Y-12965055D02*
X14216491Y-12946008D01*
X14216491Y-12946008D02*
X14235539Y-12917436D01*
X14235539Y-12917436D02*
X14245063Y-12907912D01*
X14406968Y-13003150D02*
X14406968Y-13136484D01*
X14359348Y-12926960D02*
X14311729Y-13069817D01*
X14311729Y-13069817D02*
X14435539Y-13069817D01*
X14664110Y-13136484D02*
X14664110Y-12936484D01*
X14749825Y-13136484D02*
X14749825Y-13031722D01*
X14749825Y-13031722D02*
X14740301Y-13012674D01*
X14740301Y-13012674D02*
X14721253Y-13003150D01*
X14721253Y-13003150D02*
X14692682Y-13003150D01*
X14692682Y-13003150D02*
X14673634Y-13012674D01*
X14673634Y-13012674D02*
X14664110Y-13022198D01*
X14873634Y-13136484D02*
X14854587Y-13126960D01*
X14854587Y-13126960D02*
X14845063Y-13117436D01*
X14845063Y-13117436D02*
X14835539Y-13098388D01*
X14835539Y-13098388D02*
X14835539Y-13041246D01*
X14835539Y-13041246D02*
X14845063Y-13022198D01*
X14845063Y-13022198D02*
X14854587Y-13012674D01*
X14854587Y-13012674D02*
X14873634Y-13003150D01*
X14873634Y-13003150D02*
X14902206Y-13003150D01*
X14902206Y-13003150D02*
X14921253Y-13012674D01*
X14921253Y-13012674D02*
X14930777Y-13022198D01*
X14930777Y-13022198D02*
X14940301Y-13041246D01*
X14940301Y-13041246D02*
X14940301Y-13098388D01*
X14940301Y-13098388D02*
X14930777Y-13117436D01*
X14930777Y-13117436D02*
X14921253Y-13126960D01*
X14921253Y-13126960D02*
X14902206Y-13136484D01*
X14902206Y-13136484D02*
X14873634Y-13136484D01*
X15054587Y-13136484D02*
X15035539Y-13126960D01*
X15035539Y-13126960D02*
X15026015Y-13107912D01*
X15026015Y-13107912D02*
X15026015Y-12936484D01*
X15206968Y-13126960D02*
X15187920Y-13136484D01*
X15187920Y-13136484D02*
X15149825Y-13136484D01*
X15149825Y-13136484D02*
X15130777Y-13126960D01*
X15130777Y-13126960D02*
X15121253Y-13107912D01*
X15121253Y-13107912D02*
X15121253Y-13031722D01*
X15121253Y-13031722D02*
X15130777Y-13012674D01*
X15130777Y-13012674D02*
X15149825Y-13003150D01*
X15149825Y-13003150D02*
X15187920Y-13003150D01*
X15187920Y-13003150D02*
X15206968Y-13012674D01*
X15206968Y-13012674D02*
X15216491Y-13031722D01*
X15216491Y-13031722D02*
X15216491Y-13050769D01*
X15216491Y-13050769D02*
X15121253Y-13069817D01*
X15292682Y-13126960D02*
X15311730Y-13136484D01*
X15311730Y-13136484D02*
X15349825Y-13136484D01*
X15349825Y-13136484D02*
X15368872Y-13126960D01*
X15368872Y-13126960D02*
X15378396Y-13107912D01*
X15378396Y-13107912D02*
X15378396Y-13098388D01*
X15378396Y-13098388D02*
X15368872Y-13079341D01*
X15368872Y-13079341D02*
X15349825Y-13069817D01*
X15349825Y-13069817D02*
X15321253Y-13069817D01*
X15321253Y-13069817D02*
X15302206Y-13060293D01*
X15302206Y-13060293D02*
X15292682Y-13041246D01*
X15292682Y-13041246D02*
X15292682Y-13031722D01*
X15292682Y-13031722D02*
X15302206Y-13012674D01*
X15302206Y-13012674D02*
X15321253Y-13003150D01*
X15321253Y-13003150D02*
X15349825Y-13003150D01*
X15349825Y-13003150D02*
X15368872Y-13012674D01*
X15445063Y-13212674D02*
X15454587Y-13203150D01*
X15454587Y-13203150D02*
X15473634Y-13174579D01*
X15473634Y-13174579D02*
X15483158Y-13155531D01*
X15483158Y-13155531D02*
X15492682Y-13126960D01*
X15492682Y-13126960D02*
X15502206Y-13079341D01*
X15502206Y-13079341D02*
X15502206Y-13041246D01*
X15502206Y-13041246D02*
X15492682Y-12993627D01*
X15492682Y-12993627D02*
X15483158Y-12965055D01*
X15483158Y-12965055D02*
X15473634Y-12946008D01*
X15473634Y-12946008D02*
X15454587Y-12917436D01*
X15454587Y-12917436D02*
X15445063Y-12907912D01*
M02*
