%TF.GenerationSoftware,KiCad,Pcbnew,7.0.10*%
%TF.CreationDate,2024-10-31T16:29:59-04:00*%
%TF.ProjectId,pcb_v1,7063625f-7631-42e6-9b69-6361645f7063,rev?*%
%TF.SameCoordinates,Original*%
%TF.FileFunction,Drillmap*%
%TF.FilePolarity,Positive*%
%FSLAX45Y45*%
G04 Gerber Fmt 4.5, Leading zero omitted, Abs format (unit mm)*
G04 Created by KiCad (PCBNEW 7.0.10) date 2024-10-31 16:29:59*
%MOMM*%
%LPD*%
G01*
G04 APERTURE LIST*
%ADD10C,0.100000*%
%ADD11C,0.200000*%
G04 APERTURE END LIST*
D10*
X10675000Y-8700000D02*
X16100000Y-8700000D01*
X16100000Y-12400000D01*
X10675000Y-12400000D01*
X10675000Y-8700000D01*
D11*
D10*
X11230000Y-11980000D02*
X11270000Y-12020000D01*
X11270000Y-11980000D02*
X11230000Y-12020000D01*
X13480000Y-9930000D02*
X13520000Y-9970000D01*
X13520000Y-9930000D02*
X13480000Y-9970000D01*
X14255000Y-10855000D02*
X14295000Y-10895000D01*
X14295000Y-10855000D02*
X14255000Y-10895000D01*
X14855000Y-12005000D02*
X14895000Y-12045000D01*
X14895000Y-12005000D02*
X14855000Y-12045000D01*
X15528000Y-12028000D02*
X15568000Y-12068000D01*
X15568000Y-12028000D02*
X15528000Y-12068000D01*
X15980000Y-11280000D02*
X16020000Y-11320000D01*
X16020000Y-11280000D02*
X15980000Y-11320000D01*
X11892000Y-12000000D02*
G75*
G03*
X11800000Y-12000000I-46000J0D01*
G01*
X11800000Y-12000000D02*
G75*
G03*
X11892000Y-12000000I46000J0D01*
G01*
X12146000Y-12000000D02*
G75*
G03*
X12054000Y-12000000I-46000J0D01*
G01*
X12054000Y-12000000D02*
G75*
G03*
X12146000Y-12000000I46000J0D01*
G01*
X15296000Y-11242000D02*
X15296000Y-11342000D01*
X15246000Y-11292000D02*
X15346000Y-11292000D01*
X15296000Y-11496000D02*
X15296000Y-11596000D01*
X15246000Y-11546000D02*
X15346000Y-11546000D01*
X15296000Y-11750000D02*
X15296000Y-11850000D01*
X15246000Y-11800000D02*
X15346000Y-11800000D01*
X15550000Y-11242000D02*
X15550000Y-11342000D01*
X15500000Y-11292000D02*
X15600000Y-11292000D01*
X15550000Y-11496000D02*
X15550000Y-11596000D01*
X15500000Y-11546000D02*
X15600000Y-11546000D01*
X15550000Y-11750000D02*
X15550000Y-11850000D01*
X15500000Y-11800000D02*
X15600000Y-11800000D01*
D11*
X10930777Y-12716484D02*
X10930777Y-12516484D01*
X10930777Y-12516484D02*
X10978396Y-12516484D01*
X10978396Y-12516484D02*
X11006967Y-12526008D01*
X11006967Y-12526008D02*
X11026015Y-12545055D01*
X11026015Y-12545055D02*
X11035539Y-12564103D01*
X11035539Y-12564103D02*
X11045063Y-12602198D01*
X11045063Y-12602198D02*
X11045063Y-12630769D01*
X11045063Y-12630769D02*
X11035539Y-12668865D01*
X11035539Y-12668865D02*
X11026015Y-12687912D01*
X11026015Y-12687912D02*
X11006967Y-12706960D01*
X11006967Y-12706960D02*
X10978396Y-12716484D01*
X10978396Y-12716484D02*
X10930777Y-12716484D01*
X11130777Y-12716484D02*
X11130777Y-12583150D01*
X11130777Y-12621246D02*
X11140301Y-12602198D01*
X11140301Y-12602198D02*
X11149824Y-12592674D01*
X11149824Y-12592674D02*
X11168872Y-12583150D01*
X11168872Y-12583150D02*
X11187920Y-12583150D01*
X11254586Y-12716484D02*
X11254586Y-12583150D01*
X11254586Y-12516484D02*
X11245062Y-12526008D01*
X11245062Y-12526008D02*
X11254586Y-12535531D01*
X11254586Y-12535531D02*
X11264110Y-12526008D01*
X11264110Y-12526008D02*
X11254586Y-12516484D01*
X11254586Y-12516484D02*
X11254586Y-12535531D01*
X11378396Y-12716484D02*
X11359348Y-12706960D01*
X11359348Y-12706960D02*
X11349824Y-12687912D01*
X11349824Y-12687912D02*
X11349824Y-12516484D01*
X11483158Y-12716484D02*
X11464110Y-12706960D01*
X11464110Y-12706960D02*
X11454586Y-12687912D01*
X11454586Y-12687912D02*
X11454586Y-12516484D01*
X11711729Y-12716484D02*
X11711729Y-12516484D01*
X11711729Y-12516484D02*
X11778396Y-12659341D01*
X11778396Y-12659341D02*
X11845062Y-12516484D01*
X11845062Y-12516484D02*
X11845062Y-12716484D01*
X12026015Y-12716484D02*
X12026015Y-12611722D01*
X12026015Y-12611722D02*
X12016491Y-12592674D01*
X12016491Y-12592674D02*
X11997443Y-12583150D01*
X11997443Y-12583150D02*
X11959348Y-12583150D01*
X11959348Y-12583150D02*
X11940301Y-12592674D01*
X12026015Y-12706960D02*
X12006967Y-12716484D01*
X12006967Y-12716484D02*
X11959348Y-12716484D01*
X11959348Y-12716484D02*
X11940301Y-12706960D01*
X11940301Y-12706960D02*
X11930777Y-12687912D01*
X11930777Y-12687912D02*
X11930777Y-12668865D01*
X11930777Y-12668865D02*
X11940301Y-12649817D01*
X11940301Y-12649817D02*
X11959348Y-12640293D01*
X11959348Y-12640293D02*
X12006967Y-12640293D01*
X12006967Y-12640293D02*
X12026015Y-12630769D01*
X12121253Y-12583150D02*
X12121253Y-12783150D01*
X12121253Y-12592674D02*
X12140301Y-12583150D01*
X12140301Y-12583150D02*
X12178396Y-12583150D01*
X12178396Y-12583150D02*
X12197443Y-12592674D01*
X12197443Y-12592674D02*
X12206967Y-12602198D01*
X12206967Y-12602198D02*
X12216491Y-12621246D01*
X12216491Y-12621246D02*
X12216491Y-12678388D01*
X12216491Y-12678388D02*
X12206967Y-12697436D01*
X12206967Y-12697436D02*
X12197443Y-12706960D01*
X12197443Y-12706960D02*
X12178396Y-12716484D01*
X12178396Y-12716484D02*
X12140301Y-12716484D01*
X12140301Y-12716484D02*
X12121253Y-12706960D01*
X12302205Y-12697436D02*
X12311729Y-12706960D01*
X12311729Y-12706960D02*
X12302205Y-12716484D01*
X12302205Y-12716484D02*
X12292682Y-12706960D01*
X12292682Y-12706960D02*
X12302205Y-12697436D01*
X12302205Y-12697436D02*
X12302205Y-12716484D01*
X12302205Y-12592674D02*
X12311729Y-12602198D01*
X12311729Y-12602198D02*
X12302205Y-12611722D01*
X12302205Y-12611722D02*
X12292682Y-12602198D01*
X12292682Y-12602198D02*
X12302205Y-12592674D01*
X12302205Y-12592674D02*
X12302205Y-12611722D01*
D10*
X10630000Y-13025000D02*
X10670000Y-13065000D01*
X10670000Y-13025000D02*
X10630000Y-13065000D01*
D11*
X10968872Y-12936484D02*
X10987920Y-12936484D01*
X10987920Y-12936484D02*
X11006967Y-12946008D01*
X11006967Y-12946008D02*
X11016491Y-12955531D01*
X11016491Y-12955531D02*
X11026015Y-12974579D01*
X11026015Y-12974579D02*
X11035539Y-13012674D01*
X11035539Y-13012674D02*
X11035539Y-13060293D01*
X11035539Y-13060293D02*
X11026015Y-13098388D01*
X11026015Y-13098388D02*
X11016491Y-13117436D01*
X11016491Y-13117436D02*
X11006967Y-13126960D01*
X11006967Y-13126960D02*
X10987920Y-13136484D01*
X10987920Y-13136484D02*
X10968872Y-13136484D01*
X10968872Y-13136484D02*
X10949824Y-13126960D01*
X10949824Y-13126960D02*
X10940301Y-13117436D01*
X10940301Y-13117436D02*
X10930777Y-13098388D01*
X10930777Y-13098388D02*
X10921253Y-13060293D01*
X10921253Y-13060293D02*
X10921253Y-13012674D01*
X10921253Y-13012674D02*
X10930777Y-12974579D01*
X10930777Y-12974579D02*
X10940301Y-12955531D01*
X10940301Y-12955531D02*
X10949824Y-12946008D01*
X10949824Y-12946008D02*
X10968872Y-12936484D01*
X11121253Y-13117436D02*
X11130777Y-13126960D01*
X11130777Y-13126960D02*
X11121253Y-13136484D01*
X11121253Y-13136484D02*
X11111729Y-13126960D01*
X11111729Y-13126960D02*
X11121253Y-13117436D01*
X11121253Y-13117436D02*
X11121253Y-13136484D01*
X11302205Y-13003150D02*
X11302205Y-13136484D01*
X11254586Y-12926960D02*
X11206967Y-13069817D01*
X11206967Y-13069817D02*
X11330777Y-13069817D01*
X11445062Y-12936484D02*
X11464110Y-12936484D01*
X11464110Y-12936484D02*
X11483158Y-12946008D01*
X11483158Y-12946008D02*
X11492682Y-12955531D01*
X11492682Y-12955531D02*
X11502205Y-12974579D01*
X11502205Y-12974579D02*
X11511729Y-13012674D01*
X11511729Y-13012674D02*
X11511729Y-13060293D01*
X11511729Y-13060293D02*
X11502205Y-13098388D01*
X11502205Y-13098388D02*
X11492682Y-13117436D01*
X11492682Y-13117436D02*
X11483158Y-13126960D01*
X11483158Y-13126960D02*
X11464110Y-13136484D01*
X11464110Y-13136484D02*
X11445062Y-13136484D01*
X11445062Y-13136484D02*
X11426015Y-13126960D01*
X11426015Y-13126960D02*
X11416491Y-13117436D01*
X11416491Y-13117436D02*
X11406967Y-13098388D01*
X11406967Y-13098388D02*
X11397443Y-13060293D01*
X11397443Y-13060293D02*
X11397443Y-13012674D01*
X11397443Y-13012674D02*
X11406967Y-12974579D01*
X11406967Y-12974579D02*
X11416491Y-12955531D01*
X11416491Y-12955531D02*
X11426015Y-12946008D01*
X11426015Y-12946008D02*
X11445062Y-12936484D01*
X11635539Y-12936484D02*
X11654586Y-12936484D01*
X11654586Y-12936484D02*
X11673634Y-12946008D01*
X11673634Y-12946008D02*
X11683158Y-12955531D01*
X11683158Y-12955531D02*
X11692682Y-12974579D01*
X11692682Y-12974579D02*
X11702205Y-13012674D01*
X11702205Y-13012674D02*
X11702205Y-13060293D01*
X11702205Y-13060293D02*
X11692682Y-13098388D01*
X11692682Y-13098388D02*
X11683158Y-13117436D01*
X11683158Y-13117436D02*
X11673634Y-13126960D01*
X11673634Y-13126960D02*
X11654586Y-13136484D01*
X11654586Y-13136484D02*
X11635539Y-13136484D01*
X11635539Y-13136484D02*
X11616491Y-13126960D01*
X11616491Y-13126960D02*
X11606967Y-13117436D01*
X11606967Y-13117436D02*
X11597443Y-13098388D01*
X11597443Y-13098388D02*
X11587920Y-13060293D01*
X11587920Y-13060293D02*
X11587920Y-13012674D01*
X11587920Y-13012674D02*
X11597443Y-12974579D01*
X11597443Y-12974579D02*
X11606967Y-12955531D01*
X11606967Y-12955531D02*
X11616491Y-12946008D01*
X11616491Y-12946008D02*
X11635539Y-12936484D01*
X11787920Y-13136484D02*
X11787920Y-13003150D01*
X11787920Y-13022198D02*
X11797443Y-13012674D01*
X11797443Y-13012674D02*
X11816491Y-13003150D01*
X11816491Y-13003150D02*
X11845063Y-13003150D01*
X11845063Y-13003150D02*
X11864110Y-13012674D01*
X11864110Y-13012674D02*
X11873634Y-13031722D01*
X11873634Y-13031722D02*
X11873634Y-13136484D01*
X11873634Y-13031722D02*
X11883158Y-13012674D01*
X11883158Y-13012674D02*
X11902205Y-13003150D01*
X11902205Y-13003150D02*
X11930777Y-13003150D01*
X11930777Y-13003150D02*
X11949824Y-13012674D01*
X11949824Y-13012674D02*
X11959348Y-13031722D01*
X11959348Y-13031722D02*
X11959348Y-13136484D01*
X12054586Y-13136484D02*
X12054586Y-13003150D01*
X12054586Y-13022198D02*
X12064110Y-13012674D01*
X12064110Y-13012674D02*
X12083158Y-13003150D01*
X12083158Y-13003150D02*
X12111729Y-13003150D01*
X12111729Y-13003150D02*
X12130777Y-13012674D01*
X12130777Y-13012674D02*
X12140301Y-13031722D01*
X12140301Y-13031722D02*
X12140301Y-13136484D01*
X12140301Y-13031722D02*
X12149824Y-13012674D01*
X12149824Y-13012674D02*
X12168872Y-13003150D01*
X12168872Y-13003150D02*
X12197443Y-13003150D01*
X12197443Y-13003150D02*
X12216491Y-13012674D01*
X12216491Y-13012674D02*
X12226015Y-13031722D01*
X12226015Y-13031722D02*
X12226015Y-13136484D01*
X12616491Y-12926960D02*
X12445063Y-13184103D01*
X12873634Y-12936484D02*
X12892682Y-12936484D01*
X12892682Y-12936484D02*
X12911729Y-12946008D01*
X12911729Y-12946008D02*
X12921253Y-12955531D01*
X12921253Y-12955531D02*
X12930777Y-12974579D01*
X12930777Y-12974579D02*
X12940301Y-13012674D01*
X12940301Y-13012674D02*
X12940301Y-13060293D01*
X12940301Y-13060293D02*
X12930777Y-13098388D01*
X12930777Y-13098388D02*
X12921253Y-13117436D01*
X12921253Y-13117436D02*
X12911729Y-13126960D01*
X12911729Y-13126960D02*
X12892682Y-13136484D01*
X12892682Y-13136484D02*
X12873634Y-13136484D01*
X12873634Y-13136484D02*
X12854586Y-13126960D01*
X12854586Y-13126960D02*
X12845063Y-13117436D01*
X12845063Y-13117436D02*
X12835539Y-13098388D01*
X12835539Y-13098388D02*
X12826015Y-13060293D01*
X12826015Y-13060293D02*
X12826015Y-13012674D01*
X12826015Y-13012674D02*
X12835539Y-12974579D01*
X12835539Y-12974579D02*
X12845063Y-12955531D01*
X12845063Y-12955531D02*
X12854586Y-12946008D01*
X12854586Y-12946008D02*
X12873634Y-12936484D01*
X13026015Y-13117436D02*
X13035539Y-13126960D01*
X13035539Y-13126960D02*
X13026015Y-13136484D01*
X13026015Y-13136484D02*
X13016491Y-13126960D01*
X13016491Y-13126960D02*
X13026015Y-13117436D01*
X13026015Y-13117436D02*
X13026015Y-13136484D01*
X13159348Y-12936484D02*
X13178396Y-12936484D01*
X13178396Y-12936484D02*
X13197444Y-12946008D01*
X13197444Y-12946008D02*
X13206967Y-12955531D01*
X13206967Y-12955531D02*
X13216491Y-12974579D01*
X13216491Y-12974579D02*
X13226015Y-13012674D01*
X13226015Y-13012674D02*
X13226015Y-13060293D01*
X13226015Y-13060293D02*
X13216491Y-13098388D01*
X13216491Y-13098388D02*
X13206967Y-13117436D01*
X13206967Y-13117436D02*
X13197444Y-13126960D01*
X13197444Y-13126960D02*
X13178396Y-13136484D01*
X13178396Y-13136484D02*
X13159348Y-13136484D01*
X13159348Y-13136484D02*
X13140301Y-13126960D01*
X13140301Y-13126960D02*
X13130777Y-13117436D01*
X13130777Y-13117436D02*
X13121253Y-13098388D01*
X13121253Y-13098388D02*
X13111729Y-13060293D01*
X13111729Y-13060293D02*
X13111729Y-13012674D01*
X13111729Y-13012674D02*
X13121253Y-12974579D01*
X13121253Y-12974579D02*
X13130777Y-12955531D01*
X13130777Y-12955531D02*
X13140301Y-12946008D01*
X13140301Y-12946008D02*
X13159348Y-12936484D01*
X13416491Y-13136484D02*
X13302206Y-13136484D01*
X13359348Y-13136484D02*
X13359348Y-12936484D01*
X13359348Y-12936484D02*
X13340301Y-12965055D01*
X13340301Y-12965055D02*
X13321253Y-12984103D01*
X13321253Y-12984103D02*
X13302206Y-12993627D01*
X13597444Y-12936484D02*
X13502206Y-12936484D01*
X13502206Y-12936484D02*
X13492682Y-13031722D01*
X13492682Y-13031722D02*
X13502206Y-13022198D01*
X13502206Y-13022198D02*
X13521253Y-13012674D01*
X13521253Y-13012674D02*
X13568872Y-13012674D01*
X13568872Y-13012674D02*
X13587920Y-13022198D01*
X13587920Y-13022198D02*
X13597444Y-13031722D01*
X13597444Y-13031722D02*
X13606967Y-13050769D01*
X13606967Y-13050769D02*
X13606967Y-13098388D01*
X13606967Y-13098388D02*
X13597444Y-13117436D01*
X13597444Y-13117436D02*
X13587920Y-13126960D01*
X13587920Y-13126960D02*
X13568872Y-13136484D01*
X13568872Y-13136484D02*
X13521253Y-13136484D01*
X13521253Y-13136484D02*
X13502206Y-13126960D01*
X13502206Y-13126960D02*
X13492682Y-13117436D01*
X13673634Y-12936484D02*
X13806967Y-12936484D01*
X13806967Y-12936484D02*
X13721253Y-13136484D01*
X13873634Y-12936484D02*
X13873634Y-12974579D01*
X13949825Y-12936484D02*
X13949825Y-12974579D01*
X14245063Y-13212674D02*
X14235539Y-13203150D01*
X14235539Y-13203150D02*
X14216491Y-13174579D01*
X14216491Y-13174579D02*
X14206968Y-13155531D01*
X14206968Y-13155531D02*
X14197444Y-13126960D01*
X14197444Y-13126960D02*
X14187920Y-13079341D01*
X14187920Y-13079341D02*
X14187920Y-13041246D01*
X14187920Y-13041246D02*
X14197444Y-12993627D01*
X14197444Y-12993627D02*
X14206968Y-12965055D01*
X14206968Y-12965055D02*
X14216491Y-12946008D01*
X14216491Y-12946008D02*
X14235539Y-12917436D01*
X14235539Y-12917436D02*
X14245063Y-12907912D01*
X14406968Y-12936484D02*
X14368872Y-12936484D01*
X14368872Y-12936484D02*
X14349825Y-12946008D01*
X14349825Y-12946008D02*
X14340301Y-12955531D01*
X14340301Y-12955531D02*
X14321253Y-12984103D01*
X14321253Y-12984103D02*
X14311729Y-13022198D01*
X14311729Y-13022198D02*
X14311729Y-13098388D01*
X14311729Y-13098388D02*
X14321253Y-13117436D01*
X14321253Y-13117436D02*
X14330777Y-13126960D01*
X14330777Y-13126960D02*
X14349825Y-13136484D01*
X14349825Y-13136484D02*
X14387920Y-13136484D01*
X14387920Y-13136484D02*
X14406968Y-13126960D01*
X14406968Y-13126960D02*
X14416491Y-13117436D01*
X14416491Y-13117436D02*
X14426015Y-13098388D01*
X14426015Y-13098388D02*
X14426015Y-13050769D01*
X14426015Y-13050769D02*
X14416491Y-13031722D01*
X14416491Y-13031722D02*
X14406968Y-13022198D01*
X14406968Y-13022198D02*
X14387920Y-13012674D01*
X14387920Y-13012674D02*
X14349825Y-13012674D01*
X14349825Y-13012674D02*
X14330777Y-13022198D01*
X14330777Y-13022198D02*
X14321253Y-13031722D01*
X14321253Y-13031722D02*
X14311729Y-13050769D01*
X14664110Y-13136484D02*
X14664110Y-12936484D01*
X14749825Y-13136484D02*
X14749825Y-13031722D01*
X14749825Y-13031722D02*
X14740301Y-13012674D01*
X14740301Y-13012674D02*
X14721253Y-13003150D01*
X14721253Y-13003150D02*
X14692682Y-13003150D01*
X14692682Y-13003150D02*
X14673634Y-13012674D01*
X14673634Y-13012674D02*
X14664110Y-13022198D01*
X14873634Y-13136484D02*
X14854587Y-13126960D01*
X14854587Y-13126960D02*
X14845063Y-13117436D01*
X14845063Y-13117436D02*
X14835539Y-13098388D01*
X14835539Y-13098388D02*
X14835539Y-13041246D01*
X14835539Y-13041246D02*
X14845063Y-13022198D01*
X14845063Y-13022198D02*
X14854587Y-13012674D01*
X14854587Y-13012674D02*
X14873634Y-13003150D01*
X14873634Y-13003150D02*
X14902206Y-13003150D01*
X14902206Y-13003150D02*
X14921253Y-13012674D01*
X14921253Y-13012674D02*
X14930777Y-13022198D01*
X14930777Y-13022198D02*
X14940301Y-13041246D01*
X14940301Y-13041246D02*
X14940301Y-13098388D01*
X14940301Y-13098388D02*
X14930777Y-13117436D01*
X14930777Y-13117436D02*
X14921253Y-13126960D01*
X14921253Y-13126960D02*
X14902206Y-13136484D01*
X14902206Y-13136484D02*
X14873634Y-13136484D01*
X15054587Y-13136484D02*
X15035539Y-13126960D01*
X15035539Y-13126960D02*
X15026015Y-13107912D01*
X15026015Y-13107912D02*
X15026015Y-12936484D01*
X15206968Y-13126960D02*
X15187920Y-13136484D01*
X15187920Y-13136484D02*
X15149825Y-13136484D01*
X15149825Y-13136484D02*
X15130777Y-13126960D01*
X15130777Y-13126960D02*
X15121253Y-13107912D01*
X15121253Y-13107912D02*
X15121253Y-13031722D01*
X15121253Y-13031722D02*
X15130777Y-13012674D01*
X15130777Y-13012674D02*
X15149825Y-13003150D01*
X15149825Y-13003150D02*
X15187920Y-13003150D01*
X15187920Y-13003150D02*
X15206968Y-13012674D01*
X15206968Y-13012674D02*
X15216491Y-13031722D01*
X15216491Y-13031722D02*
X15216491Y-13050769D01*
X15216491Y-13050769D02*
X15121253Y-13069817D01*
X15292682Y-13126960D02*
X15311730Y-13136484D01*
X15311730Y-13136484D02*
X15349825Y-13136484D01*
X15349825Y-13136484D02*
X15368872Y-13126960D01*
X15368872Y-13126960D02*
X15378396Y-13107912D01*
X15378396Y-13107912D02*
X15378396Y-13098388D01*
X15378396Y-13098388D02*
X15368872Y-13079341D01*
X15368872Y-13079341D02*
X15349825Y-13069817D01*
X15349825Y-13069817D02*
X15321253Y-13069817D01*
X15321253Y-13069817D02*
X15302206Y-13060293D01*
X15302206Y-13060293D02*
X15292682Y-13041246D01*
X15292682Y-13041246D02*
X15292682Y-13031722D01*
X15292682Y-13031722D02*
X15302206Y-13012674D01*
X15302206Y-13012674D02*
X15321253Y-13003150D01*
X15321253Y-13003150D02*
X15349825Y-13003150D01*
X15349825Y-13003150D02*
X15368872Y-13012674D01*
X15445063Y-13212674D02*
X15454587Y-13203150D01*
X15454587Y-13203150D02*
X15473634Y-13174579D01*
X15473634Y-13174579D02*
X15483158Y-13155531D01*
X15483158Y-13155531D02*
X15492682Y-13126960D01*
X15492682Y-13126960D02*
X15502206Y-13079341D01*
X15502206Y-13079341D02*
X15502206Y-13041246D01*
X15502206Y-13041246D02*
X15492682Y-12993627D01*
X15492682Y-12993627D02*
X15483158Y-12965055D01*
X15483158Y-12965055D02*
X15473634Y-12946008D01*
X15473634Y-12946008D02*
X15454587Y-12917436D01*
X15454587Y-12917436D02*
X15445063Y-12907912D01*
D10*
X10670000Y-13309000D02*
G75*
G03*
X10578000Y-13309000I-46000J0D01*
G01*
X10578000Y-13309000D02*
G75*
G03*
X10670000Y-13309000I46000J0D01*
G01*
D11*
X10968872Y-13200484D02*
X10987920Y-13200484D01*
X10987920Y-13200484D02*
X11006967Y-13210008D01*
X11006967Y-13210008D02*
X11016491Y-13219531D01*
X11016491Y-13219531D02*
X11026015Y-13238579D01*
X11026015Y-13238579D02*
X11035539Y-13276674D01*
X11035539Y-13276674D02*
X11035539Y-13324293D01*
X11035539Y-13324293D02*
X11026015Y-13362388D01*
X11026015Y-13362388D02*
X11016491Y-13381436D01*
X11016491Y-13381436D02*
X11006967Y-13390960D01*
X11006967Y-13390960D02*
X10987920Y-13400484D01*
X10987920Y-13400484D02*
X10968872Y-13400484D01*
X10968872Y-13400484D02*
X10949824Y-13390960D01*
X10949824Y-13390960D02*
X10940301Y-13381436D01*
X10940301Y-13381436D02*
X10930777Y-13362388D01*
X10930777Y-13362388D02*
X10921253Y-13324293D01*
X10921253Y-13324293D02*
X10921253Y-13276674D01*
X10921253Y-13276674D02*
X10930777Y-13238579D01*
X10930777Y-13238579D02*
X10940301Y-13219531D01*
X10940301Y-13219531D02*
X10949824Y-13210008D01*
X10949824Y-13210008D02*
X10968872Y-13200484D01*
X11121253Y-13381436D02*
X11130777Y-13390960D01*
X11130777Y-13390960D02*
X11121253Y-13400484D01*
X11121253Y-13400484D02*
X11111729Y-13390960D01*
X11111729Y-13390960D02*
X11121253Y-13381436D01*
X11121253Y-13381436D02*
X11121253Y-13400484D01*
X11226015Y-13400484D02*
X11264110Y-13400484D01*
X11264110Y-13400484D02*
X11283158Y-13390960D01*
X11283158Y-13390960D02*
X11292682Y-13381436D01*
X11292682Y-13381436D02*
X11311729Y-13352865D01*
X11311729Y-13352865D02*
X11321253Y-13314769D01*
X11321253Y-13314769D02*
X11321253Y-13238579D01*
X11321253Y-13238579D02*
X11311729Y-13219531D01*
X11311729Y-13219531D02*
X11302205Y-13210008D01*
X11302205Y-13210008D02*
X11283158Y-13200484D01*
X11283158Y-13200484D02*
X11245062Y-13200484D01*
X11245062Y-13200484D02*
X11226015Y-13210008D01*
X11226015Y-13210008D02*
X11216491Y-13219531D01*
X11216491Y-13219531D02*
X11206967Y-13238579D01*
X11206967Y-13238579D02*
X11206967Y-13286198D01*
X11206967Y-13286198D02*
X11216491Y-13305246D01*
X11216491Y-13305246D02*
X11226015Y-13314769D01*
X11226015Y-13314769D02*
X11245062Y-13324293D01*
X11245062Y-13324293D02*
X11283158Y-13324293D01*
X11283158Y-13324293D02*
X11302205Y-13314769D01*
X11302205Y-13314769D02*
X11311729Y-13305246D01*
X11311729Y-13305246D02*
X11321253Y-13286198D01*
X11397443Y-13219531D02*
X11406967Y-13210008D01*
X11406967Y-13210008D02*
X11426015Y-13200484D01*
X11426015Y-13200484D02*
X11473634Y-13200484D01*
X11473634Y-13200484D02*
X11492682Y-13210008D01*
X11492682Y-13210008D02*
X11502205Y-13219531D01*
X11502205Y-13219531D02*
X11511729Y-13238579D01*
X11511729Y-13238579D02*
X11511729Y-13257627D01*
X11511729Y-13257627D02*
X11502205Y-13286198D01*
X11502205Y-13286198D02*
X11387920Y-13400484D01*
X11387920Y-13400484D02*
X11511729Y-13400484D01*
X11635539Y-13200484D02*
X11654586Y-13200484D01*
X11654586Y-13200484D02*
X11673634Y-13210008D01*
X11673634Y-13210008D02*
X11683158Y-13219531D01*
X11683158Y-13219531D02*
X11692682Y-13238579D01*
X11692682Y-13238579D02*
X11702205Y-13276674D01*
X11702205Y-13276674D02*
X11702205Y-13324293D01*
X11702205Y-13324293D02*
X11692682Y-13362388D01*
X11692682Y-13362388D02*
X11683158Y-13381436D01*
X11683158Y-13381436D02*
X11673634Y-13390960D01*
X11673634Y-13390960D02*
X11654586Y-13400484D01*
X11654586Y-13400484D02*
X11635539Y-13400484D01*
X11635539Y-13400484D02*
X11616491Y-13390960D01*
X11616491Y-13390960D02*
X11606967Y-13381436D01*
X11606967Y-13381436D02*
X11597443Y-13362388D01*
X11597443Y-13362388D02*
X11587920Y-13324293D01*
X11587920Y-13324293D02*
X11587920Y-13276674D01*
X11587920Y-13276674D02*
X11597443Y-13238579D01*
X11597443Y-13238579D02*
X11606967Y-13219531D01*
X11606967Y-13219531D02*
X11616491Y-13210008D01*
X11616491Y-13210008D02*
X11635539Y-13200484D01*
X11787920Y-13400484D02*
X11787920Y-13267150D01*
X11787920Y-13286198D02*
X11797443Y-13276674D01*
X11797443Y-13276674D02*
X11816491Y-13267150D01*
X11816491Y-13267150D02*
X11845063Y-13267150D01*
X11845063Y-13267150D02*
X11864110Y-13276674D01*
X11864110Y-13276674D02*
X11873634Y-13295722D01*
X11873634Y-13295722D02*
X11873634Y-13400484D01*
X11873634Y-13295722D02*
X11883158Y-13276674D01*
X11883158Y-13276674D02*
X11902205Y-13267150D01*
X11902205Y-13267150D02*
X11930777Y-13267150D01*
X11930777Y-13267150D02*
X11949824Y-13276674D01*
X11949824Y-13276674D02*
X11959348Y-13295722D01*
X11959348Y-13295722D02*
X11959348Y-13400484D01*
X12054586Y-13400484D02*
X12054586Y-13267150D01*
X12054586Y-13286198D02*
X12064110Y-13276674D01*
X12064110Y-13276674D02*
X12083158Y-13267150D01*
X12083158Y-13267150D02*
X12111729Y-13267150D01*
X12111729Y-13267150D02*
X12130777Y-13276674D01*
X12130777Y-13276674D02*
X12140301Y-13295722D01*
X12140301Y-13295722D02*
X12140301Y-13400484D01*
X12140301Y-13295722D02*
X12149824Y-13276674D01*
X12149824Y-13276674D02*
X12168872Y-13267150D01*
X12168872Y-13267150D02*
X12197443Y-13267150D01*
X12197443Y-13267150D02*
X12216491Y-13276674D01*
X12216491Y-13276674D02*
X12226015Y-13295722D01*
X12226015Y-13295722D02*
X12226015Y-13400484D01*
X12616491Y-13190960D02*
X12445063Y-13448103D01*
X12873634Y-13200484D02*
X12892682Y-13200484D01*
X12892682Y-13200484D02*
X12911729Y-13210008D01*
X12911729Y-13210008D02*
X12921253Y-13219531D01*
X12921253Y-13219531D02*
X12930777Y-13238579D01*
X12930777Y-13238579D02*
X12940301Y-13276674D01*
X12940301Y-13276674D02*
X12940301Y-13324293D01*
X12940301Y-13324293D02*
X12930777Y-13362388D01*
X12930777Y-13362388D02*
X12921253Y-13381436D01*
X12921253Y-13381436D02*
X12911729Y-13390960D01*
X12911729Y-13390960D02*
X12892682Y-13400484D01*
X12892682Y-13400484D02*
X12873634Y-13400484D01*
X12873634Y-13400484D02*
X12854586Y-13390960D01*
X12854586Y-13390960D02*
X12845063Y-13381436D01*
X12845063Y-13381436D02*
X12835539Y-13362388D01*
X12835539Y-13362388D02*
X12826015Y-13324293D01*
X12826015Y-13324293D02*
X12826015Y-13276674D01*
X12826015Y-13276674D02*
X12835539Y-13238579D01*
X12835539Y-13238579D02*
X12845063Y-13219531D01*
X12845063Y-13219531D02*
X12854586Y-13210008D01*
X12854586Y-13210008D02*
X12873634Y-13200484D01*
X13026015Y-13381436D02*
X13035539Y-13390960D01*
X13035539Y-13390960D02*
X13026015Y-13400484D01*
X13026015Y-13400484D02*
X13016491Y-13390960D01*
X13016491Y-13390960D02*
X13026015Y-13381436D01*
X13026015Y-13381436D02*
X13026015Y-13400484D01*
X13159348Y-13200484D02*
X13178396Y-13200484D01*
X13178396Y-13200484D02*
X13197444Y-13210008D01*
X13197444Y-13210008D02*
X13206967Y-13219531D01*
X13206967Y-13219531D02*
X13216491Y-13238579D01*
X13216491Y-13238579D02*
X13226015Y-13276674D01*
X13226015Y-13276674D02*
X13226015Y-13324293D01*
X13226015Y-13324293D02*
X13216491Y-13362388D01*
X13216491Y-13362388D02*
X13206967Y-13381436D01*
X13206967Y-13381436D02*
X13197444Y-13390960D01*
X13197444Y-13390960D02*
X13178396Y-13400484D01*
X13178396Y-13400484D02*
X13159348Y-13400484D01*
X13159348Y-13400484D02*
X13140301Y-13390960D01*
X13140301Y-13390960D02*
X13130777Y-13381436D01*
X13130777Y-13381436D02*
X13121253Y-13362388D01*
X13121253Y-13362388D02*
X13111729Y-13324293D01*
X13111729Y-13324293D02*
X13111729Y-13276674D01*
X13111729Y-13276674D02*
X13121253Y-13238579D01*
X13121253Y-13238579D02*
X13130777Y-13219531D01*
X13130777Y-13219531D02*
X13140301Y-13210008D01*
X13140301Y-13210008D02*
X13159348Y-13200484D01*
X13292682Y-13200484D02*
X13416491Y-13200484D01*
X13416491Y-13200484D02*
X13349825Y-13276674D01*
X13349825Y-13276674D02*
X13378396Y-13276674D01*
X13378396Y-13276674D02*
X13397444Y-13286198D01*
X13397444Y-13286198D02*
X13406967Y-13295722D01*
X13406967Y-13295722D02*
X13416491Y-13314769D01*
X13416491Y-13314769D02*
X13416491Y-13362388D01*
X13416491Y-13362388D02*
X13406967Y-13381436D01*
X13406967Y-13381436D02*
X13397444Y-13390960D01*
X13397444Y-13390960D02*
X13378396Y-13400484D01*
X13378396Y-13400484D02*
X13321253Y-13400484D01*
X13321253Y-13400484D02*
X13302206Y-13390960D01*
X13302206Y-13390960D02*
X13292682Y-13381436D01*
X13587920Y-13200484D02*
X13549825Y-13200484D01*
X13549825Y-13200484D02*
X13530777Y-13210008D01*
X13530777Y-13210008D02*
X13521253Y-13219531D01*
X13521253Y-13219531D02*
X13502206Y-13248103D01*
X13502206Y-13248103D02*
X13492682Y-13286198D01*
X13492682Y-13286198D02*
X13492682Y-13362388D01*
X13492682Y-13362388D02*
X13502206Y-13381436D01*
X13502206Y-13381436D02*
X13511729Y-13390960D01*
X13511729Y-13390960D02*
X13530777Y-13400484D01*
X13530777Y-13400484D02*
X13568872Y-13400484D01*
X13568872Y-13400484D02*
X13587920Y-13390960D01*
X13587920Y-13390960D02*
X13597444Y-13381436D01*
X13597444Y-13381436D02*
X13606967Y-13362388D01*
X13606967Y-13362388D02*
X13606967Y-13314769D01*
X13606967Y-13314769D02*
X13597444Y-13295722D01*
X13597444Y-13295722D02*
X13587920Y-13286198D01*
X13587920Y-13286198D02*
X13568872Y-13276674D01*
X13568872Y-13276674D02*
X13530777Y-13276674D01*
X13530777Y-13276674D02*
X13511729Y-13286198D01*
X13511729Y-13286198D02*
X13502206Y-13295722D01*
X13502206Y-13295722D02*
X13492682Y-13314769D01*
X13683158Y-13219531D02*
X13692682Y-13210008D01*
X13692682Y-13210008D02*
X13711729Y-13200484D01*
X13711729Y-13200484D02*
X13759348Y-13200484D01*
X13759348Y-13200484D02*
X13778396Y-13210008D01*
X13778396Y-13210008D02*
X13787920Y-13219531D01*
X13787920Y-13219531D02*
X13797444Y-13238579D01*
X13797444Y-13238579D02*
X13797444Y-13257627D01*
X13797444Y-13257627D02*
X13787920Y-13286198D01*
X13787920Y-13286198D02*
X13673634Y-13400484D01*
X13673634Y-13400484D02*
X13797444Y-13400484D01*
X13873634Y-13200484D02*
X13873634Y-13238579D01*
X13949825Y-13200484D02*
X13949825Y-13238579D01*
X14245063Y-13476674D02*
X14235539Y-13467150D01*
X14235539Y-13467150D02*
X14216491Y-13438579D01*
X14216491Y-13438579D02*
X14206968Y-13419531D01*
X14206968Y-13419531D02*
X14197444Y-13390960D01*
X14197444Y-13390960D02*
X14187920Y-13343341D01*
X14187920Y-13343341D02*
X14187920Y-13305246D01*
X14187920Y-13305246D02*
X14197444Y-13257627D01*
X14197444Y-13257627D02*
X14206968Y-13229055D01*
X14206968Y-13229055D02*
X14216491Y-13210008D01*
X14216491Y-13210008D02*
X14235539Y-13181436D01*
X14235539Y-13181436D02*
X14245063Y-13171912D01*
X14311729Y-13219531D02*
X14321253Y-13210008D01*
X14321253Y-13210008D02*
X14340301Y-13200484D01*
X14340301Y-13200484D02*
X14387920Y-13200484D01*
X14387920Y-13200484D02*
X14406968Y-13210008D01*
X14406968Y-13210008D02*
X14416491Y-13219531D01*
X14416491Y-13219531D02*
X14426015Y-13238579D01*
X14426015Y-13238579D02*
X14426015Y-13257627D01*
X14426015Y-13257627D02*
X14416491Y-13286198D01*
X14416491Y-13286198D02*
X14302206Y-13400484D01*
X14302206Y-13400484D02*
X14426015Y-13400484D01*
X14664110Y-13400484D02*
X14664110Y-13200484D01*
X14749825Y-13400484D02*
X14749825Y-13295722D01*
X14749825Y-13295722D02*
X14740301Y-13276674D01*
X14740301Y-13276674D02*
X14721253Y-13267150D01*
X14721253Y-13267150D02*
X14692682Y-13267150D01*
X14692682Y-13267150D02*
X14673634Y-13276674D01*
X14673634Y-13276674D02*
X14664110Y-13286198D01*
X14873634Y-13400484D02*
X14854587Y-13390960D01*
X14854587Y-13390960D02*
X14845063Y-13381436D01*
X14845063Y-13381436D02*
X14835539Y-13362388D01*
X14835539Y-13362388D02*
X14835539Y-13305246D01*
X14835539Y-13305246D02*
X14845063Y-13286198D01*
X14845063Y-13286198D02*
X14854587Y-13276674D01*
X14854587Y-13276674D02*
X14873634Y-13267150D01*
X14873634Y-13267150D02*
X14902206Y-13267150D01*
X14902206Y-13267150D02*
X14921253Y-13276674D01*
X14921253Y-13276674D02*
X14930777Y-13286198D01*
X14930777Y-13286198D02*
X14940301Y-13305246D01*
X14940301Y-13305246D02*
X14940301Y-13362388D01*
X14940301Y-13362388D02*
X14930777Y-13381436D01*
X14930777Y-13381436D02*
X14921253Y-13390960D01*
X14921253Y-13390960D02*
X14902206Y-13400484D01*
X14902206Y-13400484D02*
X14873634Y-13400484D01*
X15054587Y-13400484D02*
X15035539Y-13390960D01*
X15035539Y-13390960D02*
X15026015Y-13371912D01*
X15026015Y-13371912D02*
X15026015Y-13200484D01*
X15206968Y-13390960D02*
X15187920Y-13400484D01*
X15187920Y-13400484D02*
X15149825Y-13400484D01*
X15149825Y-13400484D02*
X15130777Y-13390960D01*
X15130777Y-13390960D02*
X15121253Y-13371912D01*
X15121253Y-13371912D02*
X15121253Y-13295722D01*
X15121253Y-13295722D02*
X15130777Y-13276674D01*
X15130777Y-13276674D02*
X15149825Y-13267150D01*
X15149825Y-13267150D02*
X15187920Y-13267150D01*
X15187920Y-13267150D02*
X15206968Y-13276674D01*
X15206968Y-13276674D02*
X15216491Y-13295722D01*
X15216491Y-13295722D02*
X15216491Y-13314769D01*
X15216491Y-13314769D02*
X15121253Y-13333817D01*
X15292682Y-13390960D02*
X15311730Y-13400484D01*
X15311730Y-13400484D02*
X15349825Y-13400484D01*
X15349825Y-13400484D02*
X15368872Y-13390960D01*
X15368872Y-13390960D02*
X15378396Y-13371912D01*
X15378396Y-13371912D02*
X15378396Y-13362388D01*
X15378396Y-13362388D02*
X15368872Y-13343341D01*
X15368872Y-13343341D02*
X15349825Y-13333817D01*
X15349825Y-13333817D02*
X15321253Y-13333817D01*
X15321253Y-13333817D02*
X15302206Y-13324293D01*
X15302206Y-13324293D02*
X15292682Y-13305246D01*
X15292682Y-13305246D02*
X15292682Y-13295722D01*
X15292682Y-13295722D02*
X15302206Y-13276674D01*
X15302206Y-13276674D02*
X15321253Y-13267150D01*
X15321253Y-13267150D02*
X15349825Y-13267150D01*
X15349825Y-13267150D02*
X15368872Y-13276674D01*
X15445063Y-13476674D02*
X15454587Y-13467150D01*
X15454587Y-13467150D02*
X15473634Y-13438579D01*
X15473634Y-13438579D02*
X15483158Y-13419531D01*
X15483158Y-13419531D02*
X15492682Y-13390960D01*
X15492682Y-13390960D02*
X15502206Y-13343341D01*
X15502206Y-13343341D02*
X15502206Y-13305246D01*
X15502206Y-13305246D02*
X15492682Y-13257627D01*
X15492682Y-13257627D02*
X15483158Y-13229055D01*
X15483158Y-13229055D02*
X15473634Y-13210008D01*
X15473634Y-13210008D02*
X15454587Y-13181436D01*
X15454587Y-13181436D02*
X15445063Y-13171912D01*
D10*
X10620000Y-13523000D02*
X10620000Y-13623000D01*
X10570000Y-13573000D02*
X10670000Y-13573000D01*
D11*
X11035539Y-13664484D02*
X10921253Y-13664484D01*
X10978396Y-13664484D02*
X10978396Y-13464484D01*
X10978396Y-13464484D02*
X10959348Y-13493055D01*
X10959348Y-13493055D02*
X10940301Y-13512103D01*
X10940301Y-13512103D02*
X10921253Y-13521627D01*
X11121253Y-13645436D02*
X11130777Y-13654960D01*
X11130777Y-13654960D02*
X11121253Y-13664484D01*
X11121253Y-13664484D02*
X11111729Y-13654960D01*
X11111729Y-13654960D02*
X11121253Y-13645436D01*
X11121253Y-13645436D02*
X11121253Y-13664484D01*
X11254586Y-13464484D02*
X11273634Y-13464484D01*
X11273634Y-13464484D02*
X11292682Y-13474008D01*
X11292682Y-13474008D02*
X11302205Y-13483531D01*
X11302205Y-13483531D02*
X11311729Y-13502579D01*
X11311729Y-13502579D02*
X11321253Y-13540674D01*
X11321253Y-13540674D02*
X11321253Y-13588293D01*
X11321253Y-13588293D02*
X11311729Y-13626388D01*
X11311729Y-13626388D02*
X11302205Y-13645436D01*
X11302205Y-13645436D02*
X11292682Y-13654960D01*
X11292682Y-13654960D02*
X11273634Y-13664484D01*
X11273634Y-13664484D02*
X11254586Y-13664484D01*
X11254586Y-13664484D02*
X11235539Y-13654960D01*
X11235539Y-13654960D02*
X11226015Y-13645436D01*
X11226015Y-13645436D02*
X11216491Y-13626388D01*
X11216491Y-13626388D02*
X11206967Y-13588293D01*
X11206967Y-13588293D02*
X11206967Y-13540674D01*
X11206967Y-13540674D02*
X11216491Y-13502579D01*
X11216491Y-13502579D02*
X11226015Y-13483531D01*
X11226015Y-13483531D02*
X11235539Y-13474008D01*
X11235539Y-13474008D02*
X11254586Y-13464484D01*
X11445062Y-13464484D02*
X11464110Y-13464484D01*
X11464110Y-13464484D02*
X11483158Y-13474008D01*
X11483158Y-13474008D02*
X11492682Y-13483531D01*
X11492682Y-13483531D02*
X11502205Y-13502579D01*
X11502205Y-13502579D02*
X11511729Y-13540674D01*
X11511729Y-13540674D02*
X11511729Y-13588293D01*
X11511729Y-13588293D02*
X11502205Y-13626388D01*
X11502205Y-13626388D02*
X11492682Y-13645436D01*
X11492682Y-13645436D02*
X11483158Y-13654960D01*
X11483158Y-13654960D02*
X11464110Y-13664484D01*
X11464110Y-13664484D02*
X11445062Y-13664484D01*
X11445062Y-13664484D02*
X11426015Y-13654960D01*
X11426015Y-13654960D02*
X11416491Y-13645436D01*
X11416491Y-13645436D02*
X11406967Y-13626388D01*
X11406967Y-13626388D02*
X11397443Y-13588293D01*
X11397443Y-13588293D02*
X11397443Y-13540674D01*
X11397443Y-13540674D02*
X11406967Y-13502579D01*
X11406967Y-13502579D02*
X11416491Y-13483531D01*
X11416491Y-13483531D02*
X11426015Y-13474008D01*
X11426015Y-13474008D02*
X11445062Y-13464484D01*
X11635539Y-13464484D02*
X11654586Y-13464484D01*
X11654586Y-13464484D02*
X11673634Y-13474008D01*
X11673634Y-13474008D02*
X11683158Y-13483531D01*
X11683158Y-13483531D02*
X11692682Y-13502579D01*
X11692682Y-13502579D02*
X11702205Y-13540674D01*
X11702205Y-13540674D02*
X11702205Y-13588293D01*
X11702205Y-13588293D02*
X11692682Y-13626388D01*
X11692682Y-13626388D02*
X11683158Y-13645436D01*
X11683158Y-13645436D02*
X11673634Y-13654960D01*
X11673634Y-13654960D02*
X11654586Y-13664484D01*
X11654586Y-13664484D02*
X11635539Y-13664484D01*
X11635539Y-13664484D02*
X11616491Y-13654960D01*
X11616491Y-13654960D02*
X11606967Y-13645436D01*
X11606967Y-13645436D02*
X11597443Y-13626388D01*
X11597443Y-13626388D02*
X11587920Y-13588293D01*
X11587920Y-13588293D02*
X11587920Y-13540674D01*
X11587920Y-13540674D02*
X11597443Y-13502579D01*
X11597443Y-13502579D02*
X11606967Y-13483531D01*
X11606967Y-13483531D02*
X11616491Y-13474008D01*
X11616491Y-13474008D02*
X11635539Y-13464484D01*
X11787920Y-13664484D02*
X11787920Y-13531150D01*
X11787920Y-13550198D02*
X11797443Y-13540674D01*
X11797443Y-13540674D02*
X11816491Y-13531150D01*
X11816491Y-13531150D02*
X11845063Y-13531150D01*
X11845063Y-13531150D02*
X11864110Y-13540674D01*
X11864110Y-13540674D02*
X11873634Y-13559722D01*
X11873634Y-13559722D02*
X11873634Y-13664484D01*
X11873634Y-13559722D02*
X11883158Y-13540674D01*
X11883158Y-13540674D02*
X11902205Y-13531150D01*
X11902205Y-13531150D02*
X11930777Y-13531150D01*
X11930777Y-13531150D02*
X11949824Y-13540674D01*
X11949824Y-13540674D02*
X11959348Y-13559722D01*
X11959348Y-13559722D02*
X11959348Y-13664484D01*
X12054586Y-13664484D02*
X12054586Y-13531150D01*
X12054586Y-13550198D02*
X12064110Y-13540674D01*
X12064110Y-13540674D02*
X12083158Y-13531150D01*
X12083158Y-13531150D02*
X12111729Y-13531150D01*
X12111729Y-13531150D02*
X12130777Y-13540674D01*
X12130777Y-13540674D02*
X12140301Y-13559722D01*
X12140301Y-13559722D02*
X12140301Y-13664484D01*
X12140301Y-13559722D02*
X12149824Y-13540674D01*
X12149824Y-13540674D02*
X12168872Y-13531150D01*
X12168872Y-13531150D02*
X12197443Y-13531150D01*
X12197443Y-13531150D02*
X12216491Y-13540674D01*
X12216491Y-13540674D02*
X12226015Y-13559722D01*
X12226015Y-13559722D02*
X12226015Y-13664484D01*
X12616491Y-13454960D02*
X12445063Y-13712103D01*
X12873634Y-13464484D02*
X12892682Y-13464484D01*
X12892682Y-13464484D02*
X12911729Y-13474008D01*
X12911729Y-13474008D02*
X12921253Y-13483531D01*
X12921253Y-13483531D02*
X12930777Y-13502579D01*
X12930777Y-13502579D02*
X12940301Y-13540674D01*
X12940301Y-13540674D02*
X12940301Y-13588293D01*
X12940301Y-13588293D02*
X12930777Y-13626388D01*
X12930777Y-13626388D02*
X12921253Y-13645436D01*
X12921253Y-13645436D02*
X12911729Y-13654960D01*
X12911729Y-13654960D02*
X12892682Y-13664484D01*
X12892682Y-13664484D02*
X12873634Y-13664484D01*
X12873634Y-13664484D02*
X12854586Y-13654960D01*
X12854586Y-13654960D02*
X12845063Y-13645436D01*
X12845063Y-13645436D02*
X12835539Y-13626388D01*
X12835539Y-13626388D02*
X12826015Y-13588293D01*
X12826015Y-13588293D02*
X12826015Y-13540674D01*
X12826015Y-13540674D02*
X12835539Y-13502579D01*
X12835539Y-13502579D02*
X12845063Y-13483531D01*
X12845063Y-13483531D02*
X12854586Y-13474008D01*
X12854586Y-13474008D02*
X12873634Y-13464484D01*
X13026015Y-13645436D02*
X13035539Y-13654960D01*
X13035539Y-13654960D02*
X13026015Y-13664484D01*
X13026015Y-13664484D02*
X13016491Y-13654960D01*
X13016491Y-13654960D02*
X13026015Y-13645436D01*
X13026015Y-13645436D02*
X13026015Y-13664484D01*
X13159348Y-13464484D02*
X13178396Y-13464484D01*
X13178396Y-13464484D02*
X13197444Y-13474008D01*
X13197444Y-13474008D02*
X13206967Y-13483531D01*
X13206967Y-13483531D02*
X13216491Y-13502579D01*
X13216491Y-13502579D02*
X13226015Y-13540674D01*
X13226015Y-13540674D02*
X13226015Y-13588293D01*
X13226015Y-13588293D02*
X13216491Y-13626388D01*
X13216491Y-13626388D02*
X13206967Y-13645436D01*
X13206967Y-13645436D02*
X13197444Y-13654960D01*
X13197444Y-13654960D02*
X13178396Y-13664484D01*
X13178396Y-13664484D02*
X13159348Y-13664484D01*
X13159348Y-13664484D02*
X13140301Y-13654960D01*
X13140301Y-13654960D02*
X13130777Y-13645436D01*
X13130777Y-13645436D02*
X13121253Y-13626388D01*
X13121253Y-13626388D02*
X13111729Y-13588293D01*
X13111729Y-13588293D02*
X13111729Y-13540674D01*
X13111729Y-13540674D02*
X13121253Y-13502579D01*
X13121253Y-13502579D02*
X13130777Y-13483531D01*
X13130777Y-13483531D02*
X13140301Y-13474008D01*
X13140301Y-13474008D02*
X13159348Y-13464484D01*
X13292682Y-13464484D02*
X13416491Y-13464484D01*
X13416491Y-13464484D02*
X13349825Y-13540674D01*
X13349825Y-13540674D02*
X13378396Y-13540674D01*
X13378396Y-13540674D02*
X13397444Y-13550198D01*
X13397444Y-13550198D02*
X13406967Y-13559722D01*
X13406967Y-13559722D02*
X13416491Y-13578769D01*
X13416491Y-13578769D02*
X13416491Y-13626388D01*
X13416491Y-13626388D02*
X13406967Y-13645436D01*
X13406967Y-13645436D02*
X13397444Y-13654960D01*
X13397444Y-13654960D02*
X13378396Y-13664484D01*
X13378396Y-13664484D02*
X13321253Y-13664484D01*
X13321253Y-13664484D02*
X13302206Y-13654960D01*
X13302206Y-13654960D02*
X13292682Y-13645436D01*
X13511729Y-13664484D02*
X13549825Y-13664484D01*
X13549825Y-13664484D02*
X13568872Y-13654960D01*
X13568872Y-13654960D02*
X13578396Y-13645436D01*
X13578396Y-13645436D02*
X13597444Y-13616865D01*
X13597444Y-13616865D02*
X13606967Y-13578769D01*
X13606967Y-13578769D02*
X13606967Y-13502579D01*
X13606967Y-13502579D02*
X13597444Y-13483531D01*
X13597444Y-13483531D02*
X13587920Y-13474008D01*
X13587920Y-13474008D02*
X13568872Y-13464484D01*
X13568872Y-13464484D02*
X13530777Y-13464484D01*
X13530777Y-13464484D02*
X13511729Y-13474008D01*
X13511729Y-13474008D02*
X13502206Y-13483531D01*
X13502206Y-13483531D02*
X13492682Y-13502579D01*
X13492682Y-13502579D02*
X13492682Y-13550198D01*
X13492682Y-13550198D02*
X13502206Y-13569246D01*
X13502206Y-13569246D02*
X13511729Y-13578769D01*
X13511729Y-13578769D02*
X13530777Y-13588293D01*
X13530777Y-13588293D02*
X13568872Y-13588293D01*
X13568872Y-13588293D02*
X13587920Y-13578769D01*
X13587920Y-13578769D02*
X13597444Y-13569246D01*
X13597444Y-13569246D02*
X13606967Y-13550198D01*
X13778396Y-13531150D02*
X13778396Y-13664484D01*
X13730777Y-13454960D02*
X13683158Y-13597817D01*
X13683158Y-13597817D02*
X13806967Y-13597817D01*
X13873634Y-13464484D02*
X13873634Y-13502579D01*
X13949825Y-13464484D02*
X13949825Y-13502579D01*
X14245063Y-13740674D02*
X14235539Y-13731150D01*
X14235539Y-13731150D02*
X14216491Y-13702579D01*
X14216491Y-13702579D02*
X14206968Y-13683531D01*
X14206968Y-13683531D02*
X14197444Y-13654960D01*
X14197444Y-13654960D02*
X14187920Y-13607341D01*
X14187920Y-13607341D02*
X14187920Y-13569246D01*
X14187920Y-13569246D02*
X14197444Y-13521627D01*
X14197444Y-13521627D02*
X14206968Y-13493055D01*
X14206968Y-13493055D02*
X14216491Y-13474008D01*
X14216491Y-13474008D02*
X14235539Y-13445436D01*
X14235539Y-13445436D02*
X14245063Y-13435912D01*
X14406968Y-13464484D02*
X14368872Y-13464484D01*
X14368872Y-13464484D02*
X14349825Y-13474008D01*
X14349825Y-13474008D02*
X14340301Y-13483531D01*
X14340301Y-13483531D02*
X14321253Y-13512103D01*
X14321253Y-13512103D02*
X14311729Y-13550198D01*
X14311729Y-13550198D02*
X14311729Y-13626388D01*
X14311729Y-13626388D02*
X14321253Y-13645436D01*
X14321253Y-13645436D02*
X14330777Y-13654960D01*
X14330777Y-13654960D02*
X14349825Y-13664484D01*
X14349825Y-13664484D02*
X14387920Y-13664484D01*
X14387920Y-13664484D02*
X14406968Y-13654960D01*
X14406968Y-13654960D02*
X14416491Y-13645436D01*
X14416491Y-13645436D02*
X14426015Y-13626388D01*
X14426015Y-13626388D02*
X14426015Y-13578769D01*
X14426015Y-13578769D02*
X14416491Y-13559722D01*
X14416491Y-13559722D02*
X14406968Y-13550198D01*
X14406968Y-13550198D02*
X14387920Y-13540674D01*
X14387920Y-13540674D02*
X14349825Y-13540674D01*
X14349825Y-13540674D02*
X14330777Y-13550198D01*
X14330777Y-13550198D02*
X14321253Y-13559722D01*
X14321253Y-13559722D02*
X14311729Y-13578769D01*
X14664110Y-13664484D02*
X14664110Y-13464484D01*
X14749825Y-13664484D02*
X14749825Y-13559722D01*
X14749825Y-13559722D02*
X14740301Y-13540674D01*
X14740301Y-13540674D02*
X14721253Y-13531150D01*
X14721253Y-13531150D02*
X14692682Y-13531150D01*
X14692682Y-13531150D02*
X14673634Y-13540674D01*
X14673634Y-13540674D02*
X14664110Y-13550198D01*
X14873634Y-13664484D02*
X14854587Y-13654960D01*
X14854587Y-13654960D02*
X14845063Y-13645436D01*
X14845063Y-13645436D02*
X14835539Y-13626388D01*
X14835539Y-13626388D02*
X14835539Y-13569246D01*
X14835539Y-13569246D02*
X14845063Y-13550198D01*
X14845063Y-13550198D02*
X14854587Y-13540674D01*
X14854587Y-13540674D02*
X14873634Y-13531150D01*
X14873634Y-13531150D02*
X14902206Y-13531150D01*
X14902206Y-13531150D02*
X14921253Y-13540674D01*
X14921253Y-13540674D02*
X14930777Y-13550198D01*
X14930777Y-13550198D02*
X14940301Y-13569246D01*
X14940301Y-13569246D02*
X14940301Y-13626388D01*
X14940301Y-13626388D02*
X14930777Y-13645436D01*
X14930777Y-13645436D02*
X14921253Y-13654960D01*
X14921253Y-13654960D02*
X14902206Y-13664484D01*
X14902206Y-13664484D02*
X14873634Y-13664484D01*
X15054587Y-13664484D02*
X15035539Y-13654960D01*
X15035539Y-13654960D02*
X15026015Y-13635912D01*
X15026015Y-13635912D02*
X15026015Y-13464484D01*
X15206968Y-13654960D02*
X15187920Y-13664484D01*
X15187920Y-13664484D02*
X15149825Y-13664484D01*
X15149825Y-13664484D02*
X15130777Y-13654960D01*
X15130777Y-13654960D02*
X15121253Y-13635912D01*
X15121253Y-13635912D02*
X15121253Y-13559722D01*
X15121253Y-13559722D02*
X15130777Y-13540674D01*
X15130777Y-13540674D02*
X15149825Y-13531150D01*
X15149825Y-13531150D02*
X15187920Y-13531150D01*
X15187920Y-13531150D02*
X15206968Y-13540674D01*
X15206968Y-13540674D02*
X15216491Y-13559722D01*
X15216491Y-13559722D02*
X15216491Y-13578769D01*
X15216491Y-13578769D02*
X15121253Y-13597817D01*
X15292682Y-13654960D02*
X15311730Y-13664484D01*
X15311730Y-13664484D02*
X15349825Y-13664484D01*
X15349825Y-13664484D02*
X15368872Y-13654960D01*
X15368872Y-13654960D02*
X15378396Y-13635912D01*
X15378396Y-13635912D02*
X15378396Y-13626388D01*
X15378396Y-13626388D02*
X15368872Y-13607341D01*
X15368872Y-13607341D02*
X15349825Y-13597817D01*
X15349825Y-13597817D02*
X15321253Y-13597817D01*
X15321253Y-13597817D02*
X15302206Y-13588293D01*
X15302206Y-13588293D02*
X15292682Y-13569246D01*
X15292682Y-13569246D02*
X15292682Y-13559722D01*
X15292682Y-13559722D02*
X15302206Y-13540674D01*
X15302206Y-13540674D02*
X15321253Y-13531150D01*
X15321253Y-13531150D02*
X15349825Y-13531150D01*
X15349825Y-13531150D02*
X15368872Y-13540674D01*
X15445063Y-13740674D02*
X15454587Y-13731150D01*
X15454587Y-13731150D02*
X15473634Y-13702579D01*
X15473634Y-13702579D02*
X15483158Y-13683531D01*
X15483158Y-13683531D02*
X15492682Y-13654960D01*
X15492682Y-13654960D02*
X15502206Y-13607341D01*
X15502206Y-13607341D02*
X15502206Y-13569246D01*
X15502206Y-13569246D02*
X15492682Y-13521627D01*
X15492682Y-13521627D02*
X15483158Y-13493055D01*
X15483158Y-13493055D02*
X15473634Y-13474008D01*
X15473634Y-13474008D02*
X15454587Y-13445436D01*
X15454587Y-13445436D02*
X15445063Y-13435912D01*
M02*
