%TF.GenerationSoftware,KiCad,Pcbnew,7.0.10*%
%TF.CreationDate,2024-10-31T16:29:48-04:00*%
%TF.ProjectId,pcb_v1,7063625f-7631-42e6-9b69-6361645f7063,rev?*%
%TF.SameCoordinates,Original*%
%TF.FileFunction,Soldermask,Top*%
%TF.FilePolarity,Negative*%
%FSLAX46Y46*%
G04 Gerber Fmt 4.6, Leading zero omitted, Abs format (unit mm)*
G04 Created by KiCad (PCBNEW 7.0.10) date 2024-10-31 16:29:48*
%MOMM*%
%LPD*%
G01*
G04 APERTURE LIST*
G04 Aperture macros list*
%AMRoundRect*
0 Rectangle with rounded corners*
0 $1 Rounding radius*
0 $2 $3 $4 $5 $6 $7 $8 $9 X,Y pos of 4 corners*
0 Add a 4 corners polygon primitive as box body*
4,1,4,$2,$3,$4,$5,$6,$7,$8,$9,$2,$3,0*
0 Add four circle primitives for the rounded corners*
1,1,$1+$1,$2,$3*
1,1,$1+$1,$4,$5*
1,1,$1+$1,$6,$7*
1,1,$1+$1,$8,$9*
0 Add four rect primitives between the rounded corners*
20,1,$1+$1,$2,$3,$4,$5,0*
20,1,$1+$1,$4,$5,$6,$7,0*
20,1,$1+$1,$6,$7,$8,$9,0*
20,1,$1+$1,$8,$9,$2,$3,0*%
G04 Aperture macros list end*
%ADD10RoundRect,0.102000X-1.225000X-0.500000X1.225000X-0.500000X1.225000X0.500000X-1.225000X0.500000X0*%
%ADD11RoundRect,0.102000X-0.500000X-1.225000X0.500000X-1.225000X0.500000X1.225000X-0.500000X1.225000X0*%
%ADD12R,1.470000X1.020000*%
%ADD13R,1.430000X0.940000*%
%ADD14R,0.450000X1.150000*%
%ADD15R,0.900000X0.900000*%
%ADD16R,1.500000X0.900000*%
%ADD17R,0.900000X1.500000*%
%ADD18C,1.431000*%
%ADD19R,1.200000X2.700000*%
%ADD20RoundRect,0.250000X0.600000X0.600000X-0.600000X0.600000X-0.600000X-0.600000X0.600000X-0.600000X0*%
%ADD21C,1.700000*%
G04 APERTURE END LIST*
D10*
%TO.C,IC2*%
X123197500Y-98540000D03*
X123197500Y-99940000D03*
X123197500Y-101340000D03*
X123197500Y-102740000D03*
X123197500Y-104140000D03*
X123197500Y-105540000D03*
X123197500Y-106940000D03*
X123197500Y-108340000D03*
D11*
X121802500Y-110635000D03*
X120402500Y-110635000D03*
X119002500Y-110635000D03*
X117602500Y-110635000D03*
X116202500Y-110635000D03*
X114802500Y-110635000D03*
X113402500Y-110635000D03*
X112002500Y-110635000D03*
D10*
X110607500Y-108340000D03*
X110607500Y-106940000D03*
X110607500Y-105540000D03*
X110607500Y-104140000D03*
X110607500Y-102740000D03*
X110607500Y-101340000D03*
X110607500Y-99940000D03*
X110607500Y-98540000D03*
%TD*%
D12*
%TO.C,C1*%
X157250000Y-102370000D03*
X157250000Y-103990000D03*
%TD*%
D13*
%TO.C,C2*%
X154750000Y-104000000D03*
X154750000Y-102360000D03*
%TD*%
D14*
%TO.C,IC3*%
X151900000Y-101930000D03*
X151250000Y-101930000D03*
X150600000Y-101930000D03*
X150600000Y-103930000D03*
X151900000Y-103930000D03*
%TD*%
D15*
%TO.C,IC1*%
X136080000Y-109630000D03*
X137480000Y-109630000D03*
X137480000Y-111030000D03*
X137480000Y-112430000D03*
X136080000Y-112430000D03*
X134680000Y-112430000D03*
X134680000Y-111030000D03*
X134680000Y-109630000D03*
X136080000Y-111030000D03*
D16*
X146330000Y-103690000D03*
X146330000Y-104960000D03*
X146330000Y-106230000D03*
X146330000Y-107500000D03*
X146330000Y-108770000D03*
X146330000Y-110040000D03*
X146330000Y-111310000D03*
X146330000Y-112580000D03*
X146330000Y-113850000D03*
X146330000Y-115120000D03*
X146330000Y-116390000D03*
X146330000Y-117660000D03*
X146330000Y-118930000D03*
X146330000Y-120200000D03*
D17*
X143295000Y-121450000D03*
X142025000Y-121450000D03*
X140755000Y-121450000D03*
X139485000Y-121450000D03*
X138215000Y-121450000D03*
X136945000Y-121450000D03*
X135675000Y-121450000D03*
X134405000Y-121450000D03*
X133135000Y-121450000D03*
X131865000Y-121450000D03*
D16*
X128830000Y-120200000D03*
X128830000Y-118930000D03*
X128830000Y-117660000D03*
X128830000Y-116390000D03*
X128830000Y-115120000D03*
X128830000Y-113850000D03*
X128830000Y-112580000D03*
X128830000Y-111310000D03*
X128830000Y-110040000D03*
X128830000Y-108770000D03*
X128830000Y-107500000D03*
X128830000Y-106230000D03*
X128830000Y-104960000D03*
X128830000Y-103690000D03*
%TD*%
D18*
%TO.C,D1*%
X121000000Y-120000000D03*
X118460000Y-120000000D03*
%TD*%
D19*
%TO.C,R2*%
X128450000Y-99500000D03*
X133050000Y-99500000D03*
%TD*%
D20*
%TO.C,J1*%
X155500000Y-118000000D03*
D21*
X152960000Y-118000000D03*
X155500000Y-115460000D03*
X152960000Y-115460000D03*
X155500000Y-112920000D03*
X152960000Y-112920000D03*
%TD*%
M02*
