%TF.GenerationSoftware,KiCad,Pcbnew,7.0.10*%
%TF.CreationDate,2024-10-31T16:29:59-04:00*%
%TF.ProjectId,pcb_v1,7063625f-7631-42e6-9b69-6361645f7063,rev?*%
%TF.SameCoordinates,Original*%
%TF.FileFunction,Drillmap*%
%TF.FilePolarity,Positive*%
%FSLAX45Y45*%
G04 Gerber Fmt 4.5, Leading zero omitted, Abs format (unit mm)*
G04 Created by KiCad (PCBNEW 7.0.10) date 2024-10-31 16:29:59*
%MOMM*%
%LPD*%
G01*
G04 APERTURE LIST*
%ADD10C,0.100000*%
%ADD11C,0.200000*%
G04 APERTURE END LIST*
D10*
X10675000Y-8700000D02*
X16100000Y-8700000D01*
X16100000Y-12400000D01*
X10675000Y-12400000D01*
X10675000Y-8700000D01*
D11*
X10930777Y-12716484D02*
X10930777Y-12516484D01*
X10930777Y-12516484D02*
X10978396Y-12516484D01*
X10978396Y-12516484D02*
X11006967Y-12526008D01*
X11006967Y-12526008D02*
X11026015Y-12545055D01*
X11026015Y-12545055D02*
X11035539Y-12564103D01*
X11035539Y-12564103D02*
X11045063Y-12602198D01*
X11045063Y-12602198D02*
X11045063Y-12630769D01*
X11045063Y-12630769D02*
X11035539Y-12668865D01*
X11035539Y-12668865D02*
X11026015Y-12687912D01*
X11026015Y-12687912D02*
X11006967Y-12706960D01*
X11006967Y-12706960D02*
X10978396Y-12716484D01*
X10978396Y-12716484D02*
X10930777Y-12716484D01*
X11130777Y-12716484D02*
X11130777Y-12583150D01*
X11130777Y-12621246D02*
X11140301Y-12602198D01*
X11140301Y-12602198D02*
X11149824Y-12592674D01*
X11149824Y-12592674D02*
X11168872Y-12583150D01*
X11168872Y-12583150D02*
X11187920Y-12583150D01*
X11254586Y-12716484D02*
X11254586Y-12583150D01*
X11254586Y-12516484D02*
X11245062Y-12526008D01*
X11245062Y-12526008D02*
X11254586Y-12535531D01*
X11254586Y-12535531D02*
X11264110Y-12526008D01*
X11264110Y-12526008D02*
X11254586Y-12516484D01*
X11254586Y-12516484D02*
X11254586Y-12535531D01*
X11378396Y-12716484D02*
X11359348Y-12706960D01*
X11359348Y-12706960D02*
X11349824Y-12687912D01*
X11349824Y-12687912D02*
X11349824Y-12516484D01*
X11483158Y-12716484D02*
X11464110Y-12706960D01*
X11464110Y-12706960D02*
X11454586Y-12687912D01*
X11454586Y-12687912D02*
X11454586Y-12516484D01*
X11711729Y-12716484D02*
X11711729Y-12516484D01*
X11711729Y-12516484D02*
X11778396Y-12659341D01*
X11778396Y-12659341D02*
X11845062Y-12516484D01*
X11845062Y-12516484D02*
X11845062Y-12716484D01*
X12026015Y-12716484D02*
X12026015Y-12611722D01*
X12026015Y-12611722D02*
X12016491Y-12592674D01*
X12016491Y-12592674D02*
X11997443Y-12583150D01*
X11997443Y-12583150D02*
X11959348Y-12583150D01*
X11959348Y-12583150D02*
X11940301Y-12592674D01*
X12026015Y-12706960D02*
X12006967Y-12716484D01*
X12006967Y-12716484D02*
X11959348Y-12716484D01*
X11959348Y-12716484D02*
X11940301Y-12706960D01*
X11940301Y-12706960D02*
X11930777Y-12687912D01*
X11930777Y-12687912D02*
X11930777Y-12668865D01*
X11930777Y-12668865D02*
X11940301Y-12649817D01*
X11940301Y-12649817D02*
X11959348Y-12640293D01*
X11959348Y-12640293D02*
X12006967Y-12640293D01*
X12006967Y-12640293D02*
X12026015Y-12630769D01*
X12121253Y-12583150D02*
X12121253Y-12783150D01*
X12121253Y-12592674D02*
X12140301Y-12583150D01*
X12140301Y-12583150D02*
X12178396Y-12583150D01*
X12178396Y-12583150D02*
X12197443Y-12592674D01*
X12197443Y-12592674D02*
X12206967Y-12602198D01*
X12206967Y-12602198D02*
X12216491Y-12621246D01*
X12216491Y-12621246D02*
X12216491Y-12678388D01*
X12216491Y-12678388D02*
X12206967Y-12697436D01*
X12206967Y-12697436D02*
X12197443Y-12706960D01*
X12197443Y-12706960D02*
X12178396Y-12716484D01*
X12178396Y-12716484D02*
X12140301Y-12716484D01*
X12140301Y-12716484D02*
X12121253Y-12706960D01*
X12302205Y-12697436D02*
X12311729Y-12706960D01*
X12311729Y-12706960D02*
X12302205Y-12716484D01*
X12302205Y-12716484D02*
X12292682Y-12706960D01*
X12292682Y-12706960D02*
X12302205Y-12697436D01*
X12302205Y-12697436D02*
X12302205Y-12716484D01*
X12302205Y-12592674D02*
X12311729Y-12602198D01*
X12311729Y-12602198D02*
X12302205Y-12611722D01*
X12302205Y-12611722D02*
X12292682Y-12602198D01*
X12292682Y-12602198D02*
X12302205Y-12592674D01*
X12302205Y-12592674D02*
X12302205Y-12611722D01*
M02*
