%TF.GenerationSoftware,KiCad,Pcbnew,7.0.10*%
%TF.CreationDate,2024-11-01T14:14:09-04:00*%
%TF.ProjectId,pcb_v1,7063625f-7631-42e6-9b69-6361645f7063,rev?*%
%TF.SameCoordinates,Original*%
%TF.FileFunction,Paste,Top*%
%TF.FilePolarity,Positive*%
%FSLAX46Y46*%
G04 Gerber Fmt 4.6, Leading zero omitted, Abs format (unit mm)*
G04 Created by KiCad (PCBNEW 7.0.10) date 2024-11-01 14:14:09*
%MOMM*%
%LPD*%
G01*
G04 APERTURE LIST*
%ADD10R,1.200000X2.700000*%
%ADD11R,1.000000X3.500000*%
%ADD12R,1.500000X3.400000*%
%ADD13R,2.450000X1.000000*%
%ADD14R,1.000000X2.450000*%
%ADD15R,1.470000X1.020000*%
%ADD16R,1.500000X0.900000*%
%ADD17R,0.900000X1.500000*%
%ADD18R,0.900000X0.900000*%
%ADD19R,1.430000X0.940000*%
%ADD20R,0.450000X1.150000*%
G04 APERTURE END LIST*
D10*
%TO.C,R2*%
X136300000Y-125250000D03*
X131700000Y-125250000D03*
%TD*%
%TO.C,R1*%
X147300000Y-125250000D03*
X142700000Y-125250000D03*
%TD*%
D11*
%TO.C,J2*%
X110900000Y-118200000D03*
X112900000Y-118200000D03*
D12*
X108550000Y-123750000D03*
X115250000Y-123750000D03*
%TD*%
D13*
%TO.C,IC2*%
X110607500Y-98540000D03*
X110607500Y-99940000D03*
X110607500Y-101340000D03*
X110607500Y-102740000D03*
X110607500Y-104140000D03*
X110607500Y-105540000D03*
X110607500Y-106940000D03*
X110607500Y-108340000D03*
D14*
X112002500Y-110635000D03*
X113402500Y-110635000D03*
X114802500Y-110635000D03*
X116202500Y-110635000D03*
X117602500Y-110635000D03*
X119002500Y-110635000D03*
X120402500Y-110635000D03*
X121802500Y-110635000D03*
D13*
X123197500Y-108340000D03*
X123197500Y-106940000D03*
X123197500Y-105540000D03*
X123197500Y-104140000D03*
X123197500Y-102740000D03*
X123197500Y-101340000D03*
X123197500Y-99940000D03*
X123197500Y-98540000D03*
%TD*%
D15*
%TO.C,C1*%
X157250000Y-103990000D03*
X157250000Y-102370000D03*
%TD*%
D16*
%TO.C,IC1*%
X128830000Y-103690000D03*
X128830000Y-104960000D03*
X128830000Y-106230000D03*
X128830000Y-107500000D03*
X128830000Y-108770000D03*
X128830000Y-110040000D03*
X128830000Y-111310000D03*
X128830000Y-112580000D03*
X128830000Y-113850000D03*
X128830000Y-115120000D03*
X128830000Y-116390000D03*
X128830000Y-117660000D03*
X128830000Y-118930000D03*
X128830000Y-120200000D03*
D17*
X131865000Y-121450000D03*
X133135000Y-121450000D03*
X134405000Y-121450000D03*
X135675000Y-121450000D03*
X136945000Y-121450000D03*
X138215000Y-121450000D03*
X139485000Y-121450000D03*
X140755000Y-121450000D03*
X142025000Y-121450000D03*
X143295000Y-121450000D03*
D16*
X146330000Y-120200000D03*
X146330000Y-118930000D03*
X146330000Y-117660000D03*
X146330000Y-116390000D03*
X146330000Y-115120000D03*
X146330000Y-113850000D03*
X146330000Y-112580000D03*
X146330000Y-111310000D03*
X146330000Y-110040000D03*
X146330000Y-108770000D03*
X146330000Y-107500000D03*
X146330000Y-106230000D03*
X146330000Y-104960000D03*
X146330000Y-103690000D03*
D18*
X136080000Y-111030000D03*
X134680000Y-109630000D03*
X134680000Y-111030000D03*
X134680000Y-112430000D03*
X136080000Y-112430000D03*
X137480000Y-112430000D03*
X137480000Y-111030000D03*
X137480000Y-109630000D03*
X136080000Y-109630000D03*
%TD*%
D19*
%TO.C,C2*%
X154750000Y-104000000D03*
X154750000Y-102360000D03*
%TD*%
D20*
%TO.C,IC3*%
X151900000Y-101930000D03*
X151250000Y-101930000D03*
X150600000Y-101930000D03*
X150600000Y-103930000D03*
X151900000Y-103930000D03*
%TD*%
M02*
