%TF.GenerationSoftware,KiCad,Pcbnew,7.0.10*%
%TF.CreationDate,2024-11-01T14:14:09-04:00*%
%TF.ProjectId,pcb_v1,7063625f-7631-42e6-9b69-6361645f7063,rev?*%
%TF.SameCoordinates,Original*%
%TF.FileFunction,Legend,Top*%
%TF.FilePolarity,Positive*%
%FSLAX46Y46*%
G04 Gerber Fmt 4.6, Leading zero omitted, Abs format (unit mm)*
G04 Created by KiCad (PCBNEW 7.0.10) date 2024-11-01 14:14:09*
%MOMM*%
%LPD*%
G01*
G04 APERTURE LIST*
%ADD10C,0.254000*%
%ADD11C,0.150000*%
%ADD12C,0.200000*%
%ADD13C,0.127000*%
%ADD14C,0.100000*%
%ADD15C,0.120000*%
G04 APERTURE END LIST*
D10*
X138538333Y-125824318D02*
X138114999Y-125219556D01*
X137812618Y-125824318D02*
X137812618Y-124554318D01*
X137812618Y-124554318D02*
X138296428Y-124554318D01*
X138296428Y-124554318D02*
X138417380Y-124614794D01*
X138417380Y-124614794D02*
X138477857Y-124675270D01*
X138477857Y-124675270D02*
X138538333Y-124796222D01*
X138538333Y-124796222D02*
X138538333Y-124977651D01*
X138538333Y-124977651D02*
X138477857Y-125098603D01*
X138477857Y-125098603D02*
X138417380Y-125159080D01*
X138417380Y-125159080D02*
X138296428Y-125219556D01*
X138296428Y-125219556D02*
X137812618Y-125219556D01*
X139022142Y-124675270D02*
X139082618Y-124614794D01*
X139082618Y-124614794D02*
X139203571Y-124554318D01*
X139203571Y-124554318D02*
X139505952Y-124554318D01*
X139505952Y-124554318D02*
X139626904Y-124614794D01*
X139626904Y-124614794D02*
X139687380Y-124675270D01*
X139687380Y-124675270D02*
X139747857Y-124796222D01*
X139747857Y-124796222D02*
X139747857Y-124917175D01*
X139747857Y-124917175D02*
X139687380Y-125098603D01*
X139687380Y-125098603D02*
X138961666Y-125824318D01*
X138961666Y-125824318D02*
X139747857Y-125824318D01*
X149288333Y-126074318D02*
X148864999Y-125469556D01*
X148562618Y-126074318D02*
X148562618Y-124804318D01*
X148562618Y-124804318D02*
X149046428Y-124804318D01*
X149046428Y-124804318D02*
X149167380Y-124864794D01*
X149167380Y-124864794D02*
X149227857Y-124925270D01*
X149227857Y-124925270D02*
X149288333Y-125046222D01*
X149288333Y-125046222D02*
X149288333Y-125227651D01*
X149288333Y-125227651D02*
X149227857Y-125348603D01*
X149227857Y-125348603D02*
X149167380Y-125409080D01*
X149167380Y-125409080D02*
X149046428Y-125469556D01*
X149046428Y-125469556D02*
X148562618Y-125469556D01*
X150497857Y-126074318D02*
X149772142Y-126074318D01*
X150134999Y-126074318D02*
X150134999Y-124804318D01*
X150134999Y-124804318D02*
X150014047Y-124985746D01*
X150014047Y-124985746D02*
X149893095Y-125106699D01*
X149893095Y-125106699D02*
X149772142Y-125167175D01*
X110814667Y-121298318D02*
X110814667Y-122205461D01*
X110814667Y-122205461D02*
X110754190Y-122386889D01*
X110754190Y-122386889D02*
X110633238Y-122507842D01*
X110633238Y-122507842D02*
X110451809Y-122568318D01*
X110451809Y-122568318D02*
X110330857Y-122568318D01*
X111358952Y-121419270D02*
X111419428Y-121358794D01*
X111419428Y-121358794D02*
X111540381Y-121298318D01*
X111540381Y-121298318D02*
X111842762Y-121298318D01*
X111842762Y-121298318D02*
X111963714Y-121358794D01*
X111963714Y-121358794D02*
X112024190Y-121419270D01*
X112024190Y-121419270D02*
X112084667Y-121540222D01*
X112084667Y-121540222D02*
X112084667Y-121661175D01*
X112084667Y-121661175D02*
X112024190Y-121842603D01*
X112024190Y-121842603D02*
X111298476Y-122568318D01*
X111298476Y-122568318D02*
X112084667Y-122568318D01*
D11*
X107523810Y-93704819D02*
X107523810Y-92704819D01*
X108571428Y-93609580D02*
X108523809Y-93657200D01*
X108523809Y-93657200D02*
X108380952Y-93704819D01*
X108380952Y-93704819D02*
X108285714Y-93704819D01*
X108285714Y-93704819D02*
X108142857Y-93657200D01*
X108142857Y-93657200D02*
X108047619Y-93561961D01*
X108047619Y-93561961D02*
X108000000Y-93466723D01*
X108000000Y-93466723D02*
X107952381Y-93276247D01*
X107952381Y-93276247D02*
X107952381Y-93133390D01*
X107952381Y-93133390D02*
X108000000Y-92942914D01*
X108000000Y-92942914D02*
X108047619Y-92847676D01*
X108047619Y-92847676D02*
X108142857Y-92752438D01*
X108142857Y-92752438D02*
X108285714Y-92704819D01*
X108285714Y-92704819D02*
X108380952Y-92704819D01*
X108380952Y-92704819D02*
X108523809Y-92752438D01*
X108523809Y-92752438D02*
X108571428Y-92800057D01*
X108952381Y-92800057D02*
X109000000Y-92752438D01*
X109000000Y-92752438D02*
X109095238Y-92704819D01*
X109095238Y-92704819D02*
X109333333Y-92704819D01*
X109333333Y-92704819D02*
X109428571Y-92752438D01*
X109428571Y-92752438D02*
X109476190Y-92800057D01*
X109476190Y-92800057D02*
X109523809Y-92895295D01*
X109523809Y-92895295D02*
X109523809Y-92990533D01*
X109523809Y-92990533D02*
X109476190Y-93133390D01*
X109476190Y-93133390D02*
X108904762Y-93704819D01*
X108904762Y-93704819D02*
X109523809Y-93704819D01*
D10*
X157953365Y-100331666D02*
X158013842Y-100392142D01*
X158013842Y-100392142D02*
X158074318Y-100573571D01*
X158074318Y-100573571D02*
X158074318Y-100694523D01*
X158074318Y-100694523D02*
X158013842Y-100875952D01*
X158013842Y-100875952D02*
X157892889Y-100996904D01*
X157892889Y-100996904D02*
X157771937Y-101057381D01*
X157771937Y-101057381D02*
X157530032Y-101117857D01*
X157530032Y-101117857D02*
X157348603Y-101117857D01*
X157348603Y-101117857D02*
X157106699Y-101057381D01*
X157106699Y-101057381D02*
X156985746Y-100996904D01*
X156985746Y-100996904D02*
X156864794Y-100875952D01*
X156864794Y-100875952D02*
X156804318Y-100694523D01*
X156804318Y-100694523D02*
X156804318Y-100573571D01*
X156804318Y-100573571D02*
X156864794Y-100392142D01*
X156864794Y-100392142D02*
X156925270Y-100331666D01*
X158074318Y-99122142D02*
X158074318Y-99847857D01*
X158074318Y-99485000D02*
X156804318Y-99485000D01*
X156804318Y-99485000D02*
X156985746Y-99605952D01*
X156985746Y-99605952D02*
X157106699Y-99726904D01*
X157106699Y-99726904D02*
X157167175Y-99847857D01*
X136260237Y-100574318D02*
X136260237Y-99304318D01*
X137590714Y-100453365D02*
X137530238Y-100513842D01*
X137530238Y-100513842D02*
X137348809Y-100574318D01*
X137348809Y-100574318D02*
X137227857Y-100574318D01*
X137227857Y-100574318D02*
X137046428Y-100513842D01*
X137046428Y-100513842D02*
X136925476Y-100392889D01*
X136925476Y-100392889D02*
X136864999Y-100271937D01*
X136864999Y-100271937D02*
X136804523Y-100030032D01*
X136804523Y-100030032D02*
X136804523Y-99848603D01*
X136804523Y-99848603D02*
X136864999Y-99606699D01*
X136864999Y-99606699D02*
X136925476Y-99485746D01*
X136925476Y-99485746D02*
X137046428Y-99364794D01*
X137046428Y-99364794D02*
X137227857Y-99304318D01*
X137227857Y-99304318D02*
X137348809Y-99304318D01*
X137348809Y-99304318D02*
X137530238Y-99364794D01*
X137530238Y-99364794D02*
X137590714Y-99425270D01*
X138800238Y-100574318D02*
X138074523Y-100574318D01*
X138437380Y-100574318D02*
X138437380Y-99304318D01*
X138437380Y-99304318D02*
X138316428Y-99485746D01*
X138316428Y-99485746D02*
X138195476Y-99606699D01*
X138195476Y-99606699D02*
X138074523Y-99667175D01*
X155203365Y-100321666D02*
X155263842Y-100382142D01*
X155263842Y-100382142D02*
X155324318Y-100563571D01*
X155324318Y-100563571D02*
X155324318Y-100684523D01*
X155324318Y-100684523D02*
X155263842Y-100865952D01*
X155263842Y-100865952D02*
X155142889Y-100986904D01*
X155142889Y-100986904D02*
X155021937Y-101047381D01*
X155021937Y-101047381D02*
X154780032Y-101107857D01*
X154780032Y-101107857D02*
X154598603Y-101107857D01*
X154598603Y-101107857D02*
X154356699Y-101047381D01*
X154356699Y-101047381D02*
X154235746Y-100986904D01*
X154235746Y-100986904D02*
X154114794Y-100865952D01*
X154114794Y-100865952D02*
X154054318Y-100684523D01*
X154054318Y-100684523D02*
X154054318Y-100563571D01*
X154054318Y-100563571D02*
X154114794Y-100382142D01*
X154114794Y-100382142D02*
X154175270Y-100321666D01*
X154175270Y-99837857D02*
X154114794Y-99777381D01*
X154114794Y-99777381D02*
X154054318Y-99656428D01*
X154054318Y-99656428D02*
X154054318Y-99354047D01*
X154054318Y-99354047D02*
X154114794Y-99233095D01*
X154114794Y-99233095D02*
X154175270Y-99172619D01*
X154175270Y-99172619D02*
X154296222Y-99112142D01*
X154296222Y-99112142D02*
X154417175Y-99112142D01*
X154417175Y-99112142D02*
X154598603Y-99172619D01*
X154598603Y-99172619D02*
X155324318Y-99898333D01*
X155324318Y-99898333D02*
X155324318Y-99112142D01*
X151824318Y-100669762D02*
X150554318Y-100669762D01*
X151703365Y-99339285D02*
X151763842Y-99399761D01*
X151763842Y-99399761D02*
X151824318Y-99581190D01*
X151824318Y-99581190D02*
X151824318Y-99702142D01*
X151824318Y-99702142D02*
X151763842Y-99883571D01*
X151763842Y-99883571D02*
X151642889Y-100004523D01*
X151642889Y-100004523D02*
X151521937Y-100065000D01*
X151521937Y-100065000D02*
X151280032Y-100125476D01*
X151280032Y-100125476D02*
X151098603Y-100125476D01*
X151098603Y-100125476D02*
X150856699Y-100065000D01*
X150856699Y-100065000D02*
X150735746Y-100004523D01*
X150735746Y-100004523D02*
X150614794Y-99883571D01*
X150614794Y-99883571D02*
X150554318Y-99702142D01*
X150554318Y-99702142D02*
X150554318Y-99581190D01*
X150554318Y-99581190D02*
X150614794Y-99399761D01*
X150614794Y-99399761D02*
X150675270Y-99339285D01*
X150554318Y-98915952D02*
X150554318Y-98129761D01*
X150554318Y-98129761D02*
X151038127Y-98553095D01*
X151038127Y-98553095D02*
X151038127Y-98371666D01*
X151038127Y-98371666D02*
X151098603Y-98250714D01*
X151098603Y-98250714D02*
X151159080Y-98190238D01*
X151159080Y-98190238D02*
X151280032Y-98129761D01*
X151280032Y-98129761D02*
X151582413Y-98129761D01*
X151582413Y-98129761D02*
X151703365Y-98190238D01*
X151703365Y-98190238D02*
X151763842Y-98250714D01*
X151763842Y-98250714D02*
X151824318Y-98371666D01*
X151824318Y-98371666D02*
X151824318Y-98734523D01*
X151824318Y-98734523D02*
X151763842Y-98855476D01*
X151763842Y-98855476D02*
X151703365Y-98915952D01*
D11*
X154166666Y-105704819D02*
X154166666Y-106419104D01*
X154166666Y-106419104D02*
X154119047Y-106561961D01*
X154119047Y-106561961D02*
X154023809Y-106657200D01*
X154023809Y-106657200D02*
X153880952Y-106704819D01*
X153880952Y-106704819D02*
X153785714Y-106704819D01*
X155166666Y-106704819D02*
X154595238Y-106704819D01*
X154880952Y-106704819D02*
X154880952Y-105704819D01*
X154880952Y-105704819D02*
X154785714Y-105847676D01*
X154785714Y-105847676D02*
X154690476Y-105942914D01*
X154690476Y-105942914D02*
X154595238Y-105990533D01*
D12*
%TO.C,R2*%
X134000000Y-126400000D02*
X134000000Y-124100000D01*
%TO.C,D1*%
X122250000Y-117362000D02*
X122250000Y-117362000D01*
X122250000Y-123138000D02*
X122250000Y-123138000D01*
X125520000Y-120250000D02*
X125520000Y-120250000D01*
X125620000Y-120250000D02*
X125620000Y-120250000D01*
X122250000Y-123138000D02*
G75*
G03*
X122250000Y-117362000I0J2888000D01*
G01*
X122250000Y-117362000D02*
G75*
G03*
X122250000Y-123138000I0J-2888000D01*
G01*
X125620000Y-120250000D02*
G75*
G03*
X125520000Y-120250000I-50000J0D01*
G01*
X125520000Y-120250000D02*
G75*
G03*
X125620000Y-120250000I50000J0D01*
G01*
%TO.C,R1*%
X145000000Y-124100000D02*
X145000000Y-126400000D01*
%TO.C,J2*%
X107950000Y-118200000D02*
X107950000Y-121625000D01*
X115850000Y-118200000D02*
X115850000Y-121625000D01*
X107950000Y-118200000D02*
X110000000Y-118200000D01*
X115850000Y-118200000D02*
X113800000Y-118200000D01*
X109704000Y-125049000D02*
X114096000Y-125049000D01*
X110883000Y-115618000D02*
G75*
G03*
X110779000Y-115618000I-52000J0D01*
G01*
X110779000Y-115618000D02*
G75*
G03*
X110883000Y-115618000I52000J0D01*
G01*
D13*
%TO.C,IC2*%
X110402500Y-88140000D02*
X123402500Y-88140000D01*
X110402500Y-97690000D02*
X110402500Y-88140000D01*
X110402500Y-110840000D02*
X110402500Y-109170000D01*
X111182500Y-110840000D02*
X110402500Y-110840000D01*
X123402500Y-88140000D02*
X123402500Y-97690000D01*
X123402500Y-109170000D02*
X123402500Y-110840000D01*
X123402500Y-110840000D02*
X122622500Y-110840000D01*
D12*
X108602500Y-97990000D02*
G75*
G03*
X108402500Y-97990000I-100000J0D01*
G01*
X108402500Y-97990000D02*
G75*
G03*
X108602500Y-97990000I100000J0D01*
G01*
D14*
%TO.C,IC1*%
X127580000Y-103690000D02*
X127580000Y-103690000D01*
X127680000Y-103690000D02*
X127680000Y-103690000D01*
D12*
X128580000Y-102500000D02*
X146580000Y-102500000D01*
X128580000Y-102900000D02*
X128580000Y-102500000D01*
X128580000Y-120900000D02*
X128580000Y-121700000D01*
X128580000Y-121700000D02*
X131180000Y-121700000D01*
X143980000Y-121700000D02*
X146580000Y-121700000D01*
X146580000Y-102500000D02*
X146580000Y-102900000D01*
X146580000Y-121700000D02*
X146580000Y-120900000D01*
D14*
X127680000Y-103690000D02*
G75*
G03*
X127580000Y-103690000I-50000J0D01*
G01*
X127580000Y-103690000D02*
G75*
G03*
X127680000Y-103690000I50000J0D01*
G01*
D12*
%TO.C,C2*%
X154225000Y-103180000D02*
X155275000Y-103180000D01*
%TO.C,IC3*%
X152375000Y-101355000D02*
X152375000Y-102505000D01*
X152262000Y-102855000D02*
X152262000Y-103005000D01*
X150238000Y-102855000D02*
X152262000Y-102855000D01*
X152262000Y-103005000D02*
X150238000Y-103005000D01*
X150238000Y-103005000D02*
X150238000Y-102855000D01*
D15*
%TO.C,J1*%
X160180000Y-118500000D02*
X160180000Y-117500000D01*
X160180000Y-117500000D02*
X159180000Y-118000000D01*
X159180000Y-118000000D02*
X160180000Y-118500000D01*
X158790000Y-123210000D02*
X149670000Y-123210000D01*
X158790000Y-117510000D02*
X157480000Y-117510000D01*
X158790000Y-107710000D02*
X158790000Y-123210000D01*
X157480000Y-121910000D02*
X150980000Y-121910000D01*
X157480000Y-117510000D02*
X157480000Y-121910000D01*
X157480000Y-113410000D02*
X158790000Y-113410000D01*
X157480000Y-113410000D02*
X157480000Y-113410000D01*
X157480000Y-109010000D02*
X157480000Y-113410000D01*
X150980000Y-121910000D02*
X150980000Y-109010000D01*
X150980000Y-109010000D02*
X157480000Y-109010000D01*
X149670000Y-123210000D02*
X149670000Y-107710000D01*
X149670000Y-107710000D02*
X158790000Y-107710000D01*
%TD*%
M02*
