%TF.GenerationSoftware,KiCad,Pcbnew,7.0.10*%
%TF.CreationDate,2024-11-01T14:14:09-04:00*%
%TF.ProjectId,pcb_v1,7063625f-7631-42e6-9b69-6361645f7063,rev?*%
%TF.SameCoordinates,Original*%
%TF.FileFunction,Copper,L1,Top*%
%TF.FilePolarity,Positive*%
%FSLAX46Y46*%
G04 Gerber Fmt 4.6, Leading zero omitted, Abs format (unit mm)*
G04 Created by KiCad (PCBNEW 7.0.10) date 2024-11-01 14:14:09*
%MOMM*%
%LPD*%
G01*
G04 APERTURE LIST*
G04 Aperture macros list*
%AMRoundRect*
0 Rectangle with rounded corners*
0 $1 Rounding radius*
0 $2 $3 $4 $5 $6 $7 $8 $9 X,Y pos of 4 corners*
0 Add a 4 corners polygon primitive as box body*
4,1,4,$2,$3,$4,$5,$6,$7,$8,$9,$2,$3,0*
0 Add four circle primitives for the rounded corners*
1,1,$1+$1,$2,$3*
1,1,$1+$1,$4,$5*
1,1,$1+$1,$6,$7*
1,1,$1+$1,$8,$9*
0 Add four rect primitives between the rounded corners*
20,1,$1+$1,$2,$3,$4,$5,0*
20,1,$1+$1,$4,$5,$6,$7,0*
20,1,$1+$1,$6,$7,$8,$9,0*
20,1,$1+$1,$8,$9,$2,$3,0*%
G04 Aperture macros list end*
%TA.AperFunction,SMDPad,CuDef*%
%ADD10R,1.200000X2.700000*%
%TD*%
%TA.AperFunction,ComponentPad*%
%ADD11C,1.431000*%
%TD*%
%TA.AperFunction,SMDPad,CuDef*%
%ADD12R,1.000000X3.500000*%
%TD*%
%TA.AperFunction,SMDPad,CuDef*%
%ADD13R,1.500000X3.400000*%
%TD*%
%TA.AperFunction,SMDPad,CuDef*%
%ADD14R,2.450000X1.000000*%
%TD*%
%TA.AperFunction,SMDPad,CuDef*%
%ADD15R,1.000000X2.450000*%
%TD*%
%TA.AperFunction,SMDPad,CuDef*%
%ADD16R,1.470000X1.020000*%
%TD*%
%TA.AperFunction,SMDPad,CuDef*%
%ADD17R,1.500000X0.900000*%
%TD*%
%TA.AperFunction,SMDPad,CuDef*%
%ADD18R,0.900000X1.500000*%
%TD*%
%TA.AperFunction,SMDPad,CuDef*%
%ADD19R,0.900000X0.900000*%
%TD*%
%TA.AperFunction,SMDPad,CuDef*%
%ADD20R,1.430000X0.940000*%
%TD*%
%TA.AperFunction,SMDPad,CuDef*%
%ADD21R,0.450000X1.150000*%
%TD*%
%TA.AperFunction,ComponentPad*%
%ADD22RoundRect,0.250000X0.600000X0.600000X-0.600000X0.600000X-0.600000X-0.600000X0.600000X-0.600000X0*%
%TD*%
%TA.AperFunction,ComponentPad*%
%ADD23C,1.700000*%
%TD*%
%TA.AperFunction,ViaPad*%
%ADD24C,0.800000*%
%TD*%
%TA.AperFunction,Conductor*%
%ADD25C,0.250000*%
%TD*%
G04 APERTURE END LIST*
D10*
%TO.P,R2,1,1*%
%TO.N,Net-(IC2-GPIO3)*%
X136300000Y-125250000D03*
%TO.P,R2,2,2*%
%TO.N,Net-(D1-A)*%
X131700000Y-125250000D03*
%TD*%
D11*
%TO.P,D1,1,K*%
%TO.N,GND*%
X123520000Y-120250000D03*
%TO.P,D1,2,A*%
%TO.N,Net-(D1-A)*%
X120980000Y-120250000D03*
%TD*%
D10*
%TO.P,R1,2,2*%
%TO.N,Net-(IC1-IO15)*%
X147300000Y-125250000D03*
%TO.P,R1,1,1*%
%TO.N,Net-(IC2-GPIO8)*%
X142700000Y-125250000D03*
%TD*%
D12*
%TO.P,J2,1,1*%
%TO.N,Net-(IC3-VIN)*%
X110900000Y-118200000D03*
%TO.P,J2,2,2*%
%TO.N,GND*%
X112900000Y-118200000D03*
D13*
%TO.P,J2,3*%
%TO.N,N/C*%
X108550000Y-123750000D03*
%TO.P,J2,4*%
X115250000Y-123750000D03*
%TD*%
D14*
%TO.P,IC2,1,EXTON*%
%TO.N,unconnected-(IC2-EXTON-Pad1)*%
X110607500Y-98540000D03*
%TO.P,IC2,2,WAKEUP*%
%TO.N,unconnected-(IC2-WAKEUP-Pad2)*%
X110607500Y-99940000D03*
%TO.P,IC2,3,RSTN*%
%TO.N,Net-(IC1-IO26)*%
X110607500Y-101340000D03*
%TO.P,IC2,4,GPIO7*%
%TO.N,unconnected-(IC2-GPIO7-Pad4)*%
X110607500Y-102740000D03*
%TO.P,IC2,5,VDD1*%
%TO.N,VDD*%
X110607500Y-104140000D03*
%TO.P,IC2,6,VDD3V3_1*%
X110607500Y-105540000D03*
%TO.P,IC2,7,VDD3V3_2*%
X110607500Y-106940000D03*
%TO.P,IC2,8,VSS_1*%
%TO.N,GND*%
X110607500Y-108340000D03*
D15*
%TO.P,IC2,9,GPIO6*%
%TO.N,unconnected-(IC2-GPIO6-Pad9)*%
X112002500Y-110635000D03*
%TO.P,IC2,10,GPIO5*%
%TO.N,unconnected-(IC2-GPIO5-Pad10)*%
X113402500Y-110635000D03*
%TO.P,IC2,11,GPIO4*%
%TO.N,unconnected-(IC2-GPIO4-Pad11)*%
X114802500Y-110635000D03*
%TO.P,IC2,12,GPIO3*%
%TO.N,Net-(IC2-GPIO3)*%
X116202500Y-110635000D03*
%TO.P,IC2,13,GPIO2*%
%TO.N,unconnected-(IC2-GPIO2-Pad13)*%
X117602500Y-110635000D03*
%TO.P,IC2,14,GPIO1*%
%TO.N,unconnected-(IC2-GPIO1-Pad14)*%
X119002500Y-110635000D03*
%TO.P,IC2,15,GPIO0*%
%TO.N,unconnected-(IC2-GPIO0-Pad15)*%
X120402500Y-110635000D03*
%TO.P,IC2,16,VSS_2*%
%TO.N,GND*%
X121802500Y-110635000D03*
D14*
%TO.P,IC2,17,SPICSN*%
%TO.N,Net-(IC1-IO25)*%
X123197500Y-108340000D03*
%TO.P,IC2,18,SPIMOSI*%
%TO.N,Net-(IC1-IO33)*%
X123197500Y-106940000D03*
%TO.P,IC2,19,SPIMISO*%
%TO.N,Net-(IC1-IO32)*%
X123197500Y-105540000D03*
%TO.P,IC2,20,SPICLK*%
%TO.N,Net-(IC1-IO35)*%
X123197500Y-104140000D03*
%TO.P,IC2,21,VSS_3*%
%TO.N,GND*%
X123197500Y-102740000D03*
%TO.P,IC2,22,GPIO8*%
%TO.N,Net-(IC2-GPIO8)*%
X123197500Y-101340000D03*
%TO.P,IC2,23,VSS_4*%
%TO.N,GND*%
X123197500Y-99940000D03*
%TO.P,IC2,24,VSS_5*%
X123197500Y-98540000D03*
%TD*%
D16*
%TO.P,C1,1,1*%
%TO.N,Net-(IC3-VIN)*%
X157250000Y-103990000D03*
%TO.P,C1,2,2*%
%TO.N,GND*%
X157250000Y-102370000D03*
%TD*%
D17*
%TO.P,IC1,1,GND_1*%
%TO.N,GND*%
X128830000Y-103690000D03*
%TO.P,IC1,2,3V3*%
%TO.N,VDD*%
X128830000Y-104960000D03*
%TO.P,IC1,3,EN*%
%TO.N,Net-(IC1-EN)*%
X128830000Y-106230000D03*
%TO.P,IC1,4,SENSOR_VP*%
%TO.N,unconnected-(IC1-SENSOR_VP-Pad4)*%
X128830000Y-107500000D03*
%TO.P,IC1,5,SENSOR_VN*%
%TO.N,unconnected-(IC1-SENSOR_VN-Pad5)*%
X128830000Y-108770000D03*
%TO.P,IC1,6,IO34*%
%TO.N,unconnected-(IC1-IO34-Pad6)*%
X128830000Y-110040000D03*
%TO.P,IC1,7,IO35*%
%TO.N,Net-(IC1-IO35)*%
X128830000Y-111310000D03*
%TO.P,IC1,8,IO32*%
%TO.N,Net-(IC1-IO32)*%
X128830000Y-112580000D03*
%TO.P,IC1,9,IO33*%
%TO.N,Net-(IC1-IO33)*%
X128830000Y-113850000D03*
%TO.P,IC1,10,IO25*%
%TO.N,Net-(IC1-IO25)*%
X128830000Y-115120000D03*
%TO.P,IC1,11,IO26*%
%TO.N,Net-(IC1-IO26)*%
X128830000Y-116390000D03*
%TO.P,IC1,12,IO27*%
%TO.N,unconnected-(IC1-IO27-Pad12)*%
X128830000Y-117660000D03*
%TO.P,IC1,13,IO14*%
%TO.N,unconnected-(IC1-IO14-Pad13)*%
X128830000Y-118930000D03*
%TO.P,IC1,14,IO12*%
%TO.N,unconnected-(IC1-IO12-Pad14)*%
X128830000Y-120200000D03*
D18*
%TO.P,IC1,15,GND_2*%
%TO.N,GND*%
X131865000Y-121450000D03*
%TO.P,IC1,16,IO13*%
%TO.N,unconnected-(IC1-IO13-Pad16)*%
X133135000Y-121450000D03*
%TO.P,IC1,17,NC_1*%
%TO.N,unconnected-(IC1-NC_1-Pad17)*%
X134405000Y-121450000D03*
%TO.P,IC1,18,NC_2*%
%TO.N,unconnected-(IC1-NC_2-Pad18)*%
X135675000Y-121450000D03*
%TO.P,IC1,19,NC_3*%
%TO.N,unconnected-(IC1-NC_3-Pad19)*%
X136945000Y-121450000D03*
%TO.P,IC1,20,NC_4*%
%TO.N,unconnected-(IC1-NC_4-Pad20)*%
X138215000Y-121450000D03*
%TO.P,IC1,21,NC_5*%
%TO.N,unconnected-(IC1-NC_5-Pad21)*%
X139485000Y-121450000D03*
%TO.P,IC1,22,NC_6*%
%TO.N,unconnected-(IC1-NC_6-Pad22)*%
X140755000Y-121450000D03*
%TO.P,IC1,23,IO15*%
%TO.N,Net-(IC1-IO15)*%
X142025000Y-121450000D03*
%TO.P,IC1,24,IO2*%
%TO.N,unconnected-(IC1-IO2-Pad24)*%
X143295000Y-121450000D03*
D17*
%TO.P,IC1,25,IO0*%
%TO.N,Net-(IC1-IO0)*%
X146330000Y-120200000D03*
%TO.P,IC1,26,IO4*%
%TO.N,unconnected-(IC1-IO4-Pad26)*%
X146330000Y-118930000D03*
%TO.P,IC1,27,IO16*%
%TO.N,unconnected-(IC1-IO16-Pad27)*%
X146330000Y-117660000D03*
%TO.P,IC1,28,IO17*%
%TO.N,unconnected-(IC1-IO17-Pad28)*%
X146330000Y-116390000D03*
%TO.P,IC1,29,IO5*%
%TO.N,unconnected-(IC1-IO5-Pad29)*%
X146330000Y-115120000D03*
%TO.P,IC1,30,IO18*%
%TO.N,unconnected-(IC1-IO18-Pad30)*%
X146330000Y-113850000D03*
%TO.P,IC1,31,IO19*%
%TO.N,unconnected-(IC1-IO19-Pad31)*%
X146330000Y-112580000D03*
%TO.P,IC1,32,NC_7*%
%TO.N,unconnected-(IC1-NC_7-Pad32)*%
X146330000Y-111310000D03*
%TO.P,IC1,33,IO21*%
%TO.N,unconnected-(IC1-IO21-Pad33)*%
X146330000Y-110040000D03*
%TO.P,IC1,34,RXD0*%
%TO.N,Net-(IC1-RXD0)*%
X146330000Y-108770000D03*
%TO.P,IC1,35,TXD0*%
%TO.N,Net-(IC1-TXD0)*%
X146330000Y-107500000D03*
%TO.P,IC1,36,IO22*%
%TO.N,unconnected-(IC1-IO22-Pad36)*%
X146330000Y-106230000D03*
%TO.P,IC1,37,IO23*%
%TO.N,unconnected-(IC1-IO23-Pad37)*%
X146330000Y-104960000D03*
%TO.P,IC1,38,GND_3*%
%TO.N,GND*%
X146330000Y-103690000D03*
D19*
%TO.P,IC1,39,GND_4*%
X136080000Y-111030000D03*
%TO.P,IC1,40,GND_5*%
X134680000Y-109630000D03*
%TO.P,IC1,41,GND_6*%
X134680000Y-111030000D03*
%TO.P,IC1,42,GND_7*%
X134680000Y-112430000D03*
%TO.P,IC1,43,GND_8*%
X136080000Y-112430000D03*
%TO.P,IC1,44,GND_9*%
X137480000Y-112430000D03*
%TO.P,IC1,45,GND_10*%
X137480000Y-111030000D03*
%TO.P,IC1,46,GND_11*%
X137480000Y-109630000D03*
%TO.P,IC1,47,GND_12*%
X136080000Y-109630000D03*
%TD*%
D20*
%TO.P,C2,1,1*%
%TO.N,VDD*%
X154750000Y-104000000D03*
%TO.P,C2,2,2*%
%TO.N,GND*%
X154750000Y-102360000D03*
%TD*%
D21*
%TO.P,IC3,1,~{SHDN}*%
%TO.N,Net-(IC3-VIN)*%
X151900000Y-101930000D03*
%TO.P,IC3,2,NC*%
%TO.N,unconnected-(IC3-NC-Pad2)*%
X151250000Y-101930000D03*
%TO.P,IC3,3,GND*%
%TO.N,GND*%
X150600000Y-101930000D03*
%TO.P,IC3,4,VOUT*%
%TO.N,VDD*%
X150600000Y-103930000D03*
%TO.P,IC3,5,VIN*%
%TO.N,Net-(IC3-VIN)*%
X151900000Y-103930000D03*
%TD*%
D22*
%TO.P,J1,1,Pin_1*%
%TO.N,Net-(IC1-RXD0)*%
X155500000Y-118000000D03*
D23*
%TO.P,J1,2,Pin_2*%
%TO.N,Net-(IC1-TXD0)*%
X152960000Y-118000000D03*
%TO.P,J1,3,Pin_3*%
%TO.N,GND*%
X155500000Y-115460000D03*
%TO.P,J1,4,Pin_4*%
%TO.N,Net-(IC1-EN)*%
X152960000Y-115460000D03*
%TO.P,J1,5,Pin_5*%
%TO.N,Net-(IC1-IO0)*%
X155500000Y-112920000D03*
%TO.P,J1,6,Pin_6*%
%TO.N,Net-(IC3-VIN)*%
X152960000Y-112920000D03*
%TD*%
D24*
%TO.N,Net-(IC1-IO26)*%
X132250000Y-116500000D03*
X107750000Y-101250000D03*
%TO.N,Net-(IC2-GPIO8)*%
X126250000Y-101250000D03*
X140750000Y-125250000D03*
%TO.N,GND*%
X113000000Y-114500000D03*
%TO.N,Net-(IC3-VIN)*%
X110750000Y-114500000D03*
%TO.N,GND*%
X131750000Y-119250000D03*
X121250000Y-114250000D03*
X157385000Y-106135000D03*
X139250000Y-111250000D03*
%TO.N,VDD*%
X115000000Y-103750000D03*
X152750000Y-106000000D03*
X132750000Y-104750000D03*
%TO.N,Net-(IC1-IO0)*%
X160000000Y-113000000D03*
X148750000Y-120250000D03*
%TO.N,Net-(IC1-RXD0)*%
X155480000Y-120480000D03*
X142750000Y-108750000D03*
%TD*%
D25*
%TO.N,Net-(IC1-IO26)*%
X132140000Y-116390000D02*
X128830000Y-116390000D01*
X132250000Y-116500000D02*
X132140000Y-116390000D01*
X107840000Y-101340000D02*
X107750000Y-101250000D01*
X110607500Y-101340000D02*
X107840000Y-101340000D01*
%TO.N,GND*%
X127880000Y-102740000D02*
X123197500Y-102740000D01*
X128830000Y-103690000D02*
X127880000Y-102740000D01*
%TO.N,Net-(IC2-GPIO8)*%
X126160000Y-101340000D02*
X123197500Y-101340000D01*
X126250000Y-101250000D02*
X126160000Y-101340000D01*
X142700000Y-125250000D02*
X140750000Y-125250000D01*
%TO.N,Net-(IC1-IO15)*%
X142025000Y-122030000D02*
X142025000Y-121450000D01*
X145245000Y-125250000D02*
X142025000Y-122030000D01*
X147300000Y-125250000D02*
X145245000Y-125250000D01*
%TO.N,Net-(IC2-GPIO3)*%
X117000000Y-112185000D02*
X116277500Y-112185000D01*
X127340000Y-122525000D02*
X117000000Y-112185000D01*
X116202500Y-112110000D02*
X116202500Y-110635000D01*
X136300000Y-125250000D02*
X133575000Y-122525000D01*
X133575000Y-122525000D02*
X127340000Y-122525000D01*
X116277500Y-112185000D02*
X116202500Y-112110000D01*
%TO.N,Net-(D1-A)*%
X120980000Y-120250000D02*
X125980000Y-125250000D01*
X125980000Y-125250000D02*
X131700000Y-125250000D01*
%TO.N,GND*%
X117770000Y-114500000D02*
X113000000Y-114500000D01*
X123520000Y-120250000D02*
X117770000Y-114500000D01*
X112900000Y-114600000D02*
X113000000Y-114500000D01*
X112900000Y-118200000D02*
X112900000Y-114600000D01*
%TO.N,Net-(IC3-VIN)*%
X110900000Y-118200000D02*
X110900000Y-114650000D01*
X110900000Y-114650000D02*
X110750000Y-114500000D01*
X155790000Y-103205000D02*
X156465000Y-103205000D01*
X156465000Y-103205000D02*
X157250000Y-103990000D01*
X155790000Y-103205000D02*
X152625000Y-103205000D01*
X152625000Y-103205000D02*
X151900000Y-103930000D01*
X155790000Y-110090000D02*
X155790000Y-103205000D01*
X152960000Y-112920000D02*
X155790000Y-110090000D01*
X151900000Y-103930000D02*
X151900000Y-101930000D01*
%TO.N,GND*%
X131865000Y-121450000D02*
X131865000Y-119365000D01*
X157250000Y-102370000D02*
X157475000Y-102370000D01*
X150600000Y-101105000D02*
X150675000Y-101030000D01*
X157500000Y-106250000D02*
X157385000Y-106135000D01*
X120482500Y-108340000D02*
X121802500Y-109660000D01*
X136080000Y-112430000D02*
X137480000Y-112430000D01*
X157475000Y-102370000D02*
X158500000Y-103395000D01*
X137480000Y-111030000D02*
X136080000Y-111030000D01*
X121722500Y-102740000D02*
X123197500Y-102740000D01*
X136080000Y-109630000D02*
X137480000Y-109630000D01*
X131865000Y-119365000D02*
X131750000Y-119250000D01*
X154750000Y-102360000D02*
X157240000Y-102360000D01*
X134680000Y-109630000D02*
X136080000Y-109630000D01*
X137480000Y-112430000D02*
X138070000Y-112430000D01*
X123197500Y-99940000D02*
X123197500Y-98540000D01*
X148840000Y-103690000D02*
X150600000Y-101930000D01*
X153420000Y-101030000D02*
X154750000Y-102360000D01*
X134680000Y-111030000D02*
X134680000Y-112430000D01*
X157240000Y-102360000D02*
X157250000Y-102370000D01*
X120482500Y-103980000D02*
X121722500Y-102740000D01*
X121802500Y-113697500D02*
X121250000Y-114250000D01*
X134680000Y-112430000D02*
X136080000Y-112430000D01*
X136080000Y-111030000D02*
X134680000Y-111030000D01*
X150600000Y-101930000D02*
X150600000Y-101105000D01*
X146330000Y-103690000D02*
X148840000Y-103690000D01*
X150675000Y-101030000D02*
X153420000Y-101030000D01*
X110607500Y-108340000D02*
X120482500Y-108340000D01*
X137480000Y-109630000D02*
X137480000Y-111030000D01*
X120482500Y-103980000D02*
X120482500Y-101180000D01*
X138070000Y-112430000D02*
X139250000Y-111250000D01*
X120482500Y-108340000D02*
X120482500Y-103980000D01*
X121722500Y-99940000D02*
X123197500Y-99940000D01*
X158500000Y-103395000D02*
X158500000Y-105020000D01*
X120482500Y-101180000D02*
X121722500Y-99940000D01*
X121802500Y-110635000D02*
X121802500Y-113697500D01*
X121802500Y-109660000D02*
X121802500Y-110635000D01*
X158500000Y-105020000D02*
X157385000Y-106135000D01*
%TO.N,VDD*%
X153000000Y-105750000D02*
X152750000Y-106000000D01*
X110607500Y-104140000D02*
X110607500Y-105540000D01*
X153920000Y-104830000D02*
X154750000Y-104000000D01*
X153000000Y-104830000D02*
X153000000Y-105750000D01*
X114610000Y-104140000D02*
X115000000Y-103750000D01*
X128830000Y-104960000D02*
X132540000Y-104960000D01*
X110607500Y-105540000D02*
X110607500Y-106940000D01*
X151500000Y-104830000D02*
X153000000Y-104830000D01*
X153000000Y-104830000D02*
X153920000Y-104830000D01*
X150600000Y-103930000D02*
X151500000Y-104830000D01*
X110607500Y-104140000D02*
X114610000Y-104140000D01*
X132540000Y-104960000D02*
X132750000Y-104750000D01*
%TO.N,Net-(IC1-EN)*%
X154135000Y-118486701D02*
X151646701Y-120975000D01*
X135630000Y-106230000D02*
X128830000Y-106230000D01*
X144475000Y-115075000D02*
X135630000Y-106230000D01*
X154135000Y-116635000D02*
X154135000Y-118486701D01*
X152960000Y-115460000D02*
X154135000Y-116635000D01*
X151646701Y-120975000D02*
X144475000Y-120975000D01*
X144475000Y-120975000D02*
X144475000Y-115075000D01*
%TO.N,Net-(IC1-IO35)*%
X127755000Y-111235000D02*
X127830000Y-111310000D01*
X124672500Y-104140000D02*
X127755000Y-107222500D01*
X127830000Y-111310000D02*
X128830000Y-111310000D01*
X123197500Y-104140000D02*
X124672500Y-104140000D01*
X127755000Y-107222500D02*
X127755000Y-111235000D01*
%TO.N,Net-(IC1-IO32)*%
X127305000Y-112055000D02*
X127830000Y-112580000D01*
X124172500Y-105540000D02*
X127305000Y-108672500D01*
X127305000Y-108672500D02*
X127305000Y-112055000D01*
X127830000Y-112580000D02*
X128830000Y-112580000D01*
X123197500Y-105540000D02*
X124172500Y-105540000D01*
%TO.N,Net-(IC1-IO33)*%
X126855000Y-112875000D02*
X127830000Y-113850000D01*
X124672500Y-106940000D02*
X126855000Y-109122500D01*
X127830000Y-113850000D02*
X128830000Y-113850000D01*
X126855000Y-109122500D02*
X126855000Y-112875000D01*
X123197500Y-106940000D02*
X124672500Y-106940000D01*
%TO.N,Net-(IC1-IO25)*%
X123197500Y-110487500D02*
X127830000Y-115120000D01*
X123197500Y-108340000D02*
X123197500Y-110487500D01*
X127830000Y-115120000D02*
X128830000Y-115120000D01*
%TO.N,Net-(IC1-IO0)*%
X148750000Y-120250000D02*
X146380000Y-120250000D01*
X159920000Y-112920000D02*
X160000000Y-113000000D01*
X146380000Y-120250000D02*
X146330000Y-120200000D01*
X155500000Y-112920000D02*
X159920000Y-112920000D01*
%TO.N,Net-(IC1-RXD0)*%
X155500000Y-120460000D02*
X155480000Y-120480000D01*
X155500000Y-118000000D02*
X155500000Y-120460000D01*
X155500000Y-120500000D02*
X155480000Y-120480000D01*
X146330000Y-108770000D02*
X142770000Y-108770000D01*
X142770000Y-108770000D02*
X142750000Y-108750000D01*
%TO.N,Net-(IC1-TXD0)*%
X147405000Y-107575000D02*
X147330000Y-107500000D01*
X152960000Y-118000000D02*
X147405000Y-112445000D01*
X147405000Y-112445000D02*
X147405000Y-107575000D01*
X147330000Y-107500000D02*
X146330000Y-107500000D01*
%TD*%
M02*
