%TF.GenerationSoftware,KiCad,Pcbnew,7.0.10*%
%TF.CreationDate,2025-02-21T18:11:26-05:00*%
%TF.ProjectId,sol pcb,736f6c20-7063-4622-9e6b-696361645f70,rev?*%
%TF.SameCoordinates,Original*%
%TF.FileFunction,Drillmap*%
%TF.FilePolarity,Positive*%
%FSLAX45Y45*%
G04 Gerber Fmt 4.5, Leading zero omitted, Abs format (unit mm)*
G04 Created by KiCad (PCBNEW 7.0.10) date 2025-02-21 18:11:26*
%MOMM*%
%LPD*%
G01*
G04 APERTURE LIST*
%ADD10C,0.100000*%
%ADD11C,0.200000*%
%ADD12C,0.114300*%
G04 APERTURE END LIST*
D10*
X12903200Y-4089400D02*
X17805400Y-4089400D01*
X17805400Y-7188200D01*
X12903200Y-7188200D01*
X12903200Y-4089400D01*
D11*
D10*
X15084000Y-4486200D02*
X15154000Y-4556200D01*
X15154000Y-4486200D02*
X15084000Y-4556200D01*
X15834000Y-4486200D02*
X15904000Y-4556200D01*
X15904000Y-4486200D02*
X15834000Y-4556200D01*
X13502000Y-5410200D02*
G75*
G03*
X13422000Y-5410200I-40000J0D01*
G01*
X13422000Y-5410200D02*
G75*
G03*
X13502000Y-5410200I40000J0D01*
G01*
X13502000Y-6172200D02*
G75*
G03*
X13422000Y-6172200I-40000J0D01*
G01*
X13422000Y-6172200D02*
G75*
G03*
X13502000Y-6172200I40000J0D01*
G01*
X13462000Y-6706400D02*
X13462000Y-6806400D01*
X13412000Y-6756400D02*
X13512000Y-6756400D01*
X14122400Y-4420400D02*
X14122400Y-4520400D01*
X14072400Y-4470400D02*
X14172400Y-4470400D01*
X14351000Y-6706400D02*
X14351000Y-6806400D01*
X14301000Y-6756400D02*
X14401000Y-6756400D01*
X15621000Y-6706400D02*
X15621000Y-6806400D01*
X15571000Y-6756400D02*
X15671000Y-6756400D01*
X16764000Y-4496600D02*
X16764000Y-4596600D01*
X16714000Y-4546600D02*
X16814000Y-4546600D01*
X16764000Y-5055400D02*
X16764000Y-5155400D01*
X16714000Y-5105400D02*
X16814000Y-5105400D01*
X16789400Y-5766600D02*
X16789400Y-5866600D01*
X16739400Y-5816600D02*
X16839400Y-5816600D01*
X16789400Y-6427000D02*
X16789400Y-6527000D01*
X16739400Y-6477000D02*
X16839400Y-6477000D01*
D12*
X15288031Y-5441722D02*
X15288031Y-5360899D01*
X15207208Y-5360899D01*
X15207208Y-5441722D01*
X15288031Y-5441722D01*
X15288031Y-5695721D02*
X15288031Y-5614898D01*
X15207208Y-5614898D01*
X15207208Y-5695721D01*
X15288031Y-5695721D01*
X15288031Y-5949721D02*
X15288031Y-5868898D01*
X15207208Y-5868898D01*
X15207208Y-5949721D01*
X15288031Y-5949721D01*
D11*
X13158977Y-7504684D02*
X13158977Y-7304684D01*
X13158977Y-7304684D02*
X13206596Y-7304684D01*
X13206596Y-7304684D02*
X13235167Y-7314208D01*
X13235167Y-7314208D02*
X13254215Y-7333255D01*
X13254215Y-7333255D02*
X13263739Y-7352303D01*
X13263739Y-7352303D02*
X13273262Y-7390398D01*
X13273262Y-7390398D02*
X13273262Y-7418969D01*
X13273262Y-7418969D02*
X13263739Y-7457065D01*
X13263739Y-7457065D02*
X13254215Y-7476112D01*
X13254215Y-7476112D02*
X13235167Y-7495160D01*
X13235167Y-7495160D02*
X13206596Y-7504684D01*
X13206596Y-7504684D02*
X13158977Y-7504684D01*
X13358977Y-7504684D02*
X13358977Y-7371350D01*
X13358977Y-7409446D02*
X13368501Y-7390398D01*
X13368501Y-7390398D02*
X13378024Y-7380874D01*
X13378024Y-7380874D02*
X13397072Y-7371350D01*
X13397072Y-7371350D02*
X13416120Y-7371350D01*
X13482786Y-7504684D02*
X13482786Y-7371350D01*
X13482786Y-7304684D02*
X13473262Y-7314208D01*
X13473262Y-7314208D02*
X13482786Y-7323731D01*
X13482786Y-7323731D02*
X13492310Y-7314208D01*
X13492310Y-7314208D02*
X13482786Y-7304684D01*
X13482786Y-7304684D02*
X13482786Y-7323731D01*
X13606596Y-7504684D02*
X13587548Y-7495160D01*
X13587548Y-7495160D02*
X13578024Y-7476112D01*
X13578024Y-7476112D02*
X13578024Y-7304684D01*
X13711358Y-7504684D02*
X13692310Y-7495160D01*
X13692310Y-7495160D02*
X13682786Y-7476112D01*
X13682786Y-7476112D02*
X13682786Y-7304684D01*
X13939929Y-7504684D02*
X13939929Y-7304684D01*
X13939929Y-7304684D02*
X14006596Y-7447541D01*
X14006596Y-7447541D02*
X14073262Y-7304684D01*
X14073262Y-7304684D02*
X14073262Y-7504684D01*
X14254215Y-7504684D02*
X14254215Y-7399922D01*
X14254215Y-7399922D02*
X14244691Y-7380874D01*
X14244691Y-7380874D02*
X14225643Y-7371350D01*
X14225643Y-7371350D02*
X14187548Y-7371350D01*
X14187548Y-7371350D02*
X14168501Y-7380874D01*
X14254215Y-7495160D02*
X14235167Y-7504684D01*
X14235167Y-7504684D02*
X14187548Y-7504684D01*
X14187548Y-7504684D02*
X14168501Y-7495160D01*
X14168501Y-7495160D02*
X14158977Y-7476112D01*
X14158977Y-7476112D02*
X14158977Y-7457065D01*
X14158977Y-7457065D02*
X14168501Y-7438017D01*
X14168501Y-7438017D02*
X14187548Y-7428493D01*
X14187548Y-7428493D02*
X14235167Y-7428493D01*
X14235167Y-7428493D02*
X14254215Y-7418969D01*
X14349453Y-7371350D02*
X14349453Y-7571350D01*
X14349453Y-7380874D02*
X14368501Y-7371350D01*
X14368501Y-7371350D02*
X14406596Y-7371350D01*
X14406596Y-7371350D02*
X14425643Y-7380874D01*
X14425643Y-7380874D02*
X14435167Y-7390398D01*
X14435167Y-7390398D02*
X14444691Y-7409446D01*
X14444691Y-7409446D02*
X14444691Y-7466588D01*
X14444691Y-7466588D02*
X14435167Y-7485636D01*
X14435167Y-7485636D02*
X14425643Y-7495160D01*
X14425643Y-7495160D02*
X14406596Y-7504684D01*
X14406596Y-7504684D02*
X14368501Y-7504684D01*
X14368501Y-7504684D02*
X14349453Y-7495160D01*
X14530405Y-7485636D02*
X14539929Y-7495160D01*
X14539929Y-7495160D02*
X14530405Y-7504684D01*
X14530405Y-7504684D02*
X14520882Y-7495160D01*
X14520882Y-7495160D02*
X14530405Y-7485636D01*
X14530405Y-7485636D02*
X14530405Y-7504684D01*
X14530405Y-7380874D02*
X14539929Y-7390398D01*
X14539929Y-7390398D02*
X14530405Y-7399922D01*
X14530405Y-7399922D02*
X14520882Y-7390398D01*
X14520882Y-7390398D02*
X14530405Y-7380874D01*
X14530405Y-7380874D02*
X14530405Y-7399922D01*
D10*
X12828200Y-7798200D02*
X12898200Y-7868200D01*
X12898200Y-7798200D02*
X12828200Y-7868200D01*
D11*
X13197072Y-7724684D02*
X13216120Y-7724684D01*
X13216120Y-7724684D02*
X13235167Y-7734208D01*
X13235167Y-7734208D02*
X13244691Y-7743731D01*
X13244691Y-7743731D02*
X13254215Y-7762779D01*
X13254215Y-7762779D02*
X13263739Y-7800874D01*
X13263739Y-7800874D02*
X13263739Y-7848493D01*
X13263739Y-7848493D02*
X13254215Y-7886588D01*
X13254215Y-7886588D02*
X13244691Y-7905636D01*
X13244691Y-7905636D02*
X13235167Y-7915160D01*
X13235167Y-7915160D02*
X13216120Y-7924684D01*
X13216120Y-7924684D02*
X13197072Y-7924684D01*
X13197072Y-7924684D02*
X13178024Y-7915160D01*
X13178024Y-7915160D02*
X13168501Y-7905636D01*
X13168501Y-7905636D02*
X13158977Y-7886588D01*
X13158977Y-7886588D02*
X13149453Y-7848493D01*
X13149453Y-7848493D02*
X13149453Y-7800874D01*
X13149453Y-7800874D02*
X13158977Y-7762779D01*
X13158977Y-7762779D02*
X13168501Y-7743731D01*
X13168501Y-7743731D02*
X13178024Y-7734208D01*
X13178024Y-7734208D02*
X13197072Y-7724684D01*
X13349453Y-7905636D02*
X13358977Y-7915160D01*
X13358977Y-7915160D02*
X13349453Y-7924684D01*
X13349453Y-7924684D02*
X13339929Y-7915160D01*
X13339929Y-7915160D02*
X13349453Y-7905636D01*
X13349453Y-7905636D02*
X13349453Y-7924684D01*
X13425643Y-7724684D02*
X13558977Y-7724684D01*
X13558977Y-7724684D02*
X13473262Y-7924684D01*
X13673262Y-7724684D02*
X13692310Y-7724684D01*
X13692310Y-7724684D02*
X13711358Y-7734208D01*
X13711358Y-7734208D02*
X13720882Y-7743731D01*
X13720882Y-7743731D02*
X13730405Y-7762779D01*
X13730405Y-7762779D02*
X13739929Y-7800874D01*
X13739929Y-7800874D02*
X13739929Y-7848493D01*
X13739929Y-7848493D02*
X13730405Y-7886588D01*
X13730405Y-7886588D02*
X13720882Y-7905636D01*
X13720882Y-7905636D02*
X13711358Y-7915160D01*
X13711358Y-7915160D02*
X13692310Y-7924684D01*
X13692310Y-7924684D02*
X13673262Y-7924684D01*
X13673262Y-7924684D02*
X13654215Y-7915160D01*
X13654215Y-7915160D02*
X13644691Y-7905636D01*
X13644691Y-7905636D02*
X13635167Y-7886588D01*
X13635167Y-7886588D02*
X13625643Y-7848493D01*
X13625643Y-7848493D02*
X13625643Y-7800874D01*
X13625643Y-7800874D02*
X13635167Y-7762779D01*
X13635167Y-7762779D02*
X13644691Y-7743731D01*
X13644691Y-7743731D02*
X13654215Y-7734208D01*
X13654215Y-7734208D02*
X13673262Y-7724684D01*
X13863739Y-7724684D02*
X13882786Y-7724684D01*
X13882786Y-7724684D02*
X13901834Y-7734208D01*
X13901834Y-7734208D02*
X13911358Y-7743731D01*
X13911358Y-7743731D02*
X13920882Y-7762779D01*
X13920882Y-7762779D02*
X13930405Y-7800874D01*
X13930405Y-7800874D02*
X13930405Y-7848493D01*
X13930405Y-7848493D02*
X13920882Y-7886588D01*
X13920882Y-7886588D02*
X13911358Y-7905636D01*
X13911358Y-7905636D02*
X13901834Y-7915160D01*
X13901834Y-7915160D02*
X13882786Y-7924684D01*
X13882786Y-7924684D02*
X13863739Y-7924684D01*
X13863739Y-7924684D02*
X13844691Y-7915160D01*
X13844691Y-7915160D02*
X13835167Y-7905636D01*
X13835167Y-7905636D02*
X13825643Y-7886588D01*
X13825643Y-7886588D02*
X13816120Y-7848493D01*
X13816120Y-7848493D02*
X13816120Y-7800874D01*
X13816120Y-7800874D02*
X13825643Y-7762779D01*
X13825643Y-7762779D02*
X13835167Y-7743731D01*
X13835167Y-7743731D02*
X13844691Y-7734208D01*
X13844691Y-7734208D02*
X13863739Y-7724684D01*
X14016120Y-7924684D02*
X14016120Y-7791350D01*
X14016120Y-7810398D02*
X14025643Y-7800874D01*
X14025643Y-7800874D02*
X14044691Y-7791350D01*
X14044691Y-7791350D02*
X14073263Y-7791350D01*
X14073263Y-7791350D02*
X14092310Y-7800874D01*
X14092310Y-7800874D02*
X14101834Y-7819922D01*
X14101834Y-7819922D02*
X14101834Y-7924684D01*
X14101834Y-7819922D02*
X14111358Y-7800874D01*
X14111358Y-7800874D02*
X14130405Y-7791350D01*
X14130405Y-7791350D02*
X14158977Y-7791350D01*
X14158977Y-7791350D02*
X14178024Y-7800874D01*
X14178024Y-7800874D02*
X14187548Y-7819922D01*
X14187548Y-7819922D02*
X14187548Y-7924684D01*
X14282786Y-7924684D02*
X14282786Y-7791350D01*
X14282786Y-7810398D02*
X14292310Y-7800874D01*
X14292310Y-7800874D02*
X14311358Y-7791350D01*
X14311358Y-7791350D02*
X14339929Y-7791350D01*
X14339929Y-7791350D02*
X14358977Y-7800874D01*
X14358977Y-7800874D02*
X14368501Y-7819922D01*
X14368501Y-7819922D02*
X14368501Y-7924684D01*
X14368501Y-7819922D02*
X14378024Y-7800874D01*
X14378024Y-7800874D02*
X14397072Y-7791350D01*
X14397072Y-7791350D02*
X14425643Y-7791350D01*
X14425643Y-7791350D02*
X14444691Y-7800874D01*
X14444691Y-7800874D02*
X14454215Y-7819922D01*
X14454215Y-7819922D02*
X14454215Y-7924684D01*
X14844691Y-7715160D02*
X14673263Y-7972303D01*
X15101834Y-7724684D02*
X15120882Y-7724684D01*
X15120882Y-7724684D02*
X15139929Y-7734208D01*
X15139929Y-7734208D02*
X15149453Y-7743731D01*
X15149453Y-7743731D02*
X15158977Y-7762779D01*
X15158977Y-7762779D02*
X15168501Y-7800874D01*
X15168501Y-7800874D02*
X15168501Y-7848493D01*
X15168501Y-7848493D02*
X15158977Y-7886588D01*
X15158977Y-7886588D02*
X15149453Y-7905636D01*
X15149453Y-7905636D02*
X15139929Y-7915160D01*
X15139929Y-7915160D02*
X15120882Y-7924684D01*
X15120882Y-7924684D02*
X15101834Y-7924684D01*
X15101834Y-7924684D02*
X15082786Y-7915160D01*
X15082786Y-7915160D02*
X15073263Y-7905636D01*
X15073263Y-7905636D02*
X15063739Y-7886588D01*
X15063739Y-7886588D02*
X15054215Y-7848493D01*
X15054215Y-7848493D02*
X15054215Y-7800874D01*
X15054215Y-7800874D02*
X15063739Y-7762779D01*
X15063739Y-7762779D02*
X15073263Y-7743731D01*
X15073263Y-7743731D02*
X15082786Y-7734208D01*
X15082786Y-7734208D02*
X15101834Y-7724684D01*
X15254215Y-7905636D02*
X15263739Y-7915160D01*
X15263739Y-7915160D02*
X15254215Y-7924684D01*
X15254215Y-7924684D02*
X15244691Y-7915160D01*
X15244691Y-7915160D02*
X15254215Y-7905636D01*
X15254215Y-7905636D02*
X15254215Y-7924684D01*
X15387548Y-7724684D02*
X15406596Y-7724684D01*
X15406596Y-7724684D02*
X15425644Y-7734208D01*
X15425644Y-7734208D02*
X15435167Y-7743731D01*
X15435167Y-7743731D02*
X15444691Y-7762779D01*
X15444691Y-7762779D02*
X15454215Y-7800874D01*
X15454215Y-7800874D02*
X15454215Y-7848493D01*
X15454215Y-7848493D02*
X15444691Y-7886588D01*
X15444691Y-7886588D02*
X15435167Y-7905636D01*
X15435167Y-7905636D02*
X15425644Y-7915160D01*
X15425644Y-7915160D02*
X15406596Y-7924684D01*
X15406596Y-7924684D02*
X15387548Y-7924684D01*
X15387548Y-7924684D02*
X15368501Y-7915160D01*
X15368501Y-7915160D02*
X15358977Y-7905636D01*
X15358977Y-7905636D02*
X15349453Y-7886588D01*
X15349453Y-7886588D02*
X15339929Y-7848493D01*
X15339929Y-7848493D02*
X15339929Y-7800874D01*
X15339929Y-7800874D02*
X15349453Y-7762779D01*
X15349453Y-7762779D02*
X15358977Y-7743731D01*
X15358977Y-7743731D02*
X15368501Y-7734208D01*
X15368501Y-7734208D02*
X15387548Y-7724684D01*
X15530406Y-7743731D02*
X15539929Y-7734208D01*
X15539929Y-7734208D02*
X15558977Y-7724684D01*
X15558977Y-7724684D02*
X15606596Y-7724684D01*
X15606596Y-7724684D02*
X15625644Y-7734208D01*
X15625644Y-7734208D02*
X15635167Y-7743731D01*
X15635167Y-7743731D02*
X15644691Y-7762779D01*
X15644691Y-7762779D02*
X15644691Y-7781827D01*
X15644691Y-7781827D02*
X15635167Y-7810398D01*
X15635167Y-7810398D02*
X15520882Y-7924684D01*
X15520882Y-7924684D02*
X15644691Y-7924684D01*
X15711358Y-7724684D02*
X15844691Y-7724684D01*
X15844691Y-7724684D02*
X15758977Y-7924684D01*
X16006596Y-7724684D02*
X15968501Y-7724684D01*
X15968501Y-7724684D02*
X15949453Y-7734208D01*
X15949453Y-7734208D02*
X15939929Y-7743731D01*
X15939929Y-7743731D02*
X15920882Y-7772303D01*
X15920882Y-7772303D02*
X15911358Y-7810398D01*
X15911358Y-7810398D02*
X15911358Y-7886588D01*
X15911358Y-7886588D02*
X15920882Y-7905636D01*
X15920882Y-7905636D02*
X15930406Y-7915160D01*
X15930406Y-7915160D02*
X15949453Y-7924684D01*
X15949453Y-7924684D02*
X15987548Y-7924684D01*
X15987548Y-7924684D02*
X16006596Y-7915160D01*
X16006596Y-7915160D02*
X16016120Y-7905636D01*
X16016120Y-7905636D02*
X16025644Y-7886588D01*
X16025644Y-7886588D02*
X16025644Y-7838969D01*
X16025644Y-7838969D02*
X16016120Y-7819922D01*
X16016120Y-7819922D02*
X16006596Y-7810398D01*
X16006596Y-7810398D02*
X15987548Y-7800874D01*
X15987548Y-7800874D02*
X15949453Y-7800874D01*
X15949453Y-7800874D02*
X15930406Y-7810398D01*
X15930406Y-7810398D02*
X15920882Y-7819922D01*
X15920882Y-7819922D02*
X15911358Y-7838969D01*
X16101834Y-7724684D02*
X16101834Y-7762779D01*
X16178025Y-7724684D02*
X16178025Y-7762779D01*
X16473263Y-8000874D02*
X16463739Y-7991350D01*
X16463739Y-7991350D02*
X16444691Y-7962779D01*
X16444691Y-7962779D02*
X16435168Y-7943731D01*
X16435168Y-7943731D02*
X16425644Y-7915160D01*
X16425644Y-7915160D02*
X16416120Y-7867541D01*
X16416120Y-7867541D02*
X16416120Y-7829446D01*
X16416120Y-7829446D02*
X16425644Y-7781827D01*
X16425644Y-7781827D02*
X16435168Y-7753255D01*
X16435168Y-7753255D02*
X16444691Y-7734208D01*
X16444691Y-7734208D02*
X16463739Y-7705636D01*
X16463739Y-7705636D02*
X16473263Y-7696112D01*
X16539929Y-7743731D02*
X16549453Y-7734208D01*
X16549453Y-7734208D02*
X16568501Y-7724684D01*
X16568501Y-7724684D02*
X16616120Y-7724684D01*
X16616120Y-7724684D02*
X16635168Y-7734208D01*
X16635168Y-7734208D02*
X16644691Y-7743731D01*
X16644691Y-7743731D02*
X16654215Y-7762779D01*
X16654215Y-7762779D02*
X16654215Y-7781827D01*
X16654215Y-7781827D02*
X16644691Y-7810398D01*
X16644691Y-7810398D02*
X16530406Y-7924684D01*
X16530406Y-7924684D02*
X16654215Y-7924684D01*
X16892311Y-7924684D02*
X16892311Y-7724684D01*
X16978025Y-7924684D02*
X16978025Y-7819922D01*
X16978025Y-7819922D02*
X16968501Y-7800874D01*
X16968501Y-7800874D02*
X16949453Y-7791350D01*
X16949453Y-7791350D02*
X16920882Y-7791350D01*
X16920882Y-7791350D02*
X16901834Y-7800874D01*
X16901834Y-7800874D02*
X16892311Y-7810398D01*
X17101834Y-7924684D02*
X17082787Y-7915160D01*
X17082787Y-7915160D02*
X17073263Y-7905636D01*
X17073263Y-7905636D02*
X17063739Y-7886588D01*
X17063739Y-7886588D02*
X17063739Y-7829446D01*
X17063739Y-7829446D02*
X17073263Y-7810398D01*
X17073263Y-7810398D02*
X17082787Y-7800874D01*
X17082787Y-7800874D02*
X17101834Y-7791350D01*
X17101834Y-7791350D02*
X17130406Y-7791350D01*
X17130406Y-7791350D02*
X17149453Y-7800874D01*
X17149453Y-7800874D02*
X17158977Y-7810398D01*
X17158977Y-7810398D02*
X17168501Y-7829446D01*
X17168501Y-7829446D02*
X17168501Y-7886588D01*
X17168501Y-7886588D02*
X17158977Y-7905636D01*
X17158977Y-7905636D02*
X17149453Y-7915160D01*
X17149453Y-7915160D02*
X17130406Y-7924684D01*
X17130406Y-7924684D02*
X17101834Y-7924684D01*
X17282787Y-7924684D02*
X17263739Y-7915160D01*
X17263739Y-7915160D02*
X17254215Y-7896112D01*
X17254215Y-7896112D02*
X17254215Y-7724684D01*
X17435168Y-7915160D02*
X17416120Y-7924684D01*
X17416120Y-7924684D02*
X17378025Y-7924684D01*
X17378025Y-7924684D02*
X17358977Y-7915160D01*
X17358977Y-7915160D02*
X17349453Y-7896112D01*
X17349453Y-7896112D02*
X17349453Y-7819922D01*
X17349453Y-7819922D02*
X17358977Y-7800874D01*
X17358977Y-7800874D02*
X17378025Y-7791350D01*
X17378025Y-7791350D02*
X17416120Y-7791350D01*
X17416120Y-7791350D02*
X17435168Y-7800874D01*
X17435168Y-7800874D02*
X17444692Y-7819922D01*
X17444692Y-7819922D02*
X17444692Y-7838969D01*
X17444692Y-7838969D02*
X17349453Y-7858017D01*
X17520882Y-7915160D02*
X17539930Y-7924684D01*
X17539930Y-7924684D02*
X17578025Y-7924684D01*
X17578025Y-7924684D02*
X17597073Y-7915160D01*
X17597073Y-7915160D02*
X17606596Y-7896112D01*
X17606596Y-7896112D02*
X17606596Y-7886588D01*
X17606596Y-7886588D02*
X17597073Y-7867541D01*
X17597073Y-7867541D02*
X17578025Y-7858017D01*
X17578025Y-7858017D02*
X17549453Y-7858017D01*
X17549453Y-7858017D02*
X17530406Y-7848493D01*
X17530406Y-7848493D02*
X17520882Y-7829446D01*
X17520882Y-7829446D02*
X17520882Y-7819922D01*
X17520882Y-7819922D02*
X17530406Y-7800874D01*
X17530406Y-7800874D02*
X17549453Y-7791350D01*
X17549453Y-7791350D02*
X17578025Y-7791350D01*
X17578025Y-7791350D02*
X17597073Y-7800874D01*
X17673263Y-8000874D02*
X17682787Y-7991350D01*
X17682787Y-7991350D02*
X17701834Y-7962779D01*
X17701834Y-7962779D02*
X17711358Y-7943731D01*
X17711358Y-7943731D02*
X17720882Y-7915160D01*
X17720882Y-7915160D02*
X17730406Y-7867541D01*
X17730406Y-7867541D02*
X17730406Y-7829446D01*
X17730406Y-7829446D02*
X17720882Y-7781827D01*
X17720882Y-7781827D02*
X17711358Y-7753255D01*
X17711358Y-7753255D02*
X17701834Y-7734208D01*
X17701834Y-7734208D02*
X17682787Y-7705636D01*
X17682787Y-7705636D02*
X17673263Y-7696112D01*
D10*
X12898200Y-8097200D02*
G75*
G03*
X12818200Y-8097200I-40000J0D01*
G01*
X12818200Y-8097200D02*
G75*
G03*
X12898200Y-8097200I40000J0D01*
G01*
D11*
X13197072Y-7988684D02*
X13216120Y-7988684D01*
X13216120Y-7988684D02*
X13235167Y-7998208D01*
X13235167Y-7998208D02*
X13244691Y-8007731D01*
X13244691Y-8007731D02*
X13254215Y-8026779D01*
X13254215Y-8026779D02*
X13263739Y-8064874D01*
X13263739Y-8064874D02*
X13263739Y-8112493D01*
X13263739Y-8112493D02*
X13254215Y-8150588D01*
X13254215Y-8150588D02*
X13244691Y-8169636D01*
X13244691Y-8169636D02*
X13235167Y-8179160D01*
X13235167Y-8179160D02*
X13216120Y-8188684D01*
X13216120Y-8188684D02*
X13197072Y-8188684D01*
X13197072Y-8188684D02*
X13178024Y-8179160D01*
X13178024Y-8179160D02*
X13168501Y-8169636D01*
X13168501Y-8169636D02*
X13158977Y-8150588D01*
X13158977Y-8150588D02*
X13149453Y-8112493D01*
X13149453Y-8112493D02*
X13149453Y-8064874D01*
X13149453Y-8064874D02*
X13158977Y-8026779D01*
X13158977Y-8026779D02*
X13168501Y-8007731D01*
X13168501Y-8007731D02*
X13178024Y-7998208D01*
X13178024Y-7998208D02*
X13197072Y-7988684D01*
X13349453Y-8169636D02*
X13358977Y-8179160D01*
X13358977Y-8179160D02*
X13349453Y-8188684D01*
X13349453Y-8188684D02*
X13339929Y-8179160D01*
X13339929Y-8179160D02*
X13349453Y-8169636D01*
X13349453Y-8169636D02*
X13349453Y-8188684D01*
X13473262Y-8074398D02*
X13454215Y-8064874D01*
X13454215Y-8064874D02*
X13444691Y-8055350D01*
X13444691Y-8055350D02*
X13435167Y-8036303D01*
X13435167Y-8036303D02*
X13435167Y-8026779D01*
X13435167Y-8026779D02*
X13444691Y-8007731D01*
X13444691Y-8007731D02*
X13454215Y-7998208D01*
X13454215Y-7998208D02*
X13473262Y-7988684D01*
X13473262Y-7988684D02*
X13511358Y-7988684D01*
X13511358Y-7988684D02*
X13530405Y-7998208D01*
X13530405Y-7998208D02*
X13539929Y-8007731D01*
X13539929Y-8007731D02*
X13549453Y-8026779D01*
X13549453Y-8026779D02*
X13549453Y-8036303D01*
X13549453Y-8036303D02*
X13539929Y-8055350D01*
X13539929Y-8055350D02*
X13530405Y-8064874D01*
X13530405Y-8064874D02*
X13511358Y-8074398D01*
X13511358Y-8074398D02*
X13473262Y-8074398D01*
X13473262Y-8074398D02*
X13454215Y-8083922D01*
X13454215Y-8083922D02*
X13444691Y-8093446D01*
X13444691Y-8093446D02*
X13435167Y-8112493D01*
X13435167Y-8112493D02*
X13435167Y-8150588D01*
X13435167Y-8150588D02*
X13444691Y-8169636D01*
X13444691Y-8169636D02*
X13454215Y-8179160D01*
X13454215Y-8179160D02*
X13473262Y-8188684D01*
X13473262Y-8188684D02*
X13511358Y-8188684D01*
X13511358Y-8188684D02*
X13530405Y-8179160D01*
X13530405Y-8179160D02*
X13539929Y-8169636D01*
X13539929Y-8169636D02*
X13549453Y-8150588D01*
X13549453Y-8150588D02*
X13549453Y-8112493D01*
X13549453Y-8112493D02*
X13539929Y-8093446D01*
X13539929Y-8093446D02*
X13530405Y-8083922D01*
X13530405Y-8083922D02*
X13511358Y-8074398D01*
X13673262Y-7988684D02*
X13692310Y-7988684D01*
X13692310Y-7988684D02*
X13711358Y-7998208D01*
X13711358Y-7998208D02*
X13720882Y-8007731D01*
X13720882Y-8007731D02*
X13730405Y-8026779D01*
X13730405Y-8026779D02*
X13739929Y-8064874D01*
X13739929Y-8064874D02*
X13739929Y-8112493D01*
X13739929Y-8112493D02*
X13730405Y-8150588D01*
X13730405Y-8150588D02*
X13720882Y-8169636D01*
X13720882Y-8169636D02*
X13711358Y-8179160D01*
X13711358Y-8179160D02*
X13692310Y-8188684D01*
X13692310Y-8188684D02*
X13673262Y-8188684D01*
X13673262Y-8188684D02*
X13654215Y-8179160D01*
X13654215Y-8179160D02*
X13644691Y-8169636D01*
X13644691Y-8169636D02*
X13635167Y-8150588D01*
X13635167Y-8150588D02*
X13625643Y-8112493D01*
X13625643Y-8112493D02*
X13625643Y-8064874D01*
X13625643Y-8064874D02*
X13635167Y-8026779D01*
X13635167Y-8026779D02*
X13644691Y-8007731D01*
X13644691Y-8007731D02*
X13654215Y-7998208D01*
X13654215Y-7998208D02*
X13673262Y-7988684D01*
X13863739Y-7988684D02*
X13882786Y-7988684D01*
X13882786Y-7988684D02*
X13901834Y-7998208D01*
X13901834Y-7998208D02*
X13911358Y-8007731D01*
X13911358Y-8007731D02*
X13920882Y-8026779D01*
X13920882Y-8026779D02*
X13930405Y-8064874D01*
X13930405Y-8064874D02*
X13930405Y-8112493D01*
X13930405Y-8112493D02*
X13920882Y-8150588D01*
X13920882Y-8150588D02*
X13911358Y-8169636D01*
X13911358Y-8169636D02*
X13901834Y-8179160D01*
X13901834Y-8179160D02*
X13882786Y-8188684D01*
X13882786Y-8188684D02*
X13863739Y-8188684D01*
X13863739Y-8188684D02*
X13844691Y-8179160D01*
X13844691Y-8179160D02*
X13835167Y-8169636D01*
X13835167Y-8169636D02*
X13825643Y-8150588D01*
X13825643Y-8150588D02*
X13816120Y-8112493D01*
X13816120Y-8112493D02*
X13816120Y-8064874D01*
X13816120Y-8064874D02*
X13825643Y-8026779D01*
X13825643Y-8026779D02*
X13835167Y-8007731D01*
X13835167Y-8007731D02*
X13844691Y-7998208D01*
X13844691Y-7998208D02*
X13863739Y-7988684D01*
X14016120Y-8188684D02*
X14016120Y-8055350D01*
X14016120Y-8074398D02*
X14025643Y-8064874D01*
X14025643Y-8064874D02*
X14044691Y-8055350D01*
X14044691Y-8055350D02*
X14073263Y-8055350D01*
X14073263Y-8055350D02*
X14092310Y-8064874D01*
X14092310Y-8064874D02*
X14101834Y-8083922D01*
X14101834Y-8083922D02*
X14101834Y-8188684D01*
X14101834Y-8083922D02*
X14111358Y-8064874D01*
X14111358Y-8064874D02*
X14130405Y-8055350D01*
X14130405Y-8055350D02*
X14158977Y-8055350D01*
X14158977Y-8055350D02*
X14178024Y-8064874D01*
X14178024Y-8064874D02*
X14187548Y-8083922D01*
X14187548Y-8083922D02*
X14187548Y-8188684D01*
X14282786Y-8188684D02*
X14282786Y-8055350D01*
X14282786Y-8074398D02*
X14292310Y-8064874D01*
X14292310Y-8064874D02*
X14311358Y-8055350D01*
X14311358Y-8055350D02*
X14339929Y-8055350D01*
X14339929Y-8055350D02*
X14358977Y-8064874D01*
X14358977Y-8064874D02*
X14368501Y-8083922D01*
X14368501Y-8083922D02*
X14368501Y-8188684D01*
X14368501Y-8083922D02*
X14378024Y-8064874D01*
X14378024Y-8064874D02*
X14397072Y-8055350D01*
X14397072Y-8055350D02*
X14425643Y-8055350D01*
X14425643Y-8055350D02*
X14444691Y-8064874D01*
X14444691Y-8064874D02*
X14454215Y-8083922D01*
X14454215Y-8083922D02*
X14454215Y-8188684D01*
X14844691Y-7979160D02*
X14673263Y-8236303D01*
X15101834Y-7988684D02*
X15120882Y-7988684D01*
X15120882Y-7988684D02*
X15139929Y-7998208D01*
X15139929Y-7998208D02*
X15149453Y-8007731D01*
X15149453Y-8007731D02*
X15158977Y-8026779D01*
X15158977Y-8026779D02*
X15168501Y-8064874D01*
X15168501Y-8064874D02*
X15168501Y-8112493D01*
X15168501Y-8112493D02*
X15158977Y-8150588D01*
X15158977Y-8150588D02*
X15149453Y-8169636D01*
X15149453Y-8169636D02*
X15139929Y-8179160D01*
X15139929Y-8179160D02*
X15120882Y-8188684D01*
X15120882Y-8188684D02*
X15101834Y-8188684D01*
X15101834Y-8188684D02*
X15082786Y-8179160D01*
X15082786Y-8179160D02*
X15073263Y-8169636D01*
X15073263Y-8169636D02*
X15063739Y-8150588D01*
X15063739Y-8150588D02*
X15054215Y-8112493D01*
X15054215Y-8112493D02*
X15054215Y-8064874D01*
X15054215Y-8064874D02*
X15063739Y-8026779D01*
X15063739Y-8026779D02*
X15073263Y-8007731D01*
X15073263Y-8007731D02*
X15082786Y-7998208D01*
X15082786Y-7998208D02*
X15101834Y-7988684D01*
X15254215Y-8169636D02*
X15263739Y-8179160D01*
X15263739Y-8179160D02*
X15254215Y-8188684D01*
X15254215Y-8188684D02*
X15244691Y-8179160D01*
X15244691Y-8179160D02*
X15254215Y-8169636D01*
X15254215Y-8169636D02*
X15254215Y-8188684D01*
X15387548Y-7988684D02*
X15406596Y-7988684D01*
X15406596Y-7988684D02*
X15425644Y-7998208D01*
X15425644Y-7998208D02*
X15435167Y-8007731D01*
X15435167Y-8007731D02*
X15444691Y-8026779D01*
X15444691Y-8026779D02*
X15454215Y-8064874D01*
X15454215Y-8064874D02*
X15454215Y-8112493D01*
X15454215Y-8112493D02*
X15444691Y-8150588D01*
X15444691Y-8150588D02*
X15435167Y-8169636D01*
X15435167Y-8169636D02*
X15425644Y-8179160D01*
X15425644Y-8179160D02*
X15406596Y-8188684D01*
X15406596Y-8188684D02*
X15387548Y-8188684D01*
X15387548Y-8188684D02*
X15368501Y-8179160D01*
X15368501Y-8179160D02*
X15358977Y-8169636D01*
X15358977Y-8169636D02*
X15349453Y-8150588D01*
X15349453Y-8150588D02*
X15339929Y-8112493D01*
X15339929Y-8112493D02*
X15339929Y-8064874D01*
X15339929Y-8064874D02*
X15349453Y-8026779D01*
X15349453Y-8026779D02*
X15358977Y-8007731D01*
X15358977Y-8007731D02*
X15368501Y-7998208D01*
X15368501Y-7998208D02*
X15387548Y-7988684D01*
X15520882Y-7988684D02*
X15644691Y-7988684D01*
X15644691Y-7988684D02*
X15578025Y-8064874D01*
X15578025Y-8064874D02*
X15606596Y-8064874D01*
X15606596Y-8064874D02*
X15625644Y-8074398D01*
X15625644Y-8074398D02*
X15635167Y-8083922D01*
X15635167Y-8083922D02*
X15644691Y-8102969D01*
X15644691Y-8102969D02*
X15644691Y-8150588D01*
X15644691Y-8150588D02*
X15635167Y-8169636D01*
X15635167Y-8169636D02*
X15625644Y-8179160D01*
X15625644Y-8179160D02*
X15606596Y-8188684D01*
X15606596Y-8188684D02*
X15549453Y-8188684D01*
X15549453Y-8188684D02*
X15530406Y-8179160D01*
X15530406Y-8179160D02*
X15520882Y-8169636D01*
X15835167Y-8188684D02*
X15720882Y-8188684D01*
X15778025Y-8188684D02*
X15778025Y-7988684D01*
X15778025Y-7988684D02*
X15758977Y-8017255D01*
X15758977Y-8017255D02*
X15739929Y-8036303D01*
X15739929Y-8036303D02*
X15720882Y-8045827D01*
X16016120Y-7988684D02*
X15920882Y-7988684D01*
X15920882Y-7988684D02*
X15911358Y-8083922D01*
X15911358Y-8083922D02*
X15920882Y-8074398D01*
X15920882Y-8074398D02*
X15939929Y-8064874D01*
X15939929Y-8064874D02*
X15987548Y-8064874D01*
X15987548Y-8064874D02*
X16006596Y-8074398D01*
X16006596Y-8074398D02*
X16016120Y-8083922D01*
X16016120Y-8083922D02*
X16025644Y-8102969D01*
X16025644Y-8102969D02*
X16025644Y-8150588D01*
X16025644Y-8150588D02*
X16016120Y-8169636D01*
X16016120Y-8169636D02*
X16006596Y-8179160D01*
X16006596Y-8179160D02*
X15987548Y-8188684D01*
X15987548Y-8188684D02*
X15939929Y-8188684D01*
X15939929Y-8188684D02*
X15920882Y-8179160D01*
X15920882Y-8179160D02*
X15911358Y-8169636D01*
X16101834Y-7988684D02*
X16101834Y-8026779D01*
X16178025Y-7988684D02*
X16178025Y-8026779D01*
X16473263Y-8264874D02*
X16463739Y-8255350D01*
X16463739Y-8255350D02*
X16444691Y-8226779D01*
X16444691Y-8226779D02*
X16435168Y-8207731D01*
X16435168Y-8207731D02*
X16425644Y-8179160D01*
X16425644Y-8179160D02*
X16416120Y-8131541D01*
X16416120Y-8131541D02*
X16416120Y-8093446D01*
X16416120Y-8093446D02*
X16425644Y-8045827D01*
X16425644Y-8045827D02*
X16435168Y-8017255D01*
X16435168Y-8017255D02*
X16444691Y-7998208D01*
X16444691Y-7998208D02*
X16463739Y-7969636D01*
X16463739Y-7969636D02*
X16473263Y-7960112D01*
X16539929Y-8007731D02*
X16549453Y-7998208D01*
X16549453Y-7998208D02*
X16568501Y-7988684D01*
X16568501Y-7988684D02*
X16616120Y-7988684D01*
X16616120Y-7988684D02*
X16635168Y-7998208D01*
X16635168Y-7998208D02*
X16644691Y-8007731D01*
X16644691Y-8007731D02*
X16654215Y-8026779D01*
X16654215Y-8026779D02*
X16654215Y-8045827D01*
X16654215Y-8045827D02*
X16644691Y-8074398D01*
X16644691Y-8074398D02*
X16530406Y-8188684D01*
X16530406Y-8188684D02*
X16654215Y-8188684D01*
X16892311Y-8188684D02*
X16892311Y-7988684D01*
X16978025Y-8188684D02*
X16978025Y-8083922D01*
X16978025Y-8083922D02*
X16968501Y-8064874D01*
X16968501Y-8064874D02*
X16949453Y-8055350D01*
X16949453Y-8055350D02*
X16920882Y-8055350D01*
X16920882Y-8055350D02*
X16901834Y-8064874D01*
X16901834Y-8064874D02*
X16892311Y-8074398D01*
X17101834Y-8188684D02*
X17082787Y-8179160D01*
X17082787Y-8179160D02*
X17073263Y-8169636D01*
X17073263Y-8169636D02*
X17063739Y-8150588D01*
X17063739Y-8150588D02*
X17063739Y-8093446D01*
X17063739Y-8093446D02*
X17073263Y-8074398D01*
X17073263Y-8074398D02*
X17082787Y-8064874D01*
X17082787Y-8064874D02*
X17101834Y-8055350D01*
X17101834Y-8055350D02*
X17130406Y-8055350D01*
X17130406Y-8055350D02*
X17149453Y-8064874D01*
X17149453Y-8064874D02*
X17158977Y-8074398D01*
X17158977Y-8074398D02*
X17168501Y-8093446D01*
X17168501Y-8093446D02*
X17168501Y-8150588D01*
X17168501Y-8150588D02*
X17158977Y-8169636D01*
X17158977Y-8169636D02*
X17149453Y-8179160D01*
X17149453Y-8179160D02*
X17130406Y-8188684D01*
X17130406Y-8188684D02*
X17101834Y-8188684D01*
X17282787Y-8188684D02*
X17263739Y-8179160D01*
X17263739Y-8179160D02*
X17254215Y-8160112D01*
X17254215Y-8160112D02*
X17254215Y-7988684D01*
X17435168Y-8179160D02*
X17416120Y-8188684D01*
X17416120Y-8188684D02*
X17378025Y-8188684D01*
X17378025Y-8188684D02*
X17358977Y-8179160D01*
X17358977Y-8179160D02*
X17349453Y-8160112D01*
X17349453Y-8160112D02*
X17349453Y-8083922D01*
X17349453Y-8083922D02*
X17358977Y-8064874D01*
X17358977Y-8064874D02*
X17378025Y-8055350D01*
X17378025Y-8055350D02*
X17416120Y-8055350D01*
X17416120Y-8055350D02*
X17435168Y-8064874D01*
X17435168Y-8064874D02*
X17444692Y-8083922D01*
X17444692Y-8083922D02*
X17444692Y-8102969D01*
X17444692Y-8102969D02*
X17349453Y-8122017D01*
X17520882Y-8179160D02*
X17539930Y-8188684D01*
X17539930Y-8188684D02*
X17578025Y-8188684D01*
X17578025Y-8188684D02*
X17597073Y-8179160D01*
X17597073Y-8179160D02*
X17606596Y-8160112D01*
X17606596Y-8160112D02*
X17606596Y-8150588D01*
X17606596Y-8150588D02*
X17597073Y-8131541D01*
X17597073Y-8131541D02*
X17578025Y-8122017D01*
X17578025Y-8122017D02*
X17549453Y-8122017D01*
X17549453Y-8122017D02*
X17530406Y-8112493D01*
X17530406Y-8112493D02*
X17520882Y-8093446D01*
X17520882Y-8093446D02*
X17520882Y-8083922D01*
X17520882Y-8083922D02*
X17530406Y-8064874D01*
X17530406Y-8064874D02*
X17549453Y-8055350D01*
X17549453Y-8055350D02*
X17578025Y-8055350D01*
X17578025Y-8055350D02*
X17597073Y-8064874D01*
X17673263Y-8264874D02*
X17682787Y-8255350D01*
X17682787Y-8255350D02*
X17701834Y-8226779D01*
X17701834Y-8226779D02*
X17711358Y-8207731D01*
X17711358Y-8207731D02*
X17720882Y-8179160D01*
X17720882Y-8179160D02*
X17730406Y-8131541D01*
X17730406Y-8131541D02*
X17730406Y-8093446D01*
X17730406Y-8093446D02*
X17720882Y-8045827D01*
X17720882Y-8045827D02*
X17711358Y-8017255D01*
X17711358Y-8017255D02*
X17701834Y-7998208D01*
X17701834Y-7998208D02*
X17682787Y-7969636D01*
X17682787Y-7969636D02*
X17673263Y-7960112D01*
D10*
X12848200Y-8311200D02*
X12848200Y-8411200D01*
X12798200Y-8361200D02*
X12898200Y-8361200D01*
D11*
X13263739Y-8452684D02*
X13149453Y-8452684D01*
X13206596Y-8452684D02*
X13206596Y-8252684D01*
X13206596Y-8252684D02*
X13187548Y-8281255D01*
X13187548Y-8281255D02*
X13168501Y-8300303D01*
X13168501Y-8300303D02*
X13149453Y-8309827D01*
X13349453Y-8433636D02*
X13358977Y-8443160D01*
X13358977Y-8443160D02*
X13349453Y-8452684D01*
X13349453Y-8452684D02*
X13339929Y-8443160D01*
X13339929Y-8443160D02*
X13349453Y-8433636D01*
X13349453Y-8433636D02*
X13349453Y-8452684D01*
X13482786Y-8252684D02*
X13501834Y-8252684D01*
X13501834Y-8252684D02*
X13520882Y-8262208D01*
X13520882Y-8262208D02*
X13530405Y-8271731D01*
X13530405Y-8271731D02*
X13539929Y-8290779D01*
X13539929Y-8290779D02*
X13549453Y-8328874D01*
X13549453Y-8328874D02*
X13549453Y-8376493D01*
X13549453Y-8376493D02*
X13539929Y-8414589D01*
X13539929Y-8414589D02*
X13530405Y-8433636D01*
X13530405Y-8433636D02*
X13520882Y-8443160D01*
X13520882Y-8443160D02*
X13501834Y-8452684D01*
X13501834Y-8452684D02*
X13482786Y-8452684D01*
X13482786Y-8452684D02*
X13463739Y-8443160D01*
X13463739Y-8443160D02*
X13454215Y-8433636D01*
X13454215Y-8433636D02*
X13444691Y-8414589D01*
X13444691Y-8414589D02*
X13435167Y-8376493D01*
X13435167Y-8376493D02*
X13435167Y-8328874D01*
X13435167Y-8328874D02*
X13444691Y-8290779D01*
X13444691Y-8290779D02*
X13454215Y-8271731D01*
X13454215Y-8271731D02*
X13463739Y-8262208D01*
X13463739Y-8262208D02*
X13482786Y-8252684D01*
X13673262Y-8252684D02*
X13692310Y-8252684D01*
X13692310Y-8252684D02*
X13711358Y-8262208D01*
X13711358Y-8262208D02*
X13720882Y-8271731D01*
X13720882Y-8271731D02*
X13730405Y-8290779D01*
X13730405Y-8290779D02*
X13739929Y-8328874D01*
X13739929Y-8328874D02*
X13739929Y-8376493D01*
X13739929Y-8376493D02*
X13730405Y-8414589D01*
X13730405Y-8414589D02*
X13720882Y-8433636D01*
X13720882Y-8433636D02*
X13711358Y-8443160D01*
X13711358Y-8443160D02*
X13692310Y-8452684D01*
X13692310Y-8452684D02*
X13673262Y-8452684D01*
X13673262Y-8452684D02*
X13654215Y-8443160D01*
X13654215Y-8443160D02*
X13644691Y-8433636D01*
X13644691Y-8433636D02*
X13635167Y-8414589D01*
X13635167Y-8414589D02*
X13625643Y-8376493D01*
X13625643Y-8376493D02*
X13625643Y-8328874D01*
X13625643Y-8328874D02*
X13635167Y-8290779D01*
X13635167Y-8290779D02*
X13644691Y-8271731D01*
X13644691Y-8271731D02*
X13654215Y-8262208D01*
X13654215Y-8262208D02*
X13673262Y-8252684D01*
X13863739Y-8252684D02*
X13882786Y-8252684D01*
X13882786Y-8252684D02*
X13901834Y-8262208D01*
X13901834Y-8262208D02*
X13911358Y-8271731D01*
X13911358Y-8271731D02*
X13920882Y-8290779D01*
X13920882Y-8290779D02*
X13930405Y-8328874D01*
X13930405Y-8328874D02*
X13930405Y-8376493D01*
X13930405Y-8376493D02*
X13920882Y-8414589D01*
X13920882Y-8414589D02*
X13911358Y-8433636D01*
X13911358Y-8433636D02*
X13901834Y-8443160D01*
X13901834Y-8443160D02*
X13882786Y-8452684D01*
X13882786Y-8452684D02*
X13863739Y-8452684D01*
X13863739Y-8452684D02*
X13844691Y-8443160D01*
X13844691Y-8443160D02*
X13835167Y-8433636D01*
X13835167Y-8433636D02*
X13825643Y-8414589D01*
X13825643Y-8414589D02*
X13816120Y-8376493D01*
X13816120Y-8376493D02*
X13816120Y-8328874D01*
X13816120Y-8328874D02*
X13825643Y-8290779D01*
X13825643Y-8290779D02*
X13835167Y-8271731D01*
X13835167Y-8271731D02*
X13844691Y-8262208D01*
X13844691Y-8262208D02*
X13863739Y-8252684D01*
X14016120Y-8452684D02*
X14016120Y-8319350D01*
X14016120Y-8338398D02*
X14025643Y-8328874D01*
X14025643Y-8328874D02*
X14044691Y-8319350D01*
X14044691Y-8319350D02*
X14073263Y-8319350D01*
X14073263Y-8319350D02*
X14092310Y-8328874D01*
X14092310Y-8328874D02*
X14101834Y-8347922D01*
X14101834Y-8347922D02*
X14101834Y-8452684D01*
X14101834Y-8347922D02*
X14111358Y-8328874D01*
X14111358Y-8328874D02*
X14130405Y-8319350D01*
X14130405Y-8319350D02*
X14158977Y-8319350D01*
X14158977Y-8319350D02*
X14178024Y-8328874D01*
X14178024Y-8328874D02*
X14187548Y-8347922D01*
X14187548Y-8347922D02*
X14187548Y-8452684D01*
X14282786Y-8452684D02*
X14282786Y-8319350D01*
X14282786Y-8338398D02*
X14292310Y-8328874D01*
X14292310Y-8328874D02*
X14311358Y-8319350D01*
X14311358Y-8319350D02*
X14339929Y-8319350D01*
X14339929Y-8319350D02*
X14358977Y-8328874D01*
X14358977Y-8328874D02*
X14368501Y-8347922D01*
X14368501Y-8347922D02*
X14368501Y-8452684D01*
X14368501Y-8347922D02*
X14378024Y-8328874D01*
X14378024Y-8328874D02*
X14397072Y-8319350D01*
X14397072Y-8319350D02*
X14425643Y-8319350D01*
X14425643Y-8319350D02*
X14444691Y-8328874D01*
X14444691Y-8328874D02*
X14454215Y-8347922D01*
X14454215Y-8347922D02*
X14454215Y-8452684D01*
X14844691Y-8243160D02*
X14673263Y-8500303D01*
X15101834Y-8252684D02*
X15120882Y-8252684D01*
X15120882Y-8252684D02*
X15139929Y-8262208D01*
X15139929Y-8262208D02*
X15149453Y-8271731D01*
X15149453Y-8271731D02*
X15158977Y-8290779D01*
X15158977Y-8290779D02*
X15168501Y-8328874D01*
X15168501Y-8328874D02*
X15168501Y-8376493D01*
X15168501Y-8376493D02*
X15158977Y-8414589D01*
X15158977Y-8414589D02*
X15149453Y-8433636D01*
X15149453Y-8433636D02*
X15139929Y-8443160D01*
X15139929Y-8443160D02*
X15120882Y-8452684D01*
X15120882Y-8452684D02*
X15101834Y-8452684D01*
X15101834Y-8452684D02*
X15082786Y-8443160D01*
X15082786Y-8443160D02*
X15073263Y-8433636D01*
X15073263Y-8433636D02*
X15063739Y-8414589D01*
X15063739Y-8414589D02*
X15054215Y-8376493D01*
X15054215Y-8376493D02*
X15054215Y-8328874D01*
X15054215Y-8328874D02*
X15063739Y-8290779D01*
X15063739Y-8290779D02*
X15073263Y-8271731D01*
X15073263Y-8271731D02*
X15082786Y-8262208D01*
X15082786Y-8262208D02*
X15101834Y-8252684D01*
X15254215Y-8433636D02*
X15263739Y-8443160D01*
X15263739Y-8443160D02*
X15254215Y-8452684D01*
X15254215Y-8452684D02*
X15244691Y-8443160D01*
X15244691Y-8443160D02*
X15254215Y-8433636D01*
X15254215Y-8433636D02*
X15254215Y-8452684D01*
X15387548Y-8252684D02*
X15406596Y-8252684D01*
X15406596Y-8252684D02*
X15425644Y-8262208D01*
X15425644Y-8262208D02*
X15435167Y-8271731D01*
X15435167Y-8271731D02*
X15444691Y-8290779D01*
X15444691Y-8290779D02*
X15454215Y-8328874D01*
X15454215Y-8328874D02*
X15454215Y-8376493D01*
X15454215Y-8376493D02*
X15444691Y-8414589D01*
X15444691Y-8414589D02*
X15435167Y-8433636D01*
X15435167Y-8433636D02*
X15425644Y-8443160D01*
X15425644Y-8443160D02*
X15406596Y-8452684D01*
X15406596Y-8452684D02*
X15387548Y-8452684D01*
X15387548Y-8452684D02*
X15368501Y-8443160D01*
X15368501Y-8443160D02*
X15358977Y-8433636D01*
X15358977Y-8433636D02*
X15349453Y-8414589D01*
X15349453Y-8414589D02*
X15339929Y-8376493D01*
X15339929Y-8376493D02*
X15339929Y-8328874D01*
X15339929Y-8328874D02*
X15349453Y-8290779D01*
X15349453Y-8290779D02*
X15358977Y-8271731D01*
X15358977Y-8271731D02*
X15368501Y-8262208D01*
X15368501Y-8262208D02*
X15387548Y-8252684D01*
X15520882Y-8252684D02*
X15644691Y-8252684D01*
X15644691Y-8252684D02*
X15578025Y-8328874D01*
X15578025Y-8328874D02*
X15606596Y-8328874D01*
X15606596Y-8328874D02*
X15625644Y-8338398D01*
X15625644Y-8338398D02*
X15635167Y-8347922D01*
X15635167Y-8347922D02*
X15644691Y-8366969D01*
X15644691Y-8366969D02*
X15644691Y-8414589D01*
X15644691Y-8414589D02*
X15635167Y-8433636D01*
X15635167Y-8433636D02*
X15625644Y-8443160D01*
X15625644Y-8443160D02*
X15606596Y-8452684D01*
X15606596Y-8452684D02*
X15549453Y-8452684D01*
X15549453Y-8452684D02*
X15530406Y-8443160D01*
X15530406Y-8443160D02*
X15520882Y-8433636D01*
X15739929Y-8452684D02*
X15778025Y-8452684D01*
X15778025Y-8452684D02*
X15797072Y-8443160D01*
X15797072Y-8443160D02*
X15806596Y-8433636D01*
X15806596Y-8433636D02*
X15825644Y-8405065D01*
X15825644Y-8405065D02*
X15835167Y-8366969D01*
X15835167Y-8366969D02*
X15835167Y-8290779D01*
X15835167Y-8290779D02*
X15825644Y-8271731D01*
X15825644Y-8271731D02*
X15816120Y-8262208D01*
X15816120Y-8262208D02*
X15797072Y-8252684D01*
X15797072Y-8252684D02*
X15758977Y-8252684D01*
X15758977Y-8252684D02*
X15739929Y-8262208D01*
X15739929Y-8262208D02*
X15730406Y-8271731D01*
X15730406Y-8271731D02*
X15720882Y-8290779D01*
X15720882Y-8290779D02*
X15720882Y-8338398D01*
X15720882Y-8338398D02*
X15730406Y-8357446D01*
X15730406Y-8357446D02*
X15739929Y-8366969D01*
X15739929Y-8366969D02*
X15758977Y-8376493D01*
X15758977Y-8376493D02*
X15797072Y-8376493D01*
X15797072Y-8376493D02*
X15816120Y-8366969D01*
X15816120Y-8366969D02*
X15825644Y-8357446D01*
X15825644Y-8357446D02*
X15835167Y-8338398D01*
X16006596Y-8319350D02*
X16006596Y-8452684D01*
X15958977Y-8243160D02*
X15911358Y-8386017D01*
X15911358Y-8386017D02*
X16035167Y-8386017D01*
X16101834Y-8252684D02*
X16101834Y-8290779D01*
X16178025Y-8252684D02*
X16178025Y-8290779D01*
X16473263Y-8528874D02*
X16463739Y-8519350D01*
X16463739Y-8519350D02*
X16444691Y-8490779D01*
X16444691Y-8490779D02*
X16435168Y-8471731D01*
X16435168Y-8471731D02*
X16425644Y-8443160D01*
X16425644Y-8443160D02*
X16416120Y-8395541D01*
X16416120Y-8395541D02*
X16416120Y-8357446D01*
X16416120Y-8357446D02*
X16425644Y-8309827D01*
X16425644Y-8309827D02*
X16435168Y-8281255D01*
X16435168Y-8281255D02*
X16444691Y-8262208D01*
X16444691Y-8262208D02*
X16463739Y-8233636D01*
X16463739Y-8233636D02*
X16473263Y-8224112D01*
X16578025Y-8338398D02*
X16558977Y-8328874D01*
X16558977Y-8328874D02*
X16549453Y-8319350D01*
X16549453Y-8319350D02*
X16539929Y-8300303D01*
X16539929Y-8300303D02*
X16539929Y-8290779D01*
X16539929Y-8290779D02*
X16549453Y-8271731D01*
X16549453Y-8271731D02*
X16558977Y-8262208D01*
X16558977Y-8262208D02*
X16578025Y-8252684D01*
X16578025Y-8252684D02*
X16616120Y-8252684D01*
X16616120Y-8252684D02*
X16635168Y-8262208D01*
X16635168Y-8262208D02*
X16644691Y-8271731D01*
X16644691Y-8271731D02*
X16654215Y-8290779D01*
X16654215Y-8290779D02*
X16654215Y-8300303D01*
X16654215Y-8300303D02*
X16644691Y-8319350D01*
X16644691Y-8319350D02*
X16635168Y-8328874D01*
X16635168Y-8328874D02*
X16616120Y-8338398D01*
X16616120Y-8338398D02*
X16578025Y-8338398D01*
X16578025Y-8338398D02*
X16558977Y-8347922D01*
X16558977Y-8347922D02*
X16549453Y-8357446D01*
X16549453Y-8357446D02*
X16539929Y-8376493D01*
X16539929Y-8376493D02*
X16539929Y-8414589D01*
X16539929Y-8414589D02*
X16549453Y-8433636D01*
X16549453Y-8433636D02*
X16558977Y-8443160D01*
X16558977Y-8443160D02*
X16578025Y-8452684D01*
X16578025Y-8452684D02*
X16616120Y-8452684D01*
X16616120Y-8452684D02*
X16635168Y-8443160D01*
X16635168Y-8443160D02*
X16644691Y-8433636D01*
X16644691Y-8433636D02*
X16654215Y-8414589D01*
X16654215Y-8414589D02*
X16654215Y-8376493D01*
X16654215Y-8376493D02*
X16644691Y-8357446D01*
X16644691Y-8357446D02*
X16635168Y-8347922D01*
X16635168Y-8347922D02*
X16616120Y-8338398D01*
X16892311Y-8452684D02*
X16892311Y-8252684D01*
X16978025Y-8452684D02*
X16978025Y-8347922D01*
X16978025Y-8347922D02*
X16968501Y-8328874D01*
X16968501Y-8328874D02*
X16949453Y-8319350D01*
X16949453Y-8319350D02*
X16920882Y-8319350D01*
X16920882Y-8319350D02*
X16901834Y-8328874D01*
X16901834Y-8328874D02*
X16892311Y-8338398D01*
X17101834Y-8452684D02*
X17082787Y-8443160D01*
X17082787Y-8443160D02*
X17073263Y-8433636D01*
X17073263Y-8433636D02*
X17063739Y-8414589D01*
X17063739Y-8414589D02*
X17063739Y-8357446D01*
X17063739Y-8357446D02*
X17073263Y-8338398D01*
X17073263Y-8338398D02*
X17082787Y-8328874D01*
X17082787Y-8328874D02*
X17101834Y-8319350D01*
X17101834Y-8319350D02*
X17130406Y-8319350D01*
X17130406Y-8319350D02*
X17149453Y-8328874D01*
X17149453Y-8328874D02*
X17158977Y-8338398D01*
X17158977Y-8338398D02*
X17168501Y-8357446D01*
X17168501Y-8357446D02*
X17168501Y-8414589D01*
X17168501Y-8414589D02*
X17158977Y-8433636D01*
X17158977Y-8433636D02*
X17149453Y-8443160D01*
X17149453Y-8443160D02*
X17130406Y-8452684D01*
X17130406Y-8452684D02*
X17101834Y-8452684D01*
X17282787Y-8452684D02*
X17263739Y-8443160D01*
X17263739Y-8443160D02*
X17254215Y-8424112D01*
X17254215Y-8424112D02*
X17254215Y-8252684D01*
X17435168Y-8443160D02*
X17416120Y-8452684D01*
X17416120Y-8452684D02*
X17378025Y-8452684D01*
X17378025Y-8452684D02*
X17358977Y-8443160D01*
X17358977Y-8443160D02*
X17349453Y-8424112D01*
X17349453Y-8424112D02*
X17349453Y-8347922D01*
X17349453Y-8347922D02*
X17358977Y-8328874D01*
X17358977Y-8328874D02*
X17378025Y-8319350D01*
X17378025Y-8319350D02*
X17416120Y-8319350D01*
X17416120Y-8319350D02*
X17435168Y-8328874D01*
X17435168Y-8328874D02*
X17444692Y-8347922D01*
X17444692Y-8347922D02*
X17444692Y-8366969D01*
X17444692Y-8366969D02*
X17349453Y-8386017D01*
X17520882Y-8443160D02*
X17539930Y-8452684D01*
X17539930Y-8452684D02*
X17578025Y-8452684D01*
X17578025Y-8452684D02*
X17597073Y-8443160D01*
X17597073Y-8443160D02*
X17606596Y-8424112D01*
X17606596Y-8424112D02*
X17606596Y-8414589D01*
X17606596Y-8414589D02*
X17597073Y-8395541D01*
X17597073Y-8395541D02*
X17578025Y-8386017D01*
X17578025Y-8386017D02*
X17549453Y-8386017D01*
X17549453Y-8386017D02*
X17530406Y-8376493D01*
X17530406Y-8376493D02*
X17520882Y-8357446D01*
X17520882Y-8357446D02*
X17520882Y-8347922D01*
X17520882Y-8347922D02*
X17530406Y-8328874D01*
X17530406Y-8328874D02*
X17549453Y-8319350D01*
X17549453Y-8319350D02*
X17578025Y-8319350D01*
X17578025Y-8319350D02*
X17597073Y-8328874D01*
X17673263Y-8528874D02*
X17682787Y-8519350D01*
X17682787Y-8519350D02*
X17701834Y-8490779D01*
X17701834Y-8490779D02*
X17711358Y-8471731D01*
X17711358Y-8471731D02*
X17720882Y-8443160D01*
X17720882Y-8443160D02*
X17730406Y-8395541D01*
X17730406Y-8395541D02*
X17730406Y-8357446D01*
X17730406Y-8357446D02*
X17720882Y-8309827D01*
X17720882Y-8309827D02*
X17711358Y-8281255D01*
X17711358Y-8281255D02*
X17701834Y-8262208D01*
X17701834Y-8262208D02*
X17682787Y-8233636D01*
X17682787Y-8233636D02*
X17673263Y-8224112D01*
D12*
X12881461Y-8665612D02*
X12881461Y-8584789D01*
X12800638Y-8584789D01*
X12800638Y-8665612D01*
X12881461Y-8665612D01*
D11*
X13263739Y-8716684D02*
X13149453Y-8716684D01*
X13206596Y-8716684D02*
X13206596Y-8516684D01*
X13206596Y-8516684D02*
X13187548Y-8545255D01*
X13187548Y-8545255D02*
X13168501Y-8564303D01*
X13168501Y-8564303D02*
X13149453Y-8573827D01*
X13349453Y-8697636D02*
X13358977Y-8707160D01*
X13358977Y-8707160D02*
X13349453Y-8716684D01*
X13349453Y-8716684D02*
X13339929Y-8707160D01*
X13339929Y-8707160D02*
X13349453Y-8697636D01*
X13349453Y-8697636D02*
X13349453Y-8716684D01*
X13549453Y-8716684D02*
X13435167Y-8716684D01*
X13492310Y-8716684D02*
X13492310Y-8516684D01*
X13492310Y-8516684D02*
X13473262Y-8545255D01*
X13473262Y-8545255D02*
X13454215Y-8564303D01*
X13454215Y-8564303D02*
X13435167Y-8573827D01*
X13720882Y-8583350D02*
X13720882Y-8716684D01*
X13673262Y-8507160D02*
X13625643Y-8650017D01*
X13625643Y-8650017D02*
X13749453Y-8650017D01*
X13806596Y-8516684D02*
X13930405Y-8516684D01*
X13930405Y-8516684D02*
X13863739Y-8592874D01*
X13863739Y-8592874D02*
X13892310Y-8592874D01*
X13892310Y-8592874D02*
X13911358Y-8602398D01*
X13911358Y-8602398D02*
X13920882Y-8611922D01*
X13920882Y-8611922D02*
X13930405Y-8630970D01*
X13930405Y-8630970D02*
X13930405Y-8678589D01*
X13930405Y-8678589D02*
X13920882Y-8697636D01*
X13920882Y-8697636D02*
X13911358Y-8707160D01*
X13911358Y-8707160D02*
X13892310Y-8716684D01*
X13892310Y-8716684D02*
X13835167Y-8716684D01*
X13835167Y-8716684D02*
X13816120Y-8707160D01*
X13816120Y-8707160D02*
X13806596Y-8697636D01*
X14016120Y-8716684D02*
X14016120Y-8583350D01*
X14016120Y-8602398D02*
X14025643Y-8592874D01*
X14025643Y-8592874D02*
X14044691Y-8583350D01*
X14044691Y-8583350D02*
X14073263Y-8583350D01*
X14073263Y-8583350D02*
X14092310Y-8592874D01*
X14092310Y-8592874D02*
X14101834Y-8611922D01*
X14101834Y-8611922D02*
X14101834Y-8716684D01*
X14101834Y-8611922D02*
X14111358Y-8592874D01*
X14111358Y-8592874D02*
X14130405Y-8583350D01*
X14130405Y-8583350D02*
X14158977Y-8583350D01*
X14158977Y-8583350D02*
X14178024Y-8592874D01*
X14178024Y-8592874D02*
X14187548Y-8611922D01*
X14187548Y-8611922D02*
X14187548Y-8716684D01*
X14282786Y-8716684D02*
X14282786Y-8583350D01*
X14282786Y-8602398D02*
X14292310Y-8592874D01*
X14292310Y-8592874D02*
X14311358Y-8583350D01*
X14311358Y-8583350D02*
X14339929Y-8583350D01*
X14339929Y-8583350D02*
X14358977Y-8592874D01*
X14358977Y-8592874D02*
X14368501Y-8611922D01*
X14368501Y-8611922D02*
X14368501Y-8716684D01*
X14368501Y-8611922D02*
X14378024Y-8592874D01*
X14378024Y-8592874D02*
X14397072Y-8583350D01*
X14397072Y-8583350D02*
X14425643Y-8583350D01*
X14425643Y-8583350D02*
X14444691Y-8592874D01*
X14444691Y-8592874D02*
X14454215Y-8611922D01*
X14454215Y-8611922D02*
X14454215Y-8716684D01*
X14844691Y-8507160D02*
X14673263Y-8764303D01*
X15101834Y-8516684D02*
X15120882Y-8516684D01*
X15120882Y-8516684D02*
X15139929Y-8526208D01*
X15139929Y-8526208D02*
X15149453Y-8535731D01*
X15149453Y-8535731D02*
X15158977Y-8554779D01*
X15158977Y-8554779D02*
X15168501Y-8592874D01*
X15168501Y-8592874D02*
X15168501Y-8640493D01*
X15168501Y-8640493D02*
X15158977Y-8678589D01*
X15158977Y-8678589D02*
X15149453Y-8697636D01*
X15149453Y-8697636D02*
X15139929Y-8707160D01*
X15139929Y-8707160D02*
X15120882Y-8716684D01*
X15120882Y-8716684D02*
X15101834Y-8716684D01*
X15101834Y-8716684D02*
X15082786Y-8707160D01*
X15082786Y-8707160D02*
X15073263Y-8697636D01*
X15073263Y-8697636D02*
X15063739Y-8678589D01*
X15063739Y-8678589D02*
X15054215Y-8640493D01*
X15054215Y-8640493D02*
X15054215Y-8592874D01*
X15054215Y-8592874D02*
X15063739Y-8554779D01*
X15063739Y-8554779D02*
X15073263Y-8535731D01*
X15073263Y-8535731D02*
X15082786Y-8526208D01*
X15082786Y-8526208D02*
X15101834Y-8516684D01*
X15254215Y-8697636D02*
X15263739Y-8707160D01*
X15263739Y-8707160D02*
X15254215Y-8716684D01*
X15254215Y-8716684D02*
X15244691Y-8707160D01*
X15244691Y-8707160D02*
X15254215Y-8697636D01*
X15254215Y-8697636D02*
X15254215Y-8716684D01*
X15387548Y-8516684D02*
X15406596Y-8516684D01*
X15406596Y-8516684D02*
X15425644Y-8526208D01*
X15425644Y-8526208D02*
X15435167Y-8535731D01*
X15435167Y-8535731D02*
X15444691Y-8554779D01*
X15444691Y-8554779D02*
X15454215Y-8592874D01*
X15454215Y-8592874D02*
X15454215Y-8640493D01*
X15454215Y-8640493D02*
X15444691Y-8678589D01*
X15444691Y-8678589D02*
X15435167Y-8697636D01*
X15435167Y-8697636D02*
X15425644Y-8707160D01*
X15425644Y-8707160D02*
X15406596Y-8716684D01*
X15406596Y-8716684D02*
X15387548Y-8716684D01*
X15387548Y-8716684D02*
X15368501Y-8707160D01*
X15368501Y-8707160D02*
X15358977Y-8697636D01*
X15358977Y-8697636D02*
X15349453Y-8678589D01*
X15349453Y-8678589D02*
X15339929Y-8640493D01*
X15339929Y-8640493D02*
X15339929Y-8592874D01*
X15339929Y-8592874D02*
X15349453Y-8554779D01*
X15349453Y-8554779D02*
X15358977Y-8535731D01*
X15358977Y-8535731D02*
X15368501Y-8526208D01*
X15368501Y-8526208D02*
X15387548Y-8516684D01*
X15625644Y-8583350D02*
X15625644Y-8716684D01*
X15578025Y-8507160D02*
X15530406Y-8650017D01*
X15530406Y-8650017D02*
X15654215Y-8650017D01*
X15825644Y-8516684D02*
X15730406Y-8516684D01*
X15730406Y-8516684D02*
X15720882Y-8611922D01*
X15720882Y-8611922D02*
X15730406Y-8602398D01*
X15730406Y-8602398D02*
X15749453Y-8592874D01*
X15749453Y-8592874D02*
X15797072Y-8592874D01*
X15797072Y-8592874D02*
X15816120Y-8602398D01*
X15816120Y-8602398D02*
X15825644Y-8611922D01*
X15825644Y-8611922D02*
X15835167Y-8630970D01*
X15835167Y-8630970D02*
X15835167Y-8678589D01*
X15835167Y-8678589D02*
X15825644Y-8697636D01*
X15825644Y-8697636D02*
X15816120Y-8707160D01*
X15816120Y-8707160D02*
X15797072Y-8716684D01*
X15797072Y-8716684D02*
X15749453Y-8716684D01*
X15749453Y-8716684D02*
X15730406Y-8707160D01*
X15730406Y-8707160D02*
X15720882Y-8697636D01*
X15958977Y-8516684D02*
X15978025Y-8516684D01*
X15978025Y-8516684D02*
X15997072Y-8526208D01*
X15997072Y-8526208D02*
X16006596Y-8535731D01*
X16006596Y-8535731D02*
X16016120Y-8554779D01*
X16016120Y-8554779D02*
X16025644Y-8592874D01*
X16025644Y-8592874D02*
X16025644Y-8640493D01*
X16025644Y-8640493D02*
X16016120Y-8678589D01*
X16016120Y-8678589D02*
X16006596Y-8697636D01*
X16006596Y-8697636D02*
X15997072Y-8707160D01*
X15997072Y-8707160D02*
X15978025Y-8716684D01*
X15978025Y-8716684D02*
X15958977Y-8716684D01*
X15958977Y-8716684D02*
X15939929Y-8707160D01*
X15939929Y-8707160D02*
X15930406Y-8697636D01*
X15930406Y-8697636D02*
X15920882Y-8678589D01*
X15920882Y-8678589D02*
X15911358Y-8640493D01*
X15911358Y-8640493D02*
X15911358Y-8592874D01*
X15911358Y-8592874D02*
X15920882Y-8554779D01*
X15920882Y-8554779D02*
X15930406Y-8535731D01*
X15930406Y-8535731D02*
X15939929Y-8526208D01*
X15939929Y-8526208D02*
X15958977Y-8516684D01*
X16101834Y-8516684D02*
X16101834Y-8554779D01*
X16178025Y-8516684D02*
X16178025Y-8554779D01*
X16473263Y-8792874D02*
X16463739Y-8783350D01*
X16463739Y-8783350D02*
X16444691Y-8754779D01*
X16444691Y-8754779D02*
X16435168Y-8735731D01*
X16435168Y-8735731D02*
X16425644Y-8707160D01*
X16425644Y-8707160D02*
X16416120Y-8659541D01*
X16416120Y-8659541D02*
X16416120Y-8621446D01*
X16416120Y-8621446D02*
X16425644Y-8573827D01*
X16425644Y-8573827D02*
X16435168Y-8545255D01*
X16435168Y-8545255D02*
X16444691Y-8526208D01*
X16444691Y-8526208D02*
X16463739Y-8497636D01*
X16463739Y-8497636D02*
X16473263Y-8488112D01*
X16530406Y-8516684D02*
X16654215Y-8516684D01*
X16654215Y-8516684D02*
X16587548Y-8592874D01*
X16587548Y-8592874D02*
X16616120Y-8592874D01*
X16616120Y-8592874D02*
X16635168Y-8602398D01*
X16635168Y-8602398D02*
X16644691Y-8611922D01*
X16644691Y-8611922D02*
X16654215Y-8630970D01*
X16654215Y-8630970D02*
X16654215Y-8678589D01*
X16654215Y-8678589D02*
X16644691Y-8697636D01*
X16644691Y-8697636D02*
X16635168Y-8707160D01*
X16635168Y-8707160D02*
X16616120Y-8716684D01*
X16616120Y-8716684D02*
X16558977Y-8716684D01*
X16558977Y-8716684D02*
X16539929Y-8707160D01*
X16539929Y-8707160D02*
X16530406Y-8697636D01*
X16892311Y-8716684D02*
X16892311Y-8516684D01*
X16978025Y-8716684D02*
X16978025Y-8611922D01*
X16978025Y-8611922D02*
X16968501Y-8592874D01*
X16968501Y-8592874D02*
X16949453Y-8583350D01*
X16949453Y-8583350D02*
X16920882Y-8583350D01*
X16920882Y-8583350D02*
X16901834Y-8592874D01*
X16901834Y-8592874D02*
X16892311Y-8602398D01*
X17101834Y-8716684D02*
X17082787Y-8707160D01*
X17082787Y-8707160D02*
X17073263Y-8697636D01*
X17073263Y-8697636D02*
X17063739Y-8678589D01*
X17063739Y-8678589D02*
X17063739Y-8621446D01*
X17063739Y-8621446D02*
X17073263Y-8602398D01*
X17073263Y-8602398D02*
X17082787Y-8592874D01*
X17082787Y-8592874D02*
X17101834Y-8583350D01*
X17101834Y-8583350D02*
X17130406Y-8583350D01*
X17130406Y-8583350D02*
X17149453Y-8592874D01*
X17149453Y-8592874D02*
X17158977Y-8602398D01*
X17158977Y-8602398D02*
X17168501Y-8621446D01*
X17168501Y-8621446D02*
X17168501Y-8678589D01*
X17168501Y-8678589D02*
X17158977Y-8697636D01*
X17158977Y-8697636D02*
X17149453Y-8707160D01*
X17149453Y-8707160D02*
X17130406Y-8716684D01*
X17130406Y-8716684D02*
X17101834Y-8716684D01*
X17282787Y-8716684D02*
X17263739Y-8707160D01*
X17263739Y-8707160D02*
X17254215Y-8688112D01*
X17254215Y-8688112D02*
X17254215Y-8516684D01*
X17435168Y-8707160D02*
X17416120Y-8716684D01*
X17416120Y-8716684D02*
X17378025Y-8716684D01*
X17378025Y-8716684D02*
X17358977Y-8707160D01*
X17358977Y-8707160D02*
X17349453Y-8688112D01*
X17349453Y-8688112D02*
X17349453Y-8611922D01*
X17349453Y-8611922D02*
X17358977Y-8592874D01*
X17358977Y-8592874D02*
X17378025Y-8583350D01*
X17378025Y-8583350D02*
X17416120Y-8583350D01*
X17416120Y-8583350D02*
X17435168Y-8592874D01*
X17435168Y-8592874D02*
X17444692Y-8611922D01*
X17444692Y-8611922D02*
X17444692Y-8630970D01*
X17444692Y-8630970D02*
X17349453Y-8650017D01*
X17520882Y-8707160D02*
X17539930Y-8716684D01*
X17539930Y-8716684D02*
X17578025Y-8716684D01*
X17578025Y-8716684D02*
X17597073Y-8707160D01*
X17597073Y-8707160D02*
X17606596Y-8688112D01*
X17606596Y-8688112D02*
X17606596Y-8678589D01*
X17606596Y-8678589D02*
X17597073Y-8659541D01*
X17597073Y-8659541D02*
X17578025Y-8650017D01*
X17578025Y-8650017D02*
X17549453Y-8650017D01*
X17549453Y-8650017D02*
X17530406Y-8640493D01*
X17530406Y-8640493D02*
X17520882Y-8621446D01*
X17520882Y-8621446D02*
X17520882Y-8611922D01*
X17520882Y-8611922D02*
X17530406Y-8592874D01*
X17530406Y-8592874D02*
X17549453Y-8583350D01*
X17549453Y-8583350D02*
X17578025Y-8583350D01*
X17578025Y-8583350D02*
X17597073Y-8592874D01*
X17673263Y-8792874D02*
X17682787Y-8783350D01*
X17682787Y-8783350D02*
X17701834Y-8754779D01*
X17701834Y-8754779D02*
X17711358Y-8735731D01*
X17711358Y-8735731D02*
X17720882Y-8707160D01*
X17720882Y-8707160D02*
X17730406Y-8659541D01*
X17730406Y-8659541D02*
X17730406Y-8621446D01*
X17730406Y-8621446D02*
X17720882Y-8573827D01*
X17720882Y-8573827D02*
X17711358Y-8545255D01*
X17711358Y-8545255D02*
X17701834Y-8526208D01*
X17701834Y-8526208D02*
X17682787Y-8497636D01*
X17682787Y-8497636D02*
X17673263Y-8488112D01*
M02*
