%TF.GenerationSoftware,KiCad,Pcbnew,7.0.10*%
%TF.CreationDate,2025-02-21T18:11:26-05:00*%
%TF.ProjectId,sol pcb,736f6c20-7063-4622-9e6b-696361645f70,rev?*%
%TF.SameCoordinates,Original*%
%TF.FileFunction,Drillmap*%
%TF.FilePolarity,Positive*%
%FSLAX45Y45*%
G04 Gerber Fmt 4.5, Leading zero omitted, Abs format (unit mm)*
G04 Created by KiCad (PCBNEW 7.0.10) date 2025-02-21 18:11:26*
%MOMM*%
%LPD*%
G01*
G04 APERTURE LIST*
%ADD10C,0.100000*%
%ADD11C,0.200000*%
G04 APERTURE END LIST*
D10*
X12903200Y-4089400D02*
X17805400Y-4089400D01*
X17805400Y-7188200D01*
X12903200Y-7188200D01*
X12903200Y-4089400D01*
D11*
X13158977Y-7504684D02*
X13158977Y-7304684D01*
X13158977Y-7304684D02*
X13206596Y-7304684D01*
X13206596Y-7304684D02*
X13235167Y-7314208D01*
X13235167Y-7314208D02*
X13254215Y-7333255D01*
X13254215Y-7333255D02*
X13263739Y-7352303D01*
X13263739Y-7352303D02*
X13273262Y-7390398D01*
X13273262Y-7390398D02*
X13273262Y-7418969D01*
X13273262Y-7418969D02*
X13263739Y-7457065D01*
X13263739Y-7457065D02*
X13254215Y-7476112D01*
X13254215Y-7476112D02*
X13235167Y-7495160D01*
X13235167Y-7495160D02*
X13206596Y-7504684D01*
X13206596Y-7504684D02*
X13158977Y-7504684D01*
X13358977Y-7504684D02*
X13358977Y-7371350D01*
X13358977Y-7409446D02*
X13368501Y-7390398D01*
X13368501Y-7390398D02*
X13378024Y-7380874D01*
X13378024Y-7380874D02*
X13397072Y-7371350D01*
X13397072Y-7371350D02*
X13416120Y-7371350D01*
X13482786Y-7504684D02*
X13482786Y-7371350D01*
X13482786Y-7304684D02*
X13473262Y-7314208D01*
X13473262Y-7314208D02*
X13482786Y-7323731D01*
X13482786Y-7323731D02*
X13492310Y-7314208D01*
X13492310Y-7314208D02*
X13482786Y-7304684D01*
X13482786Y-7304684D02*
X13482786Y-7323731D01*
X13606596Y-7504684D02*
X13587548Y-7495160D01*
X13587548Y-7495160D02*
X13578024Y-7476112D01*
X13578024Y-7476112D02*
X13578024Y-7304684D01*
X13711358Y-7504684D02*
X13692310Y-7495160D01*
X13692310Y-7495160D02*
X13682786Y-7476112D01*
X13682786Y-7476112D02*
X13682786Y-7304684D01*
X13939929Y-7504684D02*
X13939929Y-7304684D01*
X13939929Y-7304684D02*
X14006596Y-7447541D01*
X14006596Y-7447541D02*
X14073262Y-7304684D01*
X14073262Y-7304684D02*
X14073262Y-7504684D01*
X14254215Y-7504684D02*
X14254215Y-7399922D01*
X14254215Y-7399922D02*
X14244691Y-7380874D01*
X14244691Y-7380874D02*
X14225643Y-7371350D01*
X14225643Y-7371350D02*
X14187548Y-7371350D01*
X14187548Y-7371350D02*
X14168501Y-7380874D01*
X14254215Y-7495160D02*
X14235167Y-7504684D01*
X14235167Y-7504684D02*
X14187548Y-7504684D01*
X14187548Y-7504684D02*
X14168501Y-7495160D01*
X14168501Y-7495160D02*
X14158977Y-7476112D01*
X14158977Y-7476112D02*
X14158977Y-7457065D01*
X14158977Y-7457065D02*
X14168501Y-7438017D01*
X14168501Y-7438017D02*
X14187548Y-7428493D01*
X14187548Y-7428493D02*
X14235167Y-7428493D01*
X14235167Y-7428493D02*
X14254215Y-7418969D01*
X14349453Y-7371350D02*
X14349453Y-7571350D01*
X14349453Y-7380874D02*
X14368501Y-7371350D01*
X14368501Y-7371350D02*
X14406596Y-7371350D01*
X14406596Y-7371350D02*
X14425643Y-7380874D01*
X14425643Y-7380874D02*
X14435167Y-7390398D01*
X14435167Y-7390398D02*
X14444691Y-7409446D01*
X14444691Y-7409446D02*
X14444691Y-7466588D01*
X14444691Y-7466588D02*
X14435167Y-7485636D01*
X14435167Y-7485636D02*
X14425643Y-7495160D01*
X14425643Y-7495160D02*
X14406596Y-7504684D01*
X14406596Y-7504684D02*
X14368501Y-7504684D01*
X14368501Y-7504684D02*
X14349453Y-7495160D01*
X14530405Y-7485636D02*
X14539929Y-7495160D01*
X14539929Y-7495160D02*
X14530405Y-7504684D01*
X14530405Y-7504684D02*
X14520882Y-7495160D01*
X14520882Y-7495160D02*
X14530405Y-7485636D01*
X14530405Y-7485636D02*
X14530405Y-7504684D01*
X14530405Y-7380874D02*
X14539929Y-7390398D01*
X14539929Y-7390398D02*
X14530405Y-7399922D01*
X14530405Y-7399922D02*
X14520882Y-7390398D01*
X14520882Y-7390398D02*
X14530405Y-7380874D01*
X14530405Y-7380874D02*
X14530405Y-7399922D01*
M02*
