G04 #@! TF.GenerationSoftware,KiCad,Pcbnew,7.0.10*
G04 #@! TF.CreationDate,2025-02-21T18:10:01-05:00*
G04 #@! TF.ProjectId,sol pcb,736f6c20-7063-4622-9e6b-696361645f70,rev?*
G04 #@! TF.SameCoordinates,Original*
G04 #@! TF.FileFunction,Legend,Bot*
G04 #@! TF.FilePolarity,Positive*
%FSLAX46Y46*%
G04 Gerber Fmt 4.6, Leading zero omitted, Abs format (unit mm)*
G04 Created by KiCad (PCBNEW 7.0.10) date 2025-02-21 18:10:01*
%MOMM*%
%LPD*%
G01*
G04 APERTURE LIST*
G04 Aperture macros list*
%AMRoundRect*
0 Rectangle with rounded corners*
0 $1 Rounding radius*
0 $2 $3 $4 $5 $6 $7 $8 $9 X,Y pos of 4 corners*
0 Add a 4 corners polygon primitive as box body*
4,1,4,$2,$3,$4,$5,$6,$7,$8,$9,$2,$3,0*
0 Add four circle primitives for the rounded corners*
1,1,$1+$1,$2,$3*
1,1,$1+$1,$4,$5*
1,1,$1+$1,$6,$7*
1,1,$1+$1,$8,$9*
0 Add four rect primitives between the rounded corners*
20,1,$1+$1,$2,$3,$4,$5,0*
20,1,$1+$1,$4,$5,$6,$7,0*
20,1,$1+$1,$6,$7,$8,$9,0*
20,1,$1+$1,$8,$9,$2,$3,0*%
G04 Aperture macros list end*
%ADD10C,0.150000*%
%ADD11R,1.700000X1.700000*%
%ADD12RoundRect,0.102000X0.550000X0.550000X-0.550000X0.550000X-0.550000X-0.550000X0.550000X-0.550000X0*%
%ADD13C,1.304000*%
%ADD14C,1.600000*%
%ADD15O,1.600000X1.600000*%
%ADD16R,1.651000X1.651000*%
%ADD17C,1.651000*%
G04 APERTURE END LIST*
D10*
X161890839Y-49122200D02*
X161747982Y-49169819D01*
X161747982Y-49169819D02*
X161509887Y-49169819D01*
X161509887Y-49169819D02*
X161414649Y-49122200D01*
X161414649Y-49122200D02*
X161367030Y-49074580D01*
X161367030Y-49074580D02*
X161319411Y-48979342D01*
X161319411Y-48979342D02*
X161319411Y-48884104D01*
X161319411Y-48884104D02*
X161367030Y-48788866D01*
X161367030Y-48788866D02*
X161414649Y-48741247D01*
X161414649Y-48741247D02*
X161509887Y-48693628D01*
X161509887Y-48693628D02*
X161700363Y-48646009D01*
X161700363Y-48646009D02*
X161795601Y-48598390D01*
X161795601Y-48598390D02*
X161843220Y-48550771D01*
X161843220Y-48550771D02*
X161890839Y-48455533D01*
X161890839Y-48455533D02*
X161890839Y-48360295D01*
X161890839Y-48360295D02*
X161843220Y-48265057D01*
X161843220Y-48265057D02*
X161795601Y-48217438D01*
X161795601Y-48217438D02*
X161700363Y-48169819D01*
X161700363Y-48169819D02*
X161462268Y-48169819D01*
X161462268Y-48169819D02*
X161319411Y-48217438D01*
X160890839Y-49169819D02*
X160890839Y-48169819D01*
X160890839Y-48169819D02*
X160652744Y-48169819D01*
X160652744Y-48169819D02*
X160509887Y-48217438D01*
X160509887Y-48217438D02*
X160414649Y-48312676D01*
X160414649Y-48312676D02*
X160367030Y-48407914D01*
X160367030Y-48407914D02*
X160319411Y-48598390D01*
X160319411Y-48598390D02*
X160319411Y-48741247D01*
X160319411Y-48741247D02*
X160367030Y-48931723D01*
X160367030Y-48931723D02*
X160414649Y-49026961D01*
X160414649Y-49026961D02*
X160509887Y-49122200D01*
X160509887Y-49122200D02*
X160652744Y-49169819D01*
X160652744Y-49169819D02*
X160890839Y-49169819D01*
X159890839Y-49169819D02*
X159890839Y-48169819D01*
X159890839Y-48169819D02*
X159509887Y-48169819D01*
X159509887Y-48169819D02*
X159414649Y-48217438D01*
X159414649Y-48217438D02*
X159367030Y-48265057D01*
X159367030Y-48265057D02*
X159319411Y-48360295D01*
X159319411Y-48360295D02*
X159319411Y-48503152D01*
X159319411Y-48503152D02*
X159367030Y-48598390D01*
X159367030Y-48598390D02*
X159414649Y-48646009D01*
X159414649Y-48646009D02*
X159509887Y-48693628D01*
X159509887Y-48693628D02*
X159890839Y-48693628D01*
X158271791Y-48169819D02*
X157700363Y-48169819D01*
X157986077Y-49169819D02*
X157986077Y-48169819D01*
X156986077Y-49122200D02*
X157081315Y-49169819D01*
X157081315Y-49169819D02*
X157271791Y-49169819D01*
X157271791Y-49169819D02*
X157367029Y-49122200D01*
X157367029Y-49122200D02*
X157414648Y-49026961D01*
X157414648Y-49026961D02*
X157414648Y-48646009D01*
X157414648Y-48646009D02*
X157367029Y-48550771D01*
X157367029Y-48550771D02*
X157271791Y-48503152D01*
X157271791Y-48503152D02*
X157081315Y-48503152D01*
X157081315Y-48503152D02*
X156986077Y-48550771D01*
X156986077Y-48550771D02*
X156938458Y-48646009D01*
X156938458Y-48646009D02*
X156938458Y-48741247D01*
X156938458Y-48741247D02*
X157414648Y-48836485D01*
X156081315Y-49169819D02*
X156081315Y-48646009D01*
X156081315Y-48646009D02*
X156128934Y-48550771D01*
X156128934Y-48550771D02*
X156224172Y-48503152D01*
X156224172Y-48503152D02*
X156414648Y-48503152D01*
X156414648Y-48503152D02*
X156509886Y-48550771D01*
X156081315Y-49122200D02*
X156176553Y-49169819D01*
X156176553Y-49169819D02*
X156414648Y-49169819D01*
X156414648Y-49169819D02*
X156509886Y-49122200D01*
X156509886Y-49122200D02*
X156557505Y-49026961D01*
X156557505Y-49026961D02*
X156557505Y-48931723D01*
X156557505Y-48931723D02*
X156509886Y-48836485D01*
X156509886Y-48836485D02*
X156414648Y-48788866D01*
X156414648Y-48788866D02*
X156176553Y-48788866D01*
X156176553Y-48788866D02*
X156081315Y-48741247D01*
X155605124Y-49169819D02*
X155605124Y-48503152D01*
X155605124Y-48598390D02*
X155557505Y-48550771D01*
X155557505Y-48550771D02*
X155462267Y-48503152D01*
X155462267Y-48503152D02*
X155319410Y-48503152D01*
X155319410Y-48503152D02*
X155224172Y-48550771D01*
X155224172Y-48550771D02*
X155176553Y-48646009D01*
X155176553Y-48646009D02*
X155176553Y-49169819D01*
X155176553Y-48646009D02*
X155128934Y-48550771D01*
X155128934Y-48550771D02*
X155033696Y-48503152D01*
X155033696Y-48503152D02*
X154890839Y-48503152D01*
X154890839Y-48503152D02*
X154795600Y-48550771D01*
X154795600Y-48550771D02*
X154747981Y-48646009D01*
X154747981Y-48646009D02*
X154747981Y-49169819D01*
X153367029Y-48598390D02*
X153462267Y-48550771D01*
X153462267Y-48550771D02*
X153509886Y-48503152D01*
X153509886Y-48503152D02*
X153557505Y-48407914D01*
X153557505Y-48407914D02*
X153557505Y-48360295D01*
X153557505Y-48360295D02*
X153509886Y-48265057D01*
X153509886Y-48265057D02*
X153462267Y-48217438D01*
X153462267Y-48217438D02*
X153367029Y-48169819D01*
X153367029Y-48169819D02*
X153176553Y-48169819D01*
X153176553Y-48169819D02*
X153081315Y-48217438D01*
X153081315Y-48217438D02*
X153033696Y-48265057D01*
X153033696Y-48265057D02*
X152986077Y-48360295D01*
X152986077Y-48360295D02*
X152986077Y-48407914D01*
X152986077Y-48407914D02*
X153033696Y-48503152D01*
X153033696Y-48503152D02*
X153081315Y-48550771D01*
X153081315Y-48550771D02*
X153176553Y-48598390D01*
X153176553Y-48598390D02*
X153367029Y-48598390D01*
X153367029Y-48598390D02*
X153462267Y-48646009D01*
X153462267Y-48646009D02*
X153509886Y-48693628D01*
X153509886Y-48693628D02*
X153557505Y-48788866D01*
X153557505Y-48788866D02*
X153557505Y-48979342D01*
X153557505Y-48979342D02*
X153509886Y-49074580D01*
X153509886Y-49074580D02*
X153462267Y-49122200D01*
X153462267Y-49122200D02*
X153367029Y-49169819D01*
X153367029Y-49169819D02*
X153176553Y-49169819D01*
X153176553Y-49169819D02*
X153081315Y-49122200D01*
X153081315Y-49122200D02*
X153033696Y-49074580D01*
X153033696Y-49074580D02*
X152986077Y-48979342D01*
X152986077Y-48979342D02*
X152986077Y-48788866D01*
X152986077Y-48788866D02*
X153033696Y-48693628D01*
X153033696Y-48693628D02*
X153081315Y-48646009D01*
X153081315Y-48646009D02*
X153176553Y-48598390D01*
X151843219Y-49122200D02*
X151700362Y-49169819D01*
X151700362Y-49169819D02*
X151462267Y-49169819D01*
X151462267Y-49169819D02*
X151367029Y-49122200D01*
X151367029Y-49122200D02*
X151319410Y-49074580D01*
X151319410Y-49074580D02*
X151271791Y-48979342D01*
X151271791Y-48979342D02*
X151271791Y-48884104D01*
X151271791Y-48884104D02*
X151319410Y-48788866D01*
X151319410Y-48788866D02*
X151367029Y-48741247D01*
X151367029Y-48741247D02*
X151462267Y-48693628D01*
X151462267Y-48693628D02*
X151652743Y-48646009D01*
X151652743Y-48646009D02*
X151747981Y-48598390D01*
X151747981Y-48598390D02*
X151795600Y-48550771D01*
X151795600Y-48550771D02*
X151843219Y-48455533D01*
X151843219Y-48455533D02*
X151843219Y-48360295D01*
X151843219Y-48360295D02*
X151795600Y-48265057D01*
X151795600Y-48265057D02*
X151747981Y-48217438D01*
X151747981Y-48217438D02*
X151652743Y-48169819D01*
X151652743Y-48169819D02*
X151414648Y-48169819D01*
X151414648Y-48169819D02*
X151271791Y-48217438D01*
X150700362Y-49169819D02*
X150795600Y-49122200D01*
X150795600Y-49122200D02*
X150843219Y-49074580D01*
X150843219Y-49074580D02*
X150890838Y-48979342D01*
X150890838Y-48979342D02*
X150890838Y-48693628D01*
X150890838Y-48693628D02*
X150843219Y-48598390D01*
X150843219Y-48598390D02*
X150795600Y-48550771D01*
X150795600Y-48550771D02*
X150700362Y-48503152D01*
X150700362Y-48503152D02*
X150557505Y-48503152D01*
X150557505Y-48503152D02*
X150462267Y-48550771D01*
X150462267Y-48550771D02*
X150414648Y-48598390D01*
X150414648Y-48598390D02*
X150367029Y-48693628D01*
X150367029Y-48693628D02*
X150367029Y-48979342D01*
X150367029Y-48979342D02*
X150414648Y-49074580D01*
X150414648Y-49074580D02*
X150462267Y-49122200D01*
X150462267Y-49122200D02*
X150557505Y-49169819D01*
X150557505Y-49169819D02*
X150700362Y-49169819D01*
X149795600Y-49169819D02*
X149890838Y-49122200D01*
X149890838Y-49122200D02*
X149938457Y-49026961D01*
X149938457Y-49026961D02*
X149938457Y-48169819D01*
X149033695Y-49122200D02*
X149128933Y-49169819D01*
X149128933Y-49169819D02*
X149319409Y-49169819D01*
X149319409Y-49169819D02*
X149414647Y-49122200D01*
X149414647Y-49122200D02*
X149462266Y-49026961D01*
X149462266Y-49026961D02*
X149462266Y-48646009D01*
X149462266Y-48646009D02*
X149414647Y-48550771D01*
X149414647Y-48550771D02*
X149319409Y-48503152D01*
X149319409Y-48503152D02*
X149128933Y-48503152D01*
X149128933Y-48503152D02*
X149033695Y-48550771D01*
X149033695Y-48550771D02*
X148986076Y-48646009D01*
X148986076Y-48646009D02*
X148986076Y-48741247D01*
X148986076Y-48741247D02*
X149462266Y-48836485D01*
X148557504Y-48503152D02*
X148557504Y-49169819D01*
X148557504Y-48598390D02*
X148509885Y-48550771D01*
X148509885Y-48550771D02*
X148414647Y-48503152D01*
X148414647Y-48503152D02*
X148271790Y-48503152D01*
X148271790Y-48503152D02*
X148176552Y-48550771D01*
X148176552Y-48550771D02*
X148128933Y-48646009D01*
X148128933Y-48646009D02*
X148128933Y-49169819D01*
X147509885Y-49169819D02*
X147605123Y-49122200D01*
X147605123Y-49122200D02*
X147652742Y-49074580D01*
X147652742Y-49074580D02*
X147700361Y-48979342D01*
X147700361Y-48979342D02*
X147700361Y-48693628D01*
X147700361Y-48693628D02*
X147652742Y-48598390D01*
X147652742Y-48598390D02*
X147605123Y-48550771D01*
X147605123Y-48550771D02*
X147509885Y-48503152D01*
X147509885Y-48503152D02*
X147367028Y-48503152D01*
X147367028Y-48503152D02*
X147271790Y-48550771D01*
X147271790Y-48550771D02*
X147224171Y-48598390D01*
X147224171Y-48598390D02*
X147176552Y-48693628D01*
X147176552Y-48693628D02*
X147176552Y-48979342D01*
X147176552Y-48979342D02*
X147224171Y-49074580D01*
X147224171Y-49074580D02*
X147271790Y-49122200D01*
X147271790Y-49122200D02*
X147367028Y-49169819D01*
X147367028Y-49169819D02*
X147509885Y-49169819D01*
X146747980Y-49169819D02*
X146747980Y-48503152D01*
X146747980Y-48169819D02*
X146795599Y-48217438D01*
X146795599Y-48217438D02*
X146747980Y-48265057D01*
X146747980Y-48265057D02*
X146700361Y-48217438D01*
X146700361Y-48217438D02*
X146747980Y-48169819D01*
X146747980Y-48169819D02*
X146747980Y-48265057D01*
X145843219Y-49169819D02*
X145843219Y-48169819D01*
X145843219Y-49122200D02*
X145938457Y-49169819D01*
X145938457Y-49169819D02*
X146128933Y-49169819D01*
X146128933Y-49169819D02*
X146224171Y-49122200D01*
X146224171Y-49122200D02*
X146271790Y-49074580D01*
X146271790Y-49074580D02*
X146319409Y-48979342D01*
X146319409Y-48979342D02*
X146319409Y-48693628D01*
X146319409Y-48693628D02*
X146271790Y-48598390D01*
X146271790Y-48598390D02*
X146224171Y-48550771D01*
X146224171Y-48550771D02*
X146128933Y-48503152D01*
X146128933Y-48503152D02*
X145938457Y-48503152D01*
X145938457Y-48503152D02*
X145843219Y-48550771D01*
X144605123Y-49169819D02*
X144605123Y-48169819D01*
X144605123Y-48169819D02*
X144224171Y-48169819D01*
X144224171Y-48169819D02*
X144128933Y-48217438D01*
X144128933Y-48217438D02*
X144081314Y-48265057D01*
X144081314Y-48265057D02*
X144033695Y-48360295D01*
X144033695Y-48360295D02*
X144033695Y-48503152D01*
X144033695Y-48503152D02*
X144081314Y-48598390D01*
X144081314Y-48598390D02*
X144128933Y-48646009D01*
X144128933Y-48646009D02*
X144224171Y-48693628D01*
X144224171Y-48693628D02*
X144605123Y-48693628D01*
X143033695Y-49074580D02*
X143081314Y-49122200D01*
X143081314Y-49122200D02*
X143224171Y-49169819D01*
X143224171Y-49169819D02*
X143319409Y-49169819D01*
X143319409Y-49169819D02*
X143462266Y-49122200D01*
X143462266Y-49122200D02*
X143557504Y-49026961D01*
X143557504Y-49026961D02*
X143605123Y-48931723D01*
X143605123Y-48931723D02*
X143652742Y-48741247D01*
X143652742Y-48741247D02*
X143652742Y-48598390D01*
X143652742Y-48598390D02*
X143605123Y-48407914D01*
X143605123Y-48407914D02*
X143557504Y-48312676D01*
X143557504Y-48312676D02*
X143462266Y-48217438D01*
X143462266Y-48217438D02*
X143319409Y-48169819D01*
X143319409Y-48169819D02*
X143224171Y-48169819D01*
X143224171Y-48169819D02*
X143081314Y-48217438D01*
X143081314Y-48217438D02*
X143033695Y-48265057D01*
X142271790Y-48646009D02*
X142128933Y-48693628D01*
X142128933Y-48693628D02*
X142081314Y-48741247D01*
X142081314Y-48741247D02*
X142033695Y-48836485D01*
X142033695Y-48836485D02*
X142033695Y-48979342D01*
X142033695Y-48979342D02*
X142081314Y-49074580D01*
X142081314Y-49074580D02*
X142128933Y-49122200D01*
X142128933Y-49122200D02*
X142224171Y-49169819D01*
X142224171Y-49169819D02*
X142605123Y-49169819D01*
X142605123Y-49169819D02*
X142605123Y-48169819D01*
X142605123Y-48169819D02*
X142271790Y-48169819D01*
X142271790Y-48169819D02*
X142176552Y-48217438D01*
X142176552Y-48217438D02*
X142128933Y-48265057D01*
X142128933Y-48265057D02*
X142081314Y-48360295D01*
X142081314Y-48360295D02*
X142081314Y-48455533D01*
X142081314Y-48455533D02*
X142128933Y-48550771D01*
X142128933Y-48550771D02*
X142176552Y-48598390D01*
X142176552Y-48598390D02*
X142271790Y-48646009D01*
X142271790Y-48646009D02*
X142605123Y-48646009D01*
%LPC*%
D11*
X167640000Y-51054000D03*
X156210000Y-67564000D03*
X167894000Y-58166000D03*
D12*
X158690000Y-45212000D03*
D13*
X151190000Y-45212000D03*
D11*
X167894000Y-64770000D03*
X143510000Y-67564000D03*
D14*
X134620000Y-61722000D03*
D15*
X134620000Y-54102000D03*
D11*
X141224000Y-44704000D03*
D16*
X152476200Y-54013100D03*
D17*
X152476200Y-56553100D03*
X152476200Y-59093100D03*
D11*
X134620000Y-67564000D03*
X167640000Y-45466000D03*
%LPD*%
M02*
