%TF.GenerationSoftware,KiCad,Pcbnew,7.0.10*%
%TF.CreationDate,2025-02-08T16:12:34-05:00*%
%TF.ProjectId,pcb_v2,7063625f-7632-42e6-9b69-6361645f7063,rev?*%
%TF.SameCoordinates,Original*%
%TF.FileFunction,Drillmap*%
%TF.FilePolarity,Positive*%
%FSLAX45Y45*%
G04 Gerber Fmt 4.5, Leading zero omitted, Abs format (unit mm)*
G04 Created by KiCad (PCBNEW 7.0.10) date 2025-02-08 16:12:34*
%MOMM*%
%LPD*%
G01*
G04 APERTURE LIST*
%ADD10C,0.100000*%
%ADD11C,0.200000*%
%ADD12C,0.110000*%
G04 APERTURE END LIST*
D10*
X11355000Y-7679000D02*
X16755000Y-7679000D01*
X16755000Y-11104000D01*
X11355000Y-11104000D01*
X11355000Y-7679000D01*
D11*
D12*
X16004000Y-9274000D02*
X16114000Y-9384000D01*
X16114000Y-9274000D02*
X16004000Y-9384000D01*
X16486000Y-8378000D02*
X16596000Y-8488000D01*
X16596000Y-8378000D02*
X16486000Y-8488000D01*
D11*
X11610777Y-11420484D02*
X11610777Y-11220484D01*
X11610777Y-11220484D02*
X11658396Y-11220484D01*
X11658396Y-11220484D02*
X11686967Y-11230008D01*
X11686967Y-11230008D02*
X11706015Y-11249055D01*
X11706015Y-11249055D02*
X11715539Y-11268103D01*
X11715539Y-11268103D02*
X11725062Y-11306198D01*
X11725062Y-11306198D02*
X11725062Y-11334769D01*
X11725062Y-11334769D02*
X11715539Y-11372865D01*
X11715539Y-11372865D02*
X11706015Y-11391912D01*
X11706015Y-11391912D02*
X11686967Y-11410960D01*
X11686967Y-11410960D02*
X11658396Y-11420484D01*
X11658396Y-11420484D02*
X11610777Y-11420484D01*
X11810777Y-11420484D02*
X11810777Y-11287150D01*
X11810777Y-11325246D02*
X11820301Y-11306198D01*
X11820301Y-11306198D02*
X11829824Y-11296674D01*
X11829824Y-11296674D02*
X11848872Y-11287150D01*
X11848872Y-11287150D02*
X11867920Y-11287150D01*
X11934586Y-11420484D02*
X11934586Y-11287150D01*
X11934586Y-11220484D02*
X11925062Y-11230008D01*
X11925062Y-11230008D02*
X11934586Y-11239531D01*
X11934586Y-11239531D02*
X11944110Y-11230008D01*
X11944110Y-11230008D02*
X11934586Y-11220484D01*
X11934586Y-11220484D02*
X11934586Y-11239531D01*
X12058396Y-11420484D02*
X12039348Y-11410960D01*
X12039348Y-11410960D02*
X12029824Y-11391912D01*
X12029824Y-11391912D02*
X12029824Y-11220484D01*
X12163158Y-11420484D02*
X12144110Y-11410960D01*
X12144110Y-11410960D02*
X12134586Y-11391912D01*
X12134586Y-11391912D02*
X12134586Y-11220484D01*
X12391729Y-11420484D02*
X12391729Y-11220484D01*
X12391729Y-11220484D02*
X12458396Y-11363341D01*
X12458396Y-11363341D02*
X12525062Y-11220484D01*
X12525062Y-11220484D02*
X12525062Y-11420484D01*
X12706015Y-11420484D02*
X12706015Y-11315722D01*
X12706015Y-11315722D02*
X12696491Y-11296674D01*
X12696491Y-11296674D02*
X12677443Y-11287150D01*
X12677443Y-11287150D02*
X12639348Y-11287150D01*
X12639348Y-11287150D02*
X12620301Y-11296674D01*
X12706015Y-11410960D02*
X12686967Y-11420484D01*
X12686967Y-11420484D02*
X12639348Y-11420484D01*
X12639348Y-11420484D02*
X12620301Y-11410960D01*
X12620301Y-11410960D02*
X12610777Y-11391912D01*
X12610777Y-11391912D02*
X12610777Y-11372865D01*
X12610777Y-11372865D02*
X12620301Y-11353817D01*
X12620301Y-11353817D02*
X12639348Y-11344293D01*
X12639348Y-11344293D02*
X12686967Y-11344293D01*
X12686967Y-11344293D02*
X12706015Y-11334769D01*
X12801253Y-11287150D02*
X12801253Y-11487150D01*
X12801253Y-11296674D02*
X12820301Y-11287150D01*
X12820301Y-11287150D02*
X12858396Y-11287150D01*
X12858396Y-11287150D02*
X12877443Y-11296674D01*
X12877443Y-11296674D02*
X12886967Y-11306198D01*
X12886967Y-11306198D02*
X12896491Y-11325246D01*
X12896491Y-11325246D02*
X12896491Y-11382388D01*
X12896491Y-11382388D02*
X12886967Y-11401436D01*
X12886967Y-11401436D02*
X12877443Y-11410960D01*
X12877443Y-11410960D02*
X12858396Y-11420484D01*
X12858396Y-11420484D02*
X12820301Y-11420484D01*
X12820301Y-11420484D02*
X12801253Y-11410960D01*
X12982205Y-11401436D02*
X12991729Y-11410960D01*
X12991729Y-11410960D02*
X12982205Y-11420484D01*
X12982205Y-11420484D02*
X12972682Y-11410960D01*
X12972682Y-11410960D02*
X12982205Y-11401436D01*
X12982205Y-11401436D02*
X12982205Y-11420484D01*
X12982205Y-11296674D02*
X12991729Y-11306198D01*
X12991729Y-11306198D02*
X12982205Y-11315722D01*
X12982205Y-11315722D02*
X12972682Y-11306198D01*
X12972682Y-11306198D02*
X12982205Y-11296674D01*
X12982205Y-11296674D02*
X12982205Y-11315722D01*
D12*
X11240000Y-11694000D02*
X11350000Y-11804000D01*
X11350000Y-11694000D02*
X11240000Y-11804000D01*
D11*
X11715539Y-11840484D02*
X11601253Y-11840484D01*
X11658396Y-11840484D02*
X11658396Y-11640484D01*
X11658396Y-11640484D02*
X11639348Y-11669055D01*
X11639348Y-11669055D02*
X11620301Y-11688103D01*
X11620301Y-11688103D02*
X11601253Y-11697627D01*
X11801253Y-11821436D02*
X11810777Y-11830960D01*
X11810777Y-11830960D02*
X11801253Y-11840484D01*
X11801253Y-11840484D02*
X11791729Y-11830960D01*
X11791729Y-11830960D02*
X11801253Y-11821436D01*
X11801253Y-11821436D02*
X11801253Y-11840484D01*
X12001253Y-11840484D02*
X11886967Y-11840484D01*
X11944110Y-11840484D02*
X11944110Y-11640484D01*
X11944110Y-11640484D02*
X11925062Y-11669055D01*
X11925062Y-11669055D02*
X11906015Y-11688103D01*
X11906015Y-11688103D02*
X11886967Y-11697627D01*
X12125062Y-11640484D02*
X12144110Y-11640484D01*
X12144110Y-11640484D02*
X12163158Y-11650008D01*
X12163158Y-11650008D02*
X12172682Y-11659531D01*
X12172682Y-11659531D02*
X12182205Y-11678579D01*
X12182205Y-11678579D02*
X12191729Y-11716674D01*
X12191729Y-11716674D02*
X12191729Y-11764293D01*
X12191729Y-11764293D02*
X12182205Y-11802388D01*
X12182205Y-11802388D02*
X12172682Y-11821436D01*
X12172682Y-11821436D02*
X12163158Y-11830960D01*
X12163158Y-11830960D02*
X12144110Y-11840484D01*
X12144110Y-11840484D02*
X12125062Y-11840484D01*
X12125062Y-11840484D02*
X12106015Y-11830960D01*
X12106015Y-11830960D02*
X12096491Y-11821436D01*
X12096491Y-11821436D02*
X12086967Y-11802388D01*
X12086967Y-11802388D02*
X12077443Y-11764293D01*
X12077443Y-11764293D02*
X12077443Y-11716674D01*
X12077443Y-11716674D02*
X12086967Y-11678579D01*
X12086967Y-11678579D02*
X12096491Y-11659531D01*
X12096491Y-11659531D02*
X12106015Y-11650008D01*
X12106015Y-11650008D02*
X12125062Y-11640484D01*
X12315539Y-11640484D02*
X12334586Y-11640484D01*
X12334586Y-11640484D02*
X12353634Y-11650008D01*
X12353634Y-11650008D02*
X12363158Y-11659531D01*
X12363158Y-11659531D02*
X12372682Y-11678579D01*
X12372682Y-11678579D02*
X12382205Y-11716674D01*
X12382205Y-11716674D02*
X12382205Y-11764293D01*
X12382205Y-11764293D02*
X12372682Y-11802388D01*
X12372682Y-11802388D02*
X12363158Y-11821436D01*
X12363158Y-11821436D02*
X12353634Y-11830960D01*
X12353634Y-11830960D02*
X12334586Y-11840484D01*
X12334586Y-11840484D02*
X12315539Y-11840484D01*
X12315539Y-11840484D02*
X12296491Y-11830960D01*
X12296491Y-11830960D02*
X12286967Y-11821436D01*
X12286967Y-11821436D02*
X12277443Y-11802388D01*
X12277443Y-11802388D02*
X12267920Y-11764293D01*
X12267920Y-11764293D02*
X12267920Y-11716674D01*
X12267920Y-11716674D02*
X12277443Y-11678579D01*
X12277443Y-11678579D02*
X12286967Y-11659531D01*
X12286967Y-11659531D02*
X12296491Y-11650008D01*
X12296491Y-11650008D02*
X12315539Y-11640484D01*
X12467920Y-11840484D02*
X12467920Y-11707150D01*
X12467920Y-11726198D02*
X12477443Y-11716674D01*
X12477443Y-11716674D02*
X12496491Y-11707150D01*
X12496491Y-11707150D02*
X12525063Y-11707150D01*
X12525063Y-11707150D02*
X12544110Y-11716674D01*
X12544110Y-11716674D02*
X12553634Y-11735722D01*
X12553634Y-11735722D02*
X12553634Y-11840484D01*
X12553634Y-11735722D02*
X12563158Y-11716674D01*
X12563158Y-11716674D02*
X12582205Y-11707150D01*
X12582205Y-11707150D02*
X12610777Y-11707150D01*
X12610777Y-11707150D02*
X12629824Y-11716674D01*
X12629824Y-11716674D02*
X12639348Y-11735722D01*
X12639348Y-11735722D02*
X12639348Y-11840484D01*
X12734586Y-11840484D02*
X12734586Y-11707150D01*
X12734586Y-11726198D02*
X12744110Y-11716674D01*
X12744110Y-11716674D02*
X12763158Y-11707150D01*
X12763158Y-11707150D02*
X12791729Y-11707150D01*
X12791729Y-11707150D02*
X12810777Y-11716674D01*
X12810777Y-11716674D02*
X12820301Y-11735722D01*
X12820301Y-11735722D02*
X12820301Y-11840484D01*
X12820301Y-11735722D02*
X12829824Y-11716674D01*
X12829824Y-11716674D02*
X12848872Y-11707150D01*
X12848872Y-11707150D02*
X12877443Y-11707150D01*
X12877443Y-11707150D02*
X12896491Y-11716674D01*
X12896491Y-11716674D02*
X12906015Y-11735722D01*
X12906015Y-11735722D02*
X12906015Y-11840484D01*
X13296491Y-11630960D02*
X13125063Y-11888103D01*
X13553634Y-11640484D02*
X13572682Y-11640484D01*
X13572682Y-11640484D02*
X13591729Y-11650008D01*
X13591729Y-11650008D02*
X13601253Y-11659531D01*
X13601253Y-11659531D02*
X13610777Y-11678579D01*
X13610777Y-11678579D02*
X13620301Y-11716674D01*
X13620301Y-11716674D02*
X13620301Y-11764293D01*
X13620301Y-11764293D02*
X13610777Y-11802388D01*
X13610777Y-11802388D02*
X13601253Y-11821436D01*
X13601253Y-11821436D02*
X13591729Y-11830960D01*
X13591729Y-11830960D02*
X13572682Y-11840484D01*
X13572682Y-11840484D02*
X13553634Y-11840484D01*
X13553634Y-11840484D02*
X13534586Y-11830960D01*
X13534586Y-11830960D02*
X13525063Y-11821436D01*
X13525063Y-11821436D02*
X13515539Y-11802388D01*
X13515539Y-11802388D02*
X13506015Y-11764293D01*
X13506015Y-11764293D02*
X13506015Y-11716674D01*
X13506015Y-11716674D02*
X13515539Y-11678579D01*
X13515539Y-11678579D02*
X13525063Y-11659531D01*
X13525063Y-11659531D02*
X13534586Y-11650008D01*
X13534586Y-11650008D02*
X13553634Y-11640484D01*
X13706015Y-11821436D02*
X13715539Y-11830960D01*
X13715539Y-11830960D02*
X13706015Y-11840484D01*
X13706015Y-11840484D02*
X13696491Y-11830960D01*
X13696491Y-11830960D02*
X13706015Y-11821436D01*
X13706015Y-11821436D02*
X13706015Y-11840484D01*
X13839348Y-11640484D02*
X13858396Y-11640484D01*
X13858396Y-11640484D02*
X13877444Y-11650008D01*
X13877444Y-11650008D02*
X13886967Y-11659531D01*
X13886967Y-11659531D02*
X13896491Y-11678579D01*
X13896491Y-11678579D02*
X13906015Y-11716674D01*
X13906015Y-11716674D02*
X13906015Y-11764293D01*
X13906015Y-11764293D02*
X13896491Y-11802388D01*
X13896491Y-11802388D02*
X13886967Y-11821436D01*
X13886967Y-11821436D02*
X13877444Y-11830960D01*
X13877444Y-11830960D02*
X13858396Y-11840484D01*
X13858396Y-11840484D02*
X13839348Y-11840484D01*
X13839348Y-11840484D02*
X13820301Y-11830960D01*
X13820301Y-11830960D02*
X13810777Y-11821436D01*
X13810777Y-11821436D02*
X13801253Y-11802388D01*
X13801253Y-11802388D02*
X13791729Y-11764293D01*
X13791729Y-11764293D02*
X13791729Y-11716674D01*
X13791729Y-11716674D02*
X13801253Y-11678579D01*
X13801253Y-11678579D02*
X13810777Y-11659531D01*
X13810777Y-11659531D02*
X13820301Y-11650008D01*
X13820301Y-11650008D02*
X13839348Y-11640484D01*
X14077444Y-11707150D02*
X14077444Y-11840484D01*
X14029825Y-11630960D02*
X13982206Y-11773817D01*
X13982206Y-11773817D02*
X14106015Y-11773817D01*
X14163158Y-11640484D02*
X14286967Y-11640484D01*
X14286967Y-11640484D02*
X14220301Y-11716674D01*
X14220301Y-11716674D02*
X14248872Y-11716674D01*
X14248872Y-11716674D02*
X14267920Y-11726198D01*
X14267920Y-11726198D02*
X14277444Y-11735722D01*
X14277444Y-11735722D02*
X14286967Y-11754769D01*
X14286967Y-11754769D02*
X14286967Y-11802388D01*
X14286967Y-11802388D02*
X14277444Y-11821436D01*
X14277444Y-11821436D02*
X14267920Y-11830960D01*
X14267920Y-11830960D02*
X14248872Y-11840484D01*
X14248872Y-11840484D02*
X14191729Y-11840484D01*
X14191729Y-11840484D02*
X14172682Y-11830960D01*
X14172682Y-11830960D02*
X14163158Y-11821436D01*
X14353634Y-11640484D02*
X14477444Y-11640484D01*
X14477444Y-11640484D02*
X14410777Y-11716674D01*
X14410777Y-11716674D02*
X14439348Y-11716674D01*
X14439348Y-11716674D02*
X14458396Y-11726198D01*
X14458396Y-11726198D02*
X14467920Y-11735722D01*
X14467920Y-11735722D02*
X14477444Y-11754769D01*
X14477444Y-11754769D02*
X14477444Y-11802388D01*
X14477444Y-11802388D02*
X14467920Y-11821436D01*
X14467920Y-11821436D02*
X14458396Y-11830960D01*
X14458396Y-11830960D02*
X14439348Y-11840484D01*
X14439348Y-11840484D02*
X14382206Y-11840484D01*
X14382206Y-11840484D02*
X14363158Y-11830960D01*
X14363158Y-11830960D02*
X14353634Y-11821436D01*
X14553634Y-11640484D02*
X14553634Y-11678579D01*
X14629825Y-11640484D02*
X14629825Y-11678579D01*
X14925063Y-11916674D02*
X14915539Y-11907150D01*
X14915539Y-11907150D02*
X14896491Y-11878579D01*
X14896491Y-11878579D02*
X14886968Y-11859531D01*
X14886968Y-11859531D02*
X14877444Y-11830960D01*
X14877444Y-11830960D02*
X14867920Y-11783341D01*
X14867920Y-11783341D02*
X14867920Y-11745246D01*
X14867920Y-11745246D02*
X14877444Y-11697627D01*
X14877444Y-11697627D02*
X14886968Y-11669055D01*
X14886968Y-11669055D02*
X14896491Y-11650008D01*
X14896491Y-11650008D02*
X14915539Y-11621436D01*
X14915539Y-11621436D02*
X14925063Y-11611912D01*
X14991729Y-11659531D02*
X15001253Y-11650008D01*
X15001253Y-11650008D02*
X15020301Y-11640484D01*
X15020301Y-11640484D02*
X15067920Y-11640484D01*
X15067920Y-11640484D02*
X15086968Y-11650008D01*
X15086968Y-11650008D02*
X15096491Y-11659531D01*
X15096491Y-11659531D02*
X15106015Y-11678579D01*
X15106015Y-11678579D02*
X15106015Y-11697627D01*
X15106015Y-11697627D02*
X15096491Y-11726198D01*
X15096491Y-11726198D02*
X14982206Y-11840484D01*
X14982206Y-11840484D02*
X15106015Y-11840484D01*
X15344110Y-11840484D02*
X15344110Y-11640484D01*
X15429825Y-11840484D02*
X15429825Y-11735722D01*
X15429825Y-11735722D02*
X15420301Y-11716674D01*
X15420301Y-11716674D02*
X15401253Y-11707150D01*
X15401253Y-11707150D02*
X15372682Y-11707150D01*
X15372682Y-11707150D02*
X15353634Y-11716674D01*
X15353634Y-11716674D02*
X15344110Y-11726198D01*
X15553634Y-11840484D02*
X15534587Y-11830960D01*
X15534587Y-11830960D02*
X15525063Y-11821436D01*
X15525063Y-11821436D02*
X15515539Y-11802388D01*
X15515539Y-11802388D02*
X15515539Y-11745246D01*
X15515539Y-11745246D02*
X15525063Y-11726198D01*
X15525063Y-11726198D02*
X15534587Y-11716674D01*
X15534587Y-11716674D02*
X15553634Y-11707150D01*
X15553634Y-11707150D02*
X15582206Y-11707150D01*
X15582206Y-11707150D02*
X15601253Y-11716674D01*
X15601253Y-11716674D02*
X15610777Y-11726198D01*
X15610777Y-11726198D02*
X15620301Y-11745246D01*
X15620301Y-11745246D02*
X15620301Y-11802388D01*
X15620301Y-11802388D02*
X15610777Y-11821436D01*
X15610777Y-11821436D02*
X15601253Y-11830960D01*
X15601253Y-11830960D02*
X15582206Y-11840484D01*
X15582206Y-11840484D02*
X15553634Y-11840484D01*
X15734587Y-11840484D02*
X15715539Y-11830960D01*
X15715539Y-11830960D02*
X15706015Y-11811912D01*
X15706015Y-11811912D02*
X15706015Y-11640484D01*
X15886968Y-11830960D02*
X15867920Y-11840484D01*
X15867920Y-11840484D02*
X15829825Y-11840484D01*
X15829825Y-11840484D02*
X15810777Y-11830960D01*
X15810777Y-11830960D02*
X15801253Y-11811912D01*
X15801253Y-11811912D02*
X15801253Y-11735722D01*
X15801253Y-11735722D02*
X15810777Y-11716674D01*
X15810777Y-11716674D02*
X15829825Y-11707150D01*
X15829825Y-11707150D02*
X15867920Y-11707150D01*
X15867920Y-11707150D02*
X15886968Y-11716674D01*
X15886968Y-11716674D02*
X15896491Y-11735722D01*
X15896491Y-11735722D02*
X15896491Y-11754769D01*
X15896491Y-11754769D02*
X15801253Y-11773817D01*
X15972682Y-11830960D02*
X15991730Y-11840484D01*
X15991730Y-11840484D02*
X16029825Y-11840484D01*
X16029825Y-11840484D02*
X16048872Y-11830960D01*
X16048872Y-11830960D02*
X16058396Y-11811912D01*
X16058396Y-11811912D02*
X16058396Y-11802388D01*
X16058396Y-11802388D02*
X16048872Y-11783341D01*
X16048872Y-11783341D02*
X16029825Y-11773817D01*
X16029825Y-11773817D02*
X16001253Y-11773817D01*
X16001253Y-11773817D02*
X15982206Y-11764293D01*
X15982206Y-11764293D02*
X15972682Y-11745246D01*
X15972682Y-11745246D02*
X15972682Y-11735722D01*
X15972682Y-11735722D02*
X15982206Y-11716674D01*
X15982206Y-11716674D02*
X16001253Y-11707150D01*
X16001253Y-11707150D02*
X16029825Y-11707150D01*
X16029825Y-11707150D02*
X16048872Y-11716674D01*
X16125063Y-11916674D02*
X16134587Y-11907150D01*
X16134587Y-11907150D02*
X16153634Y-11878579D01*
X16153634Y-11878579D02*
X16163158Y-11859531D01*
X16163158Y-11859531D02*
X16172682Y-11830960D01*
X16172682Y-11830960D02*
X16182206Y-11783341D01*
X16182206Y-11783341D02*
X16182206Y-11745246D01*
X16182206Y-11745246D02*
X16172682Y-11697627D01*
X16172682Y-11697627D02*
X16163158Y-11669055D01*
X16163158Y-11669055D02*
X16153634Y-11650008D01*
X16153634Y-11650008D02*
X16134587Y-11621436D01*
X16134587Y-11621436D02*
X16125063Y-11611912D01*
X16486968Y-11916674D02*
X16477444Y-11907150D01*
X16477444Y-11907150D02*
X16458396Y-11878579D01*
X16458396Y-11878579D02*
X16448872Y-11859531D01*
X16448872Y-11859531D02*
X16439349Y-11830960D01*
X16439349Y-11830960D02*
X16429825Y-11783341D01*
X16429825Y-11783341D02*
X16429825Y-11745246D01*
X16429825Y-11745246D02*
X16439349Y-11697627D01*
X16439349Y-11697627D02*
X16448872Y-11669055D01*
X16448872Y-11669055D02*
X16458396Y-11650008D01*
X16458396Y-11650008D02*
X16477444Y-11621436D01*
X16477444Y-11621436D02*
X16486968Y-11611912D01*
X16563158Y-11707150D02*
X16563158Y-11840484D01*
X16563158Y-11726198D02*
X16572682Y-11716674D01*
X16572682Y-11716674D02*
X16591730Y-11707150D01*
X16591730Y-11707150D02*
X16620301Y-11707150D01*
X16620301Y-11707150D02*
X16639349Y-11716674D01*
X16639349Y-11716674D02*
X16648872Y-11735722D01*
X16648872Y-11735722D02*
X16648872Y-11840484D01*
X16772682Y-11840484D02*
X16753634Y-11830960D01*
X16753634Y-11830960D02*
X16744111Y-11821436D01*
X16744111Y-11821436D02*
X16734587Y-11802388D01*
X16734587Y-11802388D02*
X16734587Y-11745246D01*
X16734587Y-11745246D02*
X16744111Y-11726198D01*
X16744111Y-11726198D02*
X16753634Y-11716674D01*
X16753634Y-11716674D02*
X16772682Y-11707150D01*
X16772682Y-11707150D02*
X16801254Y-11707150D01*
X16801254Y-11707150D02*
X16820301Y-11716674D01*
X16820301Y-11716674D02*
X16829825Y-11726198D01*
X16829825Y-11726198D02*
X16839349Y-11745246D01*
X16839349Y-11745246D02*
X16839349Y-11802388D01*
X16839349Y-11802388D02*
X16829825Y-11821436D01*
X16829825Y-11821436D02*
X16820301Y-11830960D01*
X16820301Y-11830960D02*
X16801254Y-11840484D01*
X16801254Y-11840484D02*
X16772682Y-11840484D01*
X16896492Y-11707150D02*
X16972682Y-11707150D01*
X16925063Y-11640484D02*
X16925063Y-11811912D01*
X16925063Y-11811912D02*
X16934587Y-11830960D01*
X16934587Y-11830960D02*
X16953634Y-11840484D01*
X16953634Y-11840484D02*
X16972682Y-11840484D01*
X17191730Y-11707150D02*
X17191730Y-11907150D01*
X17191730Y-11716674D02*
X17210777Y-11707150D01*
X17210777Y-11707150D02*
X17248873Y-11707150D01*
X17248873Y-11707150D02*
X17267920Y-11716674D01*
X17267920Y-11716674D02*
X17277444Y-11726198D01*
X17277444Y-11726198D02*
X17286968Y-11745246D01*
X17286968Y-11745246D02*
X17286968Y-11802388D01*
X17286968Y-11802388D02*
X17277444Y-11821436D01*
X17277444Y-11821436D02*
X17267920Y-11830960D01*
X17267920Y-11830960D02*
X17248873Y-11840484D01*
X17248873Y-11840484D02*
X17210777Y-11840484D01*
X17210777Y-11840484D02*
X17191730Y-11830960D01*
X17401254Y-11840484D02*
X17382206Y-11830960D01*
X17382206Y-11830960D02*
X17372682Y-11811912D01*
X17372682Y-11811912D02*
X17372682Y-11640484D01*
X17563158Y-11840484D02*
X17563158Y-11735722D01*
X17563158Y-11735722D02*
X17553635Y-11716674D01*
X17553635Y-11716674D02*
X17534587Y-11707150D01*
X17534587Y-11707150D02*
X17496492Y-11707150D01*
X17496492Y-11707150D02*
X17477444Y-11716674D01*
X17563158Y-11830960D02*
X17544111Y-11840484D01*
X17544111Y-11840484D02*
X17496492Y-11840484D01*
X17496492Y-11840484D02*
X17477444Y-11830960D01*
X17477444Y-11830960D02*
X17467920Y-11811912D01*
X17467920Y-11811912D02*
X17467920Y-11792865D01*
X17467920Y-11792865D02*
X17477444Y-11773817D01*
X17477444Y-11773817D02*
X17496492Y-11764293D01*
X17496492Y-11764293D02*
X17544111Y-11764293D01*
X17544111Y-11764293D02*
X17563158Y-11754769D01*
X17629825Y-11707150D02*
X17706015Y-11707150D01*
X17658396Y-11640484D02*
X17658396Y-11811912D01*
X17658396Y-11811912D02*
X17667920Y-11830960D01*
X17667920Y-11830960D02*
X17686968Y-11840484D01*
X17686968Y-11840484D02*
X17706015Y-11840484D01*
X17848873Y-11830960D02*
X17829825Y-11840484D01*
X17829825Y-11840484D02*
X17791730Y-11840484D01*
X17791730Y-11840484D02*
X17772682Y-11830960D01*
X17772682Y-11830960D02*
X17763158Y-11811912D01*
X17763158Y-11811912D02*
X17763158Y-11735722D01*
X17763158Y-11735722D02*
X17772682Y-11716674D01*
X17772682Y-11716674D02*
X17791730Y-11707150D01*
X17791730Y-11707150D02*
X17829825Y-11707150D01*
X17829825Y-11707150D02*
X17848873Y-11716674D01*
X17848873Y-11716674D02*
X17858396Y-11735722D01*
X17858396Y-11735722D02*
X17858396Y-11754769D01*
X17858396Y-11754769D02*
X17763158Y-11773817D01*
X18029825Y-11840484D02*
X18029825Y-11640484D01*
X18029825Y-11830960D02*
X18010777Y-11840484D01*
X18010777Y-11840484D02*
X17972682Y-11840484D01*
X17972682Y-11840484D02*
X17953635Y-11830960D01*
X17953635Y-11830960D02*
X17944111Y-11821436D01*
X17944111Y-11821436D02*
X17934587Y-11802388D01*
X17934587Y-11802388D02*
X17934587Y-11745246D01*
X17934587Y-11745246D02*
X17944111Y-11726198D01*
X17944111Y-11726198D02*
X17953635Y-11716674D01*
X17953635Y-11716674D02*
X17972682Y-11707150D01*
X17972682Y-11707150D02*
X18010777Y-11707150D01*
X18010777Y-11707150D02*
X18029825Y-11716674D01*
X18106016Y-11916674D02*
X18115539Y-11907150D01*
X18115539Y-11907150D02*
X18134587Y-11878579D01*
X18134587Y-11878579D02*
X18144111Y-11859531D01*
X18144111Y-11859531D02*
X18153635Y-11830960D01*
X18153635Y-11830960D02*
X18163158Y-11783341D01*
X18163158Y-11783341D02*
X18163158Y-11745246D01*
X18163158Y-11745246D02*
X18153635Y-11697627D01*
X18153635Y-11697627D02*
X18144111Y-11669055D01*
X18144111Y-11669055D02*
X18134587Y-11650008D01*
X18134587Y-11650008D02*
X18115539Y-11621436D01*
X18115539Y-11621436D02*
X18106016Y-11611912D01*
M02*
